<?xml version="1.0" encoding="utf-8"?>
<!-- Generator: Adobe Illustrator 16.0.0, SVG Export Plug-In . SVG Version: 6.00 Build 0)  -->
<!DOCTYPE svg PUBLIC "-//W3C//DTD SVG 1.1//EN" "http://www.w3.org/Graphics/SVG/1.1/DTD/svg11.dtd">
<svg version="1.1" id="Layer_1" xmlns="http://www.w3.org/2000/svg" xmlns:xlink="http://www.w3.org/1999/xlink" x="0px" y="0px"
	 width="396.568px" height="41px" viewBox="0 0 396.568 41" enable-background="new 0 0 396.568 41" xml:space="preserve">
<g>
	<g>
		<polygon id="XMLID_30_" fill="#F9A61C" points="0.034,24.484 13.848,0.56 27.66,24.484 		"/>
		<polygon id="XMLID_29_" fill="#0CAB53" points="3.287,24.484 17.098,0.56 30.909,24.484 		"/>
		<g>
			<polygon id="XMLID_28_" fill="#FFFFFF" points="36.527,3.355 42.146,3.355 42.146,11.406 48.797,11.406 48.797,3.355 
				54.414,3.355 54.414,24.484 48.797,24.484 48.797,15.418 42.146,15.418 42.146,24.484 36.527,24.484 			"/>
			<polygon id="XMLID_27_" fill="#FFFFFF" points="64.13,16.506 56.324,3.355 62.81,3.355 66.96,11.804 71.056,3.355 77.532,3.355 
				69.786,16.506 69.786,24.484 64.13,24.484 			"/>
			<path id="XMLID_26_" fill="#FFFFFF" d="M97.789,16.447c0,5.806-3.741,8.417-9.24,8.417c-5.529,0-9.264-2.612-9.264-8.417V3.355
				h5.621v12.141c0,2.805,0.761,5.173,3.644,5.173c2.856,0,3.615-2.368,3.615-5.173V3.355h5.625V16.447z"/>
			<polygon id="XMLID_25_" fill="#FFFFFF" points="101.529,3.355 108.694,3.355 115.837,17.687 115.898,17.687 115.802,3.355 
				120.968,3.355 120.968,24.484 113.982,24.484 106.566,10.047 106.512,10.047 106.691,24.484 101.529,24.484 			"/>
			<path fill="#FFFFFF" d="M130.75,7.541h2.165c4.129,0,6.584,2.19,6.584,6.346c0,4.225-2.363,6.417-6.584,6.417h-2.165V7.541
				 M125.104,24.484h7.685c7.228,0,12.518-2.75,12.518-10.683c0-8.147-5.135-10.445-12.518-10.445h-7.685V24.484z"/>
			<path fill="#FFFFFF" d="M159.197,15.954h-5.288l2.738-8.232h0.057L159.197,15.954z M145.225,24.484h5.709l1.672-4.515h7.928
				l1.581,4.515h6.166l-8.145-21.128h-6.896L145.225,24.484z"/>
			<rect id="XMLID_20_" x="170.336" y="3.355" fill="#FFFFFF" width="5.617" height="21.129"/>
		</g>
		<g>
			<path fill="#FFFFFF" d="M36.458,30.094h4.306l2.175,6.816h0.029l2.279-6.816h4.139v10.254h-2.672l0.044-7.875h-0.027
				l-2.617,7.875h-2.511l-2.498-7.875h-0.031l0.06,7.875h-2.675V30.094z"/>
			<path fill="#FFFFFF" d="M51.385,30.094h2.729v10.254h-2.729V30.094z"/>
			<path fill="#FFFFFF" d="M56.043,30.094h3.258c3.129,0,4.598,1.059,4.598,3.364c0,2.07-1.515,3.306-4.07,3.306h-1.057v3.584
				h-2.729V30.094z M58.772,34.824h0.705c0.941,0,1.69-0.338,1.69-1.411c0-1.042-0.749-1.38-1.69-1.38h-0.705V34.824z"/>
			<path fill="#FFFFFF" d="M80.55,30.094h3.732c3.567,0,6.067,1.116,6.067,5.082c0,3.834-2.573,5.172-6.067,5.172H80.55V30.094z
				 M83.283,38.319h1.056c2.043,0,3.188-1.058,3.188-3.1s-1.189-3.099-3.188-3.099h-1.056V38.319z"/>
			<path fill="#FFFFFF" d="M111.597,40.111c-0.774,0.191-1.645,0.412-3.041,0.412c-2.731,0-5.889-1.381-5.889-5.26
				c0-3.569,2.497-5.346,5.875-5.346c1.043,0,2.058,0.234,3.041,0.529l-0.22,2.219c-0.881-0.486-1.734-0.721-2.673-0.721
				c-1.938,0-3.201,1.41-3.201,3.318c0,2.014,1.423,3.231,3.421,3.231c0.897,0,1.808-0.234,2.555-0.528L111.597,40.111z"/>
			<path fill="#FFFFFF" d="M112.875,30.094h2.733v4.187h0.03l3.083-4.187h3.292l-3.791,4.773l4.085,5.48h-3.482l-3.187-4.657h-0.03
				v4.657h-2.733V30.094z"/>
			<path fill="#FFFFFF" d="M126.093,36.484l-3.792-6.391h3.144l2.012,4.113l1.985-4.113h3.142l-3.764,6.391v3.863h-2.727V36.484z"/>
			<path fill="#FFFFFF" d="M135.123,30.094h3.351l3.954,10.254h-3l-0.762-2.189h-3.85l-0.808,2.189h-2.775L135.123,30.094z
				 M136.8,32.209h-0.032l-1.321,4.01h2.569L136.8,32.209z"/>
			<path fill="#FFFFFF" d="M143.244,30.094h4.878c1.819,0,3.304,0.822,3.304,2.584c0,1.367-0.646,2.277-1.969,2.586v0.029
				c0.88,0.235,0.939,1.016,1.456,2.263l0.998,2.792h-2.851l-0.587-1.853c-0.56-1.763-0.91-2.202-1.923-2.202h-0.574v4.055h-2.731
				V30.094z M145.975,34.354h0.721c0.883,0,1.997-0.029,1.997-1.189c0-0.955-0.955-1.131-1.997-1.131h-0.721V34.354z"/>
			<path fill="#FFFFFF" d="M153.143,30.094h3.733c3.569,0,6.065,1.116,6.065,5.082c0,3.834-2.57,5.172-6.065,5.172h-3.733V30.094z
				 M155.877,38.319h1.056c2.043,0,3.187-1.058,3.187-3.1s-1.189-3.099-3.187-3.099h-1.056V38.319z"/>
			<path fill="#FFFFFF" d="M96.558,29.881c-3.381,0-5.139,2.025-5.139,5.34c0,3.283,1.791,5.338,5.139,5.338
				s5.142-2.055,5.142-5.338C101.7,31.906,99.936,29.881,96.558,29.881z M96.558,38.533c-1.659,0-2.322-1.604-2.322-3.313
				c0-1.797,0.663-3.314,2.322-3.314s2.321,1.518,2.321,3.314C98.879,36.93,98.217,38.533,96.558,38.533z"/>
			<path fill="#FFFFFF" d="M69.742,29.881c-3.377,0-5.14,2.025-5.14,5.34c0,3.283,1.792,5.338,5.14,5.338s5.143-2.055,5.143-5.338
				C74.884,31.906,73.12,29.881,69.742,29.881z M69.742,38.533c-1.658,0-2.32-1.604-2.32-3.313c0-1.797,0.662-3.314,2.32-3.314
				c1.66,0,2.32,1.518,2.32,3.314C72.062,36.93,71.402,38.533,69.742,38.533z"/>
		</g>
	</g>
	<rect x="189" y="23" fill="#FFFFFF" width="1" height="18"/>
</g>
<g>
	<path fill="#FFFFFF" d="M212.296,35.29c0,0.839-0.181,1.583-0.543,2.233c-0.362,0.65-0.855,1.188-1.48,1.616
		c-0.625,0.428-1.369,0.736-2.233,0.925c-0.863,0.189-1.748,0.284-2.652,0.284c-0.789,0-1.558-0.058-2.307-0.172
		c-0.749-0.115-1.559-0.304-2.43-0.567l0.37-2.862c0.625,0.33,1.283,0.588,1.974,0.777c0.691,0.189,1.406,0.284,2.146,0.284
		c0.181,0,0.382-0.008,0.604-0.024c0.222-0.017,0.448-0.05,0.679-0.099c0.23-0.033,0.448-0.082,0.654-0.148
		c0.205-0.065,0.382-0.148,0.53-0.247c0.279-0.181,0.518-0.419,0.715-0.715c0.197-0.296,0.296-0.683,0.296-1.16
		c0-0.345-0.095-0.654-0.284-0.925s-0.44-0.53-0.752-0.777c-0.329-0.247-0.695-0.477-1.098-0.691
		c-0.403-0.214-0.827-0.428-1.271-0.642c-0.56-0.263-1.123-0.551-1.69-0.863s-1.082-0.667-1.542-1.061
		c-0.461-0.395-0.835-0.847-1.123-1.357c-0.288-0.51-0.432-1.102-0.432-1.776c0-0.954,0.168-1.764,0.505-2.43s0.793-1.229,1.37-1.69
		c0.575-0.444,1.274-0.765,2.097-0.962c0.822-0.198,1.637-0.296,2.443-0.296c0.806,0,1.579,0.049,2.319,0.148
		c0.74,0.099,1.456,0.264,2.146,0.494l-0.37,2.738c-0.724-0.279-1.39-0.489-1.999-0.629c-0.608-0.14-1.233-0.209-1.875-0.209
		c-0.411,0-0.798,0.041-1.159,0.123c-0.362,0.083-0.691,0.222-0.987,0.419c-0.296,0.214-0.526,0.481-0.69,0.802
		c-0.165,0.321-0.222,0.703-0.173,1.147c0.033,0.313,0.156,0.613,0.37,0.9c0.213,0.288,0.493,0.563,0.839,0.827
		c0.329,0.263,0.699,0.514,1.11,0.752c0.411,0.238,0.822,0.465,1.233,0.678c0.542,0.28,1.094,0.576,1.653,0.888
		c0.559,0.313,1.069,0.658,1.53,1.036c0.46,0.379,0.826,0.814,1.098,1.308C212.16,33.859,212.296,34.5,212.296,35.29z"/>
	<path fill="#FFFFFF" d="M213.603,40.026V22.214h3.676v17.813H213.603z"/>
	<path fill="#FFFFFF" d="M233.957,39.435c-0.987,0.263-1.937,0.481-2.85,0.654c-0.913,0.172-1.805,0.259-2.677,0.259
		c-1.398,0-2.656-0.168-3.774-0.505c-1.119-0.337-2.114-0.892-2.985-1.666c-0.839-0.773-1.48-1.694-1.924-2.763
		c-0.444-1.069-0.666-2.352-0.666-3.849c0-3.142,0.838-5.526,2.516-7.155c1.694-1.645,3.972-2.467,6.834-2.467
		c1.02,0,1.92,0.062,2.702,0.185c0.781,0.124,1.558,0.309,2.332,0.555l-0.247,2.788c-0.724-0.395-1.459-0.667-2.208-0.814
		s-1.468-0.222-2.159-0.222c-0.971,0-1.842,0.189-2.615,0.568s-1.406,0.88-1.899,1.505c-1.02,1.299-1.53,2.919-1.53,4.86
		c0,0.888,0.119,1.727,0.358,2.516c0.238,0.79,0.596,1.48,1.073,2.073c0.477,0.576,1.064,1.032,1.764,1.369
		c0.699,0.337,1.509,0.506,2.43,0.506c0.822,0,1.497-0.107,2.023-0.321h-0.024v-5.083h-3.528V29.96h7.056V39.435z"/>
	<path fill="#FFFFFF" d="M245.429,40.026l-6.044-12.631c0,1.036,0,2.077,0,3.121c0,1.045,0.008,2.085,0.024,3.121
		c0,1.085,0.004,2.159,0.013,3.22c0.008,1.061,0.012,2.118,0.012,3.17h-3.553V22.214h4.49l5.995,12.78v-12.78h3.553v17.813H245.429z
		"/>
	<path fill="#FFFFFF" d="M262.526,36.104h-6.513l-0.617,1.974l-0.617,1.949h-3.8l6.365-17.813h4.046l6.415,17.813h-4.021
		L262.526,36.104z M256.827,33.538h4.86c-0.395-1.233-0.798-2.488-1.209-3.762s-0.822-2.529-1.233-3.763L256.827,33.538z"/>
	<path fill="#FFFFFF" d="M282.831,39.435c-0.987,0.263-1.937,0.481-2.85,0.654c-0.913,0.172-1.805,0.259-2.677,0.259
		c-1.398,0-2.656-0.168-3.774-0.505c-1.119-0.337-2.114-0.892-2.985-1.666c-0.839-0.773-1.48-1.694-1.924-2.763
		c-0.444-1.069-0.666-2.352-0.666-3.849c0-3.142,0.838-5.526,2.516-7.155c1.694-1.645,3.972-2.467,6.834-2.467
		c1.02,0,1.92,0.062,2.702,0.185c0.781,0.124,1.558,0.309,2.332,0.555l-0.247,2.788c-0.724-0.395-1.459-0.667-2.208-0.814
		s-1.468-0.222-2.159-0.222c-0.971,0-1.842,0.189-2.615,0.568s-1.406,0.88-1.899,1.505c-1.02,1.299-1.53,2.919-1.53,4.86
		c0,0.888,0.119,1.727,0.358,2.516c0.238,0.79,0.596,1.48,1.073,2.073c0.477,0.576,1.064,1.032,1.764,1.369
		c0.699,0.337,1.509,0.506,2.43,0.506c0.822,0,1.497-0.107,2.023-0.321h-0.024v-5.083h-3.528V29.96h7.056V39.435z"/>
	<path fill="#FFFFFF" d="M284.902,40.026V22.214h10.683v2.467h-7.006v5.107h6.39v2.467h-6.39v5.304h7.056v2.467H284.902z"/>
	<path fill="#FFFFFF" d="M316.901,27.642c0,0.987-0.157,1.826-0.469,2.517c-0.313,0.69-0.749,1.258-1.308,1.702
		c-0.576,0.444-1.267,0.769-2.072,0.975c-0.806,0.206-1.694,0.308-2.665,0.308h-2.393v6.883h-3.676V22.214h5.453
		c0.938,0,1.833,0.078,2.689,0.234c0.855,0.157,1.612,0.44,2.27,0.851c0.658,0.412,1.185,0.966,1.579,1.666
		C316.704,25.664,316.901,26.556,316.901,27.642z M313.176,27.888c0-0.987-0.222-1.768-0.666-2.344
		c-0.444-0.576-1.233-0.863-2.369-0.863h-2.146v5.995h2.146c0.987,0,1.74-0.226,2.258-0.679
		C312.917,29.545,313.176,28.842,313.176,27.888z"/>
	<path fill="#FFFFFF" d="M318.085,40.026V21.844h3.503v18.183H318.085z"/>
	<path fill="#FFFFFF" d="M332,40.026l-0.198-1.184c-0.444,0.51-0.983,0.888-1.616,1.135c-0.633,0.247-1.271,0.37-1.912,0.37
		c-0.609,0-1.188-0.086-1.739-0.259c-0.551-0.173-1.041-0.423-1.468-0.752s-0.769-0.736-1.023-1.221
		c-0.255-0.485-0.383-1.04-0.383-1.666c0-0.921,0.168-1.673,0.506-2.257c0.337-0.583,0.802-1.049,1.394-1.394
		c0.592-0.329,1.287-0.555,2.085-0.678c0.797-0.124,1.648-0.185,2.553-0.185h1.48c-0.049-0.938-0.288-1.628-0.716-2.073
		c-0.428-0.444-1.061-0.666-1.899-0.666c-0.642,0-1.304,0.115-1.986,0.346s-1.41,0.608-2.183,1.135l-0.099-2.936
		c0.658-0.329,1.41-0.571,2.257-0.728c0.847-0.156,1.673-0.234,2.479-0.234c1.99,0,3.433,0.432,4.33,1.295
		c0.896,0.864,1.345,2.266,1.345,4.207v3.281c0,0.954,0.016,1.764,0.049,2.43c0.033,0.666,0.082,1.345,0.148,2.035H332z
		 M330.618,34.007c-0.378,0-0.765,0.033-1.16,0.099c-0.395,0.066-0.749,0.181-1.061,0.345c-0.33,0.181-0.592,0.424-0.79,0.728
		c-0.197,0.305-0.296,0.695-0.296,1.172c0,0.526,0.168,0.921,0.506,1.184c0.337,0.263,0.752,0.395,1.246,0.395
		c0.46,0,0.851-0.119,1.172-0.358c0.321-0.238,0.588-0.555,0.802-0.95c0.197-0.378,0.349-0.798,0.457-1.258
		c0.106-0.46,0.168-0.913,0.185-1.357H330.618z"/>
	<path fill="#FFFFFF" d="M344.237,40.002c-0.79,0.23-1.621,0.345-2.492,0.345c-1.201,0-2.13-0.39-2.788-1.172
		c-0.658-0.781-0.987-1.813-0.987-3.096v-6.587h-2.048v-2.467h2.048v-3.578h3.528v3.578h2.566v2.467h-2.566v6.439
		c0,0.263,0.016,0.51,0.049,0.74c0.033,0.23,0.09,0.436,0.173,0.617c0.065,0.181,0.164,0.325,0.296,0.432
		c0.131,0.107,0.304,0.161,0.518,0.161c0.543,0,1.061-0.173,1.554-0.518L344.237,40.002z"/>
	<path fill="#FFFFFF" d="M352.945,24.36c-0.132-0.115-0.341-0.238-0.629-0.37c-0.288-0.131-0.597-0.197-0.925-0.197
		c-0.378,0-0.662,0.165-0.851,0.493c-0.189,0.33-0.284,0.93-0.284,1.801v0.938h2.689v2.417h-2.689v10.584h-3.479V29.442h-2.22
		v-2.417h2.22v-1.184c0-0.642,0.09-1.238,0.271-1.789c0.181-0.551,0.444-1.032,0.79-1.443c0.345-0.395,0.773-0.703,1.283-0.925
		c0.51-0.222,1.094-0.333,1.752-0.333c0.756,0,1.53,0.09,2.319,0.271L352.945,24.36z"/>
	<path fill="#FFFFFF" d="M366.563,33.612c0,1.02-0.16,1.941-0.481,2.763c-0.321,0.823-0.769,1.53-1.345,2.122
		c-0.576,0.592-1.267,1.048-2.072,1.369c-0.806,0.321-1.702,0.481-2.689,0.481c-0.954,0-1.838-0.152-2.652-0.456
		c-0.814-0.304-1.517-0.744-2.109-1.32c-0.592-0.575-1.053-1.278-1.382-2.109c-0.329-0.83-0.493-1.78-0.493-2.85
		c0-0.987,0.156-1.899,0.469-2.738c0.312-0.839,0.756-1.563,1.332-2.171s1.271-1.082,2.085-1.419
		c0.814-0.337,1.731-0.505,2.751-0.505c0.904,0,1.755,0.16,2.553,0.481s1.501,0.777,2.109,1.369
		c0.592,0.609,1.061,1.332,1.406,2.171C366.391,31.638,366.563,32.576,366.563,33.612z M362.961,33.242
		c0-0.494-0.058-0.979-0.172-1.456c-0.115-0.477-0.288-0.904-0.518-1.283c-0.247-0.378-0.56-0.687-0.938-0.925
		c-0.379-0.238-0.831-0.357-1.357-0.357c-0.51,0-0.954,0.111-1.333,0.333s-0.691,0.514-0.938,0.876
		c-0.263,0.378-0.457,0.81-0.58,1.295c-0.124,0.485-0.185,0.991-0.185,1.518s0.041,1.065,0.123,1.616
		c0.083,0.551,0.238,1.048,0.469,1.493c0.214,0.46,0.518,0.835,0.913,1.123c0.395,0.288,0.904,0.432,1.53,0.432
		c0.592,0,1.081-0.136,1.468-0.407c0.386-0.271,0.695-0.629,0.925-1.073c0.213-0.444,0.366-0.946,0.456-1.505
		C362.916,34.361,362.961,33.801,362.961,33.242z"/>
	<path fill="#FFFFFF" d="M376.555,30.084c-0.46-0.164-0.851-0.271-1.172-0.321s-0.638-0.074-0.95-0.074
		c-0.625,0-1.115,0.181-1.468,0.542c-0.354,0.362-0.613,0.806-0.777,1.333c-0.165,0.526-0.264,1.077-0.296,1.653
		c-0.033,0.576-0.049,1.085-0.049,1.53v5.279h-3.553V27.025h3.208l0.024,1.801c0.148-0.296,0.341-0.567,0.58-0.814
		c0.238-0.247,0.506-0.469,0.802-0.666c0.296-0.181,0.612-0.321,0.95-0.419c0.337-0.099,0.679-0.148,1.024-0.148
		c0.724,0,1.447,0.082,2.171,0.247L376.555,30.084z"/>
	<path fill="#FFFFFF" d="M392.394,40.026v-7.993c0-0.313-0.016-0.633-0.049-0.962c-0.033-0.329-0.099-0.633-0.197-0.913
		s-0.247-0.51-0.444-0.691c-0.198-0.181-0.461-0.271-0.79-0.271c-0.478,0-0.86,0.169-1.147,0.506
		c-0.288,0.337-0.489,0.72-0.604,1.147c-0.132,0.444-0.218,0.905-0.259,1.382c-0.042,0.477-0.062,0.872-0.062,1.184v6.612h-3.553
		v-7.993c0-0.329-0.017-0.666-0.049-1.012c-0.033-0.345-0.099-0.658-0.198-0.938c-0.115-0.279-0.271-0.501-0.469-0.666
		c-0.197-0.164-0.46-0.238-0.789-0.222c-0.444,0.033-0.798,0.21-1.061,0.53c-0.263,0.321-0.461,0.704-0.592,1.147
		c-0.148,0.444-0.247,0.9-0.296,1.369s-0.074,0.86-0.074,1.172v6.612h-3.553V27.025h3.355l0.025,1.456
		c0.493-0.642,1.015-1.085,1.566-1.333c0.551-0.247,1.114-0.37,1.69-0.37c0.839,0,1.542,0.14,2.109,0.419
		c0.567,0.28,1.024,0.79,1.37,1.53c0.411-0.625,0.917-1.106,1.517-1.443c0.6-0.337,1.336-0.505,2.208-0.505
		c0.773,0,1.41,0.152,1.912,0.456c0.501,0.305,0.9,0.695,1.196,1.172c0.296,0.494,0.502,1.045,0.617,1.653
		c0.115,0.608,0.172,1.225,0.172,1.85v8.117H392.394z"/>
</g>
</svg>
