<?xml version="1.0" encoding="utf-8"?>
<!-- Generator: Adobe Illustrator 16.0.0, SVG Export Plug-In . SVG Version: 6.00 Build 0)  -->
<!DOCTYPE svg PUBLIC "-//W3C//DTD SVG 1.1//EN" "http://www.w3.org/Graphics/SVG/1.1/DTD/svg11.dtd">
<svg version="1.1" id="Capa_1" xmlns="http://www.w3.org/2000/svg" xmlns:xlink="http://www.w3.org/1999/xlink" x="0px" y="0px"
	 width="802.113px" height="987px" viewBox="0 0 802.113 987" enable-background="new 0 0 802.113 987" xml:space="preserve">
<path fill="currentColor" d="M481.145,46.335c0,0-112.471-117.643-239.167,21.979c0,0-76.274,76.274-34.905,239.167
	c0,0-29.734,16.807-3.878,90.496c0,0,12.929,47.834,42.662,50.419c0,0,19.392,77.567,54.297,111.18c0,0,20.684,50.419-53.006,73.689
	c-73.689,23.271-177.114,42.664-236.583,138.33c0,0-9.048,15.514-10.342,54.298c-1.293,38.783,2.587,85.326,23.27,98.253
	c20.684,12.927,72.396,60.762,367.153,60.762c0,0,252.097,10.34,408.524-86.619c0,0,10.343-96.96-7.757-126.693
	c-18.101-29.733-93.082-107.301-210.727-134.45c0,0-89.203-10.344-77.567-60.763c0,0,47.832-68.516,53.004-106.007
	c0,0,49.127-49.126,53.006-93.082s-2.587-65.935-10.344-72.397c0,0,24.566-77.566,2.587-156.427
	C601.373,148.469,570.35,4.965,481.145,46.335z"/>
</svg>
