<?xml version="1.0" encoding="utf-8"?>
<!-- Generator: Adobe Illustrator 16.0.0, SVG Export Plug-In . SVG Version: 6.00 Build 0)  -->
<!DOCTYPE svg PUBLIC "-//W3C//DTD SVG 1.1//EN" "http://www.w3.org/Graphics/SVG/1.1/DTD/svg11.dtd">
<svg version="1.1" id="Capa_1" xmlns="http://www.w3.org/2000/svg" xmlns:xlink="http://www.w3.org/1999/xlink" x="0px" y="0px"
	 width="916.082px" height="987px" viewBox="0 0 916.082 987" enable-background="new 0 0 916.082 987" xml:space="preserve">
<g>
	<g>
		<g>
			<path fill="currentColor" d="M908.023,515.36c0.201-0.202,0.201-0.202,0.403-0.403c0.604-0.806,1.208-1.41,1.611-2.216
				c0.202-0.202,0.202-0.403,0.403-0.604c0.402-0.806,1.007-1.612,1.41-2.418c0-0.201,0.201-0.403,0.201-0.403
				c0.403-0.806,0.807-1.611,1.209-2.619c0-0.201,0-0.201,0.201-0.402c0.403-0.806,0.604-1.813,1.008-2.82
				c0-0.202,0-0.403,0.201-0.403c0.201-1.008,0.604-1.813,0.604-2.82c0-0.403,0-0.604,0.202-1.008
				c0.201-0.806,0.201-1.611,0.402-2.417c0.201-1.209,0.201-2.217,0.201-3.426c0-1.208,0-2.216-0.201-3.425
				c0-0.806-0.201-1.611-0.402-2.417c0-0.403,0-0.604-0.202-1.008c-0.201-1.008-0.403-1.813-0.604-2.82c0-0.202,0-0.403-0.201-0.403
				c-0.201-1.007-0.604-1.813-1.008-2.82c0-0.201,0-0.201-0.201-0.403c-0.402-0.806-0.806-1.813-1.209-2.619
				c0-0.201-0.201-0.402-0.201-0.402c-0.403-0.806-0.806-1.612-1.41-2.418c-0.201-0.201-0.201-0.403-0.403-0.604
				c-0.604-0.806-1.007-1.611-1.611-2.216c-0.202-0.202-0.202-0.202-0.403-0.403c-0.806-0.806-1.41-1.813-2.418-2.619
				L706.353,269.768c-13.499-13.498-35.459-13.498-48.957,0c-13.499,13.499-13.499,35.459,0,48.957l140.223,140.223H240.151
				c-19.14,0-34.652,15.514-34.652,34.451c0,19.14,15.513,34.653,34.652,34.653h557.668L658.604,667.268
				c-13.498,13.498-13.498,35.458,0,48.957c6.648,6.648,15.514,10.073,24.379,10.073c8.864,0,17.729-3.425,24.377-10.073
				L905.404,518.18C906.412,516.971,907.218,516.165,908.023,515.36z"/>
			<path fill="currentColor" d="M187.568,69.104h257.881c19.14,0,34.652-15.513,34.652-34.451C480.102,15.513,464.589,0,445.449,0
				H187.568C84.214,0,0,84.214,0,187.569v611.863C0,902.785,84.214,987,187.568,987h253.65c19.139,0,34.652-15.514,34.652-34.452
				c0-19.14-15.514-34.652-34.652-34.652h-253.65c-65.276,0-118.465-53.188-118.465-118.464V187.569
				C69.306,122.091,122.292,69.104,187.568,69.104z"/>
		</g>
	</g>
</g>
</svg>
