<?xml version="1.0" encoding="utf-8"?>
<!-- Generator: Adobe Illustrator 16.0.0, SVG Export Plug-In . SVG Version: 6.00 Build 0)  -->
<!DOCTYPE svg PUBLIC "-//W3C//DTD SVG 1.1//EN" "http://www.w3.org/Graphics/SVG/1.1/DTD/svg11.dtd">
<svg version="1.1" id="Layer_1" xmlns="http://www.w3.org/2000/svg" xmlns:xlink="http://www.w3.org/1999/xlink" x="0px" y="0px"
	 width="579.842px" height="987px" viewBox="0 0 579.842 987" enable-background="new 0 0 579.842 987" xml:space="preserve">
<g>
	<g>
		<path fill="currentColor" d="M194.848,493.708l369.234-369.25c10.167-10.143,15.76-23.704,15.76-38.164
			c0-14.468-5.593-28.021-15.76-38.18l-32.354-32.339C521.577,5.601,508.008,0,493.548,0s-28.014,5.601-38.172,15.775L15.743,455.4
			C5.545,465.591-0.04,479.208,0,493.684c-0.04,14.541,5.536,28.142,15.743,38.341l439.224,439.199
			C465.126,981.399,478.679,987,493.146,987c14.46,0,28.014-5.602,38.181-15.776l32.346-32.339
			c21.048-21.048,21.048-55.312,0-76.352L194.848,493.708z"/>
	</g>
</g>
</svg>
