<?xml version="1.0" encoding="utf-8"?>
<!-- Generator: Adobe Illustrator 16.0.0, SVG Export Plug-In . SVG Version: 6.00 Build 0)  -->
<!DOCTYPE svg PUBLIC "-//W3C//DTD SVG 1.1//EN" "http://www.w3.org/Graphics/SVG/1.1/DTD/svg11.dtd">
<svg version="1.1" id="Layer_1" xmlns="http://www.w3.org/2000/svg" xmlns:xlink="http://www.w3.org/1999/xlink" x="0px" y="0px"
	 width="52px" height="52px" viewBox="0 0 52 52" enable-background="new 0 0 52 52" xml:space="preserve">
<g>
	<path fill="currentColor" d="M8.641,30.922h10.8c1.195,0,2.16-0.969,2.16-2.16V13.641c0-1.193-0.965-2.16-2.16-2.16h-10.8
		c-1.194,0-2.16,0.967-2.16,2.16v15.121C6.48,29.953,7.446,30.922,8.641,30.922z"/>
	<path fill="currentColor" d="M25.921,15.8h16.201c1.195,0,2.16-0.967,2.16-2.16c0-1.193-0.965-2.16-2.16-2.16H25.921
		c-1.194,0-2.16,0.967-2.16,2.16C23.761,14.833,24.728,15.8,25.921,15.8z"/>
	<path fill="currentColor" d="M25.921,26.602h14.041c1.195,0,2.16-0.968,2.16-2.161v-4.32c0-1.193-0.965-2.161-2.16-2.161H25.921
		c-1.194,0-2.16,0.968-2.16,2.161v4.32C23.761,25.633,24.728,26.602,25.921,26.602z"/>
	<path fill="currentColor" d="M48.063,5H3.78C1.696,5,0,6.696,0,8.78v29.161c0,2.085,1.696,3.78,3.78,3.78h16.543
		c-0.254,1.082-0.93,2.842-2.726,4.638c-0.309,0.309-0.401,0.773-0.232,1.178c0.163,0.4,0.559,0.665,0.995,0.665h15.121
		c0.437,0,0.833-0.265,0.999-0.667c0.166-0.404,0.073-0.867-0.234-1.178c-1.792-1.793-2.485-3.55-2.755-4.636h16.571
		c2.085,0,3.78-1.695,3.78-3.78V8.78C51.843,6.696,50.147,5,48.063,5z M47.522,33.081H4.32V9.32h43.202V33.081z"/>
</g>
</svg>
