<?xml version="1.0" encoding="utf-8"?>
<!-- Generator: Adobe Illustrator 16.0.0, SVG Export Plug-In . SVG Version: 6.00 Build 0)  -->
<!DOCTYPE svg PUBLIC "-//W3C//DTD SVG 1.1//EN" "http://www.w3.org/Graphics/SVG/1.1/DTD/svg11.dtd">
<svg version="1.1" id="Layer_1" xmlns="http://www.w3.org/2000/svg" xmlns:xlink="http://www.w3.org/1999/xlink" x="0px" y="0px"
	 width="52px" height="52px" viewBox="0 0 52 52" enable-background="new 0 0 52 52" xml:space="preserve">
<g>
	<path fill="currentColor" d="M41.447,14.67c-0.184-8.164-8.321-11.978-8.321-11.978l-1.427,7.458l-2.731-0.77c0,0,2.465-7.919,2.285-8.231
		C31.068,0.842,26.688,0,26.688,0s-4.38,0.842-4.554,1.148C21.95,1.46,24.409,9.38,24.409,9.38l-2.725,0.77l-1.427-7.458
		c0,0-8.137,3.814-8.316,11.978c-0.027,1.065-0.043,1.892-0.054,2.547h29.605C41.486,16.562,41.469,15.735,41.447,14.67z"/>
</g>
<path fill="currentColor" d="M26.688,31c7.008,0,12.681-5.971,12.681-13.333H14.008C14.008,25.029,19.691,31,26.688,31z"/>
<path fill="currentColor" d="M26.683,31.666C15.49,31.666,6.393,40.774,6.393,52h40.581C46.974,40.774,37.897,31.666,26.683,31.666z"/>
</svg>
