<?xml version="1.0" encoding="utf-8"?>
<!-- Generator: Adobe Illustrator 16.0.0, SVG Export Plug-In . SVG Version: 6.00 Build 0)  -->
<!DOCTYPE svg PUBLIC "-//W3C//DTD SVG 1.1//EN" "http://www.w3.org/Graphics/SVG/1.1/DTD/svg11.dtd">
<svg version="1.1" id="Layer_1" xmlns="http://www.w3.org/2000/svg" xmlns:xlink="http://www.w3.org/1999/xlink" x="0px" y="0px"
	 width="52px" height="52px" viewBox="0 0 52 52" enable-background="new 0 0 52 52" xml:space="preserve">
<path fill="currentColor" d="M29.226,30.302c-0.615,0-1.204,0.065-1.81,0.104c8.743,0.496,15.556,4.022,15.556,8.367
	c0,4.687-6.148,8.431-15.877,8.431s-15.876-3.744-15.876-8.431c0-4.345,6.813-7.871,15.555-8.367
	c-0.605-0.038-1.193-0.104-1.81-0.104c-9.729,0-17.621,4.333-17.621,9.68c0,5.352,10.023,10.655,19.752,10.655
	s19.752-5.304,19.752-10.655C46.847,34.635,38.955,30.302,29.226,30.302z"/>
<path fill="currentColor" d="M39.652,13.411c0-6.932-5.625-12.557-12.558-12.557c-6.932,0-12.557,5.625-12.557,12.557
	c0,1.897,0.452,3.674,1.204,5.287l-0.043-0.011l11.396,20.799l11.396-20.799l-0.043,0.011C39.2,17.085,39.652,15.308,39.652,13.411z
	 M27.095,19.576c-3.226,0-5.842-2.616-5.842-5.842c0-3.227,2.616-5.843,5.842-5.843c3.227,0,5.843,2.616,5.843,5.843
	C32.938,16.959,30.321,19.576,27.095,19.576z"/>
</svg>
