<?xml version="1.0" encoding="utf-8"?>
<!-- Generator: Adobe Illustrator 16.0.0, SVG Export Plug-In . SVG Version: 6.00 Build 0)  -->
<!DOCTYPE svg PUBLIC "-//W3C//DTD SVG 1.1//EN" "http://www.w3.org/Graphics/SVG/1.1/DTD/svg11.dtd">
<svg version="1.1" id="Layer_1" xmlns="http://www.w3.org/2000/svg" xmlns:xlink="http://www.w3.org/1999/xlink" x="0px" y="0px"
	 width="52px" height="52px" viewBox="0 0 52 52" enable-background="new 0 0 52 52" xml:space="preserve">
<path fill="currentColor" d="M50.359,22.761c0,0-0.002-0.001-0.004-0.003L29.245,1.647c-0.901-0.9-2.097-1.396-3.37-1.396
	s-2.469,0.496-3.37,1.396L1.405,22.748c-0.007,0.006-0.014,0.014-0.021,0.021c-1.848,1.859-1.844,4.875,0.009,6.729
	c0.848,0.848,1.965,1.338,3.162,1.39c0.049,0.004,0.098,0.006,0.147,0.006h0.842v15.538c0,3.073,2.501,5.576,5.577,5.576h8.26
	c0.836,0,1.516-0.681,1.516-1.518V38.31c0-1.403,1.142-2.546,2.544-2.546h4.872c1.403,0,2.546,1.143,2.546,2.546v12.18
	c0,0.837,0.677,1.518,1.515,1.518h8.26c3.074,0,5.577-2.503,5.577-5.576V30.893h0.779c1.273,0,2.469-0.495,3.37-1.396
	C52.212,27.64,52.214,24.62,50.359,22.761z"/>
</svg>
