<?xml version="1.0" encoding="utf-8"?>
<!-- Generator: Adobe Illustrator 16.0.0, SVG Export Plug-In . SVG Version: 6.00 Build 0)  -->
<!DOCTYPE svg PUBLIC "-//W3C//DTD SVG 1.1//EN" "http://www.w3.org/Graphics/SVG/1.1/DTD/svg11.dtd">
<svg version="1.1" id="Layer_1" xmlns="http://www.w3.org/2000/svg" xmlns:xlink="http://www.w3.org/1999/xlink" x="0px" y="0px"
	 width="512px" height="512px" viewBox="0 0 512 512" enable-background="new 0 0 512 512" xml:space="preserve">
<g>
	<path fill="currentColor" d="M242.645,26.71C108.637,26.71,0,135.347,0,269.355C0,403.363,108.637,512,242.645,512
		c44.261,0,85.747-11.856,121.471-32.559L242.645,269.355V26.71z"/>
	<path fill="currentColor" d="M342.162,269.355h-74.218l121.471,210.086c2.888-1.671,5.736-3.402,8.546-5.188
		c67.702-43.052,112.628-118.726,112.628-204.897H342.162z"/>
	<path fill="currentColor" d="M276.129,1.564c-2.718-0.09-5.444-0.153-8.185-0.153v242.645h74.218h168.427C510.589,112.788,406.346,5.881,276.129,1.564z
		"/>
</g>
</svg>
