<?xml version="1.0" encoding="utf-8"?>
<!-- Generator: Adobe Illustrator 16.0.0, SVG Export Plug-In . SVG Version: 6.00 Build 0)  -->
<!DOCTYPE svg PUBLIC "-//W3C//DTD SVG 1.1//EN" "http://www.w3.org/Graphics/SVG/1.1/DTD/svg11.dtd">
<svg version="1.1" id="Layer_1" xmlns="http://www.w3.org/2000/svg" xmlns:xlink="http://www.w3.org/1999/xlink" x="0px" y="0px"
	 width="52px" height="52px" viewBox="0 0 52 52" enable-background="new 0 0 52 52" xml:space="preserve">
<g>
	<g>
		<g>
			<path fill="currentColor" d="M23.986,0.001H7.737c-0.897,0-1.625,0.728-1.625,1.625v48.748c0,0.897,0.728,1.625,1.625,1.625h16.25
				c0.896,0,1.625-0.728,1.625-1.625V1.626C25.611,0.729,24.883,0.001,23.986,0.001z M22.361,48.749h-13v-4.875h8.125v-3.249H9.361
				V35.75h4.875V32.5H9.361v-4.875h8.125v-3.25H9.361V19.5h4.875v-3.25H9.361v-4.875h8.125v-3.25H9.361V3.251h13V48.749z"/>
			<path fill="currentColor" d="M45.598,41.111l-5.363,5.347V5.542l5.347,5.346l2.291-2.291l-8.124-8.125c-0.635-0.63-1.658-0.63-2.291,0l-8.125,8.125
				l2.291,2.291l5.362-5.346v40.916l-5.347-5.347l-2.291,2.291l8.125,8.125c0.634,0.631,1.657,0.631,2.291,0l8.125-8.125
				L45.598,41.111z"/>
		</g>
	</g>
</g>
</svg>
