<?xml version="1.0" encoding="utf-8"?>
<!-- Generator: Adobe Illustrator 16.0.0, SVG Export Plug-In . SVG Version: 6.00 Build 0)  -->
<!DOCTYPE svg PUBLIC "-//W3C//DTD SVG 1.1//EN" "http://www.w3.org/Graphics/SVG/1.1/DTD/svg11.dtd">
<svg version="1.1" id="Layer_1" xmlns="http://www.w3.org/2000/svg" xmlns:xlink="http://www.w3.org/1999/xlink" x="0px" y="0px"
	 width="579.842px" height="987px" viewBox="0 0 579.842 987" enable-background="new 0 0 579.842 987" xml:space="preserve">
<g>
	<g>
		<path fill="currentColor" d="M384.994,493.292L15.759,862.542C5.592,872.685,0,886.246,0,900.706c0,14.468,5.593,28.021,15.76,38.18
			l32.354,32.339C58.264,981.4,71.833,987,86.293,987s28.014-5.601,38.172-15.775l439.633-439.624
			c10.198-10.191,15.783-23.809,15.743-38.284c0.04-14.541-5.536-28.142-15.743-38.341L124.875,15.777
			C114.716,5.602,101.163,0,86.695,0c-14.46,0-28.014,5.602-38.181,15.776L16.169,48.115c-21.048,21.048-21.048,55.312,0,76.352
			L384.994,493.292z"/>
	</g>
</g>
</svg>
