<?xml version="1.0" encoding="utf-8"?>
<!-- Generator: Adobe Illustrator 16.0.0, SVG Export Plug-In . SVG Version: 6.00 Build 0)  -->
<!DOCTYPE svg PUBLIC "-//W3C//DTD SVG 1.1//EN" "http://www.w3.org/Graphics/SVG/1.1/DTD/svg11.dtd">
<svg version="1.1" id="Layer_1" xmlns="http://www.w3.org/2000/svg" xmlns:xlink="http://www.w3.org/1999/xlink" x="0px" y="0px"
	 width="52px" height="52px" viewBox="0 0 52 52" enable-background="new 0 0 52 52" xml:space="preserve">
<path fill="currentColor" d="M50.052,18.452c0-9.691-7.855-17.546-17.546-17.546S14.96,8.761,14.96,18.452c0,8.808,6.505,16.027,14.96,17.286v9.679H9.05
	v-6.833h4.802V25.655H9.05v-1.53c1.247-0.739,2.124-2.043,2.124-3.596c0-2.343-1.905-4.248-4.248-4.248s-4.248,1.905-4.248,4.248
	c0,1.553,0.877,2.857,2.124,3.596v1.53H0v12.929h4.802v6.833H3.325v5.91h38.231v-5.91h-7.203v-9.604
	C43.16,34.878,50.052,27.508,50.052,18.452z"/>
</svg>
