<?xml version="1.0" encoding="utf-8"?>
<!-- Generator: Adobe Illustrator 16.0.0, SVG Export Plug-In . SVG Version: 6.00 Build 0)  -->
<!DOCTYPE svg PUBLIC "-//W3C//DTD SVG 1.1//EN" "http://www.w3.org/Graphics/SVG/1.1/DTD/svg11.dtd">
<svg version="1.1" id="Layer_1" focusable="false" xmlns="http://www.w3.org/2000/svg" xmlns:xlink="http://www.w3.org/1999/xlink"
	 x="0px" y="0px" width="863.625px" height="863.625px" viewBox="0 0 863.625 863.625" enable-background="new 0 0 863.625 863.625"
	 xml:space="preserve">
<path d="M771.094,0H92.531C41.446,0,0,41.447,0,92.531v678.563c0,51.084,41.446,92.531,92.531,92.531h678.563
	c51.085,0,92.531-41.447,92.531-92.531V92.531C863.625,41.447,822.179,0,771.094,0z M686.273,354.703
	c12.723,0,23.133,10.409,23.133,23.133v107.953c0,11.014-7.803,20.288-18.152,22.583H172.371
	c-10.349-2.295-18.152-11.569-18.152-22.583V377.836c0-12.724,10.41-23.133,23.133-23.133h177.352v-0.178h154.219v0.178H686.273z"/>
</svg>
