<?xml version="1.0" encoding="utf-8"?>
<!-- Generator: Adobe Illustrator 16.0.0, SVG Export Plug-In . SVG Version: 6.00 Build 0)  -->
<!DOCTYPE svg PUBLIC "-//W3C//DTD SVG 1.1//EN" "http://www.w3.org/Graphics/SVG/1.1/DTD/svg11.dtd">
<svg version="1.1" id="Layer_1" xmlns="http://www.w3.org/2000/svg" xmlns:xlink="http://www.w3.org/1999/xlink" x="0px" y="0px"
	 width="52px" height="52px" viewBox="0 0 52 52" enable-background="new 0 0 52 52" xml:space="preserve">
<g>
	<path fill="currentColor" d="M50.355,9.241c-0.898,0-8.418,0-8.418,0l0.007-7.649L20.442,9.323h-9.89v3.433L0.5,16.27v28.769
		c0,0,0.164,4.938,6.457,4.938c6.293,0,41.682-10.576,41.682-10.576s2.861-1.473,2.861-4.577c0-3.105,0-24.52,0-24.52
		S51.254,9.241,50.355,9.241z M45.534,38.338l-3.413,0.952V26.977h-7.355v14.366l-22.333,6.23V11.121h37.27
		c0,0,0.033,20.597,0.033,22.966C49.735,36.457,45.534,38.338,45.534,38.338z"/>
	<rect fill="currentColor" x="18.644" y="21.583" width="23.477" height="1.103"/>
	<rect fill="currentColor" x="18.644" y="26.977" width="6.559" height="1.104"/>
	<rect fill="currentColor" x="18.644" y="29.796" width="6.559" height="1.104"/>
	<rect fill="currentColor" x="18.644" y="32.616" width="6.559" height="1.104"/>
	<rect fill="currentColor" x="18.644" y="35.436" width="6.559" height="1.104"/>
	<rect fill="currentColor" x="18.644" y="38.256" width="6.559" height="1.103"/>
	<rect fill="currentColor" x="18.644" y="41.075" width="6.559" height="1.104"/>
	<rect fill="currentColor" x="26.613" y="26.977" width="6.559" height="1.104"/>
	<rect fill="currentColor" x="26.613" y="29.796" width="6.559" height="1.104"/>
	<rect fill="currentColor" x="26.613" y="32.616" width="6.559" height="1.104"/>
	<rect fill="currentColor" x="26.613" y="35.436" width="6.559" height="1.104"/>
	<rect fill="currentColor" x="26.613" y="38.256" width="6.559" height="1.103"/>
	<path fill="currentColor" d="M19.4,17.549c0-1.108-0.02-1.91-0.071-2.75l0.031-0.01c0.348,0.722,0.807,1.483,1.288,2.226l2.188,3.383h0.899v-6.667
		h-0.838v2.79c0,1.039,0.021,1.85,0.102,2.74l-0.021,0.01c-0.327-0.683-0.726-1.385-1.237-2.167l-2.208-3.373h-0.971v6.667H19.4
		V17.549z"/>
	<polygon fill="currentColor" points="29.162,19.676 26.178,19.676 26.178,17.272 28.856,17.272 28.856,16.56 26.178,16.56 26.178,14.453 29.01,14.453 
		29.01,13.731 25.289,13.731 25.289,20.398 29.162,20.398 	"/>
	<path fill="currentColor" d="M32.465,20.398l0.981-3.472c0.255-0.861,0.408-1.514,0.532-2.177h0.02c0.093,0.673,0.235,1.326,0.449,2.177l0.87,3.472
		h0.93l1.952-6.667h-0.91l-0.909,3.363c-0.215,0.831-0.408,1.573-0.552,2.305h-0.021c-0.103-0.702-0.286-1.494-0.48-2.285
		l-0.838-3.383h-0.931l-0.919,3.363c-0.236,0.86-0.45,1.652-0.563,2.314h-0.021c-0.122-0.643-0.306-1.474-0.51-2.305l-0.818-3.373
		h-0.94l1.748,6.667H32.465z"/>
	<path fill="currentColor" d="M41.124,16.619c-0.951-0.356-1.369-0.663-1.369-1.286c0-0.455,0.357-0.999,1.298-0.999c0.623,0,1.083,0.198,1.309,0.316
		l0.245-0.703c-0.307-0.168-0.818-0.327-1.523-0.327c-1.339,0-2.228,0.772-2.228,1.811c0,0.939,0.694,1.503,1.818,1.889
		c0.931,0.346,1.299,0.703,1.299,1.326c0,0.672-0.531,1.137-1.441,1.137c-0.612,0-1.196-0.198-1.595-0.436l-0.225,0.722
		c0.367,0.238,1.094,0.426,1.758,0.426c1.626,0,2.412-0.891,2.412-1.919C42.882,17.599,42.289,17.055,41.124,16.619z"/>
</g>
</svg>
