<?xml version="1.0" encoding="utf-8"?>
<!-- Generator: Adobe Illustrator 16.0.0, SVG Export Plug-In . SVG Version: 6.00 Build 0)  -->
<!DOCTYPE svg PUBLIC "-//W3C//DTD SVG 1.1//EN" "http://www.w3.org/Graphics/SVG/1.1/DTD/svg11.dtd">
<svg version="1.1" id="Capa_1" xmlns="http://www.w3.org/2000/svg" xmlns:xlink="http://www.w3.org/1999/xlink" x="0px" y="0px"
	 width="757.732px" height="987px" viewBox="0 0 757.732 987" enable-background="new 0 0 757.732 987" xml:space="preserve">
<g>
	<path fill="currentColor" d="M545.117,339.98l-0.094-297.435C545.016,19.03,525.951-0.027,502.431-0.02L254.239,0.058
		c-23.521,0.007-42.572,19.077-42.564,42.592l0.094,297.435C101.96,413.805,32.261,556.381,32.31,711.204
		c0.007,23.515,19.072,42.573,42.593,42.565l275.283-0.086l0.065,204.958c0.004,15.674,12.714,28.382,28.395,28.378
		c15.68-0.006,28.381-12.722,28.376-28.396l-0.064-204.958l275.283-0.088c23.521-0.008,42.572-19.078,42.565-42.593
		C724.76,556.156,654.966,413.624,545.117,339.98z M459.878,85.152l0.075,236.029l-163.033,0.052l-0.075-236.029L459.878,85.152z
		 M119.538,668.599c11.086-113.038,66.043-212.083,146.787-262.199l224.273-0.071c80.773,50.058,135.793,149.074,146.951,262.104
		L119.538,668.599L119.538,668.599z"/>
</g>
</svg>
