<?xml version="1.0" encoding="utf-8"?>
<!-- Generator: Adobe Illustrator 16.0.0, SVG Export Plug-In . SVG Version: 6.00 Build 0)  -->
<!DOCTYPE svg PUBLIC "-//W3C//DTD SVG 1.1//EN" "http://www.w3.org/Graphics/SVG/1.1/DTD/svg11.dtd">
<svg version="1.1" id="Capa_1" xmlns="http://www.w3.org/2000/svg" xmlns:xlink="http://www.w3.org/1999/xlink" x="0px" y="0px"
	 width="757.732px" height="987px" viewBox="0 0 757.732 987" enable-background="new 0 0 757.732 987" xml:space="preserve">
<g>
	<path fill="currentColor" d="M629.147,448.656l124.654-270.053c9.855-21.351,0.541-46.646-20.815-56.504L507.644,18.083
		c-21.355-9.857-46.647-0.536-56.503,20.815L326.486,308.951C195.884,329.822,72.816,430.024,7.931,570.594
		c-9.855,21.35-0.541,46.646,20.814,56.504l249.94,115.371l-85.897,186.09c-6.569,14.23-0.361,31.098,13.876,37.67
		c14.237,6.57,31.1,0.354,37.669-13.877l85.897-186.09l249.941,115.369c21.355,9.857,46.648,0.535,56.503-20.814
		C701.568,720.242,697.984,561.58,629.147,448.656z M658.638,181.573l-98.919,214.301l-148.024-68.327l98.919-214.301
		L658.638,181.573z M104.985,568.498c57.47-97.967,148.899-164.833,243.216-176.466l203.626,93.992
		c52.333,79.318,60.755,192.281,23.481,299.57L104.985,568.498L104.985,568.498z"/>
</g>
</svg>
