<?xml version="1.0" encoding="utf-8"?>
<!-- Generator: Adobe Illustrator 16.0.0, SVG Export Plug-In . SVG Version: 6.00 Build 0)  -->
<!DOCTYPE svg PUBLIC "-//W3C//DTD SVG 1.1//EN" "http://www.w3.org/Graphics/SVG/1.1/DTD/svg11.dtd">
<svg version="1.1" id="Layer_1" xmlns="http://www.w3.org/2000/svg" xmlns:xlink="http://www.w3.org/1999/xlink" x="0px" y="0px"
	 width="52px" height="52px" viewBox="0 0 52 52" enable-background="new 0 0 52 52" xml:space="preserve">
<path fill="currentColor" d="M12.669,10.56c-4.635,0-8.392,3.757-8.392,8.392c0,2.561,1.15,4.85,2.958,6.389l-5.856,9.557
	c-0.245,0.4-0.089,0.938,0.348,1.207l1.48,0.907c0.436,0.266,0.987,0.161,1.231-0.239l5.972-9.745c0.72,0.2,1.475,0.316,2.258,0.316
	c4.634,0,8.392-3.757,8.392-8.392C21.061,14.317,17.303,10.56,12.669,10.56z M12.669,24.929c-3.301,0-5.977-2.676-5.977-5.977
	c0-3.3,2.676-5.977,5.977-5.977s5.977,2.676,5.977,5.977C18.646,22.252,15.97,24.929,12.669,24.929z"/>
<polygon fill="currentColor" points="43.752,1.889 11.125,1.889 10.734,1.889 9.25,1.889 9.25,9.438 11.125,9.438 11.125,3.764 43.752,3.764 
	43.752,28.338 45.627,26.344 45.627,3.764 45.627,1.889 "/>
<polygon fill="currentColor" points="43.752,37.785 43.752,45.273 36.438,45.273 34.75,47.148 43.752,47.148 45.626,47.148 45.627,47.148 45.627,35.938 
	"/>
<polygon fill="currentColor" points="22.531,45.375 11.125,45.375 11.125,29.451 9.25,29.451 9.25,47.25 10.734,47.25 11.125,47.25 24.375,47.25 "/>
<g>
	<path fill="currentColor" d="M20.593,13.319h18.608c0.553,0,1-0.448,1-1v-0.632c0-0.552-0.447-1-1-1H17.327C18.618,11.293,19.735,12.2,20.593,13.319z"
		/>
	<path fill="currentColor" d="M39.201,18.326c0.553,0,1-0.448,1-1v-0.632c0-0.552-0.447-1-1-1H21.89c0.298,0.828,0.475,1.71,0.512,2.632H39.201z"/>
	<path fill="currentColor" d="M39.201,23.332c0.553,0,1-0.448,1-1V21.7c0-0.552-0.447-1-1-1H22.181c-0.22,0.945-0.592,1.83-1.089,2.632H39.201z"/>
	<path fill="currentColor" d="M15.859,27.338c0,0.552,0.448,1,1,1h22.342c0.553,0,1-0.448,1-1v-0.632c0-0.552-0.447-1-1-1H18.942
		c-0.906,0.694-1.949,1.214-3.083,1.517V27.338z"/>
	<path fill="currentColor" d="M39.201,30.713H16.859c-0.552,0-1,0.447-1,1v0.632c0,0.552,0.448,1,1,1h22.342c0.553,0,1-0.448,1-1v-0.632
		C40.201,31.16,39.754,30.713,39.201,30.713z"/>
</g>
<polygon fill="currentColor" points="48.625,24.813 37.118,36.281 34.479,38.913 29.563,43.813 24.734,38.913 23.438,37.598 22.132,38.913 19.75,41.313 
	29.438,51 52.25,28.313 "/>
<path fill="currentColor" d="M24.406,37.946h9.744l2.64-2.632H16.455c-0.552,0-1,0.447-1,1v0.632c0,0.552,0.448,1,1,1h5.349l1.306-1.315L24.406,37.946z"
	/>
</svg>
