<?xml version="1.0" encoding="utf-8"?>
<!-- Generator: Adobe Illustrator 16.0.0, SVG Export Plug-In . SVG Version: 6.00 Build 0)  -->
<!DOCTYPE svg PUBLIC "-//W3C//DTD SVG 1.1//EN" "http://www.w3.org/Graphics/SVG/1.1/DTD/svg11.dtd">
<svg version="1.1" id="Capa_1" xmlns="http://www.w3.org/2000/svg" xmlns:xlink="http://www.w3.org/1999/xlink" x="0px" y="0px"
	 width="986.799px" height="987px" viewBox="0 0 986.799 987" enable-background="new 0 0 986.799 987" xml:space="preserve">
<g>
	<g>
		<g>
			<path fill="currentColor" d="M691.988,144.685c-29.018-16.524-59.849-29.421-92.091-38.287V73.551C599.897,33.048,566.851,0,526.347,0
				h-65.491c-40.504,0-73.552,33.048-73.552,73.551v32.847c-32.241,8.866-63.072,21.562-92.09,38.287l-23.376-23.174
				c-13.903-13.904-32.442-21.562-51.989-21.562s-38.086,7.657-51.99,21.562l-46.348,46.348
				c-13.904,13.904-21.562,32.443-21.562,51.989c0,19.547,7.657,38.086,21.562,51.99l23.174,23.174
				c-16.523,29.018-29.42,59.849-38.287,92.09H73.552C33.048,387.102,0,420.15,0,460.654v65.491
				c0,40.504,33.048,73.551,73.552,73.551h32.846c8.867,32.242,21.563,63.073,38.287,92.091l-23.174,23.375
				c-28.614,28.615-28.614,75.365,0,103.979l46.348,46.348c13.904,13.904,32.443,21.563,51.99,21.563s38.086-7.658,51.989-21.563
				l23.174-23.174c29.018,16.524,59.849,29.421,92.091,38.287v32.847c0,40.504,33.048,73.552,73.552,73.552h65.491
				c40.503,0,73.551-33.048,73.551-73.552v-32.847c32.242-8.866,63.073-21.562,92.091-38.287l23.174,23.174
				c13.904,13.904,32.442,21.562,51.989,21.562s38.086-7.657,51.99-21.562l46.348-46.348c28.614-28.614,28.614-75.364,0-103.979
				l-23.174-23.174c16.523-29.018,29.42-59.849,38.287-92.09h32.846c40.504,0,73.552-33.048,73.552-73.552v-65.491
				c0-40.503-33.048-73.551-73.552-73.551h-32.846c-8.867-32.242-21.563-63.073-38.287-92.091l23.174-23.174
				c28.614-28.614,28.614-75.365,0-103.979l-46.348-46.348c-13.904-13.904-32.443-21.562-51.99-21.562s-38.085,7.657-51.989,21.562
				L691.988,144.685z M764.129,170.277c1.813-1.813,4.434-1.813,6.247,0l46.348,46.348c1.813,1.813,1.813,4.433,0,6.247
				l-42.519,42.519c-11.688,11.688-13.501,30.025-4.231,43.728c24.383,36.271,40.906,76.574,49.369,119.294
				c3.225,16.121,17.33,27.809,33.854,27.809h60.251c2.419,0,4.434,2.016,4.434,4.434v65.491c0,2.418-2.015,4.433-4.434,4.433
				h-60.251c-16.524,0-30.63,11.688-33.854,27.809c-8.463,42.922-25.188,83.022-49.369,119.295
				c-9.27,13.702-7.457,32.04,4.231,43.728l42.519,42.519c1.813,1.813,1.813,4.434,0,6.247l-46.348,46.348
				c-1.612,1.813-4.434,1.612-6.247,0l-42.519-42.519c-11.688-11.688-30.025-13.502-43.728-4.232
				c-36.474,24.383-76.574,40.907-119.295,49.37c-16.12,3.225-27.809,17.33-27.809,33.854v60.251c0,2.419-2.015,4.434-4.433,4.434
				h-65.491c-2.418,0-4.434-2.015-4.434-4.434v-60.251c0-16.524-11.688-30.63-27.809-33.854
				c-42.72-8.463-83.022-25.188-119.294-49.37c-5.844-3.828-12.494-5.844-19.144-5.844c-8.866,0-17.733,3.426-24.383,10.076
				l-42.519,42.519c-1.814,1.813-4.434,1.813-6.247,0l-46.348-46.348c-1.813-1.813-1.813-4.434,0-6.247l42.519-42.519
				c11.688-11.688,13.502-30.025,4.232-43.728c-24.383-36.474-40.907-76.574-49.37-119.295c-3.225-16.12-17.33-27.809-33.854-27.809
				H73.552c-2.418,0-4.434-2.015-4.434-4.433v-65.491c0-2.418,2.016-4.434,4.434-4.434h60.252c16.523,0,30.629-11.688,33.854-27.809
				c8.463-42.72,25.188-83.022,49.37-119.294c9.067-13.702,7.456-32.04-4.231-43.728l-42.52-42.519
				c-0.806-0.807-1.209-1.814-1.209-3.225c0-1.209,0.403-2.217,1.209-3.022l46.348-46.348c1.813-1.813,4.434-1.813,6.247,0
				l42.519,42.519c11.688,11.688,30.025,13.501,43.729,4.231c36.473-24.383,76.574-40.906,119.294-49.37
				c16.121-3.224,27.809-17.329,27.809-33.854V73.551c0-2.418,2.015-4.433,4.433-4.433h65.491c2.419,0,4.434,2.015,4.434,4.433
				v60.252c0,16.524,11.688,30.63,27.809,33.854c42.72,8.464,83.022,25.189,119.294,49.371c13.703,9.067,32.041,7.455,43.729-4.232
				L764.129,170.277z"/>
			<path fill="currentColor" d="M493.5,292.795c-110.629,0-200.704,90.075-200.704,200.705c0,110.629,90.075,200.704,200.704,200.704
				c110.63,0,200.705-90.075,200.705-200.704C694.205,382.87,604.13,292.795,493.5,292.795z M493.5,625.086
				c-72.544,0-131.587-59.042-131.587-131.586S420.956,361.913,493.5,361.913S625.087,420.956,625.087,493.5
				S566.044,625.086,493.5,625.086z"/>
		</g>
	</g>
</g>
</svg>
