<?xml version="1.0" encoding="utf-8"?>
<!-- Generator: Adobe Illustrator 16.0.0, SVG Export Plug-In . SVG Version: 6.00 Build 0)  -->
<!DOCTYPE svg PUBLIC "-//W3C//DTD SVG 1.1//EN" "http://www.w3.org/Graphics/SVG/1.1/DTD/svg11.dtd">
<svg version="1.1" id="Layer_1" xmlns="http://www.w3.org/2000/svg" xmlns:xlink="http://www.w3.org/1999/xlink" x="0px" y="0px"
	 width="170px" height="150px" viewBox="0 0 170 150" enable-background="new 0 0 170 150" xml:space="preserve">
<g>
	<path fill="#FFFFFF" d="M85.222,117.018c-23.65,0-42.89-18.752-42.89-41.802c0-23.049,19.24-41.801,42.89-41.801
		c23.65,0,42.889,18.752,42.889,41.801C128.111,98.266,108.872,117.018,85.222,117.018z M85.222,36.416
		c-21.996,0-39.89,17.406-39.89,38.801c0,21.395,17.895,38.801,39.89,38.801c21.995,0,39.889-17.406,39.889-38.801
		C125.111,53.822,107.218,36.416,85.222,36.416z"/>
	<path fill="#FFFFFF" d="M82.5,150.5c-0.829,0-1.5-0.671-1.5-1.5v-22c0-0.829,0.671-1.5,1.5-1.5s1.5,0.671,1.5,1.5v22
		C84,149.829,83.329,150.5,82.5,150.5z"/>
	<path fill="#FFFFFF" d="M138.684,129.617c-0.377,0-0.754-0.141-1.045-0.426l-16.519-16.082c-0.595-0.578-0.606-1.526-0.028-2.121
		c0.578-0.594,1.527-0.606,2.121-0.027l16.518,16.082c0.594,0.578,0.605,1.527,0.027,2.121
		C139.464,129.465,139.074,129.617,138.684,129.617z"/>
	<path fill="#FFFFFF" d="M161,80h-23c-0.829,0-1.5-0.671-1.5-1.5s0.671-1.5,1.5-1.5h23c0.829,0,1.5,0.671,1.5,1.5S161.829,80,161,80
		z"/>
	<path fill="#FFFFFF" d="M123.037,40.743c-0.391,0-0.781-0.151-1.075-0.454c-0.578-0.593-0.565-1.543,0.028-2.121l16.517-16.082
		c0.593-0.577,1.543-0.565,2.121,0.028c0.578,0.593,0.565,1.543-0.028,2.121l-16.517,16.082
		C123.792,40.601,123.414,40.743,123.037,40.743z"/>
	<path fill="#FFFFFF" d="M83.5,24.5c-0.829,0-1.5-0.671-1.5-1.5V1c0-0.829,0.671-1.5,1.5-1.5S85,0.171,85,1v22
		C85,23.829,84.329,24.5,83.5,24.5z"/>
	<path fill="#FFFFFF" d="M48.276,39.896c-0.377,0-0.755-0.141-1.046-0.425L30.712,23.389c-0.594-0.578-0.606-1.527-0.028-2.121
		c0.578-0.594,1.527-0.607,2.121-0.028l16.518,16.082c0.594,0.578,0.606,1.527,0.028,2.121
		C49.057,39.744,48.667,39.896,48.276,39.896z"/>
	<path fill="#FFFFFF" d="M32,79H9c-0.829,0-1.5-0.671-1.5-1.5S8.171,76,9,76h23c0.829,0,1.5,0.671,1.5,1.5S32.829,79,32,79z"/>
	<path fill="#FFFFFF" d="M30.89,128.771c-0.391,0-0.781-0.151-1.075-0.455c-0.578-0.592-0.565-1.543,0.028-2.121l16.516-16.082
		c0.594-0.576,1.543-0.564,2.121,0.029c0.578,0.592,0.565,1.543-0.028,2.121l-16.516,16.082
		C31.645,128.629,31.268,128.771,30.89,128.771z"/>
</g>
</svg>
