<?xml version="1.0" encoding="utf-8"?>
<!-- Generator: Adobe Illustrator 16.0.0, SVG Export Plug-In . SVG Version: 6.00 Build 0)  -->
<!DOCTYPE svg PUBLIC "-//W3C//DTD SVG 1.1//EN" "http://www.w3.org/Graphics/SVG/1.1/DTD/svg11.dtd">
<svg version="1.1" id="Layer_1" xmlns="http://www.w3.org/2000/svg" xmlns:xlink="http://www.w3.org/1999/xlink" x="0px" y="0px"
	 width="170px" height="150px" viewBox="0 0 170 150" enable-background="new 0 0 170 150" xml:space="preserve">
<g>
	<path fill="#FFFFFF" d="M89.787,38.61c-0.385,0-0.768-0.146-1.061-0.439c-0.586-0.585-0.586-1.536,0-2.121l12.719-12.719
		c0.586-0.586,1.535-0.586,2.121,0c0.586,0.585,0.586,1.536,0,2.121L90.848,38.17C90.555,38.463,90.17,38.61,89.787,38.61z"/>
	<path fill="#FFFFFF" d="M59.5,26.5c-0.829,0-1.5-0.671-1.5-1.5V6c0-0.829,0.671-1.5,1.5-1.5S61,5.171,61,6v19
		C61,25.829,60.329,26.5,59.5,26.5z"/>
	<path fill="#FFFFFF" d="M32.214,37.941c-0.384,0-0.768-0.146-1.061-0.439l-12.72-12.72c-0.586-0.585-0.586-1.536,0-2.121
		c0.586-0.586,1.535-0.586,2.121,0l12.72,12.72c0.586,0.585,0.586,1.536,0,2.121C32.981,37.795,32.598,37.941,32.214,37.941z"/>
	<path fill="#FFFFFF" d="M20,69H2c-0.829,0-1.5-0.671-1.5-1.5S1.171,66,2,66h18c0.829,0,1.5,0.671,1.5,1.5S20.829,69,20,69z"/>
	<path fill="#FFFFFF" d="M18.825,108.232c-0.384,0-0.768-0.146-1.061-0.439c-0.586-0.585-0.586-1.536,0-2.121l12.718-12.718
		c0.586-0.586,1.535-0.586,2.121,0c0.586,0.585,0.586,1.536,0,2.121l-12.718,12.718C19.593,108.086,19.209,108.232,18.825,108.232z"
		/>
	<path fill="#FFFFFF" d="M53.451,98.184l-1.459-0.392C37.45,93.887,27.293,80.633,27.293,65.563
		c0-18.402,14.972-33.374,33.374-33.374c16.666,0,30.883,12.444,33.071,28.946l0.125,0.946l-0.803,0.515
		c-5.694,3.646-9.569,10.108-10.366,17.285l-0.212,1.911l-1.802-0.67c-2.158-0.802-4.408-1.209-6.685-1.209
		c-9.292,0-17.583,6.913-20.165,16.81L53.451,98.184z M60.667,35.189c-16.749,0-30.374,13.625-30.374,30.374
		c0,13.223,8.592,24.91,21.068,28.917c3.345-10.418,12.457-17.568,22.636-17.568c2.024,0,4.028,0.277,5.978,0.826
		c1.247-7,5.124-13.247,10.654-17.124C88.243,46.056,75.523,35.189,60.667,35.189z"/>
	<path fill="#FFFFFF" d="M99.314,146.17c-10.039,0-18.903-6.742-22.433-16.914c-0.97,0.129-1.936,0.194-2.886,0.194
		c-13.236,0-24.004-11.785-24.004-26.271c0-14.484,10.769-26.269,24.004-26.269c2.023,0,4.026,0.276,5.976,0.825
		c2.155-12.241,12.002-21.261,23.562-21.261c6.911,0,13.387,3.202,17.948,8.83c4.209-1.956,8.67-2.946,13.275-2.946
		c18.821,0,34.133,16.786,34.133,37.417s-15.312,37.416-34.133,37.416c-5.156,0-10.27-1.287-14.881-3.736
		C115.541,141.337,107.792,146.17,99.314,146.17z M78.969,125.839l0.385,1.304c2.833,9.586,10.854,16.026,19.96,16.026
		c7.81,0,14.932-4.765,18.584-12.433l0.709-1.486l1.414,0.843c4.5,2.681,9.595,4.099,14.735,4.099
		c17.167,0,31.134-15.439,31.134-34.418c0-18.977-13.967-34.416-31.134-34.416c-4.539,0-8.924,1.065-13.034,3.165l-1.136,0.581
		l-0.755-1.029c-4.014-5.466-9.954-8.601-16.298-8.601c-10.591,0-19.55,8.772-20.839,20.405l-0.211,1.911l-1.802-0.67
		c-2.158-0.802-4.408-1.209-6.685-1.209c-11.582,0-21.004,10.438-21.004,23.269c0,12.832,9.422,23.271,21.004,23.271
		c1.189,0,2.413-0.119,3.637-0.354L78.969,125.839z"/>
</g>
</svg>
