<?xml version="1.0" encoding="utf-8"?>
<!-- Generator: Adobe Illustrator 16.0.0, SVG Export Plug-In . SVG Version: 6.00 Build 0)  -->
<!DOCTYPE svg PUBLIC "-//W3C//DTD SVG 1.1//EN" "http://www.w3.org/Graphics/SVG/1.1/DTD/svg11.dtd">
<svg version="1.1" id="Layer_1" xmlns="http://www.w3.org/2000/svg" xmlns:xlink="http://www.w3.org/1999/xlink" x="0px" y="0px"
	 width="170px" height="150px" viewBox="0 0 170 150" enable-background="new 0 0 170 150" xml:space="preserve">
<g>
	<g>
		<path fill="#FFFFFF" d="M84.469,43.838c-0.384,0-0.768-0.146-1.061-0.439c-0.586-0.585-0.586-1.535,0-2.121l11.584-11.585
			c0.586-0.586,1.535-0.586,2.121,0c0.586,0.585,0.586,1.535,0,2.121L85.529,43.398C85.237,43.691,84.853,43.838,84.469,43.838z"/>
		<path fill="#FFFFFF" d="M56.5,32.5c-0.829,0-1.5-0.671-1.5-1.5V15c0-0.829,0.671-1.5,1.5-1.5S58,14.171,58,15v16
			C58,31.829,57.329,32.5,56.5,32.5z"/>
		<path fill="#FFFFFF" d="M32.034,43.229c-0.384,0-0.768-0.146-1.061-0.439L19.389,31.205c-0.586-0.586-0.586-1.536,0-2.121
			c0.586-0.586,1.535-0.586,2.121,0l11.584,11.585c0.586,0.586,0.586,1.536,0,2.121C32.802,43.083,32.418,43.229,32.034,43.229z"/>
		<path fill="#FFFFFF" d="M21,72H4c-0.829,0-1.5-0.671-1.5-1.5S3.171,69,4,69h17c0.829,0,1.5,0.671,1.5,1.5S21.829,72,21,72z"/>
		<path fill="#FFFFFF" d="M19.841,107.248c-0.384,0-0.768-0.146-1.061-0.439c-0.586-0.584-0.586-1.535,0-2.121l11.583-11.584
			c0.585-0.586,1.535-0.586,2.121,0s0.586,1.535,0,2.121l-11.583,11.584C20.609,107.102,20.225,107.248,19.841,107.248z"/>
		<path fill="#FFFFFF" d="M50.648,97.889l-1.459-0.393c-13.021-3.499-21.771-15.25-21.771-29.244c0-16.834,13.696-30.53,30.53-30.53
			c14.92,0,28.209,12.076,30.253,27.491l0.125,0.946l-0.805,0.515c-5.54,3.547-8.695,8.47-9.378,14.633l-0.212,1.91l-1.801-0.669
			c-1.953-0.726-3.985-1.094-6.042-1.094c-8.782,0-16.798,6.297-19.059,14.972L50.648,97.889z M57.948,40.722
			c-15.18,0-27.53,12.35-27.53,27.53c0,12.107,7.235,22.346,18.151,25.93c3.09-9.199,11.904-15.729,21.519-15.729
			c1.806,0,3.595,0.24,5.339,0.719c1.109-5.967,4.352-10.83,9.662-14.484C82.847,51.176,71.098,40.722,57.948,40.722z"/>
	</g>
	<g>
		<path fill="#FFFFFF" d="M153.873,102.219l0.159-3.105c0.024-0.5,0.04-1.002,0.04-1.506c0-15.703-12.774-28.478-28.477-28.478
			c-4.169,0-8.197,0.888-11.97,2.639l-1.062,0.493l-0.736-0.911c-3.664-4.532-9.1-7.131-14.916-7.131
			c-0.779,0-1.607,0.063-2.605,0.197l-0.693-2.903c3.021-1.048,6.281-1.192,9.352-0.418c1.746-8.787,8.912-15.209,17.299-15.209
			c5,0,9.691,2.267,13.043,6.262c3-1.344,6.172-2.025,9.443-2.025c13.785,0,25,12.276,25,27.364c0,9.273-4.242,17.843-11.348,22.923
			L153.873,102.219z M125.596,66.13c16.821,0,30.604,13.267,31.436,29.886c4.879-4.603,7.719-11.32,7.719-18.527
			c0-13.434-9.869-24.364-22-24.364c-3.203,0-6.297,0.751-9.197,2.232l-1.136,0.58l-0.755-1.028
			c-2.811-3.827-6.967-6.022-11.398-6.022c-7.357,0-13.592,6.065-14.57,14.138c2.912,1.255,5.545,3.139,7.718,5.56
			C117.275,66.955,121.37,66.13,125.596,66.13z"/>
		<path fill="#FFFFFF" d="M93.036,136.575c-9.206,0-17.353-5.619-20.657-14.11c-0.872,0.104-1.743,0.156-2.601,0.156
			c-12.226,0-22.173-9.947-22.173-22.174s9.947-22.172,22.173-22.172c1.832,0,3.646,0.225,5.413,0.67
			c2.078-10.22,11.124-17.725,21.721-17.725c6.339,0,12.289,2.67,16.498,7.364c3.865-1.629,7.959-2.454,12.186-2.454
			c17.354,0,31.475,14.12,31.475,31.478c0,17.354-14.119,31.475-31.475,31.475c-4.728,0-9.414-1.07-13.647-3.105
			C107.927,132.549,100.811,136.575,93.036,136.575z M74.402,119.102l0.403,1.237c2.576,7.917,9.902,13.236,18.231,13.236
			c7.151,0,13.661-3.941,16.987-10.286l0.707-1.346l1.336,0.723c4.127,2.232,8.806,3.414,13.529,3.414
			c15.701,0,28.475-12.773,28.475-28.475c0-15.703-12.773-28.478-28.475-28.478c-4.17,0-8.197,0.888-11.971,2.639l-1.063,0.493
			l-0.735-0.911c-3.664-4.532-9.101-7.131-14.916-7.131c-9.675,0-17.854,7.234-19.025,16.826l-0.223,1.83l-1.747-0.591
			c-1.98-0.67-4.045-1.01-6.139-1.01c-10.572,0-19.173,8.601-19.173,19.172c0,10.572,8.601,19.174,19.173,19.174
			c1.097,0,2.221-0.1,3.341-0.297L74.402,119.102z"/>
	</g>
</g>
</svg>
