<?xml version="1.0" encoding="utf-8"?>
<!-- Generator: Adobe Illustrator 16.0.0, SVG Export Plug-In . SVG Version: 6.00 Build 0)  -->
<!DOCTYPE svg PUBLIC "-//W3C//DTD SVG 1.1//EN" "http://www.w3.org/Graphics/SVG/1.1/DTD/svg11.dtd">
<svg version="1.1" id="Layer_1" xmlns="http://www.w3.org/2000/svg" xmlns:xlink="http://www.w3.org/1999/xlink" x="0px" y="0px"
	 width="170px" height="150px" viewBox="0 0 170 150" enable-background="new 0 0 170 150" xml:space="preserve">
<g>
	<path fill="#FFFFFF" d="M150.327,89.178l0.165-3.113c0.037-0.709,0.058-1.42,0.058-2.139c0-22.313-18.153-40.466-40.466-40.466
		c-5.926,0-11.648,1.261-17.009,3.75l-1.063,0.493l-0.734-0.91c-5.245-6.486-13.027-10.206-21.351-10.206
		c-1.133,0-2.316,0.09-3.726,0.282l-0.696-2.903c4.314-1.5,8.991-1.641,13.366-0.407c2.167-12.344,12.094-21.44,23.746-21.44
		c6.967,0,13.494,3.229,18.092,8.904c4.246-1.973,8.744-2.973,13.391-2.973c18.969,0,34.4,16.917,34.4,37.712
		c0,12.789-5.846,24.604-15.639,31.603L150.327,89.178z M110.084,40.46c23.661,0,42.968,19.004,43.456,42.55
		c7.539-6.564,11.96-16.527,11.96-27.249c0-19.14-14.087-34.712-31.4-34.712c-4.578,0-9.002,1.074-13.147,3.192l-1.138,0.58
		l-0.754-1.028c-4.051-5.514-10.043-8.676-16.442-8.676c-10.685,0-19.722,8.849-21.023,20.584l-0.021,0.188
		c4.289,1.775,8.154,4.533,11.29,8.126C98.316,41.656,104.104,40.46,110.084,40.46z"/>
	<path fill="#FFFFFF" d="M64.501,137.882c-12.795,0-24.101-7.907-28.526-19.81c-1.354,0.183-2.705,0.273-4.033,0.273
		C15.156,118.348,1.5,104.689,1.5,87.904c0-16.786,13.656-30.441,30.442-30.441c2.726,0,5.424,0.364,8.045,1.083
		c2.605-14.349,15.176-24.959,29.94-24.959c8.846,0,17.14,3.787,22.937,10.431c5.453-2.361,11.24-3.557,17.221-3.557
		c23.967,0,43.466,19.499,43.466,43.467c0,23.967-19.499,43.465-43.466,43.465c-6.711,0-13.363-1.563-19.337-4.531
		C85.281,132.164,75.357,137.882,64.501,137.882z M38.004,114.697l0.403,1.24c3.687,11.332,14.173,18.944,26.094,18.944
		c10.236,0,19.553-5.641,24.313-14.721l0.705-1.347l1.338,0.724c5.867,3.175,12.516,4.853,19.227,4.853
		c22.313,0,40.466-18.152,40.466-40.465c0-22.313-18.153-40.466-40.466-40.466c-5.926,0-11.648,1.261-17.009,3.749l-1.063,0.493
		l-0.734-0.91c-5.245-6.486-13.027-10.206-21.351-10.206c-13.848,0-25.554,10.354-27.229,24.083l-0.223,1.83l-1.746-0.59
		c-2.839-0.959-5.795-1.445-8.787-1.445C16.811,60.463,4.5,72.773,4.5,87.904c0,15.132,12.311,27.441,27.442,27.441
		c1.568,0,3.176-0.143,4.779-0.424L38.004,114.697z"/>
</g>
</svg>
