<?xml version="1.0" encoding="utf-8"?>
<!-- Generator: Adobe Illustrator 16.0.0, SVG Export Plug-In . SVG Version: 6.00 Build 0)  -->
<!DOCTYPE svg PUBLIC "-//W3C//DTD SVG 1.1//EN" "http://www.w3.org/Graphics/SVG/1.1/DTD/svg11.dtd">
<svg version="1.1" id="Layer_1" xmlns="http://www.w3.org/2000/svg" xmlns:xlink="http://www.w3.org/1999/xlink" x="0px" y="0px"
	 width="170px" height="150px" viewBox="0 0 170 150" enable-background="new 0 0 170 150" xml:space="preserve">
<g>
	<g>
		<path fill="#FFFFFF" d="M45.111,63.759c-12.238,0-22.195-9.712-22.195-21.65s9.957-21.65,22.195-21.65
			c12.238,0,22.195,9.712,22.195,21.65S57.35,63.759,45.111,63.759z M45.111,23.458c-10.584,0-19.195,8.367-19.195,18.65
			c0,10.283,8.611,18.65,19.195,18.65s19.195-8.367,19.195-18.65C64.306,31.825,55.695,23.458,45.111,23.458z"/>
		<path fill="#FFFFFF" d="M43.5,80.5c-0.828,0-1.5-0.671-1.5-1.5V68c0-0.829,0.672-1.5,1.5-1.5S45,67.171,45,68v11
			C45,79.829,44.328,80.5,43.5,80.5z"/>
		<path fill="#FFFFFF" d="M71.842,70.059c-0.377,0-0.755-0.141-1.047-0.425l-8.259-8.041c-0.593-0.578-0.605-1.527-0.028-2.121
			c0.579-0.593,1.527-0.606,2.122-0.028l8.259,8.041c0.593,0.578,0.605,1.527,0.028,2.121
			C72.622,69.907,72.232,70.059,71.842,70.059z"/>
		<path fill="#FFFFFF" d="M83,46H71c-0.828,0-1.5-0.671-1.5-1.5S70.172,43,71,43h12c0.828,0,1.5,0.671,1.5,1.5S83.828,46,83,46z"/>
		<path fill="#FFFFFF" d="M64.019,25.621c-0.391,0-0.78-0.151-1.074-0.454c-0.578-0.593-0.565-1.543,0.027-2.121l8.258-8.041
			c0.595-0.577,1.544-0.565,2.121,0.028c0.578,0.593,0.565,1.543-0.027,2.121l-8.258,8.041
			C64.773,25.479,64.396,25.621,64.019,25.621z"/>
		<path fill="#FFFFFF" d="M43.5,17.5c-0.828,0-1.5-0.671-1.5-1.5V5c0-0.829,0.672-1.5,1.5-1.5S45,4.171,45,5v11
			C45,16.829,44.328,17.5,43.5,17.5z"/>
		<path fill="#FFFFFF" d="M26.638,25.198c-0.377,0-0.755-0.141-1.047-0.425l-8.259-8.041c-0.593-0.578-0.605-1.527-0.028-2.121
			c0.58-0.592,1.528-0.606,2.122-0.028l8.259,8.041c0.593,0.578,0.605,1.527,0.028,2.121C27.418,25.046,27.028,25.198,26.638,25.198
			z"/>
		<path fill="#FFFFFF" d="M18,45H7c-0.828,0-1.5-0.671-1.5-1.5S6.172,42,7,42h11c0.828,0,1.5,0.671,1.5,1.5S18.828,45,18,45z"/>
		<path fill="#FFFFFF" d="M17.945,69.636c-0.391,0-0.78-0.151-1.074-0.454c-0.578-0.593-0.565-1.543,0.027-2.121l8.258-8.041
			c0.595-0.577,1.544-0.565,2.121,0.028c0.578,0.593,0.565,1.543-0.027,2.121l-8.258,8.041C18.7,69.494,18.322,69.636,17.945,69.636
			z"/>
	</g>
	<g>
		<path fill="#FFFFFF" d="M154.832,122.605l0.165-3.112c0.019-0.341,0.028-0.685,0.028-1.03c0-10.742-8.74-19.482-19.483-19.482
			c-2.854,0-5.608,0.606-8.188,1.805l-1.063,0.492l-0.734-0.909c-2.479-3.066-6.158-4.825-10.093-4.825
			c-0.532,0-1.092,0.042-1.761,0.134l-0.696-2.903c2.044-0.711,4.249-0.852,6.351-0.409c1.414-6.126,6.511-10.556,12.451-10.556
			c3.527,0,6.84,1.547,9.256,4.287c2.066-0.878,4.242-1.322,6.484-1.322c9.898,0,17.951,8.795,17.951,19.606
			c0,6.636-3.04,12.771-8.133,16.412L154.832,122.605z M135.542,95.98c11.681,0,21.308,8.949,22.384,20.353
			c2.903-3.101,4.574-7.381,4.574-11.952c0-9.156-6.707-16.605-14.951-16.605c-2.17,0-4.267,0.509-6.23,1.514l-1.137,0.581
			l-0.756-1.028c-1.882-2.563-4.658-4.031-7.617-4.031c-4.822,0-8.925,3.912-9.707,9.172c1.879,0.858,3.59,2.084,5.03,3.629
			C129.807,96.527,132.63,95.98,135.542,95.98z"/>
		<path fill="#FFFFFF" d="M112.75,146.191c-6.514,0-12.291-3.907-14.749-9.844c-9.479,0.913-17.501-6.584-17.501-15.896
			c0-8.806,7.164-15.972,15.971-15.972c1.163,0,2.317,0.127,3.447,0.377c1.667-7.129,8.07-12.315,15.546-12.315
			c4.459,0,8.649,1.834,11.668,5.067c2.675-1.082,5.498-1.631,8.41-1.631c12.397,0,22.483,10.086,22.483,22.483
			s-10.086,22.481-22.483,22.481c-3.241,0-6.456-0.704-9.384-2.047C123.227,143.43,118.213,146.191,112.75,146.191z
			 M100.014,132.998l0.403,1.238c1.742,5.355,6.699,8.955,12.333,8.955c4.838,0,9.242-2.668,11.494-6.959l0.706-1.346l1.336,0.723
			c2.823,1.527,6.024,2.336,9.256,2.336c10.743,0,19.483-8.74,19.483-19.482s-8.74-19.482-19.483-19.482
			c-2.854,0-5.608,0.606-8.188,1.805l-1.063,0.492l-0.734-0.909c-2.479-3.066-6.158-4.825-10.093-4.825
			c-6.545,0-12.077,4.895-12.87,11.382l-0.224,1.83l-1.746-0.59c-1.342-0.453-2.739-0.683-4.153-0.683
			c-7.152,0-12.971,5.818-12.971,12.971s5.818,12.971,12.971,12.971c0.741,0,1.502-0.066,2.262-0.201L100.014,132.998z"/>
	</g>
	<g>
		<path fill="#FFFFFF" d="M0,151c-0.276,0-0.552-0.114-0.75-0.338c-0.365-0.414-0.326-1.046,0.089-1.412l170-150
			c0.412-0.364,1.045-0.326,1.411,0.088c0.365,0.414,0.326,1.046-0.089,1.412l-170,150C0.472,150.917,0.235,151,0,151z"/>
		<polygon fill="#FFFFFF" points="41.784,99.031 49.473,91.341 61.778,103.646 67.064,98.359 66.873,116.43 48.8,116.622 
			54.086,111.336 		"/>
	</g>
</g>
</svg>
