<?xml version="1.0" encoding="utf-8"?>
<!-- Generator: Adobe Illustrator 16.0.0, SVG Export Plug-In . SVG Version: 6.00 Build 0)  -->
<!DOCTYPE svg PUBLIC "-//W3C//DTD SVG 1.1//EN" "http://www.w3.org/Graphics/SVG/1.1/DTD/svg11.dtd">
<svg version="1.1" id="Layer_1" xmlns="http://www.w3.org/2000/svg" xmlns:xlink="http://www.w3.org/1999/xlink" x="0px" y="0px"
	 width="170px" height="150px" viewBox="0 0 170 150" enable-background="new 0 0 170 150" xml:space="preserve">
<g>
	<g>
		<path fill="#FFFFFF" d="M129.111,131.759c-12.238,0-22.195-9.712-22.195-21.649c0-11.938,9.957-21.65,22.195-21.65
			s22.195,9.712,22.195,21.65C151.307,122.047,141.35,131.759,129.111,131.759z M129.111,91.458
			c-10.584,0-19.195,8.367-19.195,18.649c0,10.283,8.611,18.65,19.195,18.65s19.195-8.367,19.195-18.65
			C148.307,99.825,139.695,91.458,129.111,91.458z"/>
		<path fill="#FFFFFF" d="M127.5,148.5c-0.828,0-1.5-0.671-1.5-1.5v-11c0-0.829,0.672-1.5,1.5-1.5s1.5,0.671,1.5,1.5v11
			C129,147.829,128.328,148.5,127.5,148.5z"/>
		<path fill="#FFFFFF" d="M155.842,138.059c-0.377,0-0.755-0.141-1.047-0.425l-8.259-8.041c-0.593-0.577-0.604-1.526-0.028-2.12
			c0.58-0.593,1.528-0.607,2.122-0.029l8.259,8.041c0.594,0.578,0.605,1.527,0.028,2.121
			C156.622,137.907,156.232,138.059,155.842,138.059z"/>
		<path fill="#FFFFFF" d="M167,114h-12c-0.828,0-1.5-0.671-1.5-1.5s0.672-1.5,1.5-1.5h12c0.828,0,1.5,0.671,1.5,1.5
			S167.828,114,167,114z"/>
		<path fill="#FFFFFF" d="M148.02,93.621c-0.392,0-0.781-0.15-1.074-0.454c-0.578-0.593-0.565-1.543,0.027-2.121l8.258-8.041
			c0.595-0.577,1.543-0.565,2.121,0.028c0.578,0.593,0.564,1.543-0.027,2.121l-8.258,8.041
			C148.773,93.479,148.396,93.621,148.02,93.621z"/>
		<path fill="#FFFFFF" d="M127.5,85.5c-0.828,0-1.5-0.671-1.5-1.5V73c0-0.829,0.672-1.5,1.5-1.5s1.5,0.671,1.5,1.5v11
			C129,84.829,128.328,85.5,127.5,85.5z"/>
		<path fill="#FFFFFF" d="M110.639,93.198c-0.377,0-0.756-0.142-1.048-0.425l-8.259-8.041c-0.594-0.578-0.605-1.527-0.027-2.121
			c0.579-0.594,1.526-0.606,2.121-0.028l8.26,8.041c0.592,0.578,0.604,1.526,0.027,2.121
			C111.418,93.046,111.027,93.198,110.639,93.198z"/>
		<path fill="#FFFFFF" d="M102,113H91c-0.828,0-1.5-0.671-1.5-1.5s0.672-1.5,1.5-1.5h11c0.828,0,1.5,0.671,1.5,1.5
			S102.828,113,102,113z"/>
		<path fill="#FFFFFF" d="M101.945,137.636c-0.391,0-0.78-0.151-1.074-0.454c-0.578-0.593-0.564-1.543,0.027-2.121l8.258-8.041
			c0.596-0.576,1.544-0.564,2.121,0.028c0.578,0.593,0.564,1.543-0.027,2.121l-8.258,8.041
			C102.7,137.494,102.322,137.636,101.945,137.636z"/>
	</g>
	<g>
		<path fill="#FFFFFF" d="M80.832,50.605l0.165-3.112c0.019-0.341,0.028-0.684,0.028-1.03c0-10.743-8.74-19.483-19.483-19.483
			c-2.854,0-5.608,0.607-8.188,1.805l-1.063,0.493l-0.735-0.91c-2.479-3.066-6.158-4.825-10.092-4.825
			c-0.532,0-1.092,0.042-1.761,0.134l-0.696-2.903c2.044-0.712,4.249-0.852,6.35-0.41c1.415-6.126,6.511-10.556,12.452-10.556
			c3.527,0,6.84,1.548,9.256,4.288c2.066-0.878,4.242-1.322,6.484-1.322c9.898,0,17.951,8.795,17.951,19.606
			c0,6.636-3.04,12.771-8.133,16.412L80.832,50.605z M61.542,23.98c11.68,0,21.308,8.95,22.384,20.353
			c2.903-3.101,4.574-7.381,4.574-11.952c0-9.157-6.707-16.606-14.951-16.606c-2.17,0-4.267,0.509-6.231,1.514l-1.136,0.581
			l-0.756-1.028c-1.882-2.563-4.658-4.032-7.617-4.032c-4.822,0-8.925,3.912-9.707,9.172c1.879,0.859,3.589,2.084,5.03,3.63
			C55.807,24.528,58.63,23.98,61.542,23.98z"/>
		<path fill="#FFFFFF" d="M38.75,74.191c-6.514,0-12.291-3.907-14.749-9.843C14.521,65.263,6.5,57.764,6.5,48.452
			c0-8.806,7.164-15.971,15.971-15.971c1.163,0,2.317,0.126,3.447,0.376c1.667-7.129,8.071-12.315,15.546-12.315
			c4.459,0,8.65,1.834,11.668,5.068c2.675-1.083,5.498-1.631,8.41-1.631c12.397,0,22.483,10.086,22.483,22.483
			S73.939,68.945,61.542,68.945c-3.241,0-6.456-0.705-9.384-2.048C49.227,71.43,44.213,74.191,38.75,74.191z M26.014,60.998
			l0.403,1.238c1.742,5.356,6.699,8.955,12.333,8.955c4.838,0,9.242-2.667,11.494-6.959l0.706-1.346l1.336,0.723
			c2.824,1.528,6.024,2.336,9.256,2.336c10.743,0,19.483-8.74,19.483-19.482c0-10.742-8.74-19.483-19.483-19.483
			c-2.854,0-5.608,0.607-8.188,1.805l-1.063,0.493l-0.735-0.91c-2.479-3.066-6.158-4.825-10.092-4.825
			c-6.545,0-12.078,4.894-12.87,11.382l-0.224,1.83l-1.746-0.59c-1.342-0.453-2.739-0.683-4.153-0.683
			C15.318,35.481,9.5,41.3,9.5,48.452c0,7.152,5.818,12.971,12.971,12.971c0.741,0,1.502-0.067,2.261-0.201L26.014,60.998z"/>
	</g>
	<g>
		<path fill="#FFFFFF" d="M0,151c-0.276,0-0.552-0.114-0.75-0.338c-0.365-0.414-0.326-1.046,0.089-1.412l170-150
			c0.413-0.364,1.044-0.326,1.411,0.088c0.365,0.414,0.326,1.046-0.089,1.412l-170,150C0.472,150.917,0.235,151,0,151z"/>
		<polygon fill="#FFFFFF" points="41.784,99.031 49.473,91.341 61.778,103.646 67.064,98.359 66.873,116.43 48.8,116.622 
			54.086,111.336 		"/>
	</g>
</g>
</svg>
