<?xml version="1.0" encoding="utf-8"?>
<!-- Generator: Adobe Illustrator 16.0.0, SVG Export Plug-In . SVG Version: 6.00 Build 0)  -->
<!DOCTYPE svg PUBLIC "-//W3C//DTD SVG 1.1//EN" "http://www.w3.org/Graphics/SVG/1.1/DTD/svg11.dtd">
<svg version="1.1" id="Layer_1" xmlns="http://www.w3.org/2000/svg" xmlns:xlink="http://www.w3.org/1999/xlink" x="0px" y="0px"
	 width="170px" height="150px" viewBox="0 0 170 150" enable-background="new 0 0 170 150" xml:space="preserve">
<g>
	<g>
		<path fill="#FFFFFF" d="M130,97H32v-1.5c0-26.371,22.629-48.65,49.001-48.65C107.371,46.85,130,69.129,130,95.5V97z M35.375,94
			h91.25C125.802,69.916,105.244,49.85,81,49.85S36.198,69.916,35.375,94z"/>
		<path fill="#FFFFFF" d="M89.137,145.979c-6.593,0-9.492-5.435-10.104-8.308L79,137.357V95c0-0.828,0.671-1.5,1.5-1.5
			S82,94.172,82,95v42.18c0.236,0.9,1.769,5.799,7.137,5.799c5.539,0,6.232-5.226,6.293-5.82c0.084-0.821,0.791-1.428,1.639-1.344
			c0.822,0.08,1.426,0.806,1.349,1.627C98.143,140.395,95.85,145.979,89.137,145.979z"/>
		<path fill="#FFFFFF" d="M80.5,49.5c-0.829,0-1.5-0.672-1.5-1.5v-6c0-0.828,0.671-1.5,1.5-1.5S82,41.172,82,42v6
			C82,48.828,81.329,49.5,80.5,49.5z"/>
	</g>
	<g>
		<path fill="#FFFFFF" d="M38.64,20.396c-0.128,0-0.258-0.016-0.387-0.051c-0.8-0.213-1.276-1.035-1.063-1.836l3.57-13.396
			c0.213-0.8,1.034-1.28,1.835-1.063c0.8,0.213,1.276,1.035,1.063,1.836l-3.57,13.396C39.91,19.953,39.303,20.396,38.64,20.396z"/>
		<path fill="#FFFFFF" d="M81.395,20.396c-0.128,0-0.258-0.016-0.387-0.051c-0.801-0.213-1.276-1.035-1.063-1.836l3.57-13.396
			c0.213-0.8,1.036-1.28,1.835-1.063c0.8,0.213,1.277,1.035,1.063,1.836l-3.57,13.396C82.664,19.953,82.058,20.396,81.395,20.396z"
			/>
		<path fill="#FFFFFF" d="M124.15,20.396c-0.129,0-0.258-0.016-0.387-0.051c-0.802-0.213-1.277-1.035-1.063-1.835l3.569-13.396
			c0.213-0.802,1.037-1.281,1.834-1.063c0.801,0.213,1.277,1.035,1.063,1.835l-3.569,13.396
			C125.42,19.953,124.813,20.396,124.15,20.396z"/>
		<path fill="#FFFFFF" d="M54.686,40.404c-0.128,0-0.258-0.016-0.387-0.051c-0.8-0.213-1.276-1.035-1.063-1.836l8.902-33.404
			c0.213-0.8,1.035-1.28,1.835-1.063c0.8,0.213,1.276,1.035,1.063,1.836L56.134,39.29C55.955,39.962,55.349,40.404,54.686,40.404z"
			/>
		<path fill="#FFFFFF" d="M97.439,40.404c-0.127,0-0.258-0.016-0.388-0.051c-0.8-0.213-1.276-1.035-1.063-1.836l8.902-33.404
			c0.213-0.8,1.034-1.28,1.836-1.063c0.801,0.213,1.276,1.035,1.063,1.836L98.889,39.29C98.71,39.962,98.104,40.404,97.439,40.404z"
			/>
	</g>
</g>
</svg>
