<?xml version="1.0" encoding="utf-8"?>
<!-- Generator: Adobe Illustrator 16.0.0, SVG Export Plug-In . SVG Version: 6.00 Build 0)  -->
<!DOCTYPE svg PUBLIC "-//W3C//DTD SVG 1.1//EN" "http://www.w3.org/Graphics/SVG/1.1/DTD/svg11.dtd">
<svg version="1.1" id="Layer_1" xmlns="http://www.w3.org/2000/svg" xmlns:xlink="http://www.w3.org/1999/xlink" x="0px" y="0px"
	 width="170px" height="150px" viewBox="0 0 170 150" enable-background="new 0 0 170 150" xml:space="preserve">
<g>
	<g>
		<path fill="#FFFFFF" d="M35.347,130.25c-0.128,0-0.258-0.018-0.388-0.051c-0.8-0.213-1.276-1.035-1.063-1.836L37.191,116
			c0.213-0.801,1.033-1.279,1.836-1.063c0.8,0.213,1.276,1.035,1.063,1.834l-3.295,12.365
			C36.616,129.807,36.01,130.25,35.347,130.25z"/>
		<path fill="#FFFFFF" d="M74.808,130.25c-0.128,0-0.258-0.018-0.387-0.051c-0.801-0.213-1.277-1.035-1.063-1.836L76.651,116
			c0.213-0.801,1.039-1.279,1.835-1.063c0.801,0.213,1.277,1.035,1.063,1.834l-3.294,12.365
			C76.077,129.807,75.471,130.25,74.808,130.25z"/>
		<path fill="#FFFFFF" d="M114.268,130.25c-0.127,0-0.258-0.018-0.388-0.051c-0.8-0.213-1.276-1.035-1.063-1.836L116.111,116
			c0.214-0.801,1.033-1.279,1.837-1.063c0.8,0.213,1.276,1.035,1.063,1.834l-3.296,12.365
			C115.537,129.807,114.932,130.25,114.268,130.25z"/>
		<path fill="#FFFFFF" d="M50.156,148.717c-0.128,0-0.258-0.017-0.388-0.051c-0.8-0.213-1.276-1.035-1.063-1.835L56.922,116
			c0.213-0.801,1.032-1.279,1.836-1.063c0.8,0.213,1.276,1.035,1.063,1.834l-8.216,30.832
			C51.426,148.273,50.819,148.717,50.156,148.717z"/>
		<path fill="#FFFFFF" d="M89.616,148.717c-0.128,0-0.259-0.017-0.388-0.051c-0.801-0.213-1.276-1.035-1.063-1.835L96.382,116
			c0.214-0.801,1.033-1.279,1.836-1.063c0.8,0.213,1.276,1.035,1.063,1.834l-8.217,30.832
			C90.887,148.273,90.279,148.717,89.616,148.717z"/>
	</g>
	<g>
		<path fill="#FFFFFF" d="M138.559,65.601l0.166-3.112c0.03-0.579,0.047-1.162,0.047-1.749c0-18.248-14.846-33.094-33.094-33.094
			c-4.848,0-9.527,1.031-13.91,3.066l-1.063,0.493l-0.734-0.911c-4.272-5.284-10.613-8.315-17.396-8.315
			c-0.917,0-1.882,0.073-3.036,0.23l-0.695-2.903c3.513-1.223,7.319-1.367,10.896-0.417C81.65,8.734,89.879,1.283,99.521,1.283
			c5.758,0,11.156,2.637,14.99,7.279c3.479-1.586,7.159-2.389,10.961-2.389c15.781,0,28.621,14.064,28.621,31.351
			c0,10.628-4.859,20.447-13.001,26.265L138.559,65.601z M105.678,24.646c19.459,0,35.368,15.476,36.069,34.766
			c5.901-5.361,9.349-13.329,9.349-21.889c0-15.633-11.494-28.351-25.621-28.351c-3.733,0-7.341,0.875-10.719,2.602l-1.136,0.581
			l-0.757-1.028c-3.287-4.477-8.15-7.044-13.342-7.044c-8.658,0-15.987,7.173-17.063,16.692c3.442,1.456,6.552,3.676,9.097,6.549
			C96.029,25.614,100.775,24.646,105.678,24.646z"/>
		<path fill="#FFFFFF" d="M68.102,105.48c-10.588,0-19.952-6.5-23.688-16.303c-1.06,0.133-2.115,0.2-3.151,0.2
			c-13.982,0-25.358-11.376-25.358-25.358s11.376-25.357,25.358-25.357c2.174,0,4.328,0.278,6.426,0.828
			C49.97,27.681,60.373,18.98,72.576,18.98c7.306,0,14.158,3.1,18.979,8.544c4.478-1.91,9.223-2.877,14.125-2.877
			c19.901,0,36.094,16.191,36.094,36.094c0,19.901-16.191,36.093-36.094,36.093c-5.49,0-10.936-1.26-15.839-3.654
			C85.262,100.805,77.063,105.48,68.102,105.48z M46.439,85.809l0.403,1.237c3.003,9.231,11.546,15.437,21.259,15.437
			c8.341,0,15.932-4.596,19.811-11.994l0.705-1.346l1.337,0.723c4.798,2.596,10.235,3.969,15.724,3.969
			c18.248,0,33.094-14.846,33.094-33.093c0-18.248-14.846-33.094-33.094-33.094c-4.848,0-9.527,1.031-13.91,3.066l-1.063,0.493
			l-0.734-0.911c-4.272-5.284-10.613-8.315-17.396-8.315c-11.283,0-20.82,8.435-22.184,19.621l-0.224,1.829l-1.746-0.59
			c-2.313-0.781-4.723-1.178-7.159-1.178c-12.328,0-22.358,10.029-22.358,22.357c0,12.329,10.03,22.358,22.358,22.358
			c1.274,0,2.585-0.115,3.895-0.346L46.439,85.809z"/>
	</g>
</g>
</svg>
