<?xml version="1.0" encoding="utf-8"?>
<!-- Generator: Adobe Illustrator 16.0.0, SVG Export Plug-In . SVG Version: 6.00 Build 0)  -->
<!DOCTYPE svg PUBLIC "-//W3C//DTD SVG 1.1//EN" "http://www.w3.org/Graphics/SVG/1.1/DTD/svg11.dtd">
<svg version="1.1" id="Layer_1" xmlns="http://www.w3.org/2000/svg" xmlns:xlink="http://www.w3.org/1999/xlink" x="0px" y="0px"
	 width="170px" height="150px" viewBox="0 0 170 150" enable-background="new 0 0 170 150" xml:space="preserve">
<g>
	<g>
		<g>
			<path fill="#FFFFFF" d="M100.174,135.375c-0.128,0-0.258-0.018-0.388-0.051c-0.8-0.213-1.276-1.035-1.063-1.835l1.647-6.183
				c0.213-0.8,1.032-1.275,1.836-1.063c0.8,0.213,1.276,1.035,1.063,1.835l-1.647,6.182
				C101.443,134.932,100.837,135.375,100.174,135.375z"/>
			<path fill="#FFFFFF" d="M119.904,135.375c-0.129,0-0.258-0.018-0.389-0.051c-0.8-0.213-1.275-1.035-1.063-1.835l1.646-6.183
				c0.213-0.8,1.032-1.275,1.836-1.063c0.801,0.213,1.276,1.035,1.063,1.835l-1.647,6.182
				C121.174,134.932,120.566,135.375,119.904,135.375z"/>
			<path fill="#FFFFFF" d="M139.634,135.375c-0.128,0-0.258-0.018-0.388-0.051c-0.801-0.213-1.275-1.035-1.063-1.835l1.647-6.183
				c0.213-0.801,1.032-1.275,1.836-1.063c0.8,0.213,1.276,1.035,1.063,1.835l-1.648,6.182
				C140.902,134.934,140.297,135.375,139.634,135.375z"/>
			<path fill="#FFFFFF" d="M107.579,144.609c-0.128,0-0.259-0.018-0.388-0.051c-0.801-0.213-1.276-1.035-1.063-1.836l4.107-15.416
				c0.213-0.8,1.037-1.275,1.834-1.063c0.802,0.213,1.277,1.035,1.063,1.835l-4.106,15.416
				C108.85,144.166,108.242,144.609,107.579,144.609z"/>
			<path fill="#FFFFFF" d="M127.309,144.609c-0.127,0-0.258-0.018-0.388-0.051c-0.8-0.213-1.276-1.035-1.063-1.836l4.108-15.416
				c0.214-0.8,1.034-1.275,1.836-1.063c0.8,0.213,1.276,1.035,1.063,1.835l-4.108,15.416
				C128.578,144.166,127.973,144.609,127.309,144.609z"/>
		</g>
		<g>
			<path fill="#FFFFFF" d="M150.953,103.813l0.16-3.105c0.015-0.277,0.021-0.557,0.021-0.837c0-8.71-7.087-15.797-15.797-15.797
				c-2.313,0-4.548,0.491-6.639,1.463l-1.063,0.493l-0.736-0.91c-1.993-2.465-4.951-3.879-8.114-3.879
				c-0.423,0-0.873,0.035-1.417,0.107l-0.694-2.902c1.65-0.574,3.421-0.709,5.124-0.396c1.273-5.039,5.521-8.657,10.463-8.657
				c2.924,0,5.67,1.255,7.7,3.483c1.683-0.689,3.452-1.038,5.272-1.038c8.306,0,15.062,7.368,15.062,16.425
				c0,5.557-2.547,10.694-6.813,13.743L150.953,103.813z M135.339,81.073c9.562,0,17.479,7.176,18.647,16.426
				c2.107-2.465,3.311-5.746,3.311-9.237c0-7.402-5.41-13.425-12.061-13.425c-1.748,0-3.436,0.41-5.018,1.22l-1.136,0.58
				l-0.756-1.027c-1.501-2.044-3.714-3.216-6.065-3.216c-3.785,0-7.016,3.033-7.712,7.142c1.455,0.691,2.785,1.648,3.925,2.836
				C130.661,81.509,132.965,81.073,135.339,81.073z"/>
			<path fill="#FFFFFF" d="M116.551,122.991c-5.412,0-10.22-3.207-12.326-8.099c-7.887,0.646-14.521-5.617-14.521-13.383
				c0-7.404,6.023-13.429,13.429-13.429c0.892,0,1.776,0.088,2.646,0.263c1.49-5.865,6.813-10.104,13.011-10.104
				c3.688,0,7.159,1.492,9.688,4.13c2.186-0.861,4.488-1.297,6.862-1.297c10.364,0,18.798,8.432,18.798,18.797
				c0,10.364-8.434,18.796-18.798,18.796c-2.634,0-5.247-0.557-7.639-1.619C125.221,120.746,121.068,122.991,116.551,122.991z
				 M106.23,111.553l0.403,1.238c1.4,4.307,5.386,7.2,9.916,7.2c3.892,0,7.433-2.144,9.241-5.595l0.705-1.347l1.337,0.724
				c2.29,1.238,4.885,1.894,7.505,1.894c8.71,0,15.797-7.086,15.797-15.796s-7.087-15.797-15.797-15.797
				c-2.313,0-4.548,0.492-6.639,1.463l-1.063,0.492L126.9,85.12c-1.993-2.466-4.951-3.879-8.114-3.879
				c-5.263,0-9.711,3.934-10.347,9.151l-0.225,1.83l-1.746-0.591c-1.078-0.364-2.201-0.549-3.34-0.549
				c-5.75,0-10.429,4.678-10.429,10.429c0,6.344,5.702,11.418,12.247,10.268L106.23,111.553z"/>
		</g>
	</g>
	<g>
		<path fill="#FFFFFF" d="M0,151c-0.276,0-0.552-0.114-0.75-0.338c-0.365-0.414-0.326-1.046,0.089-1.412l170-150
			c0.413-0.364,1.045-0.326,1.411,0.088c0.365,0.414,0.326,1.046-0.089,1.412l-170,150C0.472,150.917,0.235,151,0,151z"/>
		<polygon fill="#FFFFFF" points="41.784,99.031 49.473,91.341 61.778,103.646 67.064,98.359 66.873,116.43 48.8,116.622 
			54.086,111.336 		"/>
	</g>
	<g>
		<g>
			<path fill="#FFFFFF" d="M46.797,21.188c-0.384,0-0.768-0.146-1.061-0.439c-0.586-0.586-0.586-1.536,0-2.121l5.793-5.792
				c0.586-0.586,1.535-0.586,2.121,0s0.586,1.536,0,2.121l-5.793,5.792C47.564,21.041,47.181,21.188,46.797,21.188z"/>
			<path fill="#FFFFFF" d="M32.5,15.5c-0.828,0-1.5-0.671-1.5-1.5V6c0-0.829,0.672-1.5,1.5-1.5S34,5.171,34,6v8
				C34,14.829,33.328,15.5,32.5,15.5z"/>
			<path fill="#FFFFFF" d="M20.58,20.884c-0.384,0-0.768-0.146-1.061-0.439l-5.793-5.793c-0.586-0.585-0.586-1.536,0-2.121
				c0.586-0.586,1.535-0.586,2.121,0l5.793,5.793c0.586,0.585,0.586,1.536,0,2.121C21.348,20.737,20.964,20.884,20.58,20.884z"/>
			<path fill="#FFFFFF" d="M15,36H7c-0.828,0-1.5-0.671-1.5-1.5S6.172,33,7,33h8c0.828,0,1.5,0.671,1.5,1.5S15.828,36,15,36z"/>
			<path fill="#FFFFFF" d="M14.482,52.893c-0.384,0-0.768-0.146-1.061-0.439c-0.586-0.585-0.586-1.536,0-2.121l5.792-5.792
				c0.586-0.586,1.535-0.586,2.121,0c0.586,0.585,0.586,1.536,0,2.121l-5.792,5.792C15.25,52.746,14.866,52.893,14.482,52.893z"/>
			<path fill="#FFFFFF" d="M30.422,48.383l-1.46-0.392c-6.843-1.838-11.44-8.006-11.44-15.346c0-8.831,7.185-16.015,16.016-16.015
				c7.828,0,14.799,6.324,15.87,14.396l0.125,0.946l-0.804,0.515c-2.57,1.646-4.033,3.922-4.349,6.768l-0.212,1.909l-1.802-0.668
				c-0.894-0.332-1.821-0.5-2.759-0.5c-4.056,0-7.759,2.913-8.805,6.925L30.422,48.383z M33.537,19.63
				c-7.177,0-13.016,5.838-13.016,13.015c0,5.469,3.114,10.129,7.882,12.008c1.847-4.517,6.332-7.657,11.204-7.657
				c0.707,0,1.41,0.069,2.104,0.206c0.682-2.666,2.237-4.938,4.573-6.671C45.041,24.35,39.604,19.63,33.537,19.63z"/>
		</g>
		<g>
			<path fill="#FFFFFF" d="M80.667,51.145l0.162-3.108c0.013-0.237,0.019-0.475,0.019-0.714c0-7.438-6.051-13.488-13.487-13.488
				c-1.975,0-3.882,0.42-5.67,1.25l-1.062,0.492l-0.735-0.91c-1.689-2.089-4.195-3.287-6.875-3.287c-0.358,0-0.74,0.029-1.201,0.092
				l-0.694-2.903c1.406-0.488,2.91-0.617,4.358-0.383c1.18-4.36,4.896-7.473,9.212-7.473c2.545,0,4.939,1.073,6.727,2.98
				c1.445-0.573,2.96-0.862,4.518-0.862c7.306,0,13.25,6.475,13.25,14.433c0,4.879-2.238,9.392-5.988,12.072L80.667,51.145z
				 M67.36,30.834c8.229,0,15.07,6.061,16.293,13.954c1.618-2.056,2.535-4.71,2.535-7.525c0-6.304-4.599-11.433-10.25-11.433
				c-1.48,0-2.913,0.348-4.258,1.034l-1.136,0.58l-0.755-1.027c-1.263-1.719-3.12-2.705-5.096-2.705
				c-3.136,0-5.819,2.485-6.458,5.875c1.189,0.584,2.281,1.371,3.229,2.337C63.345,31.2,65.323,30.834,67.36,30.834z"/>
			<path fill="#FFFFFF" d="M51.08,67.557c-4.721,0-8.92-2.769-10.807-7.007c-6.891,0.486-12.658-5.009-12.658-11.808
				c0-6.526,5.31-11.836,11.837-11.836c0.723,0,1.44,0.066,2.146,0.196c1.378-5.075,6.021-8.724,11.42-8.724
				c3.206,0,6.225,1.279,8.445,3.544c1.881-0.723,3.86-1.089,5.896-1.089c9.091,0,16.487,7.396,16.487,16.488
				c0,9.091-7.396,16.487-16.487,16.487c-2.255,0-4.491-0.465-6.548-1.354C58.616,65.634,55.005,67.557,51.08,67.557z
				 M42.275,57.218l0.403,1.238c1.188,3.649,4.563,6.101,8.401,6.101c3.296,0,6.296-1.817,7.83-4.741l0.705-1.346l1.337,0.723
				c1.954,1.058,4.171,1.617,6.408,1.617c7.437,0,13.487-6.05,13.487-13.487c0-7.438-6.051-13.488-13.487-13.488
				c-1.975,0-3.882,0.42-5.67,1.25l-1.062,0.492l-0.735-0.91c-1.689-2.089-4.195-3.287-6.875-3.287
				c-4.459,0-8.229,3.333-8.768,7.754l-0.224,1.83l-1.746-0.591c-0.914-0.309-1.865-0.466-2.829-0.466
				c-4.873,0-8.837,3.964-8.837,8.836c0,5.377,4.863,9.667,10.378,8.7L42.275,57.218z"/>
		</g>
	</g>
	<path fill="#FFFFFF" d="M0,151c-0.276,0-0.552-0.114-0.75-0.338c-0.365-0.414-0.326-1.046,0.089-1.412l170-150
		c0.413-0.364,1.045-0.326,1.411,0.088c0.365,0.414,0.326,1.046-0.089,1.412l-170,150C0.472,150.917,0.235,151,0,151z"/>
	<polygon fill="#FFFFFF" points="41.784,99.031 49.473,91.341 61.778,103.646 67.064,98.359 66.873,116.43 48.8,116.622 
		54.086,111.336 	"/>
</g>
</svg>
