<?xml version="1.0" encoding="utf-8"?>
<!-- Generator: Adobe Illustrator 16.0.0, SVG Export Plug-In . SVG Version: 6.00 Build 0)  -->
<!DOCTYPE svg PUBLIC "-//W3C//DTD SVG 1.1//EN" "http://www.w3.org/Graphics/SVG/1.1/DTD/svg11.dtd">
<svg version="1.1" id="Layer_1" xmlns="http://www.w3.org/2000/svg" xmlns:xlink="http://www.w3.org/1999/xlink" x="0px" y="0px"
	 width="170px" height="150px" viewBox="0 0 170 150" enable-background="new 0 0 170 150" xml:space="preserve">
<g>
	<g>
		<path fill="#FFFFFF" d="M132.111,131.759c-12.238,0-22.195-9.712-22.195-21.649c0-11.938,9.957-21.65,22.195-21.65
			s22.195,9.712,22.195,21.65C154.307,122.047,144.35,131.759,132.111,131.759z M132.111,91.458
			c-10.584,0-19.195,8.367-19.195,18.649c0,10.283,8.611,18.65,19.195,18.65s19.195-8.367,19.195-18.65
			C151.307,99.825,142.695,91.458,132.111,91.458z"/>
		<path fill="#FFFFFF" d="M130.5,148.5c-0.828,0-1.5-0.671-1.5-1.5v-11c0-0.829,0.672-1.5,1.5-1.5s1.5,0.671,1.5,1.5v11
			C132,147.829,131.328,148.5,130.5,148.5z"/>
		<path fill="#FFFFFF" d="M158.842,138.059c-0.377,0-0.755-0.141-1.047-0.425l-8.259-8.041c-0.593-0.577-0.604-1.526-0.028-2.12
			c0.58-0.593,1.528-0.607,2.122-0.029l8.259,8.041c0.594,0.578,0.605,1.527,0.028,2.121
			C159.622,137.907,159.232,138.059,158.842,138.059z"/>
		<path fill="#FFFFFF" d="M170,114h-12c-0.828,0-1.5-0.671-1.5-1.5s0.672-1.5,1.5-1.5h12c0.828,0,1.5,0.671,1.5,1.5
			S170.828,114,170,114z"/>
		<path fill="#FFFFFF" d="M151.02,93.621c-0.392,0-0.781-0.15-1.074-0.454c-0.578-0.593-0.565-1.543,0.027-2.121l8.258-8.041
			c0.595-0.577,1.543-0.565,2.121,0.028c0.578,0.593,0.564,1.543-0.027,2.121l-8.258,8.041
			C151.773,93.479,151.396,93.621,151.02,93.621z"/>
		<path fill="#FFFFFF" d="M130.5,85.5c-0.828,0-1.5-0.671-1.5-1.5V73c0-0.829,0.672-1.5,1.5-1.5s1.5,0.671,1.5,1.5v11
			C132,84.829,131.328,85.5,130.5,85.5z"/>
		<path fill="#FFFFFF" d="M113.639,93.198c-0.377,0-0.756-0.142-1.048-0.425l-8.259-8.041c-0.594-0.578-0.605-1.527-0.027-2.121
			c0.579-0.594,1.527-0.606,2.121-0.028l8.26,8.041c0.592,0.578,0.604,1.526,0.027,2.121
			C114.418,93.046,114.027,93.198,113.639,93.198z"/>
		<path fill="#FFFFFF" d="M105,113H94c-0.828,0-1.5-0.671-1.5-1.5s0.672-1.5,1.5-1.5h11c0.828,0,1.5,0.671,1.5,1.5
			S105.828,113,105,113z"/>
		<path fill="#FFFFFF" d="M104.945,137.636c-0.391,0-0.78-0.151-1.074-0.454c-0.578-0.593-0.564-1.543,0.027-2.121l8.258-8.041
			c0.596-0.576,1.545-0.564,2.121,0.028c0.578,0.593,0.564,1.543-0.027,2.121l-8.258,8.041
			C105.7,137.494,105.322,137.636,104.945,137.636z"/>
	</g>
	<g>
		<g>
			<path fill="#FFFFFF" d="M20.174,75.375c-0.128,0-0.258-0.017-0.388-0.051c-0.8-0.213-1.276-1.035-1.063-1.835l1.647-6.182
				c0.213-0.8,1.031-1.279,1.836-1.063c0.8,0.213,1.276,1.035,1.063,1.835l-1.647,6.182C21.443,74.932,20.837,75.375,20.174,75.375z
				"/>
			<path fill="#FFFFFF" d="M39.904,75.375c-0.128,0-0.258-0.017-0.388-0.051c-0.8-0.213-1.276-1.035-1.063-1.835l1.647-6.182
				c0.213-0.8,1.034-1.279,1.836-1.063c0.8,0.213,1.276,1.035,1.063,1.835l-1.647,6.182C41.174,74.932,40.567,75.375,39.904,75.375z
				"/>
			<path fill="#FFFFFF" d="M59.634,75.375c-0.128,0-0.258-0.017-0.388-0.051c-0.8-0.213-1.276-1.035-1.063-1.835l1.648-6.182
				c0.214-0.801,1.034-1.279,1.836-1.063c0.8,0.213,1.276,1.035,1.063,1.835l-1.648,6.182
				C60.903,74.933,60.297,75.375,59.634,75.375z"/>
			<path fill="#FFFFFF" d="M27.579,84.609c-0.128,0-0.258-0.018-0.387-0.051c-0.801-0.213-1.277-1.035-1.063-1.836l4.107-15.416
				c0.213-0.8,1.039-1.279,1.835-1.063c0.801,0.213,1.277,1.035,1.063,1.835l-4.107,15.416
				C28.849,84.166,28.242,84.609,27.579,84.609z"/>
			<path fill="#FFFFFF" d="M47.309,84.609c-0.128,0-0.258-0.018-0.388-0.051c-0.8-0.213-1.276-1.035-1.063-1.836l4.108-15.416
				c0.213-0.8,1.032-1.279,1.836-1.063c0.8,0.213,1.276,1.035,1.063,1.835l-4.108,15.416C48.578,84.166,47.972,84.609,47.309,84.609
				z"/>
		</g>
		<g>
			<path fill="#FFFFFF" d="M70.953,43.813l0.16-3.106c0.015-0.277,0.022-0.556,0.022-0.837c0-8.71-7.087-15.797-15.797-15.797
				c-2.313,0-4.548,0.492-6.639,1.463l-1.063,0.493l-0.735-0.91c-1.994-2.465-4.952-3.879-8.115-3.879
				c-0.423,0-0.873,0.035-1.417,0.108l-0.694-2.903c1.651-0.574,3.421-0.709,5.124-0.396c1.273-5.039,5.521-8.657,10.462-8.657
				c2.924,0,5.671,1.255,7.701,3.483c1.683-0.689,3.452-1.038,5.273-1.038c8.305,0,15.061,7.368,15.061,16.425
				c0,5.556-2.547,10.694-6.813,13.743L70.953,43.813z M55.339,21.073c9.562,0,17.479,7.176,18.648,16.426
				c2.107-2.465,3.31-5.746,3.31-9.237c0-7.403-5.41-13.425-12.061-13.425c-1.747,0-3.435,0.41-5.017,1.219l-1.136,0.581
				l-0.756-1.028c-1.501-2.044-3.713-3.216-6.066-3.216c-3.784,0-7.015,3.033-7.711,7.142c1.455,0.692,2.785,1.648,3.925,2.836
				C50.661,21.509,52.965,21.073,55.339,21.073z"/>
			<path fill="#FFFFFF" d="M36.551,62.991c-5.412,0-10.22-3.207-12.326-8.098C16.332,55.545,9.702,49.276,9.702,41.51
				c0-7.405,6.024-13.429,13.429-13.429c0.892,0,1.776,0.088,2.646,0.263c1.49-5.865,6.812-10.104,13.01-10.104
				c3.688,0,7.16,1.492,9.688,4.13c2.186-0.861,4.489-1.297,6.863-1.297c10.364,0,18.797,8.432,18.797,18.797
				c0,10.364-8.433,18.796-18.797,18.796c-2.634,0-5.247-0.557-7.639-1.619C45.221,60.746,41.069,62.991,36.551,62.991z
				 M26.231,51.553l0.403,1.238c1.4,4.306,5.386,7.2,9.916,7.2c3.892,0,7.432-2.144,9.241-5.595l0.705-1.346l1.337,0.723
				c2.29,1.239,4.885,1.894,7.505,1.894c8.71,0,15.797-7.086,15.797-15.796s-7.087-15.797-15.797-15.797
				c-2.313,0-4.548,0.492-6.639,1.463l-1.063,0.493l-0.735-0.91c-1.994-2.465-4.952-3.879-8.115-3.879
				c-5.263,0-9.711,3.934-10.347,9.151l-0.224,1.83l-1.746-0.59c-1.079-0.364-2.202-0.549-3.34-0.549
				c-5.75,0-10.429,4.678-10.429,10.429c0,6.344,5.707,11.417,12.247,10.268L26.231,51.553z"/>
		</g>
	</g>
	<g>
		<path fill="#FFFFFF" d="M-1,151c-0.276,0-0.552-0.114-0.75-0.338c-0.365-0.414-0.326-1.046,0.089-1.412l170-150
			c0.412-0.364,1.044-0.326,1.411,0.088c0.365,0.414,0.326,1.046-0.089,1.412l-170,150C-0.528,150.917-0.765,151-1,151z"/>
		<polygon fill="#FFFFFF" points="40.784,99.031 48.473,91.341 60.778,103.646 66.064,98.359 65.873,116.43 47.8,116.622 
			53.086,111.336 		"/>
	</g>
	<path fill="#FFFFFF" d="M0,151c-0.276,0-0.552-0.114-0.75-0.338c-0.365-0.414-0.326-1.046,0.089-1.412l170-150
		c0.412-0.364,1.044-0.326,1.411,0.088c0.365,0.414,0.326,1.046-0.089,1.412l-170,150C0.472,150.917,0.235,151,0,151z"/>
	<polygon fill="#FFFFFF" points="41.784,99.031 49.473,91.341 61.778,103.646 67.064,98.359 66.873,116.43 48.8,116.622 
		54.086,111.336 	"/>
</g>
</svg>
