<?xml version="1.0" encoding="utf-8"?>
<!-- Generator: Adobe Illustrator 16.0.0, SVG Export Plug-In . SVG Version: 6.00 Build 0)  -->
<!DOCTYPE svg PUBLIC "-//W3C//DTD SVG 1.1//EN" "http://www.w3.org/Graphics/SVG/1.1/DTD/svg11.dtd">
<svg version="1.1" id="Layer_1" xmlns="http://www.w3.org/2000/svg" xmlns:xlink="http://www.w3.org/1999/xlink" x="0px" y="0px"
	 width="170px" height="150px" viewBox="0 0 170 150" enable-background="new 0 0 170 150" xml:space="preserve">
<g>
	<path fill="#FFFFFF" d="M0,151c-0.277,0-0.553-0.113-0.75-0.338c-0.365-0.414-0.326-1.046,0.088-1.412l170-150
		c0.414-0.365,1.046-0.326,1.412,0.088c0.365,0.414,0.326,1.046-0.088,1.412l-170,150C0.472,150.917,0.235,151,0,151z"/>
	<g>
		<g>
			<path fill="#FFFFFF" d="M105.174,135.375c-0.128,0-0.258-0.018-0.387-0.051c-0.801-0.213-1.275-1.035-1.063-1.836l1.646-6.182
				c0.213-0.8,1.036-1.277,1.835-1.063c0.8,0.213,1.276,1.035,1.063,1.835l-1.647,6.183
				C106.443,134.932,105.837,135.375,105.174,135.375z"/>
			<path fill="#FFFFFF" d="M124.904,135.375c-0.129,0-0.258-0.018-0.387-0.051c-0.801-0.213-1.276-1.035-1.063-1.836l1.647-6.182
				c0.213-0.8,1.035-1.277,1.834-1.063c0.801,0.213,1.276,1.035,1.063,1.835l-1.647,6.183
				C126.174,134.932,125.566,135.375,124.904,135.375z"/>
			<path fill="#FFFFFF" d="M144.634,135.375c-0.128,0-0.258-0.018-0.387-0.051c-0.802-0.213-1.276-1.035-1.063-1.836l1.648-6.182
				c0.213-0.801,1.035-1.277,1.835-1.063c0.801,0.213,1.276,1.035,1.063,1.835l-1.648,6.183
				C145.902,134.934,145.297,135.375,144.634,135.375z"/>
			<path fill="#FFFFFF" d="M112.579,144.609c-0.128,0-0.259-0.018-0.388-0.051c-0.799-0.213-1.275-1.035-1.063-1.836l4.107-15.416
				c0.213-0.8,1.033-1.277,1.834-1.063c0.801,0.213,1.277,1.035,1.063,1.835l-4.106,15.416
				C113.85,144.166,113.242,144.609,112.579,144.609z"/>
			<path fill="#FFFFFF" d="M132.309,144.609c-0.127,0-0.258-0.018-0.387-0.051c-0.801-0.213-1.275-1.035-1.063-1.836l4.107-15.416
				c0.213-0.8,1.034-1.277,1.836-1.063c0.801,0.213,1.275,1.035,1.063,1.835l-4.108,15.416
				C133.578,144.166,132.973,144.609,132.309,144.609z"/>
		</g>
		<g>
			<path fill="#FFFFFF" d="M155.953,103.813l0.16-3.105c0.014-0.277,0.021-0.557,0.021-0.837c0-8.71-7.086-15.798-15.797-15.798
				c-2.314,0-4.547,0.492-6.639,1.464l-1.063,0.493l-0.736-0.91c-1.993-2.465-4.95-3.879-8.114-3.879
				c-0.423,0-0.874,0.035-1.417,0.107l-0.695-2.902c1.65-0.573,3.424-0.709,5.125-0.396c1.273-5.039,5.521-8.657,10.463-8.657
				c2.922,0,5.67,1.255,7.7,3.483c1.685-0.689,3.452-1.038,5.274-1.038c8.304,0,15.061,7.368,15.061,16.425
				c0,5.557-2.547,10.694-6.813,13.743L155.953,103.813z M140.339,81.072c9.562,0,17.479,7.177,18.647,16.427
				c2.107-2.465,3.311-5.746,3.311-9.237c0-7.402-5.41-13.425-12.061-13.425c-1.748,0-3.436,0.41-5.018,1.22l-1.136,0.58
				l-0.755-1.027c-1.501-2.044-3.712-3.216-6.066-3.216c-3.783,0-7.014,3.033-7.711,7.142c1.456,0.691,2.786,1.648,3.926,2.836
				C135.661,81.509,137.965,81.072,140.339,81.072z"/>
			<path fill="#FFFFFF" d="M121.551,122.991c-5.412,0-10.219-3.207-12.326-8.099c-7.906,0.653-14.522-5.617-14.522-13.383
				c0-7.404,6.024-13.429,13.429-13.429c0.893,0,1.777,0.088,2.646,0.263c1.49-5.865,6.812-10.104,13.01-10.104
				c3.689,0,7.16,1.492,9.688,4.13c2.187-0.861,4.49-1.298,6.864-1.298c10.365,0,18.797,8.433,18.797,18.798
				c0,10.364-8.432,18.796-18.797,18.796c-2.634,0-5.247-0.557-7.639-1.619C130.221,120.746,126.068,122.991,121.551,122.991z
				 M111.232,111.553l0.401,1.238c1.401,4.307,5.386,7.2,9.917,7.2c3.891,0,7.432-2.144,9.241-5.595l0.706-1.347l1.337,0.724
				c2.29,1.238,4.886,1.894,7.505,1.894c8.71,0,15.797-7.086,15.797-15.796s-7.086-15.797-15.797-15.797
				c-2.314,0-4.547,0.492-6.639,1.463l-1.063,0.492l-0.736-0.909c-1.993-2.466-4.95-3.879-8.114-3.879
				c-5.263,0-9.711,3.934-10.347,9.151l-0.223,1.83l-1.748-0.591c-1.078-0.364-2.201-0.549-3.34-0.549
				c-5.75,0-10.429,4.679-10.429,10.429c0,6.346,5.708,11.414,12.247,10.268L111.232,111.553z"/>
		</g>
	</g>
	<g>
		<path fill="#FFFFFF" d="M86.832,50.605l0.165-3.112c0.019-0.341,0.028-0.684,0.028-1.03c0-10.743-8.74-19.483-19.483-19.483
			c-2.853,0-5.608,0.607-8.189,1.805l-1.062,0.493l-0.736-0.91c-2.479-3.066-6.157-4.825-10.091-4.825
			c-0.532,0-1.092,0.042-1.761,0.134l-0.696-2.903c2.045-0.712,4.249-0.853,6.35-0.41c1.415-6.126,6.51-10.556,12.452-10.556
			c3.528,0,6.84,1.548,9.256,4.288c2.066-0.878,4.242-1.322,6.484-1.322c9.898,0,17.951,8.795,17.951,19.606
			c0,6.636-3.04,12.771-8.132,16.412L86.832,50.605z M67.542,23.98c11.679,0,21.308,8.95,22.383,20.353
			c2.904-3.101,4.575-7.381,4.575-11.952c0-9.157-6.707-16.606-14.951-16.606c-2.169,0-4.266,0.509-6.231,1.514l-1.136,0.581
			l-0.755-1.028c-1.882-2.563-4.658-4.032-7.617-4.032c-4.822,0-8.925,3.912-9.708,9.172c1.879,0.859,3.589,2.084,5.031,3.63
			C61.807,24.528,64.63,23.98,67.542,23.98z"/>
		<path fill="#FFFFFF" d="M44.75,74.191c-6.513,0-12.292-3.907-14.75-9.843c-9.452,0.917-17.5-6.584-17.5-15.896
			c0-8.806,7.165-15.971,15.971-15.971c1.163,0,2.317,0.126,3.447,0.376c1.667-7.129,8.071-12.315,15.546-12.315
			c4.458,0,8.65,1.834,11.668,5.068c2.674-1.083,5.498-1.631,8.41-1.631c12.397,0,22.483,10.086,22.483,22.483
			S79.939,68.945,67.542,68.945c-3.241,0-6.457-0.705-9.384-2.048C55.227,71.43,50.213,74.191,44.75,74.191z M32.014,60.998
			l0.403,1.238c1.743,5.356,6.699,8.955,12.333,8.955c4.838,0,9.242-2.667,11.494-6.959l0.706-1.346l1.336,0.723
			c2.824,1.528,6.024,2.336,9.256,2.336c10.743,0,19.483-8.74,19.483-19.482c0-10.742-8.74-19.483-19.483-19.483
			c-2.853,0-5.608,0.607-8.189,1.805l-1.062,0.493l-0.736-0.91c-2.479-3.066-6.157-4.825-10.091-4.825
			c-6.545,0-12.078,4.894-12.871,11.382l-0.223,1.83l-1.746-0.59c-1.342-0.453-2.739-0.683-4.154-0.683
			c-7.152,0-12.971,5.819-12.971,12.971c0,7.152,5.819,12.971,12.971,12.971c0.741,0,1.501-0.067,2.26-0.201L32.014,60.998z"/>
	</g>
</g>
</svg>
