<?xml version="1.0" encoding="utf-8"?>
<!-- Generator: Adobe Illustrator 16.0.0, SVG Export Plug-In . SVG Version: 6.00 Build 0)  -->
<!DOCTYPE svg PUBLIC "-//W3C//DTD SVG 1.1//EN" "http://www.w3.org/Graphics/SVG/1.1/DTD/svg11.dtd">
<svg version="1.1" id="Layer_1" xmlns="http://www.w3.org/2000/svg" xmlns:xlink="http://www.w3.org/1999/xlink" x="0px" y="0px"
	 width="170px" height="150px" viewBox="0 0 170 150" enable-background="new 0 0 170 150" xml:space="preserve">
<g>
	<g>
		<path fill="#FFFFFF" stroke="#000000" stroke-width="2" stroke-linecap="round" stroke-miterlimit="10" d="M170,155"/>
		<path fill="#FFFFFF" stroke="#000000" stroke-width="2" stroke-linecap="round" stroke-miterlimit="10" d="M54.856,155"/>
		<path fill="#FFFFFF" stroke="#000000" stroke-width="2" stroke-linecap="round" stroke-miterlimit="10" d="M170,155"/>
		<path fill="#FFFFFF" d="M53.296,151c-0.552,0-1-0.447-1-1c0-31.253,12.109-60.656,34.099-82.792
			c21.989-22.137,51.291-34.418,82.504-34.582l0.929-0.008c0.552,0,1,0.448,1,1c0,0.552-0.448,1-1,1l-0.919,0.008
			C105.711,34.957,54.296,86.713,54.296,150C54.296,150.553,53.848,151,53.296,151z"/>
	</g>
	<g>
		<g>
			<path fill="#FFFFFF" d="M99.174,135.375c-0.128,0-0.258-0.018-0.387-0.051c-0.801-0.213-1.275-1.035-1.063-1.836l1.646-6.182
				c0.213-0.8,1.036-1.277,1.835-1.063c0.8,0.213,1.276,1.035,1.063,1.835l-1.647,6.183
				C100.443,134.932,99.837,135.375,99.174,135.375z"/>
			<path fill="#FFFFFF" d="M118.904,135.375c-0.129,0-0.258-0.018-0.387-0.051c-0.801-0.213-1.276-1.035-1.063-1.836l1.647-6.182
				c0.213-0.8,1.035-1.277,1.834-1.063c0.801,0.213,1.276,1.035,1.063,1.835l-1.647,6.183
				C120.174,134.932,119.566,135.375,118.904,135.375z"/>
			<path fill="#FFFFFF" d="M138.634,135.375c-0.128,0-0.258-0.018-0.387-0.051c-0.802-0.213-1.276-1.035-1.063-1.836l1.648-6.182
				c0.213-0.801,1.035-1.277,1.835-1.063c0.801,0.213,1.276,1.035,1.063,1.835l-1.648,6.183
				C139.902,134.934,139.297,135.375,138.634,135.375z"/>
			<path fill="#FFFFFF" d="M106.579,144.609c-0.128,0-0.259-0.018-0.388-0.051c-0.799-0.213-1.275-1.035-1.063-1.836l4.107-15.416
				c0.213-0.8,1.037-1.277,1.834-1.063c0.801,0.213,1.277,1.035,1.063,1.835l-4.106,15.416
				C107.85,144.166,107.242,144.609,106.579,144.609z"/>
			<path fill="#FFFFFF" d="M126.309,144.609c-0.127,0-0.258-0.018-0.387-0.051c-0.801-0.213-1.275-1.035-1.063-1.836l4.107-15.416
				c0.213-0.8,1.037-1.277,1.835-1.063c0.802,0.213,1.276,1.035,1.063,1.835l-4.108,15.416
				C127.578,144.166,126.973,144.609,126.309,144.609z"/>
		</g>
		<g>
			<path fill="#FFFFFF" d="M149.953,103.813l0.16-3.105c0.014-0.277,0.021-0.557,0.021-0.837c0-8.71-7.086-15.798-15.797-15.798
				c-2.314,0-4.547,0.492-6.639,1.464l-1.063,0.493l-0.736-0.91c-1.993-2.465-4.95-3.879-8.114-3.879
				c-0.423,0-0.874,0.035-1.417,0.107l-0.695-2.902c1.651-0.573,3.424-0.709,5.125-0.396c1.273-5.039,5.521-8.657,10.463-8.657
				c2.922,0,5.67,1.255,7.7,3.483c1.685-0.689,3.452-1.038,5.274-1.038c8.304,0,15.061,7.368,15.061,16.425
				c0,5.557-2.547,10.694-6.813,13.743L149.953,103.813z M134.339,81.072c9.562,0,17.479,7.177,18.647,16.427
				c2.107-2.465,3.311-5.746,3.311-9.237c0-7.402-5.41-13.425-12.061-13.425c-1.748,0-3.436,0.41-5.018,1.22l-1.136,0.58
				l-0.755-1.027c-1.501-2.044-3.712-3.216-6.066-3.216c-3.783,0-7.014,3.033-7.711,7.142c1.456,0.691,2.786,1.648,3.926,2.836
				C129.661,81.509,131.965,81.072,134.339,81.072z"/>
			<path fill="#FFFFFF" d="M115.551,122.991c-5.412,0-10.219-3.207-12.326-8.099c-7.906,0.653-14.522-5.617-14.522-13.383
				c0-7.404,6.024-13.429,13.429-13.429c0.893,0,1.777,0.088,2.646,0.263c1.49-5.865,6.812-10.104,13.01-10.104
				c3.689,0,7.16,1.492,9.688,4.13c2.187-0.861,4.49-1.298,6.864-1.298c10.365,0,18.797,8.433,18.797,18.798
				c0,10.364-8.432,18.796-18.797,18.796c-2.634,0-5.247-0.557-7.639-1.619C124.221,120.746,120.068,122.991,115.551,122.991z
				 M105.232,111.553l0.401,1.238c1.401,4.307,5.386,7.2,9.917,7.2c3.891,0,7.432-2.144,9.241-5.595l0.706-1.347l1.337,0.724
				c2.29,1.238,4.886,1.894,7.505,1.894c8.71,0,15.797-7.086,15.797-15.796s-7.086-15.797-15.797-15.797
				c-2.314,0-4.547,0.492-6.639,1.463l-1.063,0.492l-0.736-0.909c-1.993-2.466-4.95-3.879-8.114-3.879
				c-5.263,0-9.711,3.934-10.347,9.151l-0.224,1.83l-1.747-0.591c-1.078-0.364-2.201-0.549-3.34-0.549
				c-5.75,0-10.429,4.679-10.429,10.429c0,6.346,5.708,11.414,12.247,10.268L105.232,111.553z"/>
		</g>
	</g>
	<g>
		<g>
			<path fill="#FFFFFF" d="M45.797,21.188c-0.384,0-0.768-0.146-1.061-0.439c-0.586-0.586-0.586-1.536,0-2.121l5.793-5.792
				c0.586-0.586,1.536-0.586,2.121,0c0.586,0.586,0.586,1.536,0,2.121l-5.793,5.792C46.564,21.041,46.181,21.188,45.797,21.188z"/>
			<path fill="#FFFFFF" d="M31.5,15.5c-0.829,0-1.5-0.671-1.5-1.5V6c0-0.829,0.671-1.5,1.5-1.5S33,5.171,33,6v8
				C33,14.829,32.329,15.5,31.5,15.5z"/>
			<path fill="#FFFFFF" d="M19.58,20.884c-0.384,0-0.768-0.146-1.061-0.439l-5.793-5.793c-0.586-0.585-0.586-1.536,0-2.121
				c0.586-0.586,1.535-0.586,2.121,0l5.793,5.793c0.586,0.585,0.586,1.536,0,2.121C20.348,20.737,19.964,20.884,19.58,20.884z"/>
			<path fill="#FFFFFF" d="M14,36H6c-0.829,0-1.5-0.671-1.5-1.5S5.171,33,6,33h8c0.829,0,1.5,0.671,1.5,1.5S14.829,36,14,36z"/>
			<path fill="#FFFFFF" d="M13.482,52.893c-0.384,0-0.768-0.146-1.061-0.439c-0.586-0.585-0.586-1.536,0-2.121l5.792-5.792
				c0.586-0.586,1.535-0.586,2.121,0c0.586,0.585,0.586,1.536,0,2.121l-5.792,5.792C14.25,52.746,13.866,52.893,13.482,52.893z"/>
			<path fill="#FFFFFF" d="M29.422,48.383l-1.459-0.392c-6.843-1.838-11.441-8.006-11.441-15.346
				c0-8.831,7.185-16.015,16.016-16.015c7.828,0,14.799,6.324,15.87,14.396l0.125,0.946l-0.804,0.515
				c-2.57,1.646-4.033,3.922-4.349,6.768l-0.212,1.909l-1.801-0.668c-0.894-0.332-1.822-0.5-2.759-0.5
				c-4.056,0-7.759,2.913-8.804,6.925L29.422,48.383z M32.537,19.63c-7.177,0-13.016,5.838-13.016,13.015
				c0,5.469,3.114,10.129,7.882,12.008c1.846-4.517,6.332-7.657,11.204-7.657c0.708,0,1.41,0.069,2.103,0.206
				c0.683-2.666,2.238-4.938,4.574-6.671C44.041,24.35,38.604,19.63,32.537,19.63z"/>
		</g>
		<g>
			<path fill="#FFFFFF" d="M79.667,51.145l0.162-3.108c0.012-0.237,0.019-0.475,0.019-0.714c0-7.438-6.05-13.488-13.487-13.488
				c-1.975,0-3.882,0.42-5.669,1.25l-1.062,0.492l-0.736-0.91c-1.689-2.089-4.195-3.287-6.875-3.287
				c-0.358,0-0.74,0.029-1.201,0.092l-0.694-2.903c1.405-0.488,2.909-0.619,4.358-0.383c1.18-4.36,4.897-7.473,9.212-7.473
				c2.545,0,4.939,1.073,6.727,2.98c1.445-0.573,2.959-0.862,4.517-0.862c7.306,0,13.25,6.475,13.25,14.433
				c0,4.879-2.238,9.392-5.987,12.072L79.667,51.145z M66.36,30.834c8.23,0,15.071,6.061,16.293,13.954
				c1.618-2.056,2.534-4.71,2.534-7.525c0-6.304-4.598-11.433-10.25-11.433c-1.48,0-2.913,0.348-4.257,1.034l-1.136,0.58
				l-0.755-1.027c-1.263-1.719-3.121-2.705-5.096-2.705c-3.136,0-5.819,2.485-6.458,5.875c1.189,0.584,2.281,1.371,3.228,2.337
				C62.345,31.2,64.324,30.834,66.36,30.834z"/>
			<path fill="#FFFFFF" d="M50.08,67.557c-4.721,0-8.92-2.769-10.807-7.007c-6.87,0.484-12.658-5.009-12.658-11.808
				c0-6.526,5.31-11.836,11.837-11.836c0.723,0,1.44,0.066,2.146,0.196c1.378-5.075,6.021-8.724,11.42-8.724
				c3.206,0,6.225,1.279,8.445,3.544c1.882-0.723,3.86-1.089,5.897-1.089c9.091,0,16.487,7.396,16.487,16.488
				c0,9.091-7.396,16.487-16.487,16.487c-2.254,0-4.492-0.465-6.548-1.354C57.617,65.634,54.005,67.557,50.08,67.557z
				 M41.275,57.218l0.403,1.238c1.188,3.649,4.564,6.101,8.402,6.101c3.296,0,6.296-1.817,7.83-4.741l0.706-1.346l1.336,0.723
				c1.955,1.058,4.17,1.617,6.408,1.617c7.437,0,13.487-6.05,13.487-13.487s-6.05-13.488-13.487-13.488
				c-1.975,0-3.882,0.42-5.669,1.25l-1.062,0.492l-0.736-0.91c-1.689-2.089-4.195-3.287-6.875-3.287
				c-4.459,0-8.229,3.333-8.768,7.754l-0.223,1.83l-1.747-0.591c-0.913-0.309-1.865-0.466-2.829-0.466
				c-4.873,0-8.837,3.964-8.837,8.836c0,5.377,4.863,9.669,10.378,8.7L41.275,57.218z"/>
		</g>
	</g>
</g>
</svg>
