<?xml version="1.0" encoding="utf-8"?>
<!-- Generator: Adobe Illustrator 16.0.0, SVG Export Plug-In . SVG Version: 6.00 Build 0)  -->
<!DOCTYPE svg PUBLIC "-//W3C//DTD SVG 1.1//EN" "http://www.w3.org/Graphics/SVG/1.1/DTD/svg11.dtd">
<svg version="1.1" id="Layer_1" xmlns="http://www.w3.org/2000/svg" xmlns:xlink="http://www.w3.org/1999/xlink" x="0px" y="0px"
	 width="170px" height="150px" viewBox="0 0 170 150" enable-background="new 0 0 170 150" xml:space="preserve">
<g>
	<g>
		<path fill="#FFFFFF" stroke="#000000" stroke-width="2" stroke-linecap="round" stroke-miterlimit="10" d="M170,155"/>
		<path fill="#FFFFFF" stroke="#000000" stroke-width="2" stroke-linecap="round" stroke-miterlimit="10" d="M54.856,155"/>
		<path fill="#FFFFFF" stroke="#000000" stroke-width="2" stroke-linecap="round" stroke-miterlimit="10" d="M170,155"/>
		<path fill="#FFFFFF" d="M53.296,151c-0.552,0-1-0.447-1-1c0-31.253,12.109-60.656,34.099-82.792
			c21.989-22.137,51.291-34.418,82.504-34.582l0.93-0.008c0.553,0,1,0.448,1,1c0,0.552-0.447,1-1,1l-0.919,0.008
			C105.711,34.957,54.296,86.713,54.296,150C54.296,150.553,53.848,151,53.296,151z"/>
	</g>
	<g>
		<g>
			<path fill="#FFFFFF" d="M100.174,135.375c-0.128,0-0.258-0.018-0.388-0.051c-0.8-0.213-1.276-1.035-1.063-1.836l1.647-6.182
				c0.213-0.8,1.032-1.277,1.836-1.063c0.8,0.213,1.276,1.035,1.063,1.835l-1.647,6.183
				C101.443,134.932,100.837,135.375,100.174,135.375z"/>
			<path fill="#FFFFFF" d="M119.904,135.375c-0.129,0-0.258-0.018-0.389-0.051c-0.8-0.213-1.275-1.035-1.063-1.836l1.646-6.182
				c0.213-0.8,1.032-1.277,1.836-1.063c0.801,0.213,1.276,1.035,1.063,1.835l-1.647,6.183
				C121.174,134.932,120.566,135.375,119.904,135.375z"/>
			<path fill="#FFFFFF" d="M139.634,135.375c-0.128,0-0.258-0.018-0.388-0.051c-0.801-0.213-1.275-1.035-1.063-1.836l1.647-6.182
				c0.213-0.801,1.032-1.277,1.836-1.063c0.8,0.213,1.276,1.035,1.063,1.835l-1.648,6.183
				C140.902,134.934,140.297,135.375,139.634,135.375z"/>
			<path fill="#FFFFFF" d="M107.579,144.609c-0.128,0-0.259-0.018-0.388-0.051c-0.801-0.213-1.276-1.035-1.063-1.836l4.107-15.416
				c0.213-0.8,1.037-1.277,1.834-1.063c0.802,0.213,1.277,1.035,1.063,1.835l-4.106,15.416
				C108.85,144.166,108.242,144.609,107.579,144.609z"/>
			<path fill="#FFFFFF" d="M127.309,144.609c-0.127,0-0.258-0.018-0.388-0.051c-0.8-0.213-1.276-1.035-1.063-1.836l4.108-15.416
				c0.214-0.8,1.033-1.277,1.836-1.063c0.8,0.213,1.276,1.035,1.063,1.835l-4.108,15.416
				C128.578,144.166,127.973,144.609,127.309,144.609z"/>
		</g>
		<g>
			<path fill="#FFFFFF" d="M150.953,103.813l0.16-3.105c0.015-0.277,0.021-0.557,0.021-0.837c0-8.71-7.087-15.798-15.797-15.798
				c-2.313,0-4.548,0.492-6.639,1.464l-1.063,0.493l-0.736-0.91c-1.993-2.465-4.951-3.879-8.114-3.879
				c-0.423,0-0.873,0.035-1.417,0.107l-0.694-2.902c1.65-0.573,3.423-0.711,5.124-0.396c1.273-5.039,5.521-8.657,10.463-8.657
				c2.924,0,5.67,1.255,7.7,3.483c1.683-0.689,3.452-1.038,5.272-1.038c8.306,0,15.062,7.368,15.062,16.425
				c0,5.557-2.547,10.694-6.813,13.743L150.953,103.813z M135.339,81.072c9.562,0,17.479,7.177,18.647,16.427
				c2.107-2.465,3.311-5.746,3.311-9.237c0-7.402-5.41-13.425-12.061-13.425c-1.748,0-3.436,0.41-5.018,1.22l-1.136,0.58
				l-0.756-1.027c-1.501-2.044-3.714-3.216-6.065-3.216c-3.785,0-7.016,3.033-7.712,7.142c1.455,0.691,2.785,1.648,3.925,2.836
				C130.661,81.509,132.965,81.072,135.339,81.072z"/>
			<path fill="#FFFFFF" d="M116.551,122.991c-5.412,0-10.22-3.207-12.326-8.099c-7.888,0.651-14.521-5.617-14.521-13.383
				c0-7.404,6.023-13.429,13.429-13.429c0.892,0,1.776,0.088,2.646,0.263c1.49-5.865,6.813-10.104,13.011-10.104
				c3.688,0,7.16,1.492,9.688,4.13c2.186-0.861,4.488-1.298,6.862-1.298c10.364,0,18.798,8.433,18.798,18.798
				c0,10.364-8.434,18.796-18.798,18.796c-2.634,0-5.247-0.557-7.639-1.619C125.221,120.746,121.068,122.991,116.551,122.991z
				 M106.23,111.553l0.403,1.238c1.4,4.307,5.386,7.2,9.916,7.2c3.892,0,7.433-2.144,9.241-5.595l0.705-1.347l1.337,0.724
				c2.29,1.238,4.885,1.894,7.505,1.894c8.71,0,15.797-7.086,15.797-15.796s-7.087-15.797-15.797-15.797
				c-2.313,0-4.548,0.492-6.639,1.463l-1.063,0.492L126.9,85.12c-1.993-2.466-4.951-3.879-8.114-3.879
				c-5.263,0-9.711,3.934-10.347,9.151l-0.225,1.83l-1.746-0.591c-1.078-0.364-2.201-0.549-3.34-0.549
				c-5.75,0-10.429,4.679-10.429,10.429c0,6.344,5.704,11.416,12.247,10.268L106.23,111.553z"/>
		</g>
	</g>
	<g>
		<path fill="#FFFFFF" d="M30.472,72.886c-5.301,0-10-3.428-12.041-8.656c-7.677,0.648-14.093-5.994-14.093-14.216
			c0-7.862,5.873-14.259,13.092-14.259c0.848,0,1.688,0.089,2.516,0.265c1.433-6.262,6.633-10.792,12.699-10.792
			c3.603,0,6.985,1.585,9.448,4.389c2.114-0.901,4.341-1.357,6.636-1.357c3.473,0,6.856,1.071,9.784,3.096l0.812,0.562l-0.195,0.968
			c-0.19,0.945-0.287,1.91-0.287,2.868c0,5.204,2.827,10.025,7.378,12.582l0.826,0.463l-0.063,0.945
			C66.285,60.127,58.267,68.26,48.729,68.26c-2.545,0-5.068-0.582-7.382-1.694C38.931,70.5,34.884,72.886,30.472,72.886z
			 M20.501,60.848l0.386,1.304c1.368,4.626,5.219,7.734,9.584,7.734c3.74,0,7.156-2.295,8.917-5.99l0.708-1.486l1.414,0.843
			c2.204,1.313,4.7,2.008,7.218,2.008c7.691,0,14.206-6.437,15.178-14.815c-4.998-3.191-8.064-8.732-8.064-14.691
			c0-0.814,0.058-1.632,0.172-2.442c-4.173-2.516-9.343-2.712-13.669-0.501l-1.136,0.58l-0.755-1.028
			c-1.929-2.626-4.775-4.133-7.809-4.133c-5.084,0-9.388,4.241-10.012,9.864l-0.212,1.91l-1.802-0.67
			c-1.031-0.383-2.104-0.578-3.189-0.578c-5.565,0-10.092,5.051-10.092,11.259c0,6.841,5.496,12.31,11.828,11.09L20.501,60.848z"/>
		<g>
			<path fill="#FFFFFF" d="M73.271,53.183c-9.61,0-17.428-7.818-17.428-17.429c0-9.61,7.818-17.428,17.428-17.428
				s17.428,7.818,17.428,17.428S82.881,53.183,73.271,53.183z M73.271,21.326c-7.956,0-14.428,6.473-14.428,14.428
				c0,7.956,6.473,14.429,14.428,14.429s14.428-6.473,14.428-14.429S81.227,21.326,73.271,21.326z"/>
			<path fill="#FFFFFF" d="M71.5,66.5c-0.829,0-1.5-0.671-1.5-1.5v-9c0-0.829,0.671-1.5,1.5-1.5S73,55.171,73,56v9
				C73,65.829,72.329,66.5,71.5,66.5z"/>
			<path fill="#FFFFFF" d="M93.846,58.163c-0.384,0-0.768-0.146-1.061-0.439l-6.357-6.356c-0.586-0.585-0.586-1.535,0-2.121
				s1.535-0.586,2.121,0l6.357,6.356c0.586,0.585,0.586,1.535,0,2.121C94.613,58.017,94.229,58.163,93.846,58.163z"/>
			<path fill="#FFFFFF" d="M103,39H93c-0.828,0-1.5-0.671-1.5-1.5S92.172,36,93,36h10c0.828,0,1.5,0.671,1.5,1.5S103.828,39,103,39z
				"/>
			<path fill="#FFFFFF" d="M87.824,23.036c-0.385,0-0.768-0.146-1.061-0.439c-0.587-0.585-0.587-1.536,0-2.121l6.355-6.356
				c0.586-0.586,1.535-0.586,2.121,0c0.586,0.585,0.586,1.536,0,2.121l-6.356,6.356C88.592,22.889,88.208,23.036,87.824,23.036z"/>
			<path fill="#FFFFFF" d="M71.5,17.5c-0.829,0-1.5-0.671-1.5-1.5V6c0-0.829,0.671-1.5,1.5-1.5S73,5.171,73,6v10
				C73,16.829,72.329,17.5,71.5,17.5z"/>
			<path fill="#FFFFFF" d="M59.052,22.701c-0.384,0-0.768-0.146-1.061-0.439l-6.356-6.356c-0.586-0.585-0.586-1.535,0-2.121
				c0.586-0.586,1.535-0.586,2.121,0l6.356,6.356c0.586,0.585,0.586,1.535,0,2.121C59.82,22.555,59.436,22.701,59.052,22.701z"/>
			<path fill="#FFFFFF" d="M53,39h-9c-0.829,0-1.5-0.671-1.5-1.5S43.171,36,44,36h9c0.829,0,1.5,0.671,1.5,1.5S53.829,39,53,39z"/>
			<path fill="#FFFFFF" d="M52.362,57.828c-0.384,0-0.768-0.146-1.061-0.439c-0.586-0.585-0.586-1.536,0-2.121l6.356-6.356
				c0.586-0.586,1.535-0.586,2.121,0c0.586,0.585,0.586,1.536,0,2.121l-6.356,6.356C53.129,57.682,52.746,57.828,52.362,57.828z"/>
		</g>
	</g>
</g>
</svg>
