<?xml version="1.0" encoding="utf-8"?>
<!-- Generator: Adobe Illustrator 16.0.0, SVG Export Plug-In . SVG Version: 6.00 Build 0)  -->
<!DOCTYPE svg PUBLIC "-//W3C//DTD SVG 1.1//EN" "http://www.w3.org/Graphics/SVG/1.1/DTD/svg11.dtd">
<svg version="1.1" id="Layer_1" xmlns="http://www.w3.org/2000/svg" xmlns:xlink="http://www.w3.org/1999/xlink" x="0px" y="0px"
	 width="170px" height="150px" viewBox="0 0 170 150" enable-background="new 0 0 170 150" xml:space="preserve">
<g>
	<path fill="#FFFFFF" d="M85.163,91.3c-9.606,0-17.422-7.815-17.422-17.421c0-9.606,7.815-17.421,17.422-17.421
		c9.606,0,17.422,7.815,17.422,17.421C102.585,83.484,94.77,91.3,85.163,91.3z M85.163,59.458c-7.952,0-14.422,6.469-14.422,14.421
		c0,7.952,6.47,14.421,14.422,14.421s14.422-6.469,14.422-14.421C99.585,65.927,93.115,59.458,85.163,59.458z"/>
	<g>
		<path fill="#FFFFFF" d="M84.5,59.5c-0.828,0-1.5-0.671-1.5-1.5V24.63L68.885,7.55c-0.527-0.639-0.438-1.584,0.201-2.112
			C69.724,4.91,70.669,5,71.197,5.639l14.459,17.496C85.879,23.404,86,23.742,86,24.091V58C86,58.829,85.328,59.5,84.5,59.5z"/>
		<path fill="#FFFFFF" d="M86.232,25.591c-0.312,0-0.625-0.096-0.894-0.296c-0.665-0.494-0.804-1.434-0.31-2.099L98.23,5.44
			c0.496-0.665,1.437-0.802,2.1-0.309c0.665,0.494,0.804,1.434,0.311,2.099L87.438,24.986
			C87.145,25.382,86.691,25.591,86.232,25.591z"/>
	</g>
	<g>
		<path fill="#FFFFFF" d="M98.961,143.738c-0.42,0-0.837-0.174-1.134-0.516l-14.46-16.666C83.13,126.285,83,125.936,83,125.574V90
			c0-0.829,0.672-1.5,1.5-1.5S86,89.171,86,90v35.014l14.093,16.242c0.544,0.625,0.476,1.573-0.149,2.116
			C99.659,143.619,99.309,143.738,98.961,143.738z"/>
		<path fill="#FFFFFF" d="M72.8,144.831c-0.312,0-0.625-0.097-0.895-0.296c-0.664-0.494-0.803-1.434-0.309-2.1l13.206-17.756
			c0.495-0.666,1.435-0.804,2.101-0.31c0.664,0.493,0.803,1.435,0.309,2.099l-13.206,17.758
			C73.71,144.622,73.258,144.831,72.8,144.831z"/>
	</g>
	<g>
		<path fill="#FFFFFF" d="M137.411,77H102c-0.828,0-1.5-0.671-1.5-1.5s0.672-1.5,1.5-1.5h34.854l16.324-14.093
			c0.631-0.542,1.575-0.471,2.116,0.155c0.541,0.627,0.472,1.575-0.155,2.116l-16.746,14.458C138.119,76.871,137.771,77,137.411,77z
			"/>
		<path fill="#FFFFFF" d="M155.166,88.331c-0.313,0-0.625-0.097-0.895-0.296l-17.756-13.206c-0.664-0.494-0.804-1.434-0.309-2.099
			c0.494-0.665,1.434-0.803,2.1-0.309l17.756,13.206c0.664,0.495,0.803,1.434,0.308,2.1
			C156.076,88.122,155.624,88.331,155.166,88.331z"/>
	</g>
	<g>
		<path fill="#FFFFFF" d="M68,77H32.232c-0.362,0-0.713-0.131-0.986-0.37L14.678,62.172c-0.624-0.545-0.688-1.492-0.144-2.117
			c0.543-0.623,1.491-0.69,2.116-0.144L32.795,74H68c0.828,0,1.5,0.671,1.5,1.5S68.828,77,68,77z"/>
		<path fill="#FFFFFF" d="M14.476,88.331c-0.458,0-0.91-0.209-1.205-0.604c-0.494-0.666-0.355-1.604,0.309-2.1l17.758-13.206
			c0.666-0.495,1.604-0.357,2.1,0.309c0.494,0.665,0.355,1.604-0.309,2.099L15.37,88.034C15.101,88.234,14.787,88.331,14.476,88.331
			z"/>
	</g>
	<g>
		<path fill="#FFFFFF" d="M97.548,63.445c-0.384,0-0.769-0.146-1.062-0.439c-0.586-0.585-0.586-1.535,0-2.121L120.88,36.49
			l1.703-21.64c0.063-0.826,0.795-1.442,1.612-1.378c0.826,0.065,1.443,0.788,1.378,1.613l-1.746,22.191
			c-0.027,0.356-0.183,0.69-0.435,0.943L98.607,63.005C98.314,63.298,97.932,63.445,97.548,63.445z"/>
		<path fill="#FFFFFF" d="M121.928,38.254c-0.73,0-1.371-0.536-1.482-1.282c-0.119-0.82,0.447-1.582,1.268-1.702l21.893-3.218
			c0.812-0.125,1.58,0.446,1.701,1.266c0.12,0.82-0.445,1.582-1.267,1.702l-21.892,3.218C122.074,38.25,122,38.254,121.928,38.254z"
			/>
	</g>
	<g>
		<path fill="#FFFFFF" d="M25.45,113.184c-0.781,0-1.44-0.605-1.494-1.396c-0.057-0.827,0.567-1.542,1.394-1.6l21.389-1.463
			l24.87-24.875c0.586-0.586,1.535-0.586,2.121,0s0.586,1.535,0,2.121l-25.269,25.271c-0.256,0.256-0.597,0.41-0.958,0.436
			l-21.949,1.504C25.52,113.184,25.485,113.184,25.45,113.184z"/>
		<path fill="#FFFFFF" d="M43.779,133.169c-0.072,0-0.146-0.005-0.22-0.017c-0.82-0.119-1.387-0.881-1.267-1.701l3.219-21.893
			c0.121-0.82,0.884-1.393,1.702-1.267c0.82,0.12,1.387,0.882,1.267,1.702l-3.219,21.893
			C45.151,132.633,44.511,133.169,43.779,133.169z"/>
	</g>
	<g>
		<path fill="#FFFFFF" d="M73.23,62.094c-0.384,0-0.768-0.146-1.061-0.439L48.221,37.706l-21.874-1.923
			c-0.825-0.072-1.435-0.8-1.362-1.625c0.073-0.825,0.803-1.428,1.626-1.363l22.417,1.971c0.351,0.031,0.68,0.184,0.929,0.434
			l24.335,24.334c0.586,0.585,0.586,1.536,0,2.121C73.998,61.947,73.614,62.094,73.23,62.094z"/>
		<path fill="#FFFFFF" d="M48.037,38.611c-0.731,0-1.372-0.536-1.482-1.282l-3.217-21.893c-0.12-0.82,0.446-1.582,1.267-1.702
			c0.813-0.13,1.58,0.446,1.702,1.266l3.217,21.893c0.12,0.82-0.446,1.582-1.267,1.702C48.184,38.606,48.109,38.611,48.037,38.611z"
			/>
	</g>
	<g>
		<path fill="#FFFFFF" d="M125.104,132.503c-0.787,0-1.449-0.614-1.496-1.412l-1.244-21.153L97.047,84.621
			c-0.586-0.586-0.586-1.536,0-2.121c0.586-0.586,1.535-0.586,2.121,0l25.719,25.721c0.26,0.26,0.415,0.605,0.438,0.973
			l1.277,21.724c0.049,0.827-0.582,1.537-1.408,1.585C125.163,132.502,125.133,132.503,125.104,132.503z"/>
		<path fill="#FFFFFF" d="M144.868,114.854c-0.072,0-0.146-0.006-0.22-0.017l-21.896-3.218c-0.819-0.12-1.387-0.883-1.267-1.702
			c0.121-0.819,0.886-1.392,1.701-1.267l21.896,3.219c0.819,0.119,1.388,0.882,1.267,1.701
			C146.24,114.316,145.6,114.854,144.868,114.854z"/>
	</g>
</g>
</svg>
