<?xml version="1.0" encoding="utf-8"?>
<!-- Generator: Adobe Illustrator 16.0.0, SVG Export Plug-In . SVG Version: 6.00 Build 0)  -->
<!DOCTYPE svg PUBLIC "-//W3C//DTD SVG 1.1//EN" "http://www.w3.org/Graphics/SVG/1.1/DTD/svg11.dtd">
<svg version="1.1" id="Layer_1" xmlns="http://www.w3.org/2000/svg" xmlns:xlink="http://www.w3.org/1999/xlink" x="0px" y="0px"
	 width="170px" height="150px" viewBox="0 0 170 150" enable-background="new 0 0 170 150" xml:space="preserve">
<g>
	<g>
		<path fill="#FFFFFF" d="M128.111,130.759c-12.238,0-22.195-9.712-22.195-21.649c0-11.938,9.957-21.65,22.195-21.65
			s22.195,9.712,22.195,21.65C150.307,121.047,140.35,130.759,128.111,130.759z M128.111,90.458
			c-10.584,0-19.195,8.367-19.195,18.649c0,10.283,8.611,18.65,19.195,18.65s19.195-8.367,19.195-18.65
			C147.307,98.825,138.695,90.458,128.111,90.458z"/>
		<path fill="#FFFFFF" d="M126.5,147.5c-0.828,0-1.5-0.671-1.5-1.5v-11c0-0.829,0.672-1.5,1.5-1.5s1.5,0.671,1.5,1.5v11
			C128,146.829,127.328,147.5,126.5,147.5z"/>
		<path fill="#FFFFFF" d="M154.842,137.059c-0.377,0-0.755-0.141-1.047-0.425l-8.259-8.041c-0.593-0.577-0.604-1.526-0.028-2.12
			c0.58-0.594,1.527-0.606,2.122-0.029l8.259,8.041c0.594,0.578,0.605,1.527,0.028,2.121
			C155.622,136.907,155.232,137.059,154.842,137.059z"/>
		<path fill="#FFFFFF" d="M166,113h-12c-0.828,0-1.5-0.671-1.5-1.5s0.672-1.5,1.5-1.5h12c0.828,0,1.5,0.671,1.5,1.5
			S166.828,113,166,113z"/>
		<path fill="#FFFFFF" d="M147.02,92.621c-0.392,0-0.781-0.15-1.074-0.454c-0.578-0.593-0.565-1.543,0.027-2.121l8.258-8.041
			c0.596-0.577,1.543-0.565,2.121,0.028c0.578,0.593,0.564,1.543-0.027,2.121l-8.258,8.041
			C147.773,92.479,147.396,92.621,147.02,92.621z"/>
		<path fill="#FFFFFF" d="M126.5,84.5c-0.828,0-1.5-0.671-1.5-1.5V72c0-0.829,0.672-1.5,1.5-1.5s1.5,0.671,1.5,1.5v11
			C128,83.829,127.328,84.5,126.5,84.5z"/>
		<path fill="#FFFFFF" d="M109.639,92.198c-0.377,0-0.756-0.142-1.048-0.425l-8.259-8.041c-0.594-0.578-0.605-1.527-0.027-2.121
			c0.579-0.592,1.527-0.606,2.121-0.028l8.26,8.041c0.592,0.578,0.604,1.526,0.027,2.121
			C110.418,92.046,110.027,92.198,109.639,92.198z"/>
		<path fill="#FFFFFF" d="M101,112H90c-0.828,0-1.5-0.671-1.5-1.5s0.672-1.5,1.5-1.5h11c0.828,0,1.5,0.671,1.5,1.5
			S101.828,112,101,112z"/>
		<path fill="#FFFFFF" d="M100.945,136.636c-0.391,0-0.78-0.151-1.074-0.454c-0.578-0.593-0.564-1.543,0.027-2.121l8.258-8.041
			c0.595-0.576,1.544-0.564,2.121,0.028c0.578,0.593,0.564,1.543-0.027,2.121l-8.258,8.041
			C101.7,136.494,101.322,136.636,100.945,136.636z"/>
	</g>
	<g>
		<path fill="#FFFFFF" d="M37.97,46.841c-4.647,0-8.429-3.781-8.429-8.429s3.781-8.428,8.429-8.428c4.648,0,8.429,3.781,8.429,8.428
			S42.617,46.841,37.97,46.841z M37.97,32.984c-2.993,0-5.429,2.435-5.429,5.428s2.436,5.429,5.429,5.429
			c2.993,0,5.429-2.436,5.429-5.429S40.963,32.984,37.97,32.984z"/>
		<g>
			<path fill="#FFFFFF" d="M37.5,32.5c-0.828,0-1.5-0.671-1.5-1.5V17.272l-5.963-7.455c-0.518-0.647-0.413-1.591,0.233-2.108
				c0.649-0.517,1.592-0.412,2.108,0.234l6.292,7.865c0.214,0.267,0.33,0.597,0.33,0.938V31C39,31.829,38.328,32.5,37.5,32.5z"/>
			<path fill="#FFFFFF" d="M38.435,18.246c-0.312,0-0.625-0.096-0.894-0.296c-0.665-0.494-0.804-1.434-0.31-2.099l5.745-7.727
				c0.496-0.665,1.436-0.802,2.099-0.309c0.665,0.494,0.804,1.434,0.31,2.099l-5.745,7.727
				C39.345,18.037,38.893,18.246,38.435,18.246z"/>
		</g>
		<g>
			<path fill="#FFFFFF" d="M43.794,69.447c-0.412,0-0.823-0.169-1.119-0.5l-6.293-7.038c-0.246-0.275-0.382-0.631-0.382-1V45
				c0-0.829,0.672-1.5,1.5-1.5S39,44.171,39,45v15.336l5.911,6.611c0.552,0.618,0.499,1.566-0.118,2.118
				C44.507,69.321,44.149,69.447,43.794,69.447z"/>
			<path fill="#FFFFFF" d="M32.589,70.137c-0.312,0-0.625-0.096-0.895-0.296c-0.664-0.494-0.803-1.434-0.309-2.099l5.747-7.728
				c0.496-0.665,1.435-0.802,2.1-0.309c0.664,0.494,0.803,1.434,0.309,2.099l-5.747,7.728
				C33.499,69.928,33.047,70.137,32.589,70.137z"/>
		</g>
		<g>
			<path fill="#FFFFFF" d="M60.706,41H45c-0.828,0-1.5-0.671-1.5-1.5S44.172,38,45,38h15.14l6.716-5.917
				c0.621-0.548,1.57-0.487,2.116,0.134c0.548,0.622,0.488,1.569-0.134,2.117l-7.141,6.292C61.424,40.867,61.071,41,60.706,41z"/>
			<path fill="#FFFFFF" d="M68.434,45.549c-0.312,0-0.625-0.096-0.895-0.296l-7.729-5.747c-0.664-0.494-0.803-1.434-0.309-2.099
				c0.496-0.665,1.435-0.802,2.1-0.309l7.729,5.747c0.664,0.494,0.803,1.434,0.309,2.099C69.344,45.34,68.892,45.549,68.434,45.549z
				"/>
		</g>
		<g>
			<path fill="#FFFFFF" d="M30,41H14.936c-0.354,0-0.696-0.125-0.967-0.354l-7.461-6.292c-0.634-0.534-0.714-1.48-0.18-2.113
				c0.534-0.633,1.48-0.714,2.113-0.18L15.483,38H30c0.828,0,1.5,0.671,1.5,1.5S30.828,41,30,41z"/>
			<path fill="#FFFFFF" d="M7.208,45.549c-0.458,0-0.91-0.209-1.205-0.605c-0.494-0.665-0.355-1.604,0.309-2.099l7.729-5.747
				c0.666-0.495,1.604-0.357,2.1,0.309c0.494,0.665,0.355,1.604-0.309,2.099l-7.729,5.747C7.833,45.453,7.52,45.549,7.208,45.549z"
				/>
		</g>
		<g>
			<path fill="#FFFFFF" d="M43.358,34.719c-0.384,0-0.768-0.146-1.061-0.438c-0.586-0.585-0.586-1.536,0-2.121l10.395-10.395
				l0.717-9.105c0.064-0.827,0.79-1.445,1.612-1.378c0.826,0.065,1.443,0.788,1.378,1.613l-0.76,9.657
				c-0.027,0.356-0.182,0.69-0.435,0.943L44.419,34.28C44.126,34.573,43.742,34.719,43.358,34.719z"/>
			<path fill="#FFFFFF" d="M53.968,23.757c-0.731,0-1.372-0.536-1.482-1.282c-0.12-0.82,0.446-1.582,1.267-1.702l9.526-1.401
				c0.811-0.126,1.581,0.446,1.702,1.266c0.12,0.82-0.446,1.582-1.267,1.702l-9.526,1.401C54.114,23.752,54.04,23.757,53.968,23.757
				z"/>
		</g>
		<g>
			<path fill="#FFFFFF" d="M11.983,56.365c-0.781,0-1.44-0.606-1.494-1.397c-0.057-0.827,0.567-1.542,1.394-1.599l8.991-0.616
				l10.599-10.599c0.586-0.586,1.535-0.586,2.121,0c0.586,0.585,0.586,1.535,0,2.121L22.598,55.271
				c-0.256,0.256-0.597,0.411-0.958,0.436l-9.552,0.655C12.053,56.364,12.019,56.365,11.983,56.365z"/>
			<path fill="#FFFFFF" d="M19.961,65.062c-0.072,0-0.146-0.005-0.221-0.016c-0.819-0.121-1.386-0.883-1.266-1.702l1.401-9.527
				c0.121-0.819,0.878-1.395,1.703-1.266c0.819,0.121,1.386,0.883,1.266,1.702l-1.401,9.527
				C21.333,64.525,20.692,65.062,19.961,65.062z"/>
		</g>
		<g>
			<path fill="#FFFFFF" d="M32.776,34.131c-0.384,0-0.768-0.146-1.061-0.439L21.512,23.487l-9.211-0.81
				c-0.826-0.072-1.436-0.8-1.363-1.625c0.073-0.826,0.824-1.432,1.625-1.363l9.755,0.857c0.352,0.031,0.681,0.184,0.93,0.434
				l10.59,10.59c0.586,0.586,0.586,1.536,0,2.121C33.544,33.985,33.16,34.131,32.776,34.131z"/>
			<path fill="#FFFFFF" d="M21.813,23.912c-0.731,0-1.372-0.536-1.482-1.282l-1.4-9.527c-0.12-0.82,0.446-1.582,1.267-1.702
				c0.813-0.126,1.58,0.446,1.702,1.266l1.4,9.527c0.12,0.82-0.446,1.582-1.267,1.702C21.959,23.907,21.885,23.912,21.813,23.912z"
				/>
		</g>
		<g>
			<path fill="#FFFFFF" d="M55.351,64.772c-0.788,0-1.449-0.615-1.496-1.412l-0.523-8.884l-10.789-10.79
				c-0.586-0.586-0.586-1.536,0-2.121c0.586-0.586,1.535-0.586,2.121,0l11.192,11.193c0.26,0.26,0.415,0.605,0.437,0.972
				l0.557,9.453c0.049,0.827-0.582,1.537-1.409,1.586C55.41,64.771,55.38,64.772,55.351,64.772z"/>
			<path fill="#FFFFFF" d="M63.953,57.091c-0.072,0-0.146-0.005-0.22-0.016l-9.527-1.401c-0.82-0.12-1.387-0.882-1.267-1.702
				c0.121-0.819,0.887-1.392,1.702-1.266l9.527,1.401c0.82,0.121,1.387,0.882,1.267,1.702
				C65.325,56.555,64.685,57.091,63.953,57.091z"/>
		</g>
	</g>
	<g>
		<path fill="#FFFFFF" d="M0,151c-0.276,0-0.552-0.114-0.75-0.338c-0.365-0.414-0.326-1.046,0.089-1.412l170-150
			c0.413-0.364,1.045-0.326,1.411,0.088c0.365,0.414,0.326,1.046-0.089,1.412l-170,150C0.472,150.917,0.235,151,0,151z"/>
		<polygon fill="#FFFFFF" points="41.784,99.031 49.473,91.341 61.778,103.646 67.064,98.359 66.873,116.43 48.8,116.622 
			54.086,111.336 		"/>
	</g>
</g>
</svg>
