<?xml version="1.0" encoding="utf-8"?>
<!-- Generator: Adobe Illustrator 16.0.0, SVG Export Plug-In . SVG Version: 6.00 Build 0)  -->
<!DOCTYPE svg PUBLIC "-//W3C//DTD SVG 1.1//EN" "http://www.w3.org/Graphics/SVG/1.1/DTD/svg11.dtd">
<svg version="1.1" id="Layer_1" xmlns="http://www.w3.org/2000/svg" xmlns:xlink="http://www.w3.org/1999/xlink" x="0px" y="0px"
	 width="170px" height="150px" viewBox="0 0 170 150" enable-background="new 0 0 170 150" xml:space="preserve">
<g>
	<g>
		<path fill="#FFFFFF" d="M121.971,117.841c-4.647,0-8.43-3.78-8.43-8.429s3.781-8.428,8.43-8.428c4.647,0,8.428,3.781,8.428,8.428
			S126.617,117.841,121.971,117.841z M121.971,103.984c-2.994,0-5.43,2.435-5.43,5.428c0,2.992,2.436,5.429,5.43,5.429
			c2.992,0,5.428-2.437,5.428-5.429C127.398,106.419,124.963,103.984,121.971,103.984z"/>
		<g>
			<path fill="#FFFFFF" d="M121.5,103.5c-0.828,0-1.5-0.671-1.5-1.5V88.271l-5.963-7.455c-0.518-0.646-0.413-1.59,0.232-2.107
				c0.65-0.518,1.592-0.412,2.108,0.234l6.292,7.865c0.213,0.266,0.329,0.596,0.329,0.937V102
				C123,102.829,122.328,103.5,121.5,103.5z"/>
			<path fill="#FFFFFF" d="M122.436,89.246c-0.313,0-0.625-0.096-0.895-0.296c-0.665-0.494-0.805-1.435-0.311-2.099l5.746-7.728
				c0.496-0.665,1.436-0.804,2.099-0.31c0.665,0.494,0.804,1.435,0.31,2.1l-5.744,7.727
				C123.346,89.037,122.893,89.246,122.436,89.246z"/>
		</g>
		<g>
			<path fill="#FFFFFF" d="M127.794,140.447c-0.412,0-0.823-0.17-1.119-0.5l-6.293-7.038c-0.246-0.275-0.382-0.632-0.382-1V116
				c0-0.829,0.672-1.5,1.5-1.5s1.5,0.671,1.5,1.5v15.336l5.911,6.611c0.552,0.617,0.499,1.566-0.118,2.117
				C128.507,140.32,128.148,140.447,127.794,140.447z"/>
			<path fill="#FFFFFF" d="M116.589,141.137c-0.312,0-0.625-0.096-0.896-0.296c-0.664-0.493-0.803-1.435-0.309-2.099l5.747-7.729
				c0.496-0.664,1.435-0.803,2.101-0.309c0.664,0.494,0.803,1.434,0.309,2.1l-5.747,7.727
				C117.499,140.928,117.047,141.137,116.589,141.137z"/>
		</g>
		<g>
			<path fill="#FFFFFF" d="M144.706,112H129c-0.828,0-1.5-0.671-1.5-1.5s0.672-1.5,1.5-1.5h15.141l6.715-5.917
				c0.621-0.548,1.57-0.485,2.117,0.134c0.547,0.622,0.487,1.569-0.135,2.117l-7.141,6.292C145.424,111.867,145.07,112,144.706,112z
				"/>
			<path fill="#FFFFFF" d="M152.434,116.549c-0.312,0-0.625-0.096-0.895-0.296l-7.729-5.747c-0.664-0.494-0.804-1.434-0.31-2.099
				c0.495-0.665,1.435-0.804,2.101-0.31l7.729,5.748c0.664,0.493,0.803,1.434,0.309,2.098
				C153.344,116.34,152.893,116.549,152.434,116.549z"/>
		</g>
		<g>
			<path fill="#FFFFFF" d="M114,112H98.936c-0.354,0-0.695-0.125-0.967-0.354l-7.461-6.293c-0.634-0.533-0.714-1.479-0.18-2.112
				c0.533-0.634,1.48-0.714,2.113-0.181L99.482,109H114c0.828,0,1.5,0.671,1.5,1.5S114.828,112,114,112z"/>
			<path fill="#FFFFFF" d="M91.208,116.549c-0.458,0-0.91-0.209-1.205-0.605c-0.494-0.664-0.354-1.604,0.31-2.098l7.729-5.748
				c0.666-0.494,1.604-0.355,2.1,0.309c0.494,0.666,0.355,1.605-0.309,2.1l-7.729,5.747
				C91.833,116.453,91.52,116.549,91.208,116.549z"/>
		</g>
		<g>
			<path fill="#FFFFFF" d="M127.357,105.719c-0.383,0-0.768-0.146-1.061-0.439c-0.586-0.584-0.586-1.535,0-2.12l10.395-10.396
				l0.718-9.104c0.063-0.827,0.798-1.438,1.612-1.378c0.826,0.064,1.442,0.787,1.377,1.613l-0.76,9.656
				c-0.027,0.355-0.182,0.69-0.435,0.943l-10.786,10.785C128.126,105.572,127.742,105.719,127.357,105.719z"/>
			<path fill="#FFFFFF" d="M137.968,94.757c-0.731,0-1.372-0.536-1.481-1.282c-0.12-0.82,0.445-1.582,1.267-1.701l9.526-1.401
				c0.807-0.128,1.58,0.446,1.701,1.267c0.121,0.819-0.445,1.582-1.267,1.701l-9.526,1.401
				C138.113,94.752,138.04,94.757,137.968,94.757z"/>
		</g>
		<g>
			<path fill="#FFFFFF" d="M95.982,127.365c-0.78,0-1.439-0.606-1.494-1.397c-0.057-0.827,0.568-1.542,1.395-1.599l8.991-0.616
				l10.599-10.599c0.586-0.586,1.535-0.586,2.121,0c0.586,0.584,0.586,1.535,0,2.121l-10.996,10.996
				c-0.256,0.256-0.597,0.412-0.957,0.437l-9.553,0.655C96.053,127.363,96.02,127.365,95.982,127.365z"/>
			<path fill="#FFFFFF" d="M103.961,136.063c-0.072,0-0.146-0.006-0.221-0.017c-0.819-0.121-1.387-0.883-1.266-1.702l1.4-9.527
				c0.121-0.818,0.875-1.391,1.703-1.266c0.818,0.121,1.386,0.883,1.266,1.702l-1.4,9.526
				C105.333,135.525,104.691,136.063,103.961,136.063z"/>
		</g>
		<g>
			<path fill="#FFFFFF" d="M116.775,105.131c-0.383,0-0.768-0.146-1.061-0.439l-10.203-10.205L96.3,93.678
				c-0.825-0.072-1.436-0.801-1.362-1.625c0.072-0.826,0.813-1.429,1.625-1.363l9.754,0.856c0.353,0.031,0.682,0.185,0.931,0.435
				l10.59,10.59c0.586,0.586,0.586,1.535,0,2.121C117.544,104.984,117.16,105.131,116.775,105.131z"/>
			<path fill="#FFFFFF" d="M105.813,94.912c-0.73,0-1.371-0.536-1.481-1.282l-1.399-9.526c-0.121-0.82,0.445-1.582,1.267-1.703
				c0.813-0.127,1.579,0.447,1.702,1.267l1.399,9.526c0.12,0.82-0.446,1.582-1.267,1.703
				C105.959,94.906,105.885,94.912,105.813,94.912z"/>
		</g>
		<g>
			<path fill="#FFFFFF" d="M139.352,135.771c-0.789,0-1.449-0.614-1.496-1.412l-0.523-8.883l-10.789-10.791
				c-0.586-0.586-0.586-1.535,0-2.121s1.535-0.586,2.121,0l11.191,11.193c0.261,0.26,0.416,0.605,0.438,0.973l0.557,9.453
				c0.049,0.826-0.582,1.537-1.408,1.586C139.41,135.771,139.38,135.771,139.352,135.771z"/>
			<path fill="#FFFFFF" d="M147.953,128.091c-0.072,0-0.146-0.005-0.221-0.016l-9.526-1.401c-0.82-0.119-1.388-0.882-1.267-1.701
				c0.121-0.82,0.883-1.395,1.701-1.267l9.527,1.401c0.82,0.121,1.387,0.881,1.268,1.701
				C149.325,127.555,148.686,128.091,147.953,128.091z"/>
		</g>
	</g>
	<g>
		<path fill="#FFFFFF" d="M86.832,47.605l0.165-3.112c0.019-0.341,0.028-0.684,0.028-1.03c0-10.743-8.74-19.483-19.483-19.483
			c-2.854,0-5.608,0.607-8.188,1.805l-1.063,0.493l-0.735-0.91c-2.479-3.066-6.158-4.825-10.092-4.825
			c-0.532,0-1.092,0.042-1.761,0.134l-0.696-2.903c2.044-0.712,4.249-0.852,6.35-0.41c1.415-6.126,6.511-10.556,12.452-10.556
			c3.527,0,6.84,1.548,9.256,4.288c2.066-0.878,4.242-1.322,6.484-1.322c9.898,0,17.951,8.795,17.951,19.606
			c0,6.636-3.04,12.771-8.133,16.412L86.832,47.605z M67.542,20.98c11.68,0,21.308,8.95,22.384,20.353
			c2.903-3.101,4.574-7.381,4.574-11.952c0-9.157-6.707-16.606-14.951-16.606c-2.17,0-4.267,0.509-6.231,1.514l-1.136,0.581
			l-0.756-1.028c-1.882-2.563-4.658-4.032-7.617-4.032c-4.822,0-8.925,3.912-9.707,9.172c1.879,0.859,3.589,2.084,5.03,3.63
			C61.807,21.528,64.63,20.98,67.542,20.98z"/>
		<path fill="#FFFFFF" d="M44.75,71.191c-6.514,0-12.291-3.907-14.749-9.843C20.519,62.268,12.5,54.763,12.5,45.452
			c0-8.806,7.164-15.971,15.971-15.971c1.163,0,2.317,0.126,3.447,0.376c1.667-7.129,8.071-12.315,15.546-12.315
			c4.459,0,8.65,1.834,11.668,5.068c2.675-1.083,5.498-1.631,8.41-1.631c12.397,0,22.483,10.086,22.483,22.483
			S79.939,65.945,67.542,65.945c-3.241,0-6.456-0.705-9.384-2.048C55.227,68.43,50.213,71.191,44.75,71.191z M32.014,57.998
			l0.403,1.238c1.742,5.356,6.699,8.955,12.333,8.955c4.838,0,9.242-2.667,11.494-6.959l0.706-1.346l1.336,0.723
			c2.824,1.528,6.024,2.336,9.256,2.336c10.743,0,19.483-8.74,19.483-19.482c0-10.742-8.74-19.483-19.483-19.483
			c-2.854,0-5.608,0.607-8.188,1.805l-1.063,0.493l-0.735-0.91c-2.479-3.066-6.158-4.825-10.092-4.825
			c-6.545,0-12.078,4.894-12.87,11.382l-0.224,1.83l-1.746-0.59c-1.342-0.453-2.739-0.683-4.153-0.683
			c-7.152,0-12.971,5.819-12.971,12.971c0,7.152,5.818,12.971,12.971,12.971c0.741,0,1.502-0.067,2.261-0.201L32.014,57.998z"/>
	</g>
	<path fill="#FFFFFF" d="M0,151c-0.276,0-0.552-0.113-0.75-0.338c-0.365-0.414-0.326-1.046,0.089-1.412l170-150
		c0.412-0.364,1.044-0.326,1.411,0.088c0.365,0.414,0.326,1.046-0.089,1.412l-170,150C0.472,150.917,0.235,151,0,151z"/>
</g>
</svg>
