<?xml version="1.0" encoding="utf-8"?>
<!-- Generator: Adobe Illustrator 16.0.0, SVG Export Plug-In . SVG Version: 6.00 Build 0)  -->
<!DOCTYPE svg PUBLIC "-//W3C//DTD SVG 1.1//EN" "http://www.w3.org/Graphics/SVG/1.1/DTD/svg11.dtd">
<svg version="1.1" id="Layer_1" xmlns="http://www.w3.org/2000/svg" xmlns:xlink="http://www.w3.org/1999/xlink" x="0px" y="0px"
	 width="170px" height="150px" viewBox="0 0 170 150" enable-background="new 0 0 170 150" xml:space="preserve">
<g>
	<g>
		<path fill="#FFFFFF" d="M124.971,117.841c-4.647,0-8.43-3.78-8.43-8.429s3.781-8.428,8.43-8.428c4.647,0,8.428,3.781,8.428,8.428
			S129.617,117.841,124.971,117.841z M124.971,103.984c-2.994,0-5.43,2.435-5.43,5.428c0,2.992,2.436,5.429,5.43,5.429
			c2.992,0,5.428-2.437,5.428-5.429C130.398,106.419,127.963,103.984,124.971,103.984z"/>
		<g>
			<path fill="#FFFFFF" d="M124.5,103.5c-0.828,0-1.5-0.671-1.5-1.5V88.271l-5.963-7.455c-0.518-0.646-0.413-1.59,0.232-2.107
				c0.65-0.518,1.594-0.412,2.108,0.234l6.292,7.865c0.213,0.266,0.329,0.596,0.329,0.937V102
				C126,102.829,125.328,103.5,124.5,103.5z"/>
			<path fill="#FFFFFF" d="M125.436,89.246c-0.313,0-0.625-0.096-0.895-0.296c-0.665-0.494-0.805-1.435-0.311-2.099l5.746-7.728
				c0.496-0.665,1.437-0.804,2.099-0.31c0.665,0.494,0.804,1.435,0.31,2.1l-5.744,7.727
				C126.346,89.037,125.893,89.246,125.436,89.246z"/>
		</g>
		<g>
			<path fill="#FFFFFF" d="M130.794,140.447c-0.412,0-0.823-0.17-1.119-0.5l-6.293-7.038c-0.245-0.275-0.382-0.632-0.382-1V116
				c0-0.829,0.672-1.5,1.5-1.5s1.5,0.671,1.5,1.5v15.336l5.911,6.611c0.552,0.617,0.499,1.566-0.118,2.117
				C131.507,140.32,131.148,140.447,130.794,140.447z"/>
			<path fill="#FFFFFF" d="M119.589,141.137c-0.312,0-0.625-0.096-0.896-0.296c-0.664-0.493-0.803-1.435-0.309-2.099l5.747-7.729
				c0.496-0.664,1.435-0.803,2.101-0.309c0.664,0.494,0.803,1.434,0.309,2.1l-5.747,7.727
				C120.499,140.928,120.047,141.137,119.589,141.137z"/>
		</g>
		<g>
			<path fill="#FFFFFF" d="M147.706,112H132c-0.828,0-1.5-0.671-1.5-1.5s0.672-1.5,1.5-1.5h15.141l6.715-5.917
				c0.621-0.548,1.57-0.485,2.117,0.134c0.547,0.622,0.487,1.569-0.135,2.117l-7.141,6.292C148.424,111.867,148.07,112,147.706,112z
				"/>
			<path fill="#FFFFFF" d="M155.434,116.549c-0.312,0-0.625-0.096-0.895-0.296l-7.729-5.747c-0.664-0.494-0.804-1.434-0.31-2.099
				c0.496-0.665,1.435-0.804,2.101-0.31l7.729,5.748c0.664,0.493,0.803,1.434,0.309,2.098
				C156.344,116.34,155.893,116.549,155.434,116.549z"/>
		</g>
		<g>
			<path fill="#FFFFFF" d="M117,112h-15.064c-0.354,0-0.695-0.125-0.967-0.354l-7.461-6.293c-0.634-0.533-0.714-1.479-0.18-2.112
				c0.535-0.634,1.48-0.714,2.113-0.181l7.041,5.938H117c0.828,0,1.5,0.671,1.5,1.5S117.828,112,117,112z"/>
			<path fill="#FFFFFF" d="M94.208,116.549c-0.458,0-0.91-0.209-1.205-0.605c-0.494-0.664-0.354-1.604,0.31-2.098l7.729-5.748
				c0.666-0.494,1.604-0.355,2.1,0.309c0.494,0.666,0.355,1.605-0.309,2.1l-7.729,5.747
				C94.833,116.453,94.52,116.549,94.208,116.549z"/>
		</g>
		<g>
			<path fill="#FFFFFF" d="M130.357,105.719c-0.383,0-0.768-0.146-1.061-0.439c-0.586-0.584-0.586-1.535,0-2.12l10.395-10.396
				l0.718-9.104c0.063-0.827,0.802-1.438,1.612-1.378c0.826,0.064,1.442,0.787,1.377,1.613l-0.76,9.656
				c-0.027,0.355-0.182,0.69-0.435,0.943l-10.786,10.785C131.126,105.572,130.742,105.719,130.357,105.719z"/>
			<path fill="#FFFFFF" d="M140.968,94.757c-0.731,0-1.372-0.536-1.481-1.282c-0.12-0.82,0.445-1.582,1.267-1.701l9.526-1.401
				c0.81-0.128,1.58,0.446,1.701,1.267c0.121,0.819-0.445,1.582-1.267,1.701l-9.526,1.401
				C141.113,94.752,141.04,94.757,140.968,94.757z"/>
		</g>
		<g>
			<path fill="#FFFFFF" d="M98.982,127.365c-0.78,0-1.439-0.606-1.494-1.397c-0.057-0.827,0.568-1.542,1.395-1.599l8.991-0.616
				l10.599-10.599c0.586-0.586,1.535-0.586,2.121,0c0.586,0.584,0.586,1.535,0,2.121l-10.996,10.996
				c-0.256,0.256-0.597,0.412-0.957,0.437l-9.553,0.655C99.053,127.363,99.02,127.365,98.982,127.365z"/>
			<path fill="#FFFFFF" d="M106.961,136.063c-0.072,0-0.146-0.006-0.221-0.017c-0.819-0.121-1.387-0.883-1.266-1.702l1.4-9.527
				c0.121-0.818,0.878-1.391,1.703-1.266c0.818,0.121,1.386,0.883,1.266,1.702l-1.4,9.526
				C108.333,135.525,107.691,136.063,106.961,136.063z"/>
		</g>
		<g>
			<path fill="#FFFFFF" d="M119.775,105.131c-0.383,0-0.768-0.146-1.061-0.439l-10.203-10.205L99.3,93.678
				c-0.825-0.072-1.436-0.801-1.362-1.625c0.072-0.826,0.817-1.429,1.625-1.363l9.754,0.856c0.353,0.031,0.682,0.185,0.931,0.435
				l10.59,10.59c0.586,0.586,0.586,1.535,0,2.121C120.544,104.984,120.16,105.131,119.775,105.131z"/>
			<path fill="#FFFFFF" d="M108.813,94.912c-0.73,0-1.371-0.536-1.481-1.282l-1.399-9.526c-0.121-0.82,0.445-1.582,1.267-1.703
				c0.807-0.127,1.581,0.447,1.702,1.267l1.399,9.526c0.12,0.82-0.446,1.582-1.267,1.703
				C108.959,94.906,108.885,94.912,108.813,94.912z"/>
		</g>
		<g>
			<path fill="#FFFFFF" d="M142.352,135.771c-0.789,0-1.449-0.614-1.496-1.412l-0.523-8.883l-10.789-10.791
				c-0.586-0.586-0.586-1.535,0-2.121s1.535-0.586,2.121,0l11.191,11.193c0.261,0.26,0.416,0.605,0.438,0.973l0.557,9.453
				c0.049,0.826-0.582,1.537-1.408,1.586C142.41,135.771,142.38,135.771,142.352,135.771z"/>
			<path fill="#FFFFFF" d="M150.953,128.091c-0.072,0-0.146-0.005-0.221-0.016l-9.526-1.401c-0.82-0.119-1.388-0.882-1.267-1.701
				c0.121-0.82,0.886-1.395,1.701-1.267l9.527,1.401c0.82,0.121,1.387,0.881,1.268,1.701
				C152.325,127.555,151.686,128.091,150.953,128.091z"/>
		</g>
	</g>
	<g>
		<path fill="#FFFFFF" stroke="#000000" stroke-width="2" stroke-linecap="round" stroke-miterlimit="10" d="M170,155"/>
		<path fill="#FFFFFF" stroke="#000000" stroke-width="2" stroke-linecap="round" stroke-miterlimit="10" d="M54.856,155"/>
		<path fill="#FFFFFF" stroke="#000000" stroke-width="2" stroke-linecap="round" stroke-miterlimit="10" d="M170,155"/>
		<path fill="#FFFFFF" d="M53.296,151c-0.553,0-1-0.447-1-1c0-31.253,12.109-60.656,34.099-82.792
			c21.989-22.137,51.291-34.418,82.504-34.582l0.93-0.008c0.553,0,1,0.448,1,1c0,0.552-0.447,1-1,1l-0.919,0.008
			C105.711,34.957,54.296,86.713,54.296,150C54.296,150.553,53.849,151,53.296,151z"/>
	</g>
	<g>
		<g>
			<path fill="#FFFFFF" d="M48.797,23.188c-0.384,0-0.768-0.146-1.061-0.439c-0.586-0.586-0.586-1.536,0-2.121l5.793-5.792
				c0.586-0.586,1.535-0.586,2.121,0s0.586,1.536,0,2.121l-5.793,5.792C49.564,23.041,49.181,23.188,48.797,23.188z"/>
			<path fill="#FFFFFF" d="M34.5,17.5c-0.828,0-1.5-0.671-1.5-1.5V8c0-0.829,0.672-1.5,1.5-1.5S36,7.171,36,8v8
				C36,16.829,35.328,17.5,34.5,17.5z"/>
			<path fill="#FFFFFF" d="M22.58,22.884c-0.384,0-0.768-0.146-1.061-0.439l-5.793-5.793c-0.586-0.585-0.586-1.536,0-2.121
				c0.586-0.586,1.535-0.586,2.121,0l5.793,5.793c0.586,0.585,0.586,1.536,0,2.121C23.348,22.737,22.964,22.884,22.58,22.884z"/>
			<path fill="#FFFFFF" d="M17,38H9c-0.828,0-1.5-0.671-1.5-1.5S8.172,35,9,35h8c0.828,0,1.5,0.671,1.5,1.5S17.828,38,17,38z"/>
			<path fill="#FFFFFF" d="M16.482,54.893c-0.384,0-0.768-0.146-1.061-0.439c-0.586-0.585-0.586-1.536,0-2.121l5.792-5.792
				c0.586-0.586,1.535-0.586,2.121,0c0.586,0.585,0.586,1.536,0,2.121l-5.792,5.792C17.25,54.746,16.866,54.893,16.482,54.893z"/>
			<path fill="#FFFFFF" d="M32.422,50.383l-1.46-0.392c-6.843-1.838-11.44-8.006-11.44-15.346c0-8.831,7.185-16.015,16.016-16.015
				c7.828,0,14.799,6.324,15.87,14.396l0.125,0.946l-0.804,0.515c-2.57,1.646-4.033,3.922-4.349,6.768l-0.212,1.909l-1.802-0.668
				c-0.894-0.332-1.821-0.5-2.759-0.5c-4.056,0-7.759,2.913-8.805,6.925L32.422,50.383z M35.537,21.63
				c-7.177,0-13.016,5.838-13.016,13.015c0,5.469,3.114,10.129,7.882,12.008c1.847-4.517,6.332-7.657,11.204-7.657
				c0.707,0,1.41,0.069,2.104,0.206c0.682-2.666,2.237-4.938,4.573-6.671C47.041,26.35,41.604,21.63,35.537,21.63z"/>
		</g>
		<g>
			<path fill="#FFFFFF" d="M82.667,53.145l0.162-3.108c0.013-0.237,0.019-0.475,0.019-0.714c0-7.438-6.051-13.488-13.487-13.488
				c-1.975,0-3.882,0.42-5.67,1.25l-1.062,0.492l-0.735-0.91c-1.689-2.089-4.195-3.287-6.875-3.287c-0.358,0-0.74,0.029-1.201,0.092
				l-0.694-2.903c1.406-0.488,2.91-0.618,4.358-0.383c1.18-4.36,4.896-7.473,9.212-7.473c2.545,0,4.939,1.073,6.727,2.98
				c1.445-0.573,2.96-0.862,4.518-0.862c7.306,0,13.25,6.475,13.25,14.433c0,4.879-2.238,9.392-5.988,12.072L82.667,53.145z
				 M69.36,32.834c8.229,0,15.07,6.061,16.292,13.954c1.619-2.056,2.535-4.71,2.535-7.525c0-6.304-4.599-11.433-10.25-11.433
				c-1.48,0-2.913,0.348-4.258,1.034l-1.136,0.58l-0.755-1.027c-1.263-1.719-3.12-2.705-5.096-2.705
				c-3.136,0-5.819,2.485-6.458,5.875c1.189,0.584,2.281,1.371,3.229,2.337C65.345,33.2,67.323,32.834,69.36,32.834z"/>
			<path fill="#FFFFFF" d="M53.08,69.557c-4.721,0-8.92-2.769-10.807-7.007c-6.89,0.487-12.658-5.009-12.658-11.808
				c0-6.526,5.31-11.836,11.837-11.836c0.723,0,1.44,0.066,2.146,0.196c1.378-5.075,6.021-8.724,11.42-8.724
				c3.206,0,6.225,1.279,8.445,3.544c1.881-0.723,3.86-1.089,5.896-1.089c9.091,0,16.487,7.396,16.487,16.488
				c0,9.091-7.396,16.487-16.487,16.487c-2.255,0-4.491-0.465-6.548-1.354C60.616,67.634,57.005,69.557,53.08,69.557z
				 M44.275,59.218l0.403,1.238c1.188,3.649,4.563,6.101,8.401,6.101c3.296,0,6.296-1.817,7.83-4.741l0.705-1.346l1.337,0.723
				c1.954,1.058,4.171,1.617,6.408,1.617c7.437,0,13.487-6.05,13.487-13.487s-6.051-13.488-13.487-13.488
				c-1.975,0-3.882,0.42-5.67,1.25l-1.062,0.492l-0.735-0.91c-1.689-2.089-4.195-3.287-6.875-3.287
				c-4.459,0-8.229,3.333-8.768,7.754l-0.224,1.83l-1.746-0.591c-0.914-0.309-1.865-0.466-2.829-0.466
				c-4.873,0-8.837,3.964-8.837,8.836c0,5.377,4.864,9.667,10.378,8.7L44.275,59.218z"/>
		</g>
	</g>
</g>
</svg>
