<?xml version="1.0" encoding="utf-8"?>
<!-- Generator: Adobe Illustrator 16.0.0, SVG Export Plug-In . SVG Version: 6.00 Build 0)  -->
<!DOCTYPE svg PUBLIC "-//W3C//DTD SVG 1.1//EN" "http://www.w3.org/Graphics/SVG/1.1/DTD/svg11.dtd">
<svg version="1.1" id="Layer_1" xmlns="http://www.w3.org/2000/svg" xmlns:xlink="http://www.w3.org/1999/xlink" x="0px" y="0px"
	 width="170px" height="150px" viewBox="0 0 170 150" enable-background="new 0 0 170 150" xml:space="preserve">
<g>
	<g>
		<path fill="#FFFFFF" stroke="#000000" stroke-width="2" stroke-linecap="round" stroke-miterlimit="10" d="M170,155"/>
		<path fill="#FFFFFF" stroke="#000000" stroke-width="2" stroke-linecap="round" stroke-miterlimit="10" d="M54.856,155"/>
		<path fill="#FFFFFF" stroke="#000000" stroke-width="2" stroke-linecap="round" stroke-miterlimit="10" d="M170,155"/>
		<path fill="#FFFFFF" d="M53.296,151c-0.552,0-1-0.447-1-1c0-31.253,12.109-60.656,34.099-82.792
			c21.989-22.137,51.291-34.418,82.504-34.582l0.929-0.008c0.552,0,1,0.448,1,1c0,0.552-0.448,1-1,1l-0.919,0.008
			C105.711,34.957,54.296,86.713,54.296,150C54.296,150.553,53.848,151,53.296,151z"/>
	</g>
	<g>
		<path fill="#FFFFFF" d="M122.971,118.841c-4.647,0-8.43-3.78-8.43-8.429s3.781-8.428,8.43-8.428c4.647,0,8.428,3.781,8.428,8.428
			S127.617,118.841,122.971,118.841z M122.971,104.984c-2.994,0-5.43,2.435-5.43,5.428c0,2.992,2.436,5.429,5.43,5.429
			c2.992,0,5.428-2.437,5.428-5.429C128.398,107.419,125.963,104.984,122.971,104.984z"/>
		<g>
			<path fill="#FFFFFF" d="M122.5,104.5c-0.829,0-1.5-0.671-1.5-1.5V89.271l-5.963-7.455c-0.518-0.646-0.413-1.59,0.234-2.107
				c0.646-0.518,1.59-0.413,2.107,0.234l6.292,7.865c0.213,0.266,0.329,0.596,0.329,0.937V103
				C124,103.829,123.329,104.5,122.5,104.5z"/>
			<path fill="#FFFFFF" d="M123.436,90.246c-0.313,0-0.625-0.096-0.895-0.296c-0.665-0.494-0.803-1.435-0.309-2.099l5.744-7.728
				c0.496-0.665,1.436-0.804,2.1-0.31c0.665,0.494,0.803,1.435,0.309,2.1l-5.744,7.727
				C124.346,90.037,123.893,90.246,123.436,90.246z"/>
		</g>
		<g>
			<path fill="#FFFFFF" d="M128.793,141.447c-0.412,0-0.822-0.17-1.119-0.5l-6.293-7.038c-0.246-0.275-0.382-0.632-0.382-1V117
				c0-0.829,0.671-1.5,1.5-1.5s1.5,0.671,1.5,1.5v15.336l5.911,6.611c0.552,0.617,0.499,1.566-0.118,2.117
				C129.507,141.32,129.148,141.447,128.793,141.447z"/>
			<path fill="#FFFFFF" d="M117.589,142.137c-0.312,0-0.625-0.096-0.894-0.296c-0.666-0.493-0.803-1.435-0.309-2.099l5.746-7.729
				c0.495-0.664,1.436-0.803,2.1-0.309s0.803,1.434,0.309,2.1l-5.747,7.727C118.499,141.928,118.047,142.137,117.589,142.137z"/>
		</g>
		<g>
			<path fill="#FFFFFF" d="M145.706,113H130c-0.829,0-1.5-0.671-1.5-1.5s0.671-1.5,1.5-1.5h15.141l6.715-5.917
				c0.621-0.547,1.568-0.487,2.117,0.134c0.547,0.622,0.487,1.569-0.135,2.117l-7.141,6.292C146.424,112.867,146.07,113,145.706,113
				z"/>
			<path fill="#FFFFFF" d="M153.434,117.549c-0.312,0-0.625-0.096-0.894-0.296l-7.729-5.747c-0.664-0.494-0.803-1.434-0.309-2.099
				c0.495-0.665,1.434-0.804,2.1-0.31l7.729,5.748c0.665,0.493,0.803,1.434,0.309,2.098
				C154.344,117.34,153.893,117.549,153.434,117.549z"/>
		</g>
		<g>
			<path fill="#FFFFFF" d="M115,113H99.936c-0.354,0-0.695-0.125-0.967-0.354l-7.461-6.293c-0.633-0.533-0.714-1.479-0.18-2.112
				c0.533-0.634,1.48-0.716,2.113-0.181l7.041,5.938H115c0.829,0,1.5,0.671,1.5,1.5S115.829,113,115,113z"/>
			<path fill="#FFFFFF" d="M92.208,117.549c-0.458,0-0.91-0.209-1.205-0.605c-0.495-0.664-0.356-1.604,0.31-2.098l7.729-5.748
				c0.663-0.494,1.604-0.355,2.1,0.309c0.494,0.666,0.355,1.605-0.31,2.1l-7.729,5.747C92.833,117.453,92.52,117.549,92.208,117.549
				z"/>
		</g>
		<g>
			<path fill="#FFFFFF" d="M128.357,106.719c-0.383,0-0.768-0.146-1.061-0.439c-0.586-0.584-0.586-1.535,0-2.12l10.395-10.396
				l0.717-9.104c0.064-0.825,0.791-1.433,1.613-1.378c0.826,0.064,1.442,0.787,1.377,1.613l-0.76,9.656
				c-0.027,0.355-0.183,0.69-0.435,0.943l-10.786,10.785C129.126,106.572,128.742,106.719,128.357,106.719z"/>
			<path fill="#FFFFFF" d="M138.968,95.757c-0.731,0-1.372-0.536-1.481-1.282c-0.121-0.82,0.445-1.582,1.266-1.701l9.525-1.401
				c0.818-0.126,1.582,0.446,1.703,1.267c0.119,0.819-0.446,1.582-1.267,1.701l-9.526,1.401
				C139.113,95.752,139.041,95.757,138.968,95.757z"/>
		</g>
		<g>
			<path fill="#FFFFFF" d="M96.984,128.365c-0.782,0-1.441-0.606-1.496-1.397c-0.057-0.827,0.568-1.542,1.395-1.599l8.991-0.616
				l10.599-10.599c0.586-0.586,1.535-0.586,2.121,0c0.586,0.584,0.586,1.535,0,2.121l-10.996,10.996
				c-0.256,0.256-0.596,0.412-0.957,0.437l-9.553,0.655C97.053,128.363,97.018,128.365,96.984,128.365z"/>
			<path fill="#FFFFFF" d="M104.961,137.063c-0.072,0-0.146-0.006-0.22-0.017c-0.82-0.121-1.386-0.883-1.267-1.702l1.401-9.527
				c0.12-0.819,0.878-1.389,1.702-1.266c0.82,0.121,1.386,0.883,1.266,1.702l-1.4,9.526
				C106.333,136.525,105.693,137.063,104.961,137.063z"/>
		</g>
		<g>
			<path fill="#FFFFFF" d="M117.775,106.131c-0.383,0-0.768-0.146-1.061-0.439l-10.203-10.205L97.3,94.678
				c-0.825-0.072-1.436-0.801-1.362-1.625c0.071-0.826,0.804-1.433,1.625-1.363l9.754,0.856c0.352,0.031,0.681,0.185,0.93,0.435
				l10.59,10.59c0.586,0.586,0.586,1.535,0,2.121C118.544,105.984,118.16,106.131,117.775,106.131z"/>
			<path fill="#FFFFFF" d="M106.813,95.912c-0.731,0-1.373-0.536-1.481-1.282l-1.399-9.526c-0.121-0.82,0.445-1.582,1.266-1.703
				c0.818-0.125,1.582,0.447,1.701,1.267l1.4,9.526c0.121,0.82-0.445,1.582-1.266,1.703
				C106.958,95.906,106.885,95.912,106.813,95.912z"/>
		</g>
		<g>
			<path fill="#FFFFFF" d="M140.35,136.771c-0.787,0-1.449-0.614-1.496-1.412l-0.522-8.883l-10.789-10.791
				c-0.586-0.586-0.586-1.535,0-2.121s1.535-0.586,2.121,0l11.192,11.193c0.26,0.26,0.414,0.605,0.437,0.973l0.558,9.453
				c0.047,0.826-0.584,1.537-1.41,1.586C140.41,136.771,140.38,136.771,140.35,136.771z"/>
			<path fill="#FFFFFF" d="M148.953,129.091c-0.073,0-0.146-0.005-0.221-0.016l-9.526-1.401c-0.819-0.119-1.386-0.882-1.267-1.701
				c0.121-0.82,0.883-1.39,1.703-1.267l9.526,1.401c0.819,0.121,1.386,0.881,1.267,1.701
				C150.326,128.555,149.686,129.091,148.953,129.091z"/>
		</g>
	</g>
	<g>
		<g>
			<path fill="#FFFFFF" d="M46.797,24.188c-0.384,0-0.768-0.146-1.061-0.439c-0.586-0.586-0.586-1.536,0-2.121l5.793-5.792
				c0.586-0.586,1.536-0.586,2.121,0c0.586,0.586,0.586,1.536,0,2.121l-5.793,5.792C47.564,24.041,47.181,24.188,46.797,24.188z"/>
			<path fill="#FFFFFF" d="M32.5,18.5c-0.829,0-1.5-0.671-1.5-1.5V9c0-0.829,0.671-1.5,1.5-1.5S34,8.171,34,9v8
				C34,17.829,33.329,18.5,32.5,18.5z"/>
			<path fill="#FFFFFF" d="M20.58,23.884c-0.384,0-0.768-0.146-1.061-0.439l-5.793-5.793c-0.586-0.585-0.586-1.536,0-2.121
				c0.586-0.586,1.535-0.586,2.121,0l5.793,5.793c0.586,0.585,0.586,1.536,0,2.121C21.348,23.737,20.964,23.884,20.58,23.884z"/>
			<path fill="#FFFFFF" d="M15,39H7c-0.829,0-1.5-0.671-1.5-1.5S6.171,36,7,36h8c0.829,0,1.5,0.671,1.5,1.5S15.829,39,15,39z"/>
			<path fill="#FFFFFF" d="M14.482,55.893c-0.384,0-0.768-0.146-1.061-0.439c-0.586-0.585-0.586-1.536,0-2.121l5.792-5.792
				c0.586-0.586,1.535-0.586,2.121,0c0.586,0.585,0.586,1.536,0,2.121l-5.792,5.792C15.25,55.746,14.866,55.893,14.482,55.893z"/>
			<path fill="#FFFFFF" d="M30.422,51.383l-1.459-0.392c-6.843-1.838-11.441-8.006-11.441-15.346
				c0-8.831,7.185-16.015,16.016-16.015c7.828,0,14.799,6.324,15.87,14.396l0.125,0.946l-0.804,0.515
				c-2.57,1.646-4.033,3.922-4.349,6.768l-0.212,1.909l-1.801-0.668c-0.894-0.332-1.822-0.5-2.759-0.5
				c-4.056,0-7.759,2.913-8.804,6.925L30.422,51.383z M33.537,22.63c-7.177,0-13.016,5.838-13.016,13.015
				c0,5.469,3.114,10.129,7.882,12.008c1.846-4.517,6.332-7.657,11.204-7.657c0.708,0,1.41,0.069,2.103,0.206
				c0.683-2.666,2.238-4.938,4.574-6.671C45.041,27.35,39.604,22.63,33.537,22.63z"/>
		</g>
		<g>
			<path fill="#FFFFFF" d="M80.667,54.145l0.162-3.108c0.012-0.237,0.019-0.475,0.019-0.714c0-7.438-6.05-13.488-13.487-13.488
				c-1.975,0-3.882,0.42-5.669,1.25l-1.062,0.492l-0.736-0.91c-1.689-2.089-4.195-3.287-6.875-3.287
				c-0.358,0-0.74,0.029-1.201,0.092l-0.694-2.903c1.405-0.488,2.909-0.619,4.358-0.383c1.18-4.36,4.897-7.473,9.212-7.473
				c2.545,0,4.939,1.073,6.727,2.98c1.445-0.573,2.959-0.862,4.517-0.862c7.306,0,13.25,6.475,13.25,14.433
				c0,4.879-2.238,9.392-5.987,12.072L80.667,54.145z M67.36,33.834c8.23,0,15.071,6.061,16.293,13.954
				c1.618-2.056,2.535-4.71,2.535-7.525c0-6.304-4.599-11.433-10.25-11.433c-1.48,0-2.913,0.348-4.257,1.034l-1.136,0.58
				l-0.755-1.027c-1.263-1.719-3.121-2.705-5.096-2.705c-3.136,0-5.819,2.485-6.458,5.875c1.189,0.584,2.281,1.371,3.228,2.337
				C63.345,34.2,65.324,33.834,67.36,33.834z"/>
			<path fill="#FFFFFF" d="M51.08,70.557c-4.721,0-8.92-2.769-10.807-7.007c-6.871,0.495-12.658-5.009-12.658-11.808
				c0-6.526,5.31-11.836,11.837-11.836c0.723,0,1.44,0.066,2.146,0.196c1.378-5.075,6.021-8.724,11.42-8.724
				c3.206,0,6.225,1.279,8.445,3.544c1.882-0.723,3.86-1.089,5.897-1.089c9.091,0,16.487,7.396,16.487,16.488
				c0,9.091-7.396,16.487-16.487,16.487c-2.254,0-4.492-0.465-6.548-1.354C58.617,68.634,55.005,70.557,51.08,70.557z
				 M42.275,60.218l0.403,1.238c1.188,3.649,4.564,6.101,8.402,6.101c3.296,0,6.296-1.817,7.83-4.741l0.706-1.346l1.336,0.723
				c1.955,1.058,4.17,1.617,6.408,1.617c7.437,0,13.487-6.05,13.487-13.487s-6.05-13.488-13.487-13.488
				c-1.975,0-3.882,0.42-5.669,1.25l-1.062,0.492l-0.736-0.91c-1.689-2.089-4.195-3.287-6.875-3.287
				c-4.459,0-8.229,3.333-8.768,7.754l-0.223,1.83l-1.747-0.591c-0.913-0.309-1.865-0.466-2.829-0.466
				c-4.873,0-8.837,3.964-8.837,8.836c0,5.377,4.868,9.667,10.378,8.7L42.275,60.218z"/>
		</g>
	</g>
</g>
</svg>
