<?xml version="1.0" encoding="utf-8"?>
<!-- Generator: Adobe Illustrator 16.0.0, SVG Export Plug-In . SVG Version: 6.00 Build 0)  -->
<!DOCTYPE svg PUBLIC "-//W3C//DTD SVG 1.1//EN" "http://www.w3.org/Graphics/SVG/1.1/DTD/svg11.dtd">
<svg version="1.1" id="Layer_1" xmlns="http://www.w3.org/2000/svg" xmlns:xlink="http://www.w3.org/1999/xlink" x="0px" y="0px"
	 width="170px" height="150px" viewBox="0 0 170 150" enable-background="new 0 0 170 150" xml:space="preserve">
<g>
	<g>
		<path fill="#FFFFFF" stroke="#000000" stroke-width="2" stroke-linecap="round" stroke-miterlimit="10" d="M170,155"/>
		<path fill="#FFFFFF" stroke="#000000" stroke-width="2" stroke-linecap="round" stroke-miterlimit="10" d="M54.856,155"/>
		<path fill="#FFFFFF" stroke="#000000" stroke-width="2" stroke-linecap="round" stroke-miterlimit="10" d="M170,155"/>
		<path fill="#FFFFFF" d="M53.296,151c-0.552,0-1-0.447-1-1c0-31.253,12.109-60.656,34.099-82.792
			c21.989-22.137,51.291-34.418,82.504-34.582l0.929-0.008c0.552,0,1,0.448,1,1c0,0.552-0.448,1-1,1l-0.919,0.008
			C105.711,34.957,54.296,86.713,54.296,150C54.296,150.553,53.848,151,53.296,151z"/>
	</g>
	<g>
		<path fill="#FFFFFF" d="M123.971,118.841c-4.647,0-8.43-3.78-8.43-8.429s3.781-8.428,8.43-8.428c4.647,0,8.428,3.781,8.428,8.428
			S128.617,118.841,123.971,118.841z M123.971,104.984c-2.994,0-5.43,2.435-5.43,5.428c0,2.992,2.436,5.429,5.43,5.429
			c2.992,0,5.428-2.437,5.428-5.429C129.398,107.419,126.963,104.984,123.971,104.984z"/>
		<g>
			<path fill="#FFFFFF" d="M123.5,104.5c-0.829,0-1.5-0.671-1.5-1.5V89.271l-5.963-7.455c-0.518-0.646-0.413-1.59,0.234-2.107
				c0.646-0.518,1.592-0.413,2.107,0.234l6.292,7.865c0.213,0.266,0.329,0.596,0.329,0.937V103
				C125,103.829,124.329,104.5,123.5,104.5z"/>
			<path fill="#FFFFFF" d="M124.436,90.246c-0.313,0-0.625-0.096-0.895-0.296c-0.665-0.494-0.803-1.435-0.309-2.099l5.744-7.728
				c0.496-0.665,1.436-0.804,2.1-0.31c0.665,0.494,0.803,1.435,0.309,2.1l-5.744,7.727
				C125.346,90.037,124.893,90.246,124.436,90.246z"/>
		</g>
		<g>
			<path fill="#FFFFFF" d="M129.793,141.447c-0.412,0-0.822-0.17-1.119-0.5l-6.293-7.038c-0.246-0.275-0.382-0.632-0.382-1V117
				c0-0.829,0.671-1.5,1.5-1.5s1.5,0.671,1.5,1.5v15.336l5.911,6.611c0.552,0.617,0.499,1.566-0.118,2.117
				C130.507,141.32,130.148,141.447,129.793,141.447z"/>
			<path fill="#FFFFFF" d="M118.589,142.137c-0.312,0-0.625-0.096-0.894-0.296c-0.666-0.493-0.803-1.435-0.309-2.099l5.746-7.729
				c0.495-0.664,1.436-0.803,2.1-0.309s0.803,1.434,0.309,2.1l-5.747,7.727C119.499,141.928,119.047,142.137,118.589,142.137z"/>
		</g>
		<g>
			<path fill="#FFFFFF" d="M146.706,113H131c-0.829,0-1.5-0.671-1.5-1.5s0.671-1.5,1.5-1.5h15.141l6.715-5.917
				c0.621-0.547,1.568-0.487,2.117,0.134c0.547,0.622,0.487,1.569-0.135,2.117l-7.141,6.292C147.424,112.867,147.07,113,146.706,113
				z"/>
			<path fill="#FFFFFF" d="M154.434,117.549c-0.312,0-0.625-0.096-0.894-0.296l-7.729-5.747c-0.664-0.494-0.803-1.434-0.309-2.099
				c0.496-0.665,1.436-0.804,2.1-0.31l7.729,5.748c0.665,0.493,0.803,1.434,0.309,2.098
				C155.344,117.34,154.893,117.549,154.434,117.549z"/>
		</g>
		<g>
			<path fill="#FFFFFF" d="M116,113h-15.064c-0.354,0-0.695-0.125-0.967-0.354l-7.461-6.293c-0.633-0.533-0.714-1.479-0.18-2.112
				c0.533-0.634,1.48-0.716,2.113-0.181l7.041,5.938H116c0.829,0,1.5,0.671,1.5,1.5S116.829,113,116,113z"/>
			<path fill="#FFFFFF" d="M93.208,117.549c-0.458,0-0.91-0.209-1.205-0.605c-0.495-0.664-0.356-1.604,0.31-2.098l7.729-5.748
				c0.664-0.494,1.604-0.355,2.1,0.309c0.494,0.666,0.355,1.605-0.31,2.1l-7.729,5.747C93.833,117.453,93.52,117.549,93.208,117.549
				z"/>
		</g>
		<g>
			<path fill="#FFFFFF" d="M129.357,106.719c-0.383,0-0.768-0.146-1.061-0.439c-0.586-0.584-0.586-1.535,0-2.12l10.395-10.396
				l0.717-9.104c0.064-0.825,0.789-1.433,1.613-1.378c0.826,0.064,1.442,0.787,1.377,1.613l-0.76,9.656
				c-0.027,0.355-0.183,0.69-0.435,0.943l-10.786,10.785C130.126,106.572,129.742,106.719,129.357,106.719z"/>
			<path fill="#FFFFFF" d="M139.968,95.757c-0.731,0-1.372-0.536-1.481-1.282c-0.121-0.82,0.445-1.582,1.266-1.701l9.525-1.401
				c0.815-0.126,1.582,0.446,1.703,1.267c0.121,0.819-0.446,1.582-1.267,1.701l-9.526,1.401
				C140.113,95.752,140.041,95.757,139.968,95.757z"/>
		</g>
		<g>
			<path fill="#FFFFFF" d="M97.984,128.365c-0.782,0-1.441-0.606-1.496-1.397c-0.057-0.827,0.568-1.542,1.395-1.599l8.991-0.616
				l10.599-10.599c0.586-0.586,1.535-0.586,2.121,0c0.586,0.584,0.586,1.535,0,2.121l-10.996,10.996
				c-0.256,0.256-0.596,0.412-0.957,0.437l-9.553,0.655C98.053,128.363,98.018,128.365,97.984,128.365z"/>
			<path fill="#FFFFFF" d="M105.961,137.063c-0.072,0-0.146-0.006-0.22-0.017c-0.82-0.121-1.386-0.883-1.267-1.702l1.401-9.527
				c0.12-0.819,0.88-1.389,1.702-1.266c0.82,0.121,1.386,0.883,1.266,1.702l-1.4,9.526
				C107.333,136.525,106.693,137.063,105.961,137.063z"/>
		</g>
		<g>
			<path fill="#FFFFFF" d="M118.775,106.131c-0.383,0-0.768-0.146-1.061-0.439l-10.203-10.205L98.3,94.678
				c-0.825-0.072-1.436-0.801-1.362-1.625c0.072-0.826,0.801-1.433,1.625-1.363l9.754,0.856c0.352,0.031,0.681,0.185,0.93,0.435
				l10.59,10.59c0.586,0.586,0.586,1.535,0,2.121C119.544,105.984,119.16,106.131,118.775,106.131z"/>
			<path fill="#FFFFFF" d="M107.813,95.912c-0.731,0-1.373-0.536-1.481-1.282l-1.399-9.526c-0.121-0.82,0.445-1.582,1.266-1.703
				c0.822-0.125,1.582,0.447,1.701,1.267l1.4,9.526c0.121,0.82-0.445,1.582-1.266,1.703
				C107.958,95.906,107.885,95.912,107.813,95.912z"/>
		</g>
		<g>
			<path fill="#FFFFFF" d="M141.35,136.771c-0.787,0-1.449-0.614-1.496-1.412l-0.522-8.883l-10.789-10.791
				c-0.586-0.586-0.586-1.535,0-2.121s1.535-0.586,2.121,0l11.192,11.193c0.26,0.26,0.414,0.605,0.437,0.973l0.558,9.453
				c0.047,0.826-0.584,1.537-1.41,1.586C141.41,136.771,141.38,136.771,141.35,136.771z"/>
			<path fill="#FFFFFF" d="M149.953,129.091c-0.073,0-0.146-0.005-0.221-0.016l-9.526-1.401c-0.819-0.119-1.386-0.882-1.267-1.701
				c0.121-0.82,0.879-1.39,1.703-1.267l9.526,1.401c0.819,0.121,1.386,0.881,1.267,1.701
				C151.326,128.555,150.686,129.091,149.953,129.091z"/>
		</g>
	</g>
	<g>
		<path fill="#FFFFFF" d="M80.832,57.605l0.165-3.112c0.018-0.341,0.028-0.684,0.028-1.03c0-10.743-8.74-19.483-19.483-19.483
			c-2.853,0-5.608,0.607-8.189,1.805l-1.062,0.493l-0.736-0.91c-2.479-3.066-6.157-4.825-10.091-4.825
			c-0.532,0-1.092,0.042-1.761,0.134l-0.696-2.903c2.044-0.712,4.249-0.852,6.35-0.41c1.415-6.126,6.51-10.556,12.452-10.556
			c3.528,0,6.84,1.548,9.256,4.288c2.066-0.878,4.242-1.322,6.484-1.322c9.898,0,17.951,8.795,17.951,19.606
			c0,6.636-3.04,12.771-8.132,16.412L80.832,57.605z M61.542,30.98c11.679,0,21.307,8.95,22.383,20.353
			c2.904-3.101,4.575-7.381,4.575-11.952c0-9.157-6.707-16.606-14.951-16.606c-2.169,0-4.266,0.509-6.231,1.514l-1.136,0.581
			l-0.755-1.028c-1.882-2.563-4.658-4.032-7.617-4.032c-4.822,0-8.925,3.912-9.708,9.172c1.879,0.859,3.589,2.084,5.031,3.63
			C55.807,31.528,58.63,30.98,61.542,30.98z"/>
		<path fill="#FFFFFF" d="M38.75,81.191c-6.513,0-12.292-3.907-14.75-9.843c-9.453,0.917-17.5-6.584-17.5-15.896
			c0-8.806,7.165-15.971,15.971-15.971c1.163,0,2.317,0.126,3.447,0.376c1.667-7.129,8.071-12.315,15.546-12.315
			c4.458,0,8.65,1.834,11.668,5.068c2.674-1.083,5.498-1.631,8.41-1.631c12.397,0,22.483,10.086,22.483,22.483
			S73.939,75.945,61.542,75.945c-3.241,0-6.457-0.706-9.384-2.048C49.227,78.43,44.213,81.191,38.75,81.191z M26.014,67.998
			l0.403,1.238c1.743,5.356,6.699,8.956,12.333,8.956c4.838,0,9.242-2.668,11.494-6.959l0.706-1.346l1.336,0.723
			c2.824,1.528,6.024,2.336,9.256,2.336c10.743,0,19.483-8.74,19.483-19.482c0-10.742-8.74-19.483-19.483-19.483
			c-2.853,0-5.608,0.607-8.189,1.805l-1.062,0.493l-0.736-0.91c-2.479-3.066-6.157-4.825-10.091-4.825
			c-6.545,0-12.078,4.894-12.871,11.382l-0.223,1.83l-1.746-0.59c-1.342-0.453-2.739-0.683-4.154-0.683
			C15.319,42.481,9.5,48.3,9.5,55.452c0,7.152,5.819,12.971,12.971,12.971c0.741,0,1.501-0.067,2.26-0.201L26.014,67.998z"/>
	</g>
</g>
</svg>
