<?xml version="1.0" encoding="utf-8"?>
<!-- Generator: Adobe Illustrator 16.0.0, SVG Export Plug-In . SVG Version: 6.00 Build 0)  -->
<!DOCTYPE svg PUBLIC "-//W3C//DTD SVG 1.1//EN" "http://www.w3.org/Graphics/SVG/1.1/DTD/svg11.dtd">
<svg version="1.1" id="Layer_1" xmlns="http://www.w3.org/2000/svg" xmlns:xlink="http://www.w3.org/1999/xlink" x="0px" y="0px"
	 width="170px" height="150px" viewBox="0 0 170 150" enable-background="new 0 0 170 150" xml:space="preserve">
<g>
	<g>
		<path fill="#FFFFFF" d="M0,151c-0.277,0-0.553-0.114-0.75-0.338c-0.365-0.414-0.326-1.046,0.088-1.412l170-150
			c0.413-0.364,1.045-0.326,1.411,0.088c0.364,0.414,0.326,1.046-0.089,1.412l-170,150C0.472,150.917,0.235,151,0,151z"/>
		<polygon fill="#FFFFFF" points="41.784,99.031 49.473,91.341 61.778,103.646 67.064,98.359 66.873,116.43 48.8,116.622 
			54.086,111.336 		"/>
	</g>
	<g>
		<path fill="#FFFFFF" d="M148.113,127.585c-2.879,0-5.221-2.342-5.221-5.22c0-2.879,2.342-5.221,5.221-5.221
			s5.221,2.342,5.221,5.221S150.992,127.585,148.113,127.585z M148.113,120.146c-1.225,0-2.221,0.996-2.221,2.22
			s0.996,2.22,2.221,2.22s2.221-0.996,2.221-2.22S149.338,120.146,148.113,120.146z"/>
		<g>
			<path fill="#FFFFFF" d="M147.5,120.5c-0.828,0-1.5-0.671-1.5-1.5v-7.709l-3.014-3.493c-0.541-0.627-0.473-1.575,0.156-2.116
				c0.627-0.543,1.573-0.47,2.114,0.156l3.378,3.916c0.235,0.271,0.364,0.62,0.364,0.98V119C149,119.829,148.328,120.5,147.5,120.5z
				"/>
			<path fill="#FFFFFF" d="M148.363,112.232c-0.313,0-0.625-0.096-0.895-0.295c-0.664-0.494-0.804-1.435-0.31-2.1l3.084-4.148
				c0.495-0.666,1.437-0.803,2.099-0.31c0.665,0.494,0.805,1.435,0.311,2.099l-3.084,4.149
				C149.273,112.023,148.82,112.232,148.363,112.232z"/>
		</g>
		<g>
			<path fill="#FFFFFF" d="M150.879,139.771c-0.416,0-0.829-0.172-1.126-0.508l-3.378-3.828c-0.241-0.273-0.375-0.627-0.375-0.992
				V126c0-0.829,0.672-1.5,1.5-1.5s1.5,0.671,1.5,1.5v7.876l3.003,3.403c0.548,0.621,0.488,1.568-0.133,2.117
				C151.585,139.648,151.23,139.771,150.879,139.771z"/>
			<path fill="#FFFFFF" d="M145.225,140.092c-0.313,0-0.625-0.096-0.896-0.296c-0.664-0.495-0.804-1.435-0.308-2.099l3.086-4.149
				c0.494-0.665,1.434-0.803,2.099-0.31c0.664,0.496,0.803,1.435,0.308,2.1l-3.086,4.148
				C146.134,139.883,145.682,140.092,145.225,140.092z"/>
		</g>
		<g>
			<path fill="#FFFFFF" d="M160.32,125H152c-0.828,0-1.5-0.671-1.5-1.5s0.672-1.5,1.5-1.5h7.76l3.467-3.011
				c0.623-0.544,1.571-0.478,2.115,0.147c0.543,0.625,0.477,1.573-0.148,2.116l-3.889,3.378C161.031,124.87,160.682,125,160.32,125z
				"/>
			<path fill="#FFFFFF" d="M164.469,126.893c-0.312,0-0.625-0.097-0.895-0.297l-4.149-3.085c-0.663-0.493-0.803-1.434-0.309-2.099
				c0.495-0.665,1.435-0.803,2.1-0.309l4.149,3.084c0.664,0.494,0.803,1.435,0.309,2.1
				C165.379,126.684,164.928,126.893,164.469,126.893z"/>
		</g>
		<g>
			<path fill="#FFFFFF" d="M144,125h-8.253c-0.358,0-0.706-0.129-0.979-0.363l-3.925-3.378c-0.628-0.541-0.698-1.487-0.157-2.114
				s1.487-0.699,2.114-0.158l3.503,3.015H144c0.828,0,1.5,0.671,1.5,1.5S144.828,125,144,125z"/>
			<path fill="#FFFFFF" d="M131.6,126.893c-0.459,0-0.91-0.209-1.205-0.605c-0.494-0.665-0.355-1.604,0.309-2.1l4.148-3.084
				c0.666-0.496,1.604-0.357,2.101,0.309c0.493,0.665,0.354,1.604-0.31,2.099l-4.148,3.085
				C132.225,126.795,131.91,126.893,131.6,126.893z"/>
		</g>
		<g>
			<path fill="#FFFFFF" d="M151.006,121.077c-0.384,0-0.768-0.146-1.061-0.438c-0.586-0.587-0.586-1.537,0-2.121l5.4-5.4
				l0.364-4.633c0.063-0.827,0.795-1.441,1.612-1.379c0.826,0.065,1.443,0.789,1.378,1.613l-0.408,5.186
				c-0.026,0.355-0.183,0.689-0.435,0.943l-5.793,5.791C151.773,120.932,151.391,121.077,151.006,121.077z"/>
			<path fill="#FFFFFF" d="M156.702,115.191c-0.731,0-1.372-0.537-1.481-1.282c-0.121-0.82,0.445-1.582,1.266-1.702l5.115-0.752
				c0.813-0.129,1.58,0.445,1.701,1.266c0.12,0.82-0.445,1.582-1.267,1.702l-5.114,0.752
				C156.85,115.188,156.773,115.191,156.702,115.191z"/>
		</g>
		<g>
			<path fill="#FFFFFF" d="M134.16,132.699c-0.781,0-1.439-0.605-1.494-1.397c-0.057-0.825,0.566-1.542,1.395-1.599l4.567-0.313
				l5.507-5.507c0.586-0.586,1.535-0.586,2.121,0c0.586,0.587,0.586,1.536,0,2.121l-5.904,5.904
				c-0.256,0.256-0.597,0.411-0.957,0.437l-5.129,0.352C134.229,132.698,134.195,132.699,134.16,132.699z"/>
			<path fill="#FFFFFF" d="M138.445,137.367c-0.071,0-0.146-0.006-0.219-0.016c-0.82-0.121-1.388-0.883-1.268-1.703l0.752-5.114
				c0.121-0.819,0.887-1.396,1.702-1.267c0.819,0.121,1.387,0.883,1.267,1.702l-0.752,5.115
				C139.818,136.831,139.178,137.367,138.445,137.367z"/>
		</g>
		<g>
			<path fill="#FFFFFF" d="M145.325,120.761c-0.384,0-0.769-0.146-1.062-0.438l-5.3-5.301l-4.694-0.412
				c-0.824-0.072-1.435-0.801-1.361-1.625c0.072-0.826,0.798-1.432,1.626-1.363l5.237,0.46c0.351,0.03,0.68,0.185,0.929,0.435
				l5.687,5.686c0.586,0.585,0.586,1.535,0,2.121C146.093,120.615,145.709,120.761,145.325,120.761z"/>
			<path fill="#FFFFFF" d="M139.438,115.273c-0.73,0-1.371-0.535-1.481-1.281l-0.752-5.115c-0.12-0.82,0.446-1.582,1.267-1.702
				c0.812-0.128,1.582,0.446,1.702,1.267l0.752,5.115c0.12,0.819-0.446,1.582-1.267,1.701
				C139.585,115.27,139.512,115.273,139.438,115.273z"/>
		</g>
		<g>
			<path fill="#FFFFFF" d="M157.443,137.212c-0.789,0-1.448-0.614-1.496-1.412l-0.264-4.505l-5.606-5.607
				c-0.586-0.586-0.586-1.535,0-2.121s1.534-0.586,2.12,0l6.011,6.011c0.26,0.26,0.415,0.606,0.437,0.973l0.299,5.075
				c0.049,0.827-0.582,1.537-1.409,1.585C157.503,137.211,157.475,137.212,157.443,137.212z"/>
			<path fill="#FFFFFF" d="M162.064,133.088c-0.071,0-0.146-0.005-0.221-0.016l-5.115-0.752c-0.818-0.121-1.386-0.883-1.266-1.702
				c0.121-0.819,0.875-1.392,1.703-1.267l5.115,0.752c0.818,0.121,1.386,0.883,1.266,1.703
				C163.438,132.552,162.797,133.088,162.064,133.088z"/>
		</g>
	</g>
	<g>
		<g>
			<path fill="#FFFFFF" d="M97.391,121.723c-0.127,0-0.258-0.017-0.388-0.051c-0.8-0.213-1.276-1.035-1.063-1.835l1.104-4.139
				c0.213-0.802,1.032-1.278,1.836-1.063c0.8,0.213,1.276,1.035,1.063,1.836l-1.104,4.139
				C98.66,121.279,98.055,121.723,97.391,121.723z"/>
			<path fill="#FFFFFF" d="M110.602,121.723c-0.129,0-0.259-0.017-0.388-0.051c-0.801-0.213-1.276-1.035-1.063-1.835l1.103-4.139
				c0.213-0.802,1.039-1.275,1.835-1.064c0.801,0.214,1.277,1.035,1.063,1.835l-1.102,4.139
				C111.87,121.279,111.264,121.723,110.602,121.723z"/>
			<path fill="#FFFFFF" d="M123.809,121.723c-0.127,0-0.258-0.017-0.388-0.051c-0.8-0.213-1.276-1.035-1.063-1.835l1.104-4.139
				c0.213-0.802,1.032-1.278,1.836-1.063c0.8,0.213,1.276,1.035,1.063,1.836l-1.104,4.139
				C125.078,121.279,124.473,121.723,123.809,121.723z"/>
			<path fill="#FFFFFF" d="M102.35,127.904c-0.129,0-0.259-0.018-0.388-0.051c-0.801-0.213-1.276-1.035-1.063-1.836l2.75-10.319
				c0.213-0.8,1.037-1.278,1.836-1.063c0.801,0.213,1.277,1.035,1.063,1.836l-2.75,10.319
				C103.618,127.461,103.012,127.904,102.35,127.904z"/>
			<path fill="#FFFFFF" d="M115.559,127.904c-0.129,0-0.259-0.018-0.388-0.051c-0.801-0.213-1.276-1.035-1.063-1.836l2.75-10.319
				c0.215-0.8,1.037-1.278,1.836-1.063c0.801,0.213,1.277,1.035,1.063,1.836l-2.75,10.319
				C116.827,127.461,116.221,127.904,115.559,127.904z"/>
		</g>
		<g>
			<path fill="#FFFFFF" d="M130.833,101.102l0.165-3.111c0.01-0.176,0.016-0.354,0.016-0.532c0-5.558-4.521-10.079-10.08-10.079
				c-1.478,0-2.902,0.314-4.238,0.934l-1.062,0.492l-0.735-0.91c-1.239-1.533-3.078-2.414-5.045-2.414
				c-0.26,0-0.539,0.022-0.885,0.068l-0.693-2.902c1.045-0.362,2.152-0.481,3.234-0.354c1.034-3.363,3.971-5.736,7.363-5.736
				c1.986,0,3.857,0.807,5.285,2.245c1.09-0.403,2.229-0.608,3.4-0.608c5.832,0,10.578,5.156,10.578,11.492
				c0,3.879-1.783,7.469-4.77,9.604L130.833,101.102z M120.934,84.378c6.248,0,11.486,4.404,12.775,10.271
				c0.917-1.422,1.428-3.146,1.428-4.961c0-4.684-3.398-8.492-7.578-8.492c-1.091,0-2.145,0.256-3.132,0.762l-1.137,0.582
				l-0.756-1.029c-0.911-1.24-2.245-1.951-3.661-1.951c-2.182,0-4.061,1.682-4.604,4.012c0.797,0.421,1.535,0.957,2.191,1.596
				C117.893,84.643,119.393,84.378,120.934,84.378z"/>
			<path fill="#FFFFFF" d="M108.354,113.432c-3.703,0-7.006-2.127-8.563-5.4c-5.396,0.242-9.907-4.106-9.907-9.477
				c0-5.23,4.257-9.486,9.486-9.486c0.476,0,0.946,0.035,1.415,0.105c1.201-3.912,4.847-6.693,9.066-6.693
				c2.494,0,4.847,0.965,6.608,2.683c1.431-0.521,2.931-0.786,4.472-0.786c7.211,0,13.08,5.867,13.08,13.079
				s-5.869,13.08-13.08,13.08c-1.695,0-3.379-0.332-4.939-0.968C114.223,111.98,111.408,113.432,108.354,113.432z M101.784,104.715
				l0.403,1.238c0.871,2.678,3.35,4.479,6.166,4.479c2.422,0,4.623-1.334,5.746-3.479l0.705-1.347l1.338,0.724
				c1.461,0.791,3.117,1.208,4.789,1.208c5.56,0,10.08-4.521,10.08-10.08s-4.521-10.079-10.08-10.079
				c-1.477,0-2.902,0.313-4.236,0.933l-1.063,0.492l-0.734-0.91c-1.24-1.533-3.08-2.412-5.047-2.412
				c-3.271,0-6.039,2.446-6.436,5.69l-0.225,1.83l-1.746-0.59c-0.67-0.228-1.368-0.343-2.075-0.343c-3.576,0-6.486,2.91-6.486,6.486
				c-0.001,3.944,3.513,7.1,7.617,6.385L101.784,104.715z"/>
		</g>
	</g>
	<g>
		<g>
			<path fill="#FFFFFF" d="M43.797,21.188c-0.384,0-0.768-0.146-1.061-0.439c-0.586-0.586-0.586-1.536,0-2.121l5.793-5.792
				c0.586-0.586,1.536-0.586,2.121,0c0.586,0.586,0.586,1.536,0,2.121l-5.793,5.792C44.564,21.041,44.181,21.188,43.797,21.188z"/>
			<path fill="#FFFFFF" d="M29.5,15.5c-0.829,0-1.5-0.671-1.5-1.5V6c0-0.829,0.671-1.5,1.5-1.5S31,5.171,31,6v8
				C31,14.829,30.329,15.5,29.5,15.5z"/>
			<path fill="#FFFFFF" d="M17.58,20.884c-0.384,0-0.768-0.146-1.061-0.439l-5.793-5.793c-0.586-0.585-0.586-1.536,0-2.121
				c0.586-0.586,1.535-0.586,2.121,0l5.793,5.793c0.586,0.585,0.586,1.536,0,2.121C18.348,20.737,17.964,20.884,17.58,20.884z"/>
			<path fill="#FFFFFF" d="M12,36H4c-0.829,0-1.5-0.671-1.5-1.5S3.171,33,4,33h8c0.829,0,1.5,0.671,1.5,1.5S12.829,36,12,36z"/>
			<path fill="#FFFFFF" d="M11.482,52.893c-0.384,0-0.768-0.146-1.061-0.439c-0.586-0.585-0.586-1.536,0-2.121l5.792-5.792
				c0.586-0.586,1.535-0.586,2.121,0c0.586,0.585,0.586,1.536,0,2.121l-5.792,5.792C12.25,52.746,11.866,52.893,11.482,52.893z"/>
			<path fill="#FFFFFF" d="M27.422,48.383l-1.459-0.392c-6.843-1.838-11.441-8.006-11.441-15.346
				c0-8.831,7.185-16.015,16.016-16.015c7.828,0,14.799,6.324,15.87,14.396l0.125,0.946l-0.804,0.515
				c-2.57,1.646-4.033,3.922-4.349,6.768l-0.212,1.909l-1.801-0.668c-0.894-0.332-1.822-0.5-2.759-0.5
				c-4.056,0-7.759,2.913-8.804,6.925L27.422,48.383z M30.537,19.63c-7.177,0-13.016,5.838-13.016,13.015
				c0,5.469,3.114,10.129,7.882,12.008c1.846-4.517,6.332-7.657,11.204-7.657c0.708,0,1.41,0.069,2.103,0.206
				c0.683-2.666,2.238-4.938,4.574-6.671C42.041,24.35,36.604,19.63,30.537,19.63z"/>
		</g>
		<g>
			<path fill="#FFFFFF" d="M77.667,51.145l0.162-3.108c0.012-0.237,0.019-0.475,0.019-0.714c0-7.438-6.05-13.488-13.487-13.488
				c-1.975,0-3.882,0.42-5.669,1.25l-1.062,0.492l-0.736-0.91c-1.689-2.089-4.195-3.287-6.875-3.287
				c-0.358,0-0.74,0.029-1.201,0.092l-0.694-2.903c1.405-0.488,2.91-0.619,4.358-0.383c1.18-4.36,4.897-7.473,9.212-7.473
				c2.545,0,4.939,1.073,6.727,2.98c1.445-0.573,2.959-0.862,4.517-0.862c7.306,0,13.25,6.475,13.25,14.433
				c0,4.879-2.238,9.392-5.987,12.072L77.667,51.145z M64.36,30.834c8.23,0,15.071,6.061,16.293,13.954
				c1.618-2.056,2.534-4.71,2.534-7.525c0-6.304-4.598-11.433-10.25-11.433c-1.48,0-2.913,0.348-4.257,1.034l-1.136,0.58
				l-0.755-1.027c-1.263-1.719-3.121-2.705-5.096-2.705c-3.136,0-5.819,2.485-6.458,5.875c1.189,0.584,2.281,1.371,3.228,2.337
				C60.345,31.2,62.324,30.834,64.36,30.834z"/>
			<path fill="#FFFFFF" d="M48.08,67.557c-4.721,0-8.92-2.769-10.807-7.007c-6.871,0.492-12.658-5.009-12.658-11.808
				c0-6.526,5.31-11.836,11.837-11.836c0.723,0,1.44,0.066,2.146,0.196c1.378-5.075,6.021-8.724,11.42-8.724
				c3.206,0,6.225,1.279,8.445,3.544c1.882-0.723,3.86-1.089,5.897-1.089c9.091,0,16.487,7.396,16.487,16.488
				c0,9.091-7.396,16.487-16.487,16.487c-2.254,0-4.492-0.465-6.548-1.354C55.617,65.634,52.005,67.557,48.08,67.557z
				 M39.275,57.218l0.403,1.238c1.188,3.649,4.564,6.101,8.402,6.101c3.296,0,6.296-1.817,7.83-4.741l0.706-1.346l1.336,0.723
				c1.955,1.058,4.17,1.617,6.408,1.617c7.437,0,13.487-6.05,13.487-13.487c0-7.438-6.05-13.488-13.487-13.488
				c-1.975,0-3.882,0.42-5.669,1.25l-1.062,0.492l-0.736-0.91c-1.689-2.089-4.195-3.287-6.875-3.287
				c-4.459,0-8.229,3.333-8.768,7.754l-0.223,1.83l-1.747-0.591c-0.913-0.309-1.865-0.466-2.829-0.466
				c-4.873,0-8.837,3.964-8.837,8.836c0,5.377,4.866,9.667,10.378,8.7L39.275,57.218z"/>
		</g>
	</g>
</g>
</svg>
