<?xml version="1.0" encoding="utf-8"?>
<!-- Generator: Adobe Illustrator 16.0.0, SVG Export Plug-In . SVG Version: 6.00 Build 0)  -->
<!DOCTYPE svg PUBLIC "-//W3C//DTD SVG 1.1//EN" "http://www.w3.org/Graphics/SVG/1.1/DTD/svg11.dtd">
<svg version="1.1" id="Layer_1" xmlns="http://www.w3.org/2000/svg" xmlns:xlink="http://www.w3.org/1999/xlink" x="0px" y="0px"
	 width="170px" height="150px" viewBox="0 0 170 150" enable-background="new 0 0 170 150" xml:space="preserve">
<g>
	<g>
		<path fill="#FFFFFF" d="M129.111,130.759c-12.238,0-22.195-9.712-22.195-21.649c0-11.938,9.957-21.65,22.195-21.65
			s22.195,9.712,22.195,21.65C151.307,121.047,141.35,130.759,129.111,130.759z M129.111,90.458
			c-10.584,0-19.195,8.367-19.195,18.649c0,10.283,8.611,18.65,19.195,18.65s19.195-8.367,19.195-18.65
			C148.307,98.825,139.695,90.458,129.111,90.458z"/>
		<path fill="#FFFFFF" d="M127.5,147.5c-0.828,0-1.5-0.671-1.5-1.5v-11c0-0.829,0.672-1.5,1.5-1.5s1.5,0.671,1.5,1.5v11
			C129,146.829,128.328,147.5,127.5,147.5z"/>
		<path fill="#FFFFFF" d="M155.842,137.059c-0.377,0-0.755-0.141-1.047-0.425l-8.259-8.041c-0.593-0.577-0.604-1.526-0.028-2.12
			c0.58-0.593,1.528-0.606,2.122-0.029l8.259,8.041c0.594,0.578,0.605,1.527,0.028,2.121
			C156.622,136.907,156.232,137.059,155.842,137.059z"/>
		<path fill="#FFFFFF" d="M167,113h-12c-0.828,0-1.5-0.671-1.5-1.5s0.672-1.5,1.5-1.5h12c0.828,0,1.5,0.671,1.5,1.5
			S167.828,113,167,113z"/>
		<path fill="#FFFFFF" d="M148.02,92.621c-0.392,0-0.781-0.15-1.074-0.454c-0.578-0.593-0.565-1.543,0.027-2.121l8.258-8.041
			c0.595-0.577,1.543-0.565,2.121,0.028c0.578,0.593,0.564,1.543-0.027,2.121l-8.258,8.041
			C148.773,92.479,148.396,92.621,148.02,92.621z"/>
		<path fill="#FFFFFF" d="M127.5,84.5c-0.828,0-1.5-0.671-1.5-1.5V72c0-0.829,0.672-1.5,1.5-1.5s1.5,0.671,1.5,1.5v11
			C129,83.829,128.328,84.5,127.5,84.5z"/>
		<path fill="#FFFFFF" d="M110.639,92.197c-0.377,0-0.756-0.141-1.048-0.424l-8.259-8.041c-0.594-0.578-0.605-1.527-0.027-2.121
			c0.579-0.594,1.526-0.606,2.121-0.028l8.26,8.041c0.592,0.578,0.604,1.526,0.027,2.121
			C111.418,92.046,111.027,92.197,110.639,92.197z"/>
		<path fill="#FFFFFF" d="M102,112H91c-0.828,0-1.5-0.671-1.5-1.5s0.672-1.5,1.5-1.5h11c0.828,0,1.5,0.671,1.5,1.5
			S102.828,112,102,112z"/>
		<path fill="#FFFFFF" d="M101.945,136.637c-0.391,0-0.78-0.152-1.074-0.455c-0.578-0.593-0.564-1.543,0.027-2.121l8.258-8.041
			c0.596-0.576,1.544-0.564,2.121,0.028c0.578,0.593,0.564,1.543-0.027,2.121l-8.258,8.041
			C102.7,136.494,102.322,136.637,101.945,136.637z"/>
	</g>
	<polygon fill="#FFFFFF" points="76.379,71.624 81.623,66.379 90.016,74.771 93.621,71.166 93.49,83.49 81.164,83.621 84.77,80.016 
			"/>
	<g>
		<path fill="#FFFFFF" d="M60.114,64.585c-2.879,0-5.221-2.342-5.221-5.22c0-2.878,2.342-5.22,5.221-5.22
			c2.878,0,5.22,2.342,5.22,5.22C65.334,62.244,62.992,64.585,60.114,64.585z M60.114,57.146c-1.225,0-2.221,0.996-2.221,2.22
			c0,1.224,0.996,2.22,2.221,2.22c1.224,0,2.22-0.996,2.22-2.22C62.334,58.142,61.338,57.146,60.114,57.146z"/>
		<g>
			<path fill="#FFFFFF" d="M59.5,57.5c-0.828,0-1.5-0.671-1.5-1.5v-7.709l-3.014-3.493c-0.541-0.627-0.472-1.575,0.156-2.116
				c0.627-0.543,1.573-0.471,2.115,0.156l3.378,3.916c0.235,0.272,0.364,0.62,0.364,0.98V56C61,56.829,60.328,57.5,59.5,57.5z"/>
			<path fill="#FFFFFF" d="M60.363,49.233c-0.312,0-0.625-0.096-0.894-0.296c-0.665-0.494-0.804-1.434-0.31-2.099l3.084-4.149
				c0.496-0.665,1.436-0.802,2.099-0.309c0.665,0.494,0.804,1.434,0.31,2.099l-3.084,4.149
				C61.273,49.024,60.821,49.233,60.363,49.233z"/>
		</g>
		<g>
			<path fill="#FFFFFF" d="M62.879,76.771c-0.416,0-0.829-0.172-1.126-0.508l-3.378-3.828C58.134,72.162,58,71.809,58,71.443V63
				c0-0.829,0.672-1.5,1.5-1.5S61,62.171,61,63v7.876l3.003,3.403c0.548,0.622,0.488,1.569-0.133,2.118
				C63.585,76.648,63.231,76.771,62.879,76.771z"/>
			<path fill="#FFFFFF" d="M57.224,77.092c-0.312,0-0.625-0.096-0.895-0.296c-0.664-0.495-0.803-1.434-0.308-2.099l3.086-4.149
				c0.495-0.665,1.434-0.803,2.099-0.309c0.664,0.495,0.803,1.434,0.308,2.099l-3.086,4.148
				C58.134,76.883,57.682,77.092,57.224,77.092z"/>
		</g>
		<g>
			<path fill="#FFFFFF" d="M72.32,62H64c-0.828,0-1.5-0.671-1.5-1.5S63.172,59,64,59h7.76l3.466-3.011
				c0.624-0.544,1.572-0.478,2.116,0.148c0.543,0.625,0.477,1.573-0.149,2.116l-3.889,3.378C73.031,61.87,72.682,62,72.32,62z"/>
			<path fill="#FFFFFF" d="M76.469,63.892c-0.312,0-0.625-0.096-0.895-0.296l-4.149-3.085c-0.664-0.494-0.803-1.434-0.309-2.099
				c0.496-0.665,1.435-0.802,2.1-0.309l4.149,3.085c0.664,0.494,0.803,1.434,0.309,2.099C77.379,63.683,76.927,63.892,76.469,63.892
				z"/>
		</g>
		<g>
			<path fill="#FFFFFF" d="M56,62h-8.253c-0.359,0-0.706-0.129-0.979-0.363l-3.925-3.378c-0.628-0.541-0.699-1.487-0.158-2.115
				c0.541-0.627,1.487-0.699,2.115-0.158L48.304,59H56c0.828,0,1.5,0.671,1.5,1.5S56.828,62,56,62z"/>
			<path fill="#FFFFFF" d="M43.599,63.892c-0.458,0-0.91-0.209-1.205-0.605c-0.494-0.665-0.355-1.604,0.309-2.099l4.149-3.085
				c0.666-0.494,1.604-0.357,2.1,0.309c0.494,0.665,0.355,1.604-0.309,2.099l-4.149,3.085C44.224,63.795,43.91,63.892,43.599,63.892
				z"/>
		</g>
		<g>
			<path fill="#FFFFFF" d="M63.006,58.077c-0.384,0-0.768-0.146-1.061-0.439c-0.586-0.586-0.586-1.536,0-2.121l5.4-5.4l0.365-4.633
				c0.064-0.826,0.796-1.442,1.613-1.378c0.825,0.065,1.442,0.788,1.377,1.613l-0.408,5.185c-0.027,0.356-0.182,0.69-0.435,0.943
				l-5.792,5.791C63.773,57.931,63.39,58.077,63.006,58.077z"/>
			<path fill="#FFFFFF" d="M68.702,52.191c-0.731,0-1.372-0.536-1.482-1.282c-0.12-0.82,0.446-1.582,1.267-1.702l5.114-0.752
				c0.812-0.128,1.581,0.446,1.702,1.266c0.12,0.82-0.446,1.582-1.267,1.702l-5.114,0.752
				C68.849,52.187,68.774,52.191,68.702,52.191z"/>
		</g>
		<g>
			<path fill="#FFFFFF" d="M46.16,69.699c-0.781,0-1.44-0.605-1.494-1.397c-0.057-0.826,0.567-1.542,1.394-1.599l4.568-0.313
				l5.507-5.506c0.586-0.586,1.535-0.586,2.121,0c0.586,0.586,0.586,1.536,0,2.121l-5.904,5.904
				c-0.256,0.256-0.597,0.411-0.958,0.436l-5.129,0.352C46.229,69.698,46.195,69.699,46.16,69.699z"/>
			<path fill="#FFFFFF" d="M50.446,74.367c-0.072,0-0.146-0.005-0.22-0.016c-0.82-0.12-1.387-0.882-1.267-1.702l0.752-5.115
				c0.121-0.82,0.888-1.394,1.702-1.266c0.82,0.12,1.387,0.882,1.267,1.702l-0.752,5.115C51.818,73.831,51.178,74.367,50.446,74.367
				z"/>
		</g>
		<g>
			<path fill="#FFFFFF" d="M57.325,57.761c-0.384,0-0.768-0.146-1.061-0.439l-5.3-5.3l-4.694-0.413
				c-0.825-0.072-1.435-0.8-1.362-1.625c0.073-0.825,0.802-1.436,1.626-1.363l5.237,0.46c0.351,0.031,0.68,0.184,0.929,0.434
				l5.686,5.686c0.586,0.585,0.586,1.536,0,2.121C58.093,57.615,57.709,57.761,57.325,57.761z"/>
			<path fill="#FFFFFF" d="M51.438,52.274c-0.731,0-1.372-0.536-1.482-1.282l-0.752-5.115c-0.12-0.82,0.446-1.582,1.267-1.702
				c0.813-0.127,1.58,0.446,1.702,1.266l0.752,5.115c0.12,0.82-0.446,1.582-1.267,1.702C51.585,52.27,51.511,52.274,51.438,52.274z"
				/>
		</g>
		<g>
			<path fill="#FFFFFF" d="M69.444,74.212c-0.789,0-1.449-0.615-1.496-1.412l-0.265-4.505l-5.606-5.607
				c-0.586-0.586-0.586-1.536,0-2.121c0.586-0.586,1.535-0.586,2.121,0l6.01,6.01c0.26,0.26,0.415,0.606,0.437,0.973l0.298,5.075
				c0.049,0.827-0.582,1.537-1.409,1.585C69.503,74.211,69.474,74.212,69.444,74.212z"/>
			<path fill="#FFFFFF" d="M74.065,70.088c-0.072,0-0.146-0.005-0.221-0.016l-5.115-0.752c-0.819-0.121-1.386-0.883-1.266-1.702
				c0.121-0.819,0.877-1.39,1.703-1.266l5.115,0.752c0.819,0.121,1.386,0.883,1.266,1.702
				C75.438,69.552,74.797,70.088,74.065,70.088z"/>
		</g>
	</g>
	<g>
		<g>
			<path fill="#FFFFFF" d="M9.391,58.723c-0.128,0-0.258-0.017-0.388-0.051c-0.8-0.213-1.276-1.035-1.063-1.835l1.104-4.139
				c0.213-0.801,1.032-1.278,1.836-1.063c0.8,0.213,1.276,1.035,1.063,1.835l-1.104,4.139C10.66,58.28,10.054,58.723,9.391,58.723z"
				/>
			<path fill="#FFFFFF" d="M22.601,58.723c-0.128,0-0.258-0.017-0.387-0.051c-0.801-0.213-1.277-1.035-1.063-1.835l1.102-4.139
				c0.213-0.801,1.039-1.275,1.835-1.064c0.801,0.213,1.277,1.035,1.063,1.835l-1.102,4.139
				C23.87,58.279,23.264,58.723,22.601,58.723z"/>
			<path fill="#FFFFFF" d="M35.809,58.723c-0.128,0-0.258-0.017-0.388-0.051c-0.8-0.213-1.276-1.035-1.063-1.835l1.104-4.139
				c0.213-0.801,1.031-1.278,1.836-1.063c0.8,0.213,1.276,1.035,1.063,1.835l-1.104,4.139C37.078,58.28,36.472,58.723,35.809,58.723
				z"/>
			<path fill="#FFFFFF" d="M14.349,64.904c-0.128,0-0.258-0.017-0.387-0.051c-0.801-0.213-1.277-1.035-1.063-1.835l2.75-10.32
				c0.213-0.8,1.036-1.278,1.835-1.063c0.801,0.213,1.277,1.035,1.063,1.835l-2.75,10.32C15.618,64.461,15.012,64.904,14.349,64.904
				z"/>
			<path fill="#FFFFFF" d="M27.558,64.904c-0.128,0-0.258-0.017-0.387-0.051c-0.801-0.213-1.277-1.035-1.063-1.835l2.75-10.32
				c0.213-0.8,1.039-1.278,1.835-1.063c0.801,0.213,1.277,1.035,1.063,1.835l-2.75,10.32C28.827,64.461,28.221,64.904,27.558,64.904
				z"/>
		</g>
		<g>
			<path fill="#FFFFFF" d="M42.833,38.102l0.165-3.112c0.01-0.176,0.015-0.354,0.015-0.532c0-5.558-4.521-10.079-10.08-10.079
				c-1.477,0-2.902,0.314-4.237,0.933l-1.062,0.492l-0.735-0.91c-1.24-1.533-3.079-2.413-5.046-2.413
				c-0.259,0-0.539,0.022-0.884,0.068l-0.693-2.903c1.045-0.362,2.153-0.48,3.234-0.353c1.034-3.363,3.97-5.736,7.363-5.736
				c1.987,0,3.858,0.806,5.285,2.245c1.09-0.404,2.229-0.608,3.4-0.608c5.833,0,10.578,5.155,10.578,11.492
				c0,3.879-1.782,7.469-4.769,9.603L42.833,38.102z M32.933,21.378c6.248,0,11.487,4.404,12.776,10.271
				c0.917-1.422,1.428-3.146,1.428-4.962c0-4.683-3.399-8.492-7.578-8.492c-1.091,0-2.145,0.256-3.132,0.762l-1.137,0.582
				l-0.756-1.029c-0.911-1.24-2.245-1.951-3.661-1.951c-2.181,0-4.06,1.681-4.603,4.012c0.797,0.42,1.535,0.956,2.191,1.595
				C29.893,21.642,31.392,21.378,32.933,21.378z"/>
			<path fill="#FFFFFF" d="M20.354,50.431c-3.703,0-7.006-2.126-8.563-5.4c-5.421,0.248-9.907-4.106-9.907-9.477
				c0-5.23,4.256-9.486,9.486-9.486c0.476,0,0.947,0.036,1.415,0.106c1.201-3.912,4.847-6.694,9.066-6.694
				c2.494,0,4.847,0.966,6.609,2.683c1.431-0.521,2.93-0.786,4.471-0.786c7.212,0,13.08,5.867,13.08,13.079
				s-5.868,13.08-13.08,13.08c-1.695,0-3.379-0.332-4.939-0.967C26.223,48.981,23.408,50.431,20.354,50.431z M13.784,41.715
				l0.403,1.238c0.871,2.678,3.35,4.478,6.167,4.478c2.421,0,4.623-1.333,5.746-3.479l0.705-1.347l1.338,0.724
				c1.461,0.791,3.117,1.208,4.789,1.208c5.559,0,10.08-4.521,10.08-10.08c0-5.558-4.521-10.079-10.08-10.079
				c-1.477,0-2.902,0.314-4.237,0.933l-1.062,0.492l-0.735-0.91c-1.24-1.533-3.079-2.413-5.046-2.413
				c-3.272,0-6.04,2.447-6.436,5.691l-0.224,1.83l-1.746-0.59c-0.671-0.227-1.369-0.342-2.076-0.342
				c-3.576,0-6.486,2.91-6.486,6.486c0,3.944,3.514,7.1,7.617,6.385L13.784,41.715z"/>
		</g>
	</g>
</g>
</svg>
