<?xml version="1.0" encoding="utf-8"?>
<!-- Generator: Adobe Illustrator 16.0.0, SVG Export Plug-In . SVG Version: 6.00 Build 0)  -->
<!DOCTYPE svg PUBLIC "-//W3C//DTD SVG 1.1//EN" "http://www.w3.org/Graphics/SVG/1.1/DTD/svg11.dtd">
<svg version="1.1" id="Layer_1" xmlns="http://www.w3.org/2000/svg" xmlns:xlink="http://www.w3.org/1999/xlink" x="0px" y="0px"
	 width="170px" height="150px" viewBox="0 0 170 150" enable-background="new 0 0 170 150" xml:space="preserve">
<g>
	<g>
		<path fill="#FFFFFF" stroke="#000000" stroke-width="2" stroke-linecap="round" stroke-miterlimit="10" d="M170,155"/>
		<path fill="#FFFFFF" stroke="#000000" stroke-width="2" stroke-linecap="round" stroke-miterlimit="10" d="M54.856,155"/>
		<path fill="#FFFFFF" stroke="#000000" stroke-width="2" stroke-linecap="round" stroke-miterlimit="10" d="M170,155"/>
		<path fill="#FFFFFF" d="M53.296,151c-0.553,0-1-0.447-1-1c0-31.253,12.109-60.656,34.099-82.792
			c21.989-22.137,51.291-34.418,82.504-34.582l0.93-0.008c0.553,0,1,0.448,1,1c0,0.552-0.447,1-1,1l-0.919,0.008
			C105.711,34.957,54.296,86.713,54.296,150C54.296,150.553,53.849,151,53.296,151z"/>
	</g>
	<g>
		<g>
			<path fill="#FFFFFF" d="M48.797,24.188c-0.384,0-0.768-0.146-1.061-0.439c-0.586-0.586-0.586-1.536,0-2.121l5.793-5.792
				c0.586-0.586,1.535-0.586,2.121,0s0.586,1.536,0,2.121l-5.793,5.792C49.564,24.041,49.181,24.188,48.797,24.188z"/>
			<path fill="#FFFFFF" d="M34.5,18.5c-0.828,0-1.5-0.671-1.5-1.5V9c0-0.829,0.672-1.5,1.5-1.5S36,8.171,36,9v8
				C36,17.829,35.328,18.5,34.5,18.5z"/>
			<path fill="#FFFFFF" d="M22.58,23.884c-0.384,0-0.768-0.146-1.061-0.439l-5.793-5.793c-0.586-0.585-0.586-1.536,0-2.121
				c0.586-0.586,1.535-0.586,2.121,0l5.793,5.793c0.586,0.585,0.586,1.536,0,2.121C23.348,23.737,22.964,23.884,22.58,23.884z"/>
			<path fill="#FFFFFF" d="M17,39H9c-0.828,0-1.5-0.671-1.5-1.5S8.172,36,9,36h8c0.828,0,1.5,0.671,1.5,1.5S17.828,39,17,39z"/>
			<path fill="#FFFFFF" d="M16.482,55.893c-0.384,0-0.768-0.146-1.061-0.439c-0.586-0.585-0.586-1.536,0-2.121l5.792-5.792
				c0.586-0.586,1.535-0.586,2.121,0c0.586,0.585,0.586,1.536,0,2.121l-5.792,5.792C17.25,55.746,16.866,55.893,16.482,55.893z"/>
			<path fill="#FFFFFF" d="M32.422,51.383l-1.46-0.392c-6.843-1.838-11.44-8.006-11.44-15.346c0-8.831,7.185-16.015,16.016-16.015
				c7.828,0,14.799,6.324,15.87,14.396l0.125,0.946l-0.804,0.515c-2.57,1.646-4.033,3.922-4.349,6.768l-0.212,1.909l-1.802-0.668
				c-0.894-0.332-1.821-0.5-2.759-0.5c-4.056,0-7.759,2.913-8.805,6.925L32.422,51.383z M35.537,22.63
				c-7.177,0-13.016,5.838-13.016,13.015c0,5.469,3.114,10.129,7.882,12.008c1.847-4.517,6.332-7.657,11.204-7.657
				c0.707,0,1.41,0.069,2.104,0.206c0.682-2.666,2.237-4.938,4.573-6.671C47.041,27.35,41.604,22.63,35.537,22.63z"/>
		</g>
		<g>
			<path fill="#FFFFFF" d="M82.667,54.145l0.162-3.108c0.013-0.237,0.019-0.475,0.019-0.714c0-7.438-6.051-13.488-13.487-13.488
				c-1.975,0-3.882,0.42-5.67,1.25l-1.062,0.492l-0.735-0.91c-1.689-2.089-4.195-3.287-6.875-3.287c-0.358,0-0.74,0.029-1.201,0.092
				l-0.694-2.903c1.406-0.488,2.91-0.618,4.358-0.383c1.18-4.36,4.896-7.473,9.212-7.473c2.545,0,4.939,1.073,6.727,2.98
				c1.445-0.573,2.96-0.862,4.518-0.862c7.306,0,13.25,6.475,13.25,14.433c0,4.879-2.238,9.392-5.988,12.072L82.667,54.145z
				 M69.36,33.834c8.229,0,15.07,6.061,16.292,13.954c1.619-2.056,2.535-4.71,2.535-7.525c0-6.304-4.599-11.433-10.25-11.433
				c-1.48,0-2.913,0.348-4.258,1.034l-1.136,0.58l-0.755-1.027c-1.263-1.719-3.12-2.705-5.096-2.705
				c-3.136,0-5.819,2.485-6.458,5.875c1.189,0.584,2.281,1.371,3.229,2.337C65.345,34.2,67.323,33.834,69.36,33.834z"/>
			<path fill="#FFFFFF" d="M53.08,70.557c-4.721,0-8.92-2.769-10.807-7.007c-6.885,0.484-12.658-5.009-12.658-11.808
				c0-6.526,5.31-11.836,11.837-11.836c0.723,0,1.44,0.066,2.146,0.196c1.378-5.075,6.021-8.724,11.42-8.724
				c3.206,0,6.225,1.279,8.445,3.544c1.881-0.723,3.86-1.089,5.896-1.089c9.091,0,16.487,7.396,16.487,16.488
				c0,9.091-7.396,16.487-16.487,16.487c-2.255,0-4.491-0.465-6.548-1.354C60.616,68.634,57.005,70.557,53.08,70.557z
				 M44.275,60.218l0.403,1.238c1.188,3.649,4.563,6.101,8.401,6.101c3.296,0,6.296-1.817,7.83-4.741l0.705-1.346l1.337,0.723
				c1.954,1.058,4.171,1.617,6.408,1.617c7.437,0,13.487-6.05,13.487-13.487s-6.051-13.488-13.487-13.488
				c-1.975,0-3.882,0.42-5.67,1.25l-1.062,0.492l-0.735-0.91c-1.689-2.089-4.195-3.287-6.875-3.287
				c-4.459,0-8.229,3.333-8.768,7.754l-0.224,1.83l-1.746-0.591c-0.914-0.309-1.865-0.466-2.829-0.466
				c-4.873,0-8.837,3.964-8.837,8.836c0,5.377,4.861,9.664,10.378,8.7L44.275,60.218z"/>
		</g>
	</g>
	<g>
		<path fill="#FFFFFF" d="M140.113,130.585c-2.879,0-5.221-2.342-5.221-5.22c0-2.879,2.342-5.221,5.221-5.221
			s5.221,2.342,5.221,5.221S142.992,130.585,140.113,130.585z M140.113,123.146c-1.225,0-2.221,0.996-2.221,2.22
			s0.996,2.22,2.221,2.22s2.221-0.996,2.221-2.22S141.338,123.146,140.113,123.146z"/>
		<g>
			<path fill="#FFFFFF" d="M139.5,123.5c-0.828,0-1.5-0.671-1.5-1.5v-7.709l-3.014-3.493c-0.541-0.627-0.473-1.575,0.156-2.116
				c0.627-0.541,1.573-0.471,2.114,0.156l3.378,3.916c0.235,0.271,0.364,0.62,0.364,0.98V122C141,122.829,140.328,123.5,139.5,123.5
				z"/>
			<path fill="#FFFFFF" d="M140.363,115.232c-0.313,0-0.625-0.096-0.895-0.295c-0.664-0.494-0.804-1.435-0.31-2.1l3.084-4.148
				c0.496-0.666,1.437-0.803,2.099-0.31c0.665,0.494,0.805,1.435,0.311,2.099l-3.084,4.149
				C141.273,115.023,140.82,115.232,140.363,115.232z"/>
		</g>
		<g>
			<path fill="#FFFFFF" d="M142.879,142.771c-0.416,0-0.829-0.172-1.126-0.508l-3.378-3.828c-0.241-0.273-0.375-0.627-0.375-0.992
				V129c0-0.829,0.672-1.5,1.5-1.5s1.5,0.671,1.5,1.5v7.876l3.003,3.403c0.548,0.621,0.488,1.568-0.133,2.117
				C143.585,142.648,143.23,142.771,142.879,142.771z"/>
			<path fill="#FFFFFF" d="M137.225,143.092c-0.313,0-0.625-0.096-0.896-0.296c-0.664-0.495-0.804-1.435-0.308-2.099l3.086-4.149
				c0.494-0.665,1.434-0.803,2.099-0.31c0.664,0.496,0.803,1.435,0.308,2.1l-3.086,4.148
				C138.134,142.883,137.682,143.092,137.225,143.092z"/>
		</g>
		<g>
			<path fill="#FFFFFF" d="M152.32,128H144c-0.828,0-1.5-0.671-1.5-1.5s0.672-1.5,1.5-1.5h7.76l3.467-3.012
				c0.623-0.543,1.571-0.477,2.115,0.148c0.543,0.625,0.477,1.573-0.148,2.116l-3.889,3.378C153.031,127.87,152.682,128,152.32,128z
				"/>
			<path fill="#FFFFFF" d="M156.469,129.893c-0.312,0-0.625-0.097-0.895-0.297l-4.149-3.084c-0.664-0.494-0.803-1.435-0.309-2.1
				c0.495-0.665,1.435-0.803,2.1-0.309l4.149,3.084c0.664,0.494,0.803,1.435,0.309,2.1
				C157.379,129.684,156.927,129.893,156.469,129.893z"/>
		</g>
		<g>
			<path fill="#FFFFFF" d="M136,128h-8.253c-0.358,0-0.706-0.129-0.979-0.363l-3.925-3.378c-0.628-0.541-0.698-1.487-0.157-2.114
				s1.487-0.699,2.114-0.158l3.503,3.015H136c0.828,0,1.5,0.671,1.5,1.5S136.828,128,136,128z"/>
			<path fill="#FFFFFF" d="M123.6,129.893c-0.459,0-0.91-0.209-1.205-0.605c-0.494-0.665-0.355-1.604,0.309-2.1l4.148-3.084
				c0.666-0.494,1.604-0.356,2.101,0.309c0.493,0.665,0.354,1.604-0.31,2.1l-4.148,3.084
				C124.225,129.795,123.91,129.893,123.6,129.893z"/>
		</g>
		<g>
			<path fill="#FFFFFF" d="M143.006,124.077c-0.384,0-0.768-0.146-1.061-0.438c-0.586-0.586-0.586-1.537,0-2.121l5.4-5.4
				l0.364-4.633c0.063-0.826,0.786-1.441,1.613-1.379c0.825,0.065,1.442,0.789,1.377,1.613l-0.408,5.186
				c-0.026,0.355-0.183,0.689-0.435,0.943l-5.793,5.791C143.773,123.932,143.391,124.077,143.006,124.077z"/>
			<path fill="#FFFFFF" d="M148.702,118.191c-0.731,0-1.372-0.537-1.481-1.282c-0.121-0.82,0.445-1.582,1.266-1.702l5.115-0.752
				c0.813-0.125,1.58,0.445,1.701,1.266c0.12,0.82-0.445,1.582-1.267,1.702l-5.114,0.752
				C148.85,118.188,148.773,118.191,148.702,118.191z"/>
		</g>
		<g>
			<path fill="#FFFFFF" d="M126.16,135.699c-0.781,0-1.439-0.605-1.494-1.396c-0.057-0.826,0.566-1.543,1.395-1.6l4.567-0.313
				l5.507-5.507c0.586-0.586,1.535-0.586,2.121,0c0.586,0.587,0.586,1.536,0,2.121l-5.904,5.904
				c-0.256,0.256-0.597,0.411-0.957,0.437l-5.129,0.352C126.229,135.697,126.195,135.699,126.16,135.699z"/>
			<path fill="#FFFFFF" d="M130.445,140.367c-0.071,0-0.146-0.006-0.219-0.016c-0.82-0.121-1.388-0.883-1.268-1.703l0.752-5.114
				c0.121-0.819,0.885-1.392,1.702-1.267c0.819,0.121,1.387,0.883,1.267,1.703l-0.752,5.114
				C131.818,139.831,131.178,140.367,130.445,140.367z"/>
		</g>
		<g>
			<path fill="#FFFFFF" d="M137.325,123.762c-0.384,0-0.769-0.146-1.062-0.439l-5.3-5.301l-4.694-0.412
				c-0.824-0.072-1.435-0.801-1.361-1.625c0.072-0.825,0.802-1.435,1.626-1.363l5.237,0.46c0.351,0.03,0.68,0.185,0.929,0.435
				l5.687,5.686c0.586,0.585,0.586,1.535,0,2.121C138.093,123.615,137.709,123.762,137.325,123.762z"/>
			<path fill="#FFFFFF" d="M131.438,118.273c-0.73,0-1.371-0.535-1.481-1.281l-0.752-5.115c-0.12-0.82,0.446-1.582,1.267-1.702
				c0.811-0.125,1.581,0.446,1.702,1.267l0.752,5.115c0.12,0.819-0.446,1.582-1.267,1.701
				C131.585,118.27,131.512,118.273,131.438,118.273z"/>
		</g>
		<g>
			<path fill="#FFFFFF" d="M149.443,140.212c-0.789,0-1.448-0.614-1.495-1.412l-0.265-4.505l-5.606-5.607
				c-0.586-0.586-0.586-1.535,0-2.121s1.534-0.586,2.121,0l6.01,6.011c0.26,0.26,0.415,0.606,0.437,0.973l0.299,5.075
				c0.049,0.827-0.582,1.537-1.409,1.585C149.503,140.211,149.475,140.212,149.443,140.212z"/>
			<path fill="#FFFFFF" d="M154.064,136.088c-0.071,0-0.146-0.005-0.221-0.016l-5.115-0.752c-0.818-0.121-1.386-0.883-1.266-1.702
				c0.121-0.82,0.879-1.394,1.703-1.267l5.115,0.752c0.818,0.121,1.386,0.883,1.266,1.703
				C155.438,135.553,154.797,136.088,154.064,136.088z"/>
		</g>
	</g>
	<g>
		<g>
			<path fill="#FFFFFF" d="M89.391,124.723c-0.127,0-0.258-0.017-0.388-0.051c-0.8-0.213-1.276-1.035-1.063-1.835l1.104-4.14
				c0.213-0.801,1.032-1.275,1.836-1.063c0.8,0.213,1.276,1.035,1.063,1.836l-1.104,4.139
				C90.66,124.279,90.055,124.723,89.391,124.723z"/>
			<path fill="#FFFFFF" d="M102.602,124.723c-0.129,0-0.259-0.017-0.388-0.051c-0.801-0.213-1.276-1.035-1.063-1.835l1.103-4.14
				c0.213-0.801,1.039-1.273,1.835-1.063c0.801,0.214,1.277,1.035,1.063,1.835l-1.102,4.139
				C103.87,124.279,103.264,124.723,102.602,124.723z"/>
			<path fill="#FFFFFF" d="M115.809,124.723c-0.127,0-0.258-0.017-0.388-0.051c-0.8-0.213-1.276-1.035-1.063-1.835l1.104-4.14
				c0.213-0.801,1.032-1.275,1.836-1.063c0.8,0.213,1.276,1.035,1.063,1.836l-1.104,4.139
				C117.078,124.279,116.473,124.723,115.809,124.723z"/>
			<path fill="#FFFFFF" d="M94.35,130.904c-0.129,0-0.259-0.018-0.388-0.051c-0.801-0.213-1.276-1.035-1.063-1.836l2.75-10.32
				c0.213-0.799,1.037-1.275,1.836-1.063c0.801,0.213,1.276,1.035,1.063,1.836l-2.75,10.319
				C95.618,130.461,95.012,130.904,94.35,130.904z"/>
			<path fill="#FFFFFF" d="M107.559,130.904c-0.129,0-0.259-0.018-0.388-0.051c-0.801-0.213-1.276-1.035-1.063-1.836l2.75-10.32
				c0.213-0.799,1.037-1.275,1.836-1.063c0.801,0.213,1.277,1.035,1.063,1.836l-2.75,10.319
				C108.827,130.461,108.221,130.904,107.559,130.904z"/>
		</g>
		<g>
			<path fill="#FFFFFF" d="M122.833,104.102l0.165-3.111c0.01-0.176,0.016-0.354,0.016-0.532c0-5.558-4.521-10.079-10.08-10.079
				c-1.478,0-2.902,0.314-4.238,0.934l-1.062,0.492l-0.735-0.91c-1.239-1.533-3.078-2.414-5.045-2.414
				c-0.26,0-0.539,0.022-0.885,0.068l-0.693-2.902c1.045-0.362,2.154-0.48,3.234-0.354c1.034-3.363,3.971-5.736,7.363-5.736
				c1.986,0,3.857,0.807,5.285,2.246c1.09-0.404,2.229-0.609,3.4-0.609c5.832,0,10.578,5.156,10.578,11.492
				c0,3.879-1.783,7.469-4.77,9.604L122.833,104.102z M112.934,87.378c6.248,0,11.486,4.403,12.775,10.271
				c0.917-1.422,1.428-3.146,1.428-4.961c0-4.684-3.398-8.492-7.578-8.492c-1.091,0-2.145,0.256-3.132,0.762l-1.137,0.582
				l-0.756-1.029c-0.911-1.24-2.245-1.951-3.661-1.951c-2.182,0-4.061,1.682-4.604,4.012c0.797,0.421,1.535,0.957,2.191,1.596
				C109.893,87.643,111.393,87.378,112.934,87.378z"/>
			<path fill="#FFFFFF" d="M100.354,116.432c-3.703,0-7.006-2.127-8.563-5.4c-5.413,0.248-9.907-4.106-9.907-9.477
				c0-5.23,4.257-9.486,9.486-9.486c0.476,0,0.946,0.035,1.415,0.105c1.201-3.912,4.847-6.693,9.066-6.693
				c2.494,0,4.847,0.965,6.608,2.683c1.431-0.521,2.931-0.786,4.472-0.786c7.211,0,13.08,5.867,13.08,13.079
				s-5.869,13.08-13.08,13.08c-1.695,0-3.38-0.332-4.939-0.968C106.223,114.98,103.408,116.432,100.354,116.432z M93.784,107.715
				l0.403,1.238c0.871,2.678,3.35,4.479,6.166,4.479c2.422,0,4.623-1.334,5.746-3.479l0.705-1.347l1.338,0.724
				c1.461,0.791,3.117,1.208,4.789,1.208c5.56,0,10.08-4.521,10.08-10.08s-4.521-10.079-10.08-10.079
				c-1.477,0-2.902,0.313-4.236,0.933l-1.063,0.492l-0.734-0.91c-1.24-1.533-3.08-2.412-5.047-2.412
				c-3.271,0-6.039,2.446-6.436,5.69l-0.225,1.83l-1.746-0.59c-0.67-0.228-1.368-0.343-2.075-0.343c-3.576,0-6.486,2.91-6.486,6.486
				c0,3.945,3.513,7.098,7.617,6.385L93.784,107.715z"/>
		</g>
	</g>
</g>
</svg>
