<?xml version="1.0" encoding="utf-8"?>
<!-- Generator: Adobe Illustrator 16.0.0, SVG Export Plug-In . SVG Version: 6.00 Build 0)  -->
<!DOCTYPE svg PUBLIC "-//W3C//DTD SVG 1.1//EN" "http://www.w3.org/Graphics/SVG/1.1/DTD/svg11.dtd">
<svg version="1.1" id="Layer_1" xmlns="http://www.w3.org/2000/svg" xmlns:xlink="http://www.w3.org/1999/xlink" x="0px" y="0px"
	 width="170px" height="150px" viewBox="0 0 170 150" enable-background="new 0 0 170 150" xml:space="preserve">
<g>
	<g>
		<path fill="#FFFFFF" d="M117.891,118.389c-5.455,0-9.894-4.438-9.894-9.896c0-5.455,4.438-9.894,9.894-9.894
			s9.894,4.438,9.894,9.894C127.784,113.949,123.346,118.389,117.891,118.389z M117.891,101.602c-3.801,0-6.894,3.092-6.894,6.893
			c0,3.802,3.092,6.895,6.894,6.895c3.801,0,6.894-3.093,6.894-6.895C124.784,104.691,121.691,101.602,117.891,101.602z"/>
		<g>
			<path fill="#FFFFFF" d="M117.5,100.5c-0.829,0-1.5-0.672-1.5-1.5V82.764l-7.307-9.38c-0.508-0.654-0.392-1.596,0.263-2.105
				c0.653-0.509,1.596-0.392,2.104,0.262l7.623,9.786c0.205,0.264,0.315,0.588,0.315,0.922V99C119,99.828,118.329,100.5,117.5,100.5
				z"/>
			<path fill="#FFFFFF" d="M118.454,83.747c-0.312,0-0.625-0.097-0.894-0.296c-0.666-0.495-0.804-1.436-0.31-2.1l6.96-9.36
				c0.495-0.665,1.436-0.802,2.1-0.309c0.664,0.494,0.803,1.434,0.309,2.099l-6.96,9.362
				C119.363,83.538,118.912,83.747,118.454,83.747z"/>
		</g>
		<g>
			<path fill="#FFFFFF" d="M125.124,145.535c-0.405,0-0.81-0.163-1.104-0.484l-7.623-8.289c-0.256-0.277-0.396-0.641-0.396-1.017
				V116c0-0.828,0.671-1.5,1.5-1.5s1.5,0.672,1.5,1.5v19.16l7.229,7.859c0.561,0.609,0.521,1.559-0.09,2.119
				C125.852,145.404,125.486,145.535,125.124,145.535z"/>
			<path fill="#FFFFFF" d="M111.373,146.607c-0.313,0-0.625-0.098-0.895-0.297c-0.664-0.494-0.803-1.435-0.309-2.1l6.962-9.361
				c0.495-0.664,1.435-0.801,2.099-0.31c0.666,0.495,0.804,1.435,0.31,2.101l-6.962,9.361
				C112.283,146.398,111.831,146.607,111.373,146.607z"/>
		</g>
		<g>
			<path fill="#FFFFFF" d="M145.434,111H126c-0.829,0-1.5-0.672-1.5-1.5s0.671-1.5,1.5-1.5h18.857l8.018-7.234
				c0.616-0.555,1.563-0.506,2.119,0.108c0.555,0.614,0.506,1.563-0.109,2.118l-8.445,7.621
				C146.163,110.861,145.805,111,145.434,111z"/>
			<path fill="#FFFFFF" d="M154.795,116.82c-0.313,0-0.625-0.096-0.895-0.295l-9.361-6.961c-0.665-0.496-0.803-1.436-0.309-2.1
				c0.494-0.666,1.435-0.801,2.099-0.311l9.362,6.962c0.664,0.495,0.803,1.435,0.309,2.099
				C155.705,116.611,155.253,116.82,154.795,116.82z"/>
		</g>
		<g>
			<path fill="#FFFFFF" d="M108,111H89.986c-0.35,0-0.689-0.123-0.959-0.348l-9.155-7.621c-0.637-0.529-0.724-1.477-0.193-2.112
				c0.529-0.638,1.475-0.722,2.112-0.192L90.529,108H108c0.829,0,1.5,0.672,1.5,1.5S108.829,111,108,111z"/>
			<path fill="#FFFFFF" d="M80.626,116.82c-0.458,0-0.91-0.209-1.205-0.604c-0.495-0.664-0.356-1.604,0.309-2.1l9.362-6.961
				c0.664-0.492,1.604-0.356,2.1,0.309c0.494,0.665,0.355,1.604-0.31,2.1l-9.362,6.961C81.251,116.725,80.938,116.82,80.626,116.82z
				"/>
		</g>
		<g>
			<path fill="#FFFFFF" d="M124.419,103.702c-0.384,0-0.769-0.146-1.062-0.438c-0.586-0.586-0.586-1.535,0-2.121l12.675-12.674
				l0.877-11.148c0.065-0.826,0.778-1.444,1.612-1.379c0.826,0.065,1.443,0.789,1.379,1.613l-0.92,11.7
				c-0.028,0.356-0.184,0.69-0.436,0.942l-13.066,13.066C125.188,103.557,124.803,103.702,124.419,103.702z"/>
			<path fill="#FFFFFF" d="M137.271,90.424c-0.732,0-1.373-0.535-1.482-1.281c-0.121-0.82,0.445-1.582,1.266-1.703l11.539-1.698
				c0.819-0.121,1.582,0.446,1.703,1.266c0.121,0.82-0.445,1.582-1.265,1.703l-11.54,1.699
				C137.418,90.419,137.344,90.424,137.271,90.424z"/>
		</g>
		<g>
			<path fill="#FFFFFF" d="M86.412,129.924c-0.782,0-1.441-0.605-1.495-1.396c-0.057-0.826,0.568-1.543,1.394-1.6l11.01-0.754
				l12.924-12.926c0.585-0.586,1.535-0.586,2.121,0s0.586,1.535,0,2.121l-13.321,13.322c-0.256,0.256-0.597,0.412-0.958,0.437
				l-11.57,0.792C86.48,129.923,86.445,129.924,86.412,129.924z"/>
			<path fill="#FFFFFF" d="M96.075,140.458c-0.073,0-0.146-0.005-0.22-0.017c-0.82-0.121-1.387-0.883-1.267-1.703l1.698-11.538
				c0.12-0.819,0.886-1.386,1.701-1.267c0.82,0.121,1.387,0.883,1.267,1.703l-1.698,11.539
				C97.447,139.922,96.807,140.458,96.075,140.458z"/>
		</g>
		<g>
			<path fill="#FFFFFF" d="M111.6,102.988c-0.384,0-0.768-0.146-1.061-0.438L98.098,90.107l-11.274-0.99
				c-0.825-0.072-1.436-0.801-1.363-1.625c0.073-0.825,0.802-1.43,1.625-1.363l11.817,1.038c0.351,0.03,0.68,0.185,0.929,0.435
				l12.828,12.828c0.586,0.586,0.586,1.534,0,2.12C112.367,102.844,111.982,102.988,111.6,102.988z"/>
			<path fill="#FFFFFF" d="M98.318,90.609c-0.731,0-1.373-0.535-1.481-1.281l-1.696-11.541c-0.121-0.818,0.445-1.582,1.266-1.702
				c0.822-0.123,1.582,0.446,1.701,1.267l1.697,11.541c0.121,0.818-0.445,1.58-1.266,1.701
				C98.465,90.605,98.393,90.609,98.318,90.609z"/>
		</g>
		<g>
			<path fill="#FFFFFF" d="M138.945,140.107c-0.787,0-1.448-0.615-1.495-1.412l-0.642-10.883l-13.154-13.156
				c-0.586-0.586-0.586-1.534,0-2.12s1.535-0.586,2.121,0l13.559,13.56c0.26,0.26,0.415,0.605,0.438,0.973l0.674,11.451
				c0.048,0.828-0.584,1.537-1.409,1.586C139.005,140.105,138.977,140.107,138.945,140.107z"/>
			<path fill="#FFFFFF" d="M149.367,130.803c-0.073,0-0.146-0.006-0.221-0.017l-11.541-1.696c-0.819-0.121-1.387-0.883-1.267-1.701
				c0.12-0.82,0.879-1.385,1.702-1.268l11.542,1.695c0.819,0.121,1.386,0.884,1.267,1.703
				C150.738,130.266,150.1,130.803,149.367,130.803z"/>
		</g>
	</g>
	<g>
		<g>
			<path fill="#FFFFFF" d="M26.072,82.691c-0.128,0-0.258-0.017-0.387-0.051c-0.8-0.213-1.276-1.035-1.063-1.836l1.996-7.489
				c0.213-0.8,1.035-1.277,1.835-1.063c0.8,0.213,1.276,1.035,1.063,1.835l-1.996,7.489C27.342,82.249,26.735,82.691,26.072,82.691z
				"/>
			<path fill="#FFFFFF" d="M49.974,82.691c-0.128,0-0.258-0.017-0.387-0.051c-0.8-0.213-1.276-1.035-1.063-1.836l1.996-7.489
				c0.213-0.8,1.036-1.277,1.835-1.063c0.8,0.213,1.276,1.035,1.063,1.835l-1.996,7.489C51.243,82.249,50.637,82.691,49.974,82.691z
				"/>
			<path fill="#FFFFFF" d="M73.874,82.691c-0.128,0-0.258-0.017-0.388-0.051c-0.8-0.213-1.276-1.035-1.063-1.836l1.997-7.49
				c0.213-0.8,1.031-1.276,1.836-1.063c0.8,0.213,1.276,1.035,1.063,1.836l-1.997,7.489C75.143,82.249,74.537,82.691,73.874,82.691z
				"/>
			<path fill="#FFFFFF" d="M35.043,93.876c-0.128,0-0.258-0.017-0.387-0.051c-0.8-0.214-1.276-1.035-1.063-1.835l4.976-18.674
				c0.213-0.8,1.034-1.277,1.835-1.063c0.8,0.213,1.276,1.035,1.063,1.835l-4.976,18.674C36.313,93.434,35.706,93.876,35.043,93.876
				z"/>
			<path fill="#FFFFFF" d="M58.943,93.876c-0.128,0-0.258-0.017-0.387-0.051c-0.801-0.214-1.276-1.035-1.063-1.837l4.977-18.672
				c0.213-0.8,1.035-1.277,1.835-1.063c0.801,0.213,1.276,1.035,1.063,1.835l-4.977,18.674
				C60.212,93.434,59.606,93.876,58.943,93.876z"/>
		</g>
		<g>
			<path fill="#FFFFFF" d="M87.936,44.135l0.162-3.107c0.018-0.341,0.027-0.684,0.027-1.029c0-10.727-8.727-19.454-19.454-19.454
				c-2.849,0-5.6,0.606-8.175,1.802l-1.062,0.493l-0.736-0.91c-2.475-3.061-6.148-4.817-10.077-4.817
				c-0.528,0-1.087,0.042-1.76,0.134l-0.694-2.903c2.043-0.71,4.242-0.85,6.34-0.409c1.416-6.117,6.504-10.54,12.437-10.54
				c3.522,0,6.83,1.546,9.243,4.282c2.063-0.877,4.235-1.32,6.474-1.32c9.885,0,17.927,8.784,17.927,19.581
				c0,6.628-3.036,12.755-8.121,16.39L87.936,44.135z M68.671,17.544c11.662,0,21.274,8.937,22.353,20.321
				c2.897-3.095,4.564-7.367,4.564-11.93c0-9.143-6.695-16.581-14.927-16.581c-2.166,0-4.259,0.508-6.221,1.511l-1.136,0.581
				l-0.756-1.028c-1.879-2.558-4.651-4.025-7.604-4.025c-4.813,0-8.909,3.905-9.692,9.156c1.876,0.857,3.583,2.081,5.023,3.624
				C62.944,18.092,65.763,17.544,68.671,17.544z"/>
			<path fill="#FFFFFF" d="M45.911,67.689c-6.505,0-12.275-3.901-14.73-9.829c-9.451,0.918-17.477-6.576-17.477-15.875
				c0-8.795,7.155-15.951,15.95-15.951c1.161,0,2.313,0.126,3.441,0.375c1.664-7.12,8.058-12.297,15.525-12.297
				c4.454,0,8.64,1.831,11.654,5.061c2.67-1.081,5.489-1.628,8.397-1.628c12.381,0,22.454,10.073,22.454,22.454
				c0,12.38-10.073,22.453-22.454,22.453c-3.236,0-6.446-0.704-9.37-2.045C56.375,64.932,51.369,67.689,45.911,67.689z
				 M33.194,54.509l0.403,1.239c1.74,5.348,6.688,8.941,12.314,8.941c4.832,0,9.229-2.662,11.475-6.948l0.706-1.346l1.337,0.723
				c2.82,1.526,6.016,2.333,9.242,2.333c10.727,0,19.454-8.727,19.454-19.453c0-10.727-8.727-19.454-19.454-19.454
				c-2.849,0-5.6,0.606-8.175,1.802l-1.062,0.493l-0.736-0.91c-2.475-3.061-6.148-4.817-10.077-4.817
				c-6.536,0-12.06,4.885-12.849,11.364l-0.223,1.83l-1.746-0.59c-1.34-0.453-2.736-0.682-4.148-0.682
				c-7.141,0-12.95,5.81-12.95,12.951c0,7.881,7.129,14.168,15.208,12.75L33.194,54.509z"/>
		</g>
	</g>
</g>
</svg>
