<?xml version="1.0" encoding="utf-8"?>
<!-- Generator: Adobe Illustrator 16.0.0, SVG Export Plug-In . SVG Version: 6.00 Build 0)  -->
<!DOCTYPE svg PUBLIC "-//W3C//DTD SVG 1.1//EN" "http://www.w3.org/Graphics/SVG/1.1/DTD/svg11.dtd">
<svg version="1.1" id="Layer_1" xmlns="http://www.w3.org/2000/svg" xmlns:xlink="http://www.w3.org/1999/xlink" x="0px" y="0px"
	 width="170px" height="150px" viewBox="0 0 170 150" enable-background="new 0 0 170 150" xml:space="preserve">
<g>
	<g>
		<path fill="#FFFFFF" d="M0,151c-0.277,0-0.553-0.114-0.75-0.339c-0.365-0.414-0.326-1.046,0.088-1.411l170-150
			c0.414-0.365,1.046-0.326,1.412,0.088c0.365,0.414,0.326,1.046-0.088,1.412l-170,150C0.472,150.918,0.235,151,0,151z"/>
		<polygon fill="#FFFFFF" points="41.784,99.031 49.473,91.342 61.778,103.646 67.064,98.359 66.873,116.43 48.8,116.622 
			54.086,111.336 		"/>
	</g>
	<g>
		<g>
			<path fill="#FFFFFF" d="M48.797,20.188c-0.384,0-0.768-0.146-1.061-0.439c-0.586-0.586-0.586-1.536,0-2.121l5.793-5.792
				c0.586-0.586,1.536-0.586,2.121,0c0.586,0.586,0.586,1.536,0,2.121l-5.793,5.792C49.564,20.041,49.181,20.188,48.797,20.188z"/>
			<path fill="#FFFFFF" d="M34.5,14.5c-0.829,0-1.5-0.671-1.5-1.5V5c0-0.829,0.671-1.5,1.5-1.5S36,4.171,36,5v8
				C36,13.829,35.329,14.5,34.5,14.5z"/>
			<path fill="#FFFFFF" d="M22.58,19.884c-0.384,0-0.768-0.146-1.061-0.439l-5.793-5.793c-0.586-0.585-0.586-1.536,0-2.121
				c0.586-0.586,1.535-0.586,2.121,0l5.793,5.793c0.586,0.585,0.586,1.536,0,2.121C23.348,19.737,22.964,19.884,22.58,19.884z"/>
			<path fill="#FFFFFF" d="M17,35H9c-0.829,0-1.5-0.671-1.5-1.5S8.171,32,9,32h8c0.829,0,1.5,0.671,1.5,1.5S17.829,35,17,35z"/>
			<path fill="#FFFFFF" d="M16.482,51.893c-0.384,0-0.768-0.146-1.061-0.439c-0.586-0.585-0.586-1.536,0-2.121l5.792-5.792
				c0.586-0.586,1.535-0.586,2.121,0c0.586,0.585,0.586,1.536,0,2.121l-5.792,5.792C17.25,51.746,16.866,51.893,16.482,51.893z"/>
			<path fill="#FFFFFF" d="M32.422,47.383l-1.459-0.392c-6.843-1.838-11.441-8.006-11.441-15.346
				c0-8.831,7.185-16.015,16.016-16.015c7.828,0,14.799,6.324,15.87,14.396l0.125,0.946l-0.804,0.515
				c-2.57,1.646-4.033,3.922-4.349,6.768l-0.212,1.909l-1.801-0.668c-0.894-0.332-1.822-0.5-2.759-0.5
				c-4.056,0-7.759,2.913-8.804,6.925L32.422,47.383z M35.537,18.63c-7.177,0-13.016,5.838-13.016,13.015
				c0,5.469,3.114,10.129,7.882,12.008c1.846-4.517,6.332-7.657,11.204-7.657c0.708,0,1.41,0.069,2.103,0.206
				c0.683-2.666,2.238-4.938,4.574-6.671C47.041,23.35,41.604,18.63,35.537,18.63z"/>
		</g>
		<g>
			<path fill="#FFFFFF" d="M82.667,50.145l0.162-3.108c0.012-0.237,0.019-0.475,0.019-0.714c0-7.438-6.05-13.488-13.487-13.488
				c-1.975,0-3.882,0.42-5.669,1.25l-1.062,0.492l-0.736-0.91c-1.689-2.089-4.195-3.287-6.875-3.287
				c-0.358,0-0.74,0.029-1.201,0.092l-0.694-2.903c1.405-0.488,2.91-0.619,4.358-0.383c1.18-4.36,4.897-7.473,9.212-7.473
				c2.545,0,4.939,1.073,6.727,2.98c1.445-0.573,2.959-0.862,4.517-0.862c7.306,0,13.25,6.475,13.25,14.433
				c0,4.879-2.238,9.392-5.987,12.072L82.667,50.145z M69.36,29.834c8.23,0,15.071,6.061,16.292,13.954
				c1.619-2.056,2.535-4.71,2.535-7.525c0-6.304-4.599-11.433-10.25-11.433c-1.48,0-2.913,0.348-4.257,1.034l-1.136,0.58
				l-0.755-1.027c-1.263-1.719-3.121-2.705-5.096-2.705c-3.136,0-5.819,2.485-6.458,5.875c1.189,0.584,2.281,1.371,3.228,2.337
				C65.345,30.2,67.324,29.834,69.36,29.834z"/>
			<path fill="#FFFFFF" d="M53.08,66.557c-4.721,0-8.92-2.769-10.807-7.007c-6.868,0.485-12.658-5.009-12.658-11.808
				c0-6.526,5.31-11.836,11.837-11.836c0.723,0,1.44,0.066,2.146,0.196c1.378-5.075,6.021-8.724,11.42-8.724
				c3.206,0,6.225,1.279,8.445,3.544c1.882-0.723,3.86-1.089,5.897-1.089c9.091,0,16.488,7.396,16.488,16.488
				c0,9.091-7.396,16.487-16.488,16.487c-2.254,0-4.492-0.465-6.548-1.354C60.617,64.634,57.005,66.557,53.08,66.557z
				 M44.275,56.218l0.403,1.238c1.188,3.649,4.564,6.101,8.402,6.101c3.296,0,6.296-1.817,7.83-4.741l0.706-1.346l1.336,0.723
				c1.955,1.058,4.17,1.617,6.408,1.617c7.437,0,13.487-6.05,13.487-13.487c0-7.438-6.05-13.488-13.487-13.488
				c-1.975,0-3.882,0.42-5.669,1.25l-1.062,0.492l-0.736-0.91c-1.689-2.089-4.195-3.287-6.875-3.287
				c-4.459,0-8.229,3.333-8.768,7.754l-0.223,1.83l-1.747-0.591c-0.913-0.309-1.865-0.466-2.829-0.466
				c-4.873,0-8.837,3.964-8.837,8.836c0,5.377,4.865,9.668,10.378,8.7L44.275,56.218z"/>
		</g>
	</g>
	<g>
		<path fill="#FFFFFF" d="M148.113,132.586c-2.879,0-5.221-2.342-5.221-5.221s2.342-5.221,5.221-5.221s5.221,2.342,5.221,5.221
			S150.992,132.586,148.113,132.586z M148.113,125.146c-1.225,0-2.221,0.996-2.221,2.22c0,1.225,0.996,2.221,2.221,2.221
			s2.221-0.996,2.221-2.221C150.334,126.143,149.338,125.146,148.113,125.146z"/>
		<g>
			<path fill="#FFFFFF" d="M147.5,125.5c-0.829,0-1.5-0.672-1.5-1.5v-7.71l-3.014-3.493c-0.541-0.627-0.471-1.574,0.156-2.115
				s1.573-0.473,2.115,0.156l3.379,3.915c0.234,0.272,0.363,0.62,0.363,0.979V124C149,124.828,148.329,125.5,147.5,125.5z"/>
			<path fill="#FFFFFF" d="M148.363,117.232c-0.313,0-0.625-0.098-0.895-0.297c-0.664-0.494-0.803-1.435-0.309-2.099l3.084-4.147
				c0.494-0.666,1.436-0.803,2.099-0.311c0.665,0.494,0.804,1.436,0.31,2.1l-3.084,4.147
				C149.273,117.023,148.82,117.232,148.363,117.232z"/>
		</g>
		<g>
			<path fill="#FFFFFF" d="M150.878,144.771c-0.416,0-0.829-0.172-1.125-0.508l-3.378-3.828c-0.242-0.273-0.375-0.627-0.375-0.992
				V131c0-0.828,0.671-1.5,1.5-1.5s1.5,0.672,1.5,1.5v7.876l3.002,3.403c0.548,0.621,0.489,1.568-0.132,2.117
				C151.585,144.646,151.23,144.771,150.878,144.771z"/>
			<path fill="#FFFFFF" d="M145.225,145.092c-0.313,0-0.625-0.097-0.896-0.297c-0.665-0.494-0.802-1.434-0.308-2.1l3.086-4.147
				c0.494-0.665,1.436-0.802,2.099-0.308c0.665,0.494,0.802,1.434,0.308,2.099l-3.086,4.147
				C146.134,144.883,145.682,145.092,145.225,145.092z"/>
		</g>
		<g>
			<path fill="#FFFFFF" d="M160.32,130H152c-0.829,0-1.5-0.672-1.5-1.5s0.671-1.5,1.5-1.5h7.76l3.465-3.011
				c0.625-0.544,1.572-0.479,2.116,0.147c0.543,0.625,0.478,1.572-0.147,2.115l-3.889,3.379C161.031,129.869,160.682,130,160.32,130
				z"/>
			<path fill="#FFFFFF" d="M164.469,131.893c-0.312,0-0.625-0.098-0.894-0.297l-4.149-3.085c-0.664-0.493-0.803-1.435-0.309-2.099
				c0.494-0.666,1.434-0.801,2.099-0.311l4.149,3.086c0.664,0.494,0.803,1.435,0.309,2.099
				C165.379,131.684,164.928,131.893,164.469,131.893z"/>
		</g>
		<g>
			<path fill="#FFFFFF" d="M144,130h-8.253c-0.358,0-0.707-0.129-0.979-0.363l-3.925-3.379c-0.628-0.54-0.698-1.486-0.157-2.115
				c0.541-0.627,1.487-0.699,2.114-0.158l3.503,3.017H144c0.829,0,1.5,0.672,1.5,1.5S144.829,130,144,130z"/>
			<path fill="#FFFFFF" d="M131.6,131.893c-0.459,0-0.91-0.209-1.205-0.605c-0.496-0.664-0.356-1.604,0.309-2.1l4.148-3.084
				c0.666-0.492,1.604-0.356,2.1,0.31c0.494,0.664,0.355,1.604-0.309,2.099l-4.149,3.086
				C132.225,131.795,131.91,131.893,131.6,131.893z"/>
		</g>
		<g>
			<path fill="#FFFFFF" d="M151.006,126.077c-0.384,0-0.768-0.146-1.061-0.438c-0.586-0.587-0.586-1.535,0-2.121l5.4-5.4
				l0.364-4.633c0.065-0.825,0.796-1.438,1.612-1.377c0.826,0.063,1.443,0.787,1.379,1.613l-0.408,5.184
				c-0.027,0.355-0.184,0.691-0.436,0.943l-5.791,5.791C151.773,125.932,151.391,126.077,151.006,126.077z"/>
			<path fill="#FFFFFF" d="M156.702,120.191c-0.731,0-1.373-0.537-1.481-1.282c-0.121-0.819,0.445-1.581,1.266-1.702l5.113-0.752
				c0.822-0.117,1.582,0.445,1.703,1.268c0.12,0.818-0.447,1.58-1.267,1.701l-5.114,0.752
				C156.848,120.188,156.775,120.191,156.702,120.191z"/>
		</g>
		<g>
			<path fill="#FFFFFF" d="M134.161,137.699c-0.782,0-1.44-0.605-1.495-1.397c-0.057-0.825,0.566-1.542,1.395-1.599l4.568-0.314
				l5.508-5.506c0.586-0.586,1.535-0.586,2.12,0c0.586,0.586,0.586,1.535,0,2.121l-5.903,5.903
				c-0.256,0.256-0.597,0.411-0.959,0.436l-5.129,0.353C134.23,137.698,134.195,137.699,134.161,137.699z"/>
			<path fill="#FFFFFF" d="M138.445,142.367c-0.072,0-0.146-0.006-0.219-0.016c-0.819-0.121-1.387-0.884-1.267-1.703l0.752-5.114
				c0.12-0.82,0.881-1.388,1.702-1.267c0.818,0.121,1.386,0.883,1.266,1.701l-0.752,5.115
				C139.818,141.831,139.178,142.367,138.445,142.367z"/>
		</g>
		<g>
			<path fill="#FFFFFF" d="M145.325,125.762c-0.384,0-0.769-0.146-1.062-0.438l-5.3-5.3l-4.694-0.414
				c-0.824-0.071-1.436-0.801-1.363-1.625c0.074-0.825,0.814-1.433,1.625-1.362l5.238,0.461c0.351,0.03,0.68,0.185,0.928,0.435
				l5.687,5.686c0.587,0.586,0.587,1.535,0,2.121C146.093,125.615,145.709,125.762,145.325,125.762z"/>
			<path fill="#FFFFFF" d="M139.438,120.273c-0.731,0-1.373-0.535-1.481-1.281l-0.752-5.114c-0.121-0.819,0.446-1.581,1.267-1.702
				c0.82-0.119,1.582,0.446,1.701,1.268l0.752,5.113c0.121,0.819-0.445,1.582-1.266,1.702
				C139.584,120.27,139.512,120.273,139.438,120.273z"/>
		</g>
		<g>
			<path fill="#FFFFFF" d="M157.443,142.212c-0.787,0-1.448-0.614-1.496-1.412l-0.264-4.506l-5.605-5.606
				c-0.586-0.586-0.586-1.535,0-2.121s1.535-0.586,2.121,0l6.01,6.011c0.26,0.26,0.416,0.604,0.438,0.973l0.297,5.075
				c0.049,0.827-0.582,1.537-1.409,1.585C157.503,142.211,157.475,142.212,157.443,142.212z"/>
			<path fill="#FFFFFF" d="M162.064,138.088c-0.072,0-0.146-0.005-0.219-0.016l-5.115-0.752c-0.819-0.121-1.387-0.883-1.267-1.702
				c0.12-0.82,0.882-1.384,1.702-1.267l5.115,0.752c0.818,0.121,1.386,0.883,1.266,1.701
				C163.438,137.552,162.797,138.088,162.064,138.088z"/>
		</g>
	</g>
	<g>
		<g>
			<path fill="#FFFFFF" d="M97.391,126.723c-0.127,0-0.258-0.017-0.387-0.051c-0.801-0.213-1.275-1.035-1.063-1.836l1.104-4.139
				c0.213-0.801,1.034-1.275,1.835-1.063c0.802,0.214,1.276,1.035,1.063,1.837l-1.104,4.139
				C98.66,126.279,98.055,126.723,97.391,126.723z"/>
			<path fill="#FFFFFF" d="M110.602,126.723c-0.129,0-0.258-0.016-0.388-0.051c-0.801-0.213-1.276-1.033-1.063-1.835l1.102-4.139
				c0.213-0.802,1.035-1.282,1.835-1.063c0.802,0.213,1.276,1.034,1.063,1.836l-1.102,4.139
				C111.871,126.279,111.264,126.723,110.602,126.723z"/>
			<path fill="#FFFFFF" d="M123.809,126.723c-0.127,0-0.258-0.017-0.387-0.051c-0.801-0.213-1.275-1.035-1.063-1.836l1.104-4.139
				c0.213-0.801,1.037-1.275,1.835-1.063c0.802,0.214,1.276,1.035,1.063,1.837l-1.104,4.139
				C125.078,126.279,124.473,126.723,123.809,126.723z"/>
			<path fill="#FFFFFF" d="M102.35,132.904c-0.129,0-0.259-0.016-0.388-0.051c-0.8-0.213-1.276-1.035-1.063-1.836l2.75-10.319
				c0.213-0.802,1.037-1.282,1.836-1.063c0.8,0.213,1.275,1.035,1.063,1.836l-2.75,10.319
				C103.618,132.462,103.012,132.904,102.35,132.904z"/>
			<path fill="#FFFFFF" d="M115.559,132.904c-0.129,0-0.259-0.016-0.388-0.051c-0.8-0.213-1.276-1.035-1.063-1.836l2.75-10.319
				c0.213-0.802,1.035-1.282,1.836-1.063c0.8,0.213,1.275,1.035,1.063,1.836l-2.75,10.319
				C116.827,132.462,116.221,132.904,115.559,132.904z"/>
		</g>
		<g>
			<path fill="#FFFFFF" d="M130.832,106.102l0.166-3.112c0.01-0.175,0.016-0.354,0.016-0.531c0-5.558-4.522-10.079-10.08-10.079
				c-1.478,0-2.902,0.313-4.238,0.934l-1.062,0.492l-0.735-0.91c-1.24-1.533-3.08-2.412-5.045-2.412
				c-0.263,0-0.543,0.021-0.881,0.067l-0.695-2.903c1.043-0.361,2.152-0.48,3.234-0.353c1.033-3.362,3.969-5.735,7.362-5.735
				c1.987,0,3.858,0.806,5.285,2.244c1.091-0.404,2.229-0.607,3.399-0.607c5.834,0,10.578,5.154,10.578,11.492
				c0,3.879-1.783,7.47-4.769,9.604L130.832,106.102z M120.934,89.378c6.248,0,11.486,4.404,12.775,10.271
				c0.917-1.422,1.428-3.146,1.428-4.963c0-4.683-3.398-8.492-7.578-8.492c-1.088,0-2.144,0.258-3.132,0.764l-1.136,0.581
				l-0.756-1.029c-0.911-1.239-2.245-1.95-3.661-1.95c-2.181,0-4.06,1.682-4.603,4.012c0.797,0.421,1.535,0.955,2.191,1.596
				C117.893,89.643,119.391,89.378,120.934,89.378z"/>
			<path fill="#FFFFFF" d="M108.354,118.432c-3.703,0-7.006-2.125-8.563-5.399c-5.451,0.251-9.907-4.107-9.907-9.478
				c0-5.229,4.255-9.486,9.486-9.486c0.476,0,0.946,0.037,1.415,0.106c1.201-3.911,4.846-6.694,9.066-6.694
				c2.494,0,4.847,0.967,6.609,2.685c1.43-0.522,2.93-0.786,4.471-0.786c7.211,0,13.08,5.867,13.08,13.079s-5.869,13.08-13.08,13.08
				c-1.695,0-3.379-0.332-4.939-0.968C114.223,116.98,111.407,118.432,108.354,118.432z M101.785,109.718l0.402,1.236
				c0.871,2.678,3.35,4.478,6.166,4.478c2.42,0,4.623-1.332,5.746-3.479l0.707-1.348l1.336,0.724
				c1.461,0.791,3.117,1.209,4.789,1.209c5.559,0,10.08-4.521,10.08-10.08c0-5.558-4.521-10.079-10.08-10.079
				c-1.477,0-2.902,0.313-4.236,0.934l-1.063,0.492l-0.736-0.91c-1.239-1.533-3.078-2.412-5.045-2.412
				c-3.272,0-6.039,2.447-6.436,5.69l-0.223,1.83l-1.746-0.591c-0.674-0.229-1.371-0.344-2.076-0.344
				c-3.577,0-6.486,2.91-6.486,6.486s2.91,6.486,6.486,6.486c0.365,0,0.747-0.034,1.134-0.102L101.785,109.718z"/>
		</g>
	</g>
</g>
</svg>
