<?xml version="1.0" encoding="utf-8"?>
<!-- Generator: Adobe Illustrator 16.0.0, SVG Export Plug-In . SVG Version: 6.00 Build 0)  -->
<!DOCTYPE svg PUBLIC "-//W3C//DTD SVG 1.1//EN" "http://www.w3.org/Graphics/SVG/1.1/DTD/svg11.dtd">
<svg version="1.1" id="Layer_1" xmlns="http://www.w3.org/2000/svg" xmlns:xlink="http://www.w3.org/1999/xlink" x="0px" y="0px"
	 width="170px" height="150px" viewBox="0 0 170 150" enable-background="new 0 0 170 150" xml:space="preserve">
<g>
	<path fill="#FFFFFF" d="M0,151c-0.277,0-0.553-0.113-0.75-0.339c-0.365-0.414-0.326-1.046,0.088-1.411l170-150
		c0.414-0.365,1.046-0.326,1.412,0.088s0.326,1.046-0.088,1.412l-170,150C0.472,150.918,0.235,151,0,151z"/>
	<g>
		<path fill="#FFFFFF" d="M142.113,132.586c-2.879,0-5.221-2.342-5.221-5.221s2.342-5.221,5.221-5.221s5.221,2.342,5.221,5.221
			S144.992,132.586,142.113,132.586z M142.113,125.146c-1.225,0-2.221,0.996-2.221,2.22c0,1.225,0.996,2.221,2.221,2.221
			s2.221-0.996,2.221-2.221C144.334,126.143,143.338,125.146,142.113,125.146z"/>
		<g>
			<path fill="#FFFFFF" d="M141.5,125.5c-0.829,0-1.5-0.672-1.5-1.5v-7.71l-3.014-3.493c-0.541-0.627-0.471-1.574,0.156-2.115
				s1.573-0.473,2.115,0.156l3.379,3.915c0.234,0.272,0.363,0.62,0.363,0.979V124C143,124.828,142.329,125.5,141.5,125.5z"/>
			<path fill="#FFFFFF" d="M142.363,117.232c-0.313,0-0.625-0.098-0.895-0.297c-0.664-0.494-0.803-1.435-0.309-2.099l3.084-4.147
				c0.494-0.666,1.436-0.803,2.099-0.311c0.665,0.494,0.804,1.436,0.31,2.1l-3.084,4.147
				C143.273,117.023,142.82,117.232,142.363,117.232z"/>
		</g>
		<g>
			<path fill="#FFFFFF" d="M144.878,144.771c-0.416,0-0.829-0.172-1.125-0.508l-3.378-3.828c-0.242-0.273-0.375-0.627-0.375-0.992
				V131c0-0.828,0.671-1.5,1.5-1.5s1.5,0.672,1.5,1.5v7.876l3.002,3.403c0.548,0.621,0.489,1.568-0.132,2.117
				C145.585,144.646,145.23,144.771,144.878,144.771z"/>
			<path fill="#FFFFFF" d="M139.225,145.092c-0.313,0-0.625-0.097-0.896-0.297c-0.665-0.494-0.802-1.434-0.308-2.1l3.086-4.147
				c0.494-0.665,1.436-0.802,2.099-0.308c0.665,0.494,0.802,1.434,0.308,2.099l-3.086,4.147
				C140.134,144.883,139.682,145.092,139.225,145.092z"/>
		</g>
		<g>
			<path fill="#FFFFFF" d="M154.32,130H146c-0.829,0-1.5-0.672-1.5-1.5s0.671-1.5,1.5-1.5h7.76l3.465-3.012
				c0.625-0.543,1.571-0.479,2.116,0.148c0.543,0.625,0.478,1.572-0.147,2.115l-3.889,3.379C155.031,129.869,154.682,130,154.32,130
				z"/>
			<path fill="#FFFFFF" d="M158.469,131.893c-0.312,0-0.625-0.098-0.894-0.297l-4.149-3.084c-0.664-0.494-0.803-1.436-0.309-2.1
				c0.494-0.666,1.434-0.801,2.099-0.311l4.149,3.086c0.664,0.494,0.803,1.435,0.309,2.099
				C159.379,131.684,158.927,131.893,158.469,131.893z"/>
		</g>
		<g>
			<path fill="#FFFFFF" d="M138,130h-8.253c-0.358,0-0.707-0.129-0.979-0.363l-3.925-3.379c-0.628-0.54-0.698-1.486-0.157-2.115
				c0.541-0.627,1.487-0.699,2.114-0.158l3.503,3.017H138c0.829,0,1.5,0.672,1.5,1.5S138.829,130,138,130z"/>
			<path fill="#FFFFFF" d="M125.6,131.893c-0.459,0-0.91-0.209-1.205-0.605c-0.496-0.664-0.356-1.604,0.309-2.1l4.148-3.084
				c0.666-0.492,1.604-0.356,2.1,0.31c0.494,0.664,0.355,1.604-0.309,2.099l-4.149,3.086
				C126.225,131.795,125.91,131.893,125.6,131.893z"/>
		</g>
		<g>
			<path fill="#FFFFFF" d="M145.006,126.077c-0.384,0-0.768-0.146-1.061-0.438c-0.586-0.586-0.586-1.535,0-2.121l5.4-5.4
				l0.364-4.633c0.065-0.825,0.792-1.438,1.613-1.377c0.825,0.063,1.442,0.787,1.378,1.613l-0.408,5.184
				c-0.027,0.355-0.184,0.691-0.436,0.943l-5.791,5.791C145.773,125.932,145.391,126.077,145.006,126.077z"/>
			<path fill="#FFFFFF" d="M150.702,120.191c-0.731,0-1.373-0.537-1.481-1.282c-0.121-0.819,0.445-1.581,1.266-1.702l5.113-0.752
				c0.82-0.117,1.582,0.445,1.702,1.268c0.121,0.818-0.446,1.58-1.266,1.701l-5.114,0.752
				C150.848,120.188,150.775,120.191,150.702,120.191z"/>
		</g>
		<g>
			<path fill="#FFFFFF" d="M128.161,137.699c-0.782,0-1.44-0.605-1.495-1.396c-0.057-0.826,0.566-1.543,1.395-1.6l4.568-0.314
				l5.508-5.506c0.586-0.586,1.535-0.586,2.12,0c0.586,0.586,0.586,1.535,0,2.121l-5.903,5.903
				c-0.256,0.256-0.597,0.411-0.959,0.437l-5.129,0.352C128.23,137.697,128.195,137.699,128.161,137.699z"/>
			<path fill="#FFFFFF" d="M132.445,142.367c-0.072,0-0.146-0.006-0.219-0.016c-0.819-0.121-1.387-0.884-1.267-1.703l0.752-5.114
				c0.12-0.82,0.879-1.388,1.702-1.267c0.818,0.121,1.386,0.883,1.266,1.701l-0.752,5.115
				C133.818,141.831,133.178,142.367,132.445,142.367z"/>
		</g>
		<g>
			<path fill="#FFFFFF" d="M139.325,125.762c-0.384,0-0.769-0.146-1.062-0.439l-5.3-5.299l-4.694-0.414
				c-0.824-0.071-1.436-0.801-1.362-1.625c0.073-0.825,0.815-1.432,1.625-1.362l5.237,0.461c0.351,0.03,0.68,0.185,0.928,0.435
				l5.687,5.686c0.587,0.586,0.587,1.535,0,2.121C140.093,125.615,139.709,125.762,139.325,125.762z"/>
			<path fill="#FFFFFF" d="M133.438,120.273c-0.731,0-1.373-0.535-1.481-1.281l-0.752-5.114c-0.121-0.819,0.446-1.581,1.267-1.702
				c0.818-0.119,1.582,0.446,1.701,1.268l0.752,5.113c0.121,0.819-0.445,1.582-1.266,1.702
				C133.584,120.27,133.512,120.273,133.438,120.273z"/>
		</g>
		<g>
			<path fill="#FFFFFF" d="M151.443,142.212c-0.787,0-1.448-0.614-1.495-1.412l-0.265-4.506l-5.605-5.606
				c-0.586-0.586-0.586-1.535,0-2.121s1.535-0.586,2.121,0l6.01,6.011c0.26,0.26,0.416,0.604,0.438,0.973l0.297,5.075
				c0.049,0.827-0.582,1.537-1.409,1.585C151.503,142.211,151.475,142.212,151.443,142.212z"/>
			<path fill="#FFFFFF" d="M156.064,138.088c-0.072,0-0.146-0.005-0.219-0.016l-5.115-0.752c-0.819-0.121-1.387-0.883-1.267-1.702
				c0.12-0.82,0.879-1.384,1.702-1.267l5.115,0.752c0.818,0.121,1.386,0.883,1.266,1.701
				C157.438,137.553,156.797,138.088,156.064,138.088z"/>
		</g>
	</g>
	<g>
		<g>
			<path fill="#FFFFFF" d="M91.391,126.723c-0.127,0-0.258-0.017-0.387-0.051c-0.801-0.213-1.275-1.035-1.063-1.836l1.104-4.139
				c0.213-0.801,1.036-1.275,1.835-1.063c0.802,0.214,1.276,1.035,1.063,1.837l-1.104,4.139
				C92.66,126.279,92.055,126.723,91.391,126.723z"/>
			<path fill="#FFFFFF" d="M104.602,126.723c-0.129,0-0.258-0.016-0.388-0.051c-0.801-0.213-1.276-1.033-1.063-1.835l1.102-4.14
				c0.213-0.801,1.034-1.281,1.835-1.063c0.802,0.213,1.276,1.034,1.063,1.836l-1.102,4.139
				C105.871,126.279,105.264,126.723,104.602,126.723z"/>
			<path fill="#FFFFFF" d="M117.809,126.723c-0.127,0-0.258-0.017-0.387-0.051c-0.801-0.213-1.275-1.035-1.063-1.836l1.104-4.139
				c0.213-0.801,1.035-1.275,1.835-1.063c0.802,0.214,1.276,1.035,1.063,1.837l-1.104,4.139
				C119.078,126.279,118.473,126.723,117.809,126.723z"/>
			<path fill="#FFFFFF" d="M96.35,132.904c-0.129,0-0.259-0.016-0.388-0.051c-0.8-0.213-1.276-1.035-1.063-1.836l2.75-10.32
				c0.213-0.801,1.035-1.281,1.836-1.063c0.8,0.213,1.275,1.035,1.063,1.836l-2.75,10.319
				C97.618,132.462,97.012,132.904,96.35,132.904z"/>
			<path fill="#FFFFFF" d="M109.559,132.904c-0.129,0-0.259-0.016-0.388-0.051c-0.8-0.213-1.276-1.035-1.063-1.836l2.75-10.32
				c0.213-0.801,1.035-1.281,1.836-1.063c0.8,0.213,1.275,1.035,1.063,1.836l-2.75,10.319
				C110.827,132.462,110.221,132.904,109.559,132.904z"/>
		</g>
		<g>
			<path fill="#FFFFFF" d="M124.832,106.102l0.166-3.113c0.01-0.174,0.016-0.352,0.016-0.53c0-5.558-4.522-10.079-10.08-10.079
				c-1.478,0-2.902,0.313-4.238,0.934l-1.062,0.492l-0.735-0.91c-1.24-1.533-3.08-2.412-5.045-2.412
				c-0.263,0-0.543,0.021-0.881,0.067l-0.695-2.903c1.043-0.361,2.152-0.48,3.234-0.353c1.033-3.362,3.969-5.735,7.362-5.735
				c1.987,0,3.858,0.805,5.285,2.244c1.091-0.404,2.229-0.607,3.399-0.607c5.834,0,10.578,5.154,10.578,11.492
				c0,3.879-1.783,7.469-4.769,9.604L124.832,106.102z M114.934,89.378c6.248,0,11.486,4.403,12.775,10.271
				c0.917-1.422,1.428-3.146,1.428-4.963c0-4.683-3.398-8.492-7.578-8.492c-1.088,0-2.144,0.258-3.132,0.764l-1.136,0.581
				l-0.756-1.029c-0.911-1.239-2.245-1.95-3.661-1.95c-2.181,0-4.06,1.682-4.603,4.012c0.797,0.421,1.535,0.955,2.191,1.596
				C111.893,89.643,113.391,89.378,114.934,89.378z"/>
			<path fill="#FFFFFF" d="M102.354,118.432c-3.703,0-7.006-2.125-8.563-5.4c-5.454,0.252-9.908-4.106-9.907-9.477
				c0-5.229,4.255-9.486,9.486-9.486c0.476,0,0.946,0.037,1.415,0.106c1.201-3.911,4.846-6.694,9.066-6.694
				c2.494,0,4.847,0.967,6.609,2.685c1.43-0.522,2.93-0.786,4.471-0.786c7.211,0,13.08,5.867,13.08,13.079s-5.869,13.08-13.08,13.08
				c-1.695,0-3.379-0.332-4.939-0.968C108.223,116.98,105.407,118.432,102.354,118.432z M95.785,109.719l0.402,1.235
				c0.871,2.678,3.35,4.478,6.166,4.478c2.42,0,4.623-1.332,5.746-3.479l0.707-1.348l1.336,0.724
				c1.461,0.791,3.117,1.209,4.789,1.209c5.559,0,10.08-4.521,10.08-10.08c0-5.558-4.521-10.079-10.08-10.079
				c-1.477,0-2.902,0.313-4.236,0.934l-1.063,0.492l-0.736-0.91c-1.239-1.533-3.078-2.412-5.045-2.412
				c-3.272,0-6.039,2.447-6.436,5.69l-0.223,1.83l-1.746-0.591c-0.674-0.229-1.371-0.344-2.076-0.344
				c-3.577,0-6.486,2.91-6.486,6.486s2.91,6.486,6.486,6.486c0.365,0,0.747-0.034,1.134-0.102L95.785,109.719z"/>
		</g>
	</g>
	<g>
		<path fill="#FFFFFF" d="M83.832,58.605l0.165-3.112c0.018-0.341,0.028-0.684,0.028-1.03c0-10.743-8.74-19.483-19.483-19.483
			c-2.853,0-5.608,0.607-8.189,1.805l-1.062,0.493l-0.736-0.91c-2.479-3.066-6.157-4.825-10.091-4.825
			c-0.532,0-1.092,0.042-1.761,0.134l-0.696-2.903c2.044-0.712,4.25-0.852,6.35-0.41c1.415-6.126,6.51-10.556,12.452-10.556
			c3.528,0,6.84,1.548,9.256,4.288c2.066-0.878,4.242-1.322,6.484-1.322c9.898,0,17.951,8.795,17.951,19.606
			c0,6.636-3.04,12.771-8.132,16.412L83.832,58.605z M64.542,31.98c11.679,0,21.308,8.95,22.383,20.353
			c2.904-3.101,4.575-7.381,4.575-11.952c0-9.157-6.707-16.606-14.951-16.606c-2.169,0-4.266,0.509-6.231,1.514l-1.136,0.581
			l-0.755-1.028c-1.882-2.563-4.658-4.032-7.617-4.032c-4.822,0-8.925,3.912-9.708,9.172c1.879,0.859,3.589,2.084,5.031,3.63
			C58.807,32.528,61.63,31.98,64.542,31.98z"/>
		<path fill="#FFFFFF" d="M41.75,82.191c-6.513,0-12.292-3.907-14.75-9.843c-9.457,0.917-17.5-6.584-17.5-15.896
			c0-8.806,7.165-15.971,15.971-15.971c1.163,0,2.317,0.126,3.447,0.376c1.667-7.129,8.071-12.315,15.546-12.315
			c4.458,0,8.65,1.834,11.668,5.068c2.674-1.083,5.498-1.631,8.41-1.631c12.397,0,22.483,10.086,22.483,22.483
			S76.939,76.945,64.542,76.945c-3.241,0-6.457-0.705-9.384-2.048C52.227,79.432,47.213,82.191,41.75,82.191z M29.014,68.998
			l0.403,1.238c1.743,5.358,6.699,8.956,12.333,8.956c4.838,0,9.242-2.666,11.494-6.958l0.706-1.346l1.336,0.723
			c2.824,1.528,6.024,2.336,9.256,2.336c10.743,0,19.483-8.74,19.483-19.482c0-10.742-8.74-19.484-19.483-19.484
			c-2.853,0-5.608,0.607-8.189,1.805l-1.062,0.493l-0.736-0.91c-2.479-3.066-6.157-4.825-10.091-4.825
			c-6.545,0-12.078,4.894-12.871,11.382l-0.223,1.83l-1.746-0.59c-1.342-0.453-2.739-0.683-4.154-0.683
			c-7.152,0-12.971,5.819-12.971,12.971c0,7.152,5.819,12.971,12.971,12.971c0.741,0,1.501-0.067,2.26-0.201L29.014,68.998z"/>
	</g>
</g>
</svg>
