<?xml version="1.0" encoding="utf-8"?>
<!-- Generator: Adobe Illustrator 16.0.0, SVG Export Plug-In . SVG Version: 6.00 Build 0)  -->
<!DOCTYPE svg PUBLIC "-//W3C//DTD SVG 1.1//EN" "http://www.w3.org/Graphics/SVG/1.1/DTD/svg11.dtd">
<svg version="1.1" id="Layer_1" xmlns="http://www.w3.org/2000/svg" xmlns:xlink="http://www.w3.org/1999/xlink" x="0px" y="0px"
	 width="170px" height="150px" viewBox="0 0 170 150" enable-background="new 0 0 170 150" xml:space="preserve">
<g>
	<g>
		<path fill="#FFFFFF" d="M126.111,129.759c-12.238,0-22.195-9.712-22.195-21.649c0-11.938,9.957-21.65,22.195-21.65
			s22.195,9.712,22.195,21.65C148.307,120.047,138.35,129.759,126.111,129.759z M126.111,89.458
			c-10.584,0-19.195,8.366-19.195,18.649c0,10.285,8.611,18.65,19.195,18.65s19.195-8.365,19.195-18.65
			C145.307,97.824,136.695,89.458,126.111,89.458z"/>
		<path fill="#FFFFFF" d="M124.5,146.5c-0.828,0-1.5-0.672-1.5-1.5v-11c0-0.828,0.672-1.5,1.5-1.5s1.5,0.672,1.5,1.5v11
			C126,145.828,125.328,146.5,124.5,146.5z"/>
		<path fill="#FFFFFF" d="M152.842,136.059c-0.377,0-0.755-0.142-1.047-0.425l-8.259-8.041c-0.593-0.577-0.604-1.528-0.028-2.122
			c0.58-0.592,1.527-0.604,2.122-0.027l8.259,8.041c0.594,0.578,0.605,1.527,0.028,2.121
			C153.622,135.907,153.232,136.059,152.842,136.059z"/>
		<path fill="#FFFFFF" d="M164,112h-12c-0.828,0-1.5-0.672-1.5-1.5s0.672-1.5,1.5-1.5h12c0.828,0,1.5,0.672,1.5,1.5
			S164.828,112,164,112z"/>
		<path fill="#FFFFFF" d="M145.02,91.621c-0.392,0-0.781-0.15-1.074-0.453c-0.578-0.594-0.565-1.544,0.027-2.121l8.258-8.041
			c0.595-0.578,1.543-0.564,2.121,0.027c0.578,0.594,0.564,1.544-0.027,2.121l-8.258,8.041
			C145.773,91.479,145.396,91.621,145.02,91.621z"/>
		<path fill="#FFFFFF" d="M124.5,83.5c-0.828,0-1.5-0.672-1.5-1.5V71c0-0.829,0.672-1.5,1.5-1.5s1.5,0.671,1.5,1.5v11
			C126,82.828,125.328,83.5,124.5,83.5z"/>
		<path fill="#FFFFFF" d="M107.639,91.198c-0.377,0-0.756-0.142-1.048-0.425l-8.259-8.041c-0.594-0.578-0.605-1.528-0.027-2.123
			c0.579-0.592,1.527-0.604,2.121-0.027l8.26,8.041c0.592,0.578,0.604,1.527,0.027,2.122
			C108.418,91.047,108.027,91.198,107.639,91.198z"/>
		<path fill="#FFFFFF" d="M99,111H88c-0.828,0-1.5-0.672-1.5-1.5s0.672-1.5,1.5-1.5h11c0.828,0,1.5,0.672,1.5,1.5S99.828,111,99,111
			z"/>
		<path fill="#FFFFFF" d="M98.945,135.636c-0.391,0-0.78-0.151-1.074-0.452c-0.578-0.595-0.564-1.545,0.027-2.121l8.258-8.041
			c0.595-0.578,1.544-0.565,2.121,0.026c0.578,0.595,0.564,1.544-0.027,2.121l-8.258,8.041
			C99.7,135.494,99.322,135.636,98.945,135.636z"/>
	</g>
	<g>
		<path fill="#FFFFFF" d="M0,151c-0.277,0-0.553-0.114-0.75-0.339c-0.365-0.414-0.326-1.046,0.088-1.411l170-150
			c0.413-0.364,1.045-0.326,1.411,0.088c0.364,0.414,0.326,1.046-0.089,1.412l-170,150C0.472,150.918,0.235,151,0,151z"/>
		<polygon fill="#FFFFFF" points="41.784,99.031 49.473,91.342 61.778,103.646 67.064,98.359 66.873,116.43 48.8,116.622 
			54.086,111.336 		"/>
	</g>
	<g>
		<path fill="#FFFFFF" d="M43.97,48.841c-4.647,0-8.429-3.781-8.429-8.429s3.781-8.428,8.429-8.428c4.648,0,8.429,3.781,8.429,8.428
			S48.617,48.841,43.97,48.841z M43.97,34.984c-2.993,0-5.429,2.435-5.429,5.428s2.436,5.429,5.429,5.429
			c2.993,0,5.429-2.436,5.429-5.429S46.963,34.984,43.97,34.984z"/>
		<g>
			<path fill="#FFFFFF" d="M43.5,34.5c-0.829,0-1.5-0.671-1.5-1.5V19.272l-5.963-7.455c-0.518-0.647-0.413-1.591,0.234-2.108
				s1.591-0.412,2.108,0.234l6.292,7.865C44.884,18.075,45,18.405,45,18.746V33C45,33.829,44.329,34.5,43.5,34.5z"/>
			<path fill="#FFFFFF" d="M44.435,20.246c-0.312,0-0.625-0.096-0.894-0.296c-0.665-0.494-0.803-1.434-0.309-2.099l5.745-7.727
				c0.496-0.665,1.435-0.802,2.099-0.309c0.665,0.494,0.803,1.434,0.309,2.099l-5.745,7.727
				C45.345,20.037,44.893,20.246,44.435,20.246z"/>
		</g>
		<g>
			<path fill="#FFFFFF" d="M49.793,71.447c-0.412,0-0.822-0.169-1.119-0.5l-6.293-7.038c-0.246-0.275-0.382-0.631-0.382-1V47
				c0-0.829,0.671-1.5,1.5-1.5S45,46.171,45,47v15.336l5.911,6.611c0.552,0.618,0.499,1.566-0.118,2.118
				C50.507,71.321,50.149,71.447,49.793,71.447z"/>
			<path fill="#FFFFFF" d="M38.589,72.137c-0.312,0-0.625-0.096-0.894-0.296c-0.665-0.494-0.803-1.434-0.309-2.099l5.747-7.728
				c0.495-0.665,1.436-0.802,2.099-0.309c0.665,0.494,0.803,1.434,0.309,2.099l-5.747,7.728
				C39.499,71.928,39.047,72.137,38.589,72.137z"/>
		</g>
		<g>
			<path fill="#FFFFFF" d="M66.706,43H51c-0.829,0-1.5-0.671-1.5-1.5S50.171,40,51,40h15.14l6.715-5.917
				c0.62-0.547,1.569-0.489,2.117,0.134c0.548,0.622,0.488,1.569-0.134,2.117l-7.141,6.292C67.424,42.867,67.071,43,66.706,43z"/>
			<path fill="#FFFFFF" d="M74.434,47.549c-0.312,0-0.625-0.096-0.894-0.296l-7.729-5.747c-0.665-0.494-0.803-1.434-0.309-2.099
				s1.435-0.802,2.099-0.309l7.729,5.747c0.665,0.494,0.803,1.434,0.309,2.099C75.344,47.34,74.892,47.549,74.434,47.549z"/>
		</g>
		<g>
			<path fill="#FFFFFF" d="M36,43H20.936c-0.354,0-0.696-0.125-0.967-0.354l-7.461-6.292c-0.633-0.534-0.714-1.48-0.18-2.113
				c0.534-0.633,1.481-0.714,2.113-0.18L21.483,40H36c0.829,0,1.5,0.671,1.5,1.5S36.829,43,36,43z"/>
			<path fill="#FFFFFF" d="M13.208,47.549c-0.458,0-0.91-0.209-1.205-0.605c-0.495-0.665-0.356-1.604,0.309-2.099l7.729-5.747
				c0.664-0.494,1.604-0.357,2.099,0.309c0.495,0.665,0.356,1.604-0.309,2.099l-7.729,5.747
				C13.833,47.453,13.52,47.549,13.208,47.549z"/>
		</g>
		<g>
			<path fill="#FFFFFF" d="M49.358,36.719c-0.384,0-0.768-0.146-1.061-0.438c-0.586-0.585-0.586-1.536,0-2.121l10.395-10.395
				l0.716-9.105c0.065-0.825,0.788-1.432,1.613-1.378c0.826,0.065,1.443,0.788,1.378,1.613l-0.76,9.657
				c-0.028,0.356-0.183,0.69-0.435,0.943L50.419,36.28C50.126,36.573,49.742,36.719,49.358,36.719z"/>
			<path fill="#FFFFFF" d="M59.968,25.757c-0.732,0-1.373-0.536-1.482-1.282c-0.121-0.82,0.446-1.582,1.266-1.702l9.526-1.401
				c0.817-0.123,1.582,0.446,1.702,1.266c0.121,0.82-0.446,1.582-1.266,1.702l-9.526,1.401
				C60.114,25.752,60.041,25.757,59.968,25.757z"/>
		</g>
		<g>
			<path fill="#FFFFFF" d="M17.984,58.365c-0.782,0-1.441-0.606-1.495-1.397c-0.057-0.827,0.567-1.542,1.394-1.599l8.991-0.616
				l10.599-10.599c0.586-0.586,1.535-0.586,2.121,0c0.586,0.585,0.586,1.535,0,2.121L28.598,57.271
				c-0.256,0.256-0.596,0.411-0.958,0.436l-9.552,0.655C18.053,58.364,18.018,58.365,17.984,58.365z"/>
			<path fill="#FFFFFF" d="M25.961,67.062c-0.073,0-0.146-0.005-0.22-0.016c-0.82-0.121-1.386-0.883-1.266-1.702l1.401-9.527
				c0.121-0.82,0.878-1.392,1.702-1.266c0.82,0.121,1.386,0.883,1.266,1.702l-1.401,9.527
				C27.333,66.525,26.693,67.062,25.961,67.062z"/>
		</g>
		<g>
			<path fill="#FFFFFF" d="M38.776,36.131c-0.384,0-0.768-0.146-1.061-0.439L27.512,25.487l-9.211-0.81
				c-0.825-0.072-1.436-0.8-1.363-1.625c0.072-0.826,0.804-1.43,1.625-1.363l9.755,0.857c0.351,0.031,0.68,0.184,0.929,0.434
				l10.59,10.59c0.586,0.586,0.586,1.536,0,2.121C39.544,35.985,39.16,36.131,38.776,36.131z"/>
			<path fill="#FFFFFF" d="M27.813,25.912c-0.732,0-1.373-0.536-1.482-1.282l-1.4-9.527c-0.121-0.82,0.446-1.582,1.266-1.702
				c0.819-0.123,1.582,0.446,1.702,1.266l1.4,9.527c0.121,0.82-0.446,1.582-1.266,1.702C27.958,25.907,27.885,25.912,27.813,25.912z
				"/>
		</g>
		<g>
			<path fill="#FFFFFF" d="M61.35,66.772c-0.788,0-1.449-0.615-1.496-1.412l-0.523-8.884l-10.789-10.79
				c-0.586-0.586-0.586-1.536,0-2.121c0.586-0.586,1.535-0.586,2.121,0l11.192,11.193c0.26,0.26,0.415,0.605,0.437,0.972
				l0.557,9.453c0.048,0.827-0.583,1.537-1.409,1.586C61.41,66.771,61.38,66.772,61.35,66.772z"/>
			<path fill="#FFFFFF" d="M69.953,59.091c-0.073,0-0.146-0.005-0.22-0.016l-9.527-1.401c-0.819-0.12-1.386-0.882-1.266-1.702
				c0.12-0.82,0.882-1.391,1.702-1.266l9.527,1.401c0.819,0.121,1.386,0.882,1.266,1.702C71.326,58.555,70.685,59.091,69.953,59.091
				z"/>
		</g>
	</g>
</g>
</svg>
