<?xml version="1.0" encoding="utf-8"?>
<!-- Generator: Adobe Illustrator 16.0.0, SVG Export Plug-In . SVG Version: 6.00 Build 0)  -->
<!DOCTYPE svg PUBLIC "-//W3C//DTD SVG 1.1//EN" "http://www.w3.org/Graphics/SVG/1.1/DTD/svg11.dtd">
<svg version="1.1" id="Layer_1" xmlns="http://www.w3.org/2000/svg" xmlns:xlink="http://www.w3.org/1999/xlink" x="0px" y="0px"
	 width="170px" height="150px" viewBox="0 0 170 150" enable-background="new 0 0 170 150" xml:space="preserve">
<g>
	<g>
		<path fill="#FFFFFF" d="M80.832,56.605l0.165-3.112c0.019-0.341,0.028-0.684,0.028-1.03c0-10.743-8.74-19.483-19.483-19.483
			c-2.854,0-5.608,0.607-8.188,1.805l-1.063,0.493l-0.735-0.91c-2.479-3.066-6.158-4.825-10.092-4.825
			c-0.532,0-1.092,0.042-1.761,0.134l-0.696-2.903c2.044-0.711,4.249-0.852,6.35-0.41c1.415-6.126,6.511-10.556,12.452-10.556
			c3.527,0,6.84,1.548,9.256,4.288c2.066-0.878,4.242-1.322,6.484-1.322c9.898,0,17.951,8.795,17.951,19.606
			c0,6.636-3.04,12.771-8.133,16.412L80.832,56.605z M61.542,29.98c11.68,0,21.308,8.95,22.384,20.353
			c2.903-3.101,4.574-7.381,4.574-11.952c0-9.157-6.707-16.606-14.951-16.606c-2.17,0-4.267,0.509-6.231,1.514l-1.136,0.581
			l-0.756-1.028c-1.882-2.563-4.658-4.032-7.617-4.032c-4.822,0-8.925,3.912-9.707,9.172c1.879,0.859,3.589,2.084,5.03,3.63
			C55.807,30.528,58.63,29.98,61.542,29.98z"/>
		<path fill="#FFFFFF" d="M38.75,80.191c-6.514,0-12.291-3.907-14.749-9.843C14.525,71.261,6.5,63.764,6.5,54.452
			c0-8.806,7.164-15.971,15.971-15.971c1.163,0,2.317,0.126,3.447,0.376c1.667-7.129,8.071-12.315,15.546-12.315
			c4.459,0,8.65,1.834,11.668,5.068c2.675-1.083,5.498-1.631,8.41-1.631c12.397,0,22.483,10.086,22.483,22.483
			S73.939,74.945,61.542,74.945c-3.241,0-6.456-0.705-9.384-2.048C49.227,77.432,44.213,80.191,38.75,80.191z M26.014,66.998
			l0.403,1.238c1.742,5.357,6.699,8.956,12.333,8.956c4.838,0,9.242-2.667,11.494-6.958l0.706-1.346l1.336,0.723
			c2.824,1.528,6.024,2.336,9.256,2.336c10.743,0,19.483-8.74,19.483-19.482c0-10.742-8.74-19.484-19.483-19.484
			c-2.854,0-5.608,0.607-8.188,1.805l-1.063,0.493l-0.735-0.91c-2.479-3.066-6.158-4.825-10.092-4.825
			c-6.545,0-12.078,4.894-12.87,11.382l-0.224,1.83l-1.746-0.59c-1.342-0.453-2.739-0.683-4.153-0.683
			C15.318,41.481,9.5,47.3,9.5,54.452c0,7.152,5.818,12.971,12.971,12.971c0.741,0,1.502-0.067,2.261-0.201L26.014,66.998z"/>
	</g>
	<path fill="#FFFFFF" d="M0,151c-0.276,0-0.552-0.113-0.75-0.339c-0.365-0.414-0.326-1.046,0.089-1.411l170-150
		c0.412-0.364,1.045-0.326,1.411,0.088c0.365,0.414,0.326,1.046-0.089,1.412l-170,150C0.472,150.918,0.235,151,0,151z"/>
	<g>
		<path fill="#FFFFFF" d="M140.113,130.586c-2.879,0-5.221-2.342-5.221-5.221s2.342-5.221,5.221-5.221s5.221,2.342,5.221,5.221
			S142.992,130.586,140.113,130.586z M140.113,123.146c-1.225,0-2.221,0.996-2.221,2.22c0,1.225,0.996,2.221,2.221,2.221
			s2.221-0.996,2.221-2.221C142.334,124.143,141.338,123.146,140.113,123.146z"/>
		<g>
			<path fill="#FFFFFF" d="M139.5,123.5c-0.828,0-1.5-0.672-1.5-1.5v-7.71l-3.014-3.493c-0.541-0.627-0.473-1.574,0.156-2.115
				c0.627-0.541,1.573-0.473,2.114,0.156l3.378,3.915c0.235,0.272,0.364,0.62,0.364,0.979V122
				C141,122.828,140.328,123.5,139.5,123.5z"/>
			<path fill="#FFFFFF" d="M140.363,115.232c-0.313,0-0.625-0.098-0.895-0.297c-0.664-0.494-0.804-1.435-0.31-2.099l3.084-4.147
				c0.496-0.666,1.437-0.803,2.099-0.311c0.665,0.494,0.805,1.436,0.311,2.1l-3.084,4.147
				C141.273,115.023,140.82,115.232,140.363,115.232z"/>
		</g>
		<g>
			<path fill="#FFFFFF" d="M142.879,142.771c-0.416,0-0.829-0.172-1.126-0.508l-3.378-3.828c-0.241-0.273-0.375-0.627-0.375-0.992
				V129c0-0.828,0.672-1.5,1.5-1.5s1.5,0.672,1.5,1.5v7.876l3.003,3.403c0.548,0.621,0.488,1.568-0.133,2.117
				C143.585,142.646,143.23,142.771,142.879,142.771z"/>
			<path fill="#FFFFFF" d="M137.225,143.092c-0.313,0-0.625-0.097-0.896-0.297c-0.664-0.494-0.804-1.434-0.308-2.1l3.086-4.147
				c0.494-0.664,1.433-0.801,2.099-0.308c0.664,0.494,0.803,1.434,0.308,2.099l-3.086,4.147
				C138.134,142.883,137.682,143.092,137.225,143.092z"/>
		</g>
		<g>
			<path fill="#FFFFFF" d="M152.32,128H144c-0.828,0-1.5-0.672-1.5-1.5s0.672-1.5,1.5-1.5h7.76l3.467-3.012
				c0.623-0.545,1.571-0.477,2.114,0.148c0.544,0.625,0.478,1.572-0.147,2.115l-3.889,3.379C153.031,127.869,152.682,128,152.32,128
				z"/>
			<path fill="#FFFFFF" d="M156.469,129.893c-0.312,0-0.625-0.098-0.894-0.297l-4.149-3.084c-0.664-0.494-0.804-1.436-0.31-2.1
				c0.495-0.666,1.437-0.801,2.099-0.311l4.148,3.086c0.666,0.494,0.805,1.435,0.311,2.099
				C157.379,129.684,156.927,129.893,156.469,129.893z"/>
		</g>
		<g>
			<path fill="#FFFFFF" d="M136,128h-8.253c-0.358,0-0.706-0.129-0.979-0.363l-3.925-3.379c-0.628-0.54-0.698-1.486-0.157-2.115
				c0.541-0.627,1.487-0.699,2.114-0.158l3.503,3.017H136c0.828,0,1.5,0.672,1.5,1.5S136.828,128,136,128z"/>
			<path fill="#FFFFFF" d="M123.6,129.893c-0.459,0-0.91-0.209-1.205-0.605c-0.494-0.664-0.355-1.604,0.31-2.1l4.149-3.084
				c0.662-0.492,1.604-0.356,2.099,0.31c0.493,0.664,0.354,1.604-0.31,2.099l-4.149,3.086
				C124.225,129.795,123.91,129.893,123.6,129.893z"/>
		</g>
		<g>
			<path fill="#FFFFFF" d="M143.006,124.077c-0.384,0-0.768-0.146-1.061-0.438c-0.586-0.586-0.586-1.535,0-2.121l5.4-5.4
				l0.364-4.633c0.063-0.826,0.796-1.442,1.613-1.377c0.825,0.063,1.442,0.787,1.377,1.613l-0.408,5.184
				c-0.026,0.355-0.183,0.691-0.435,0.943l-5.793,5.791C143.773,123.932,143.391,124.077,143.006,124.077z"/>
			<path fill="#FFFFFF" d="M148.702,118.191c-0.731,0-1.372-0.537-1.481-1.282c-0.121-0.819,0.445-1.581,1.266-1.702l5.115-0.752
				c0.812-0.123,1.58,0.445,1.701,1.268c0.12,0.818-0.445,1.58-1.267,1.701l-5.114,0.752
				C148.85,118.188,148.773,118.191,148.702,118.191z"/>
		</g>
		<g>
			<path fill="#FFFFFF" d="M126.16,135.699c-0.781,0-1.439-0.605-1.494-1.396c-0.059-0.826,0.566-1.543,1.395-1.6l4.567-0.314
				l5.507-5.506c0.586-0.586,1.535-0.586,2.121,0s0.586,1.535,0,2.121l-5.904,5.903c-0.256,0.256-0.597,0.411-0.957,0.437
				l-5.129,0.352C126.23,135.697,126.195,135.699,126.16,135.699z"/>
			<path fill="#FFFFFF" d="M130.445,140.367c-0.071,0-0.146-0.006-0.219-0.016c-0.82-0.121-1.388-0.884-1.268-1.703l0.752-5.114
				c0.121-0.82,0.883-1.39,1.702-1.267c0.819,0.121,1.387,0.883,1.267,1.701l-0.752,5.115
				C131.818,139.831,131.178,140.367,130.445,140.367z"/>
		</g>
		<g>
			<path fill="#FFFFFF" d="M137.325,123.762c-0.384,0-0.769-0.146-1.062-0.439l-5.3-5.299l-4.694-0.414
				c-0.824-0.071-1.435-0.801-1.361-1.625c0.072-0.825,0.798-1.435,1.626-1.362l5.237,0.461c0.351,0.03,0.68,0.185,0.929,0.435
				l5.687,5.686c0.586,0.586,0.586,1.535,0,2.121C138.093,123.615,137.709,123.762,137.325,123.762z"/>
			<path fill="#FFFFFF" d="M131.438,118.273c-0.73,0-1.371-0.535-1.481-1.281l-0.752-5.114c-0.12-0.819,0.446-1.581,1.267-1.702
				c0.813-0.123,1.58,0.446,1.702,1.268l0.752,5.113c0.12,0.819-0.446,1.582-1.267,1.702
				C131.585,118.27,131.512,118.273,131.438,118.273z"/>
		</g>
		<g>
			<path fill="#FFFFFF" d="M149.443,140.212c-0.789,0-1.448-0.614-1.495-1.412l-0.265-4.506l-5.606-5.606
				c-0.586-0.586-0.586-1.535,0-2.121s1.534-0.586,2.121,0l6.01,6.011c0.26,0.26,0.415,0.604,0.437,0.973l0.299,5.075
				c0.049,0.827-0.582,1.537-1.409,1.585C149.503,140.211,149.475,140.212,149.443,140.212z"/>
			<path fill="#FFFFFF" d="M154.064,136.088c-0.071,0-0.146-0.005-0.219-0.016l-5.115-0.752c-0.82-0.121-1.388-0.883-1.268-1.702
				c0.121-0.819,0.883-1.388,1.702-1.267l5.114,0.752c0.82,0.121,1.388,0.883,1.268,1.701
				C155.438,135.553,154.797,136.088,154.064,136.088z"/>
		</g>
	</g>
	<g>
		<g>
			<path fill="#FFFFFF" d="M89.391,124.723c-0.127,0-0.258-0.017-0.388-0.051c-0.8-0.213-1.276-1.035-1.063-1.836l1.104-4.139
				c0.213-0.801,1.032-1.274,1.836-1.063c0.8,0.214,1.276,1.035,1.063,1.837l-1.104,4.139
				C90.66,124.279,90.055,124.723,89.391,124.723z"/>
			<path fill="#FFFFFF" d="M102.602,124.723c-0.129,0-0.259-0.016-0.388-0.051c-0.801-0.213-1.276-1.033-1.063-1.835l1.103-4.14
				c0.213-0.799,1.036-1.28,1.835-1.063c0.801,0.213,1.277,1.034,1.063,1.836l-1.102,4.139
				C103.87,124.279,103.264,124.723,102.602,124.723z"/>
			<path fill="#FFFFFF" d="M115.809,124.723c-0.127,0-0.258-0.017-0.388-0.051c-0.8-0.213-1.276-1.035-1.063-1.836l1.104-4.139
				c0.213-0.801,1.032-1.274,1.836-1.063c0.8,0.214,1.276,1.035,1.063,1.837l-1.104,4.139
				C117.078,124.279,116.473,124.723,115.809,124.723z"/>
			<path fill="#FFFFFF" d="M94.35,130.904c-0.129,0-0.259-0.016-0.388-0.051c-0.801-0.213-1.276-1.035-1.063-1.836l2.75-10.32
				c0.213-0.801,1.037-1.28,1.836-1.063c0.801,0.213,1.276,1.035,1.063,1.836l-2.75,10.319
				C95.618,130.462,95.012,130.904,94.35,130.904z"/>
			<path fill="#FFFFFF" d="M107.559,130.904c-0.129,0-0.259-0.016-0.388-0.051c-0.801-0.213-1.276-1.035-1.063-1.836l2.75-10.32
				c0.215-0.801,1.037-1.28,1.836-1.063c0.801,0.213,1.277,1.035,1.063,1.836l-2.75,10.319
				C108.827,130.462,108.221,130.904,107.559,130.904z"/>
		</g>
		<g>
			<path fill="#FFFFFF" d="M122.832,104.102l0.166-3.113c0.01-0.174,0.016-0.352,0.016-0.53c0-5.558-4.521-10.079-10.08-10.079
				c-1.478,0-2.902,0.313-4.238,0.934l-1.062,0.492l-0.735-0.91c-1.239-1.533-3.078-2.412-5.045-2.412
				c-0.263,0-0.543,0.021-0.883,0.067l-0.695-2.903c1.047-0.361,2.154-0.481,3.234-0.353c1.034-3.362,3.971-5.735,7.363-5.735
				c1.986,0,3.857,0.805,5.285,2.244c1.091-0.404,2.23-0.607,3.4-0.607c5.832,0,10.578,5.154,10.578,11.492
				c0,3.879-1.783,7.469-4.77,9.604L122.832,104.102z M112.934,87.378c6.248,0,11.486,4.403,12.775,10.271
				c0.917-1.422,1.428-3.146,1.428-4.963c0-4.683-3.398-8.492-7.578-8.492c-1.09,0-2.144,0.258-3.133,0.764l-1.136,0.581
				l-0.756-1.029c-0.911-1.239-2.245-1.95-3.661-1.95c-2.182,0-4.061,1.682-4.604,4.012c0.797,0.421,1.535,0.955,2.191,1.596
				C109.893,87.643,111.393,87.378,112.934,87.378z"/>
			<path fill="#FFFFFF" d="M100.354,116.432c-3.703,0-7.006-2.125-8.563-5.4c-5.452,0.257-9.907-4.105-9.907-9.477
				c0-5.229,4.257-9.486,9.486-9.486c0.476,0,0.946,0.037,1.415,0.106c1.201-3.911,4.847-6.694,9.066-6.694
				c2.494,0,4.847,0.967,6.608,2.685c1.431-0.522,2.931-0.786,4.472-0.786c7.211,0,13.08,5.867,13.08,13.079
				s-5.869,13.08-13.08,13.08c-1.695,0-3.379-0.332-4.939-0.968C106.223,114.98,103.407,116.432,100.354,116.432z M93.785,107.719
				l0.402,1.235c0.871,2.678,3.35,4.478,6.166,4.478c2.422,0,4.623-1.332,5.746-3.479l0.707-1.348l1.336,0.724
				c1.461,0.791,3.117,1.209,4.789,1.209c5.56,0,10.08-4.521,10.08-10.08c0-5.558-4.521-10.079-10.08-10.079
				c-1.477,0-2.902,0.313-4.236,0.934l-1.063,0.492l-0.734-0.91c-1.24-1.533-3.08-2.412-5.047-2.412
				c-3.271,0-6.039,2.447-6.436,5.69l-0.225,1.83l-1.746-0.591c-0.672-0.229-1.37-0.344-2.075-0.344
				c-3.576,0-6.486,2.91-6.486,6.486s2.91,6.486,6.486,6.486c0.364,0,0.746-0.034,1.134-0.102L93.785,107.719z"/>
		</g>
	</g>
</g>
</svg>
