<?xml version="1.0" encoding="utf-8"?>
<!-- Generator: Adobe Illustrator 16.0.0, SVG Export Plug-In . SVG Version: 6.00 Build 0)  -->
<!DOCTYPE svg PUBLIC "-//W3C//DTD SVG 1.1//EN" "http://www.w3.org/Graphics/SVG/1.1/DTD/svg11.dtd">
<svg version="1.1" id="Layer_1" xmlns="http://www.w3.org/2000/svg" xmlns:xlink="http://www.w3.org/1999/xlink" x="0px" y="0px"
	 width="170px" height="150px" viewBox="0 0 170 150" enable-background="new 0 0 170 150" xml:space="preserve">
<g>
	<g>
		<path fill="#FFFFFF" stroke="#000000" stroke-width="2" stroke-linecap="round" stroke-miterlimit="10" d="M170,155"/>
		<path fill="#FFFFFF" stroke="#000000" stroke-width="2" stroke-linecap="round" stroke-miterlimit="10" d="M54.856,155"/>
		<path fill="#FFFFFF" stroke="#000000" stroke-width="2" stroke-linecap="round" stroke-miterlimit="10" d="M170,155"/>
		<path fill="#FFFFFF" d="M53.296,151c-0.553,0-1-0.447-1-1c0-31.254,12.109-60.656,34.099-82.792
			c21.989-22.137,51.291-34.418,82.504-34.582l0.93-0.008c0.553,0,1,0.448,1,1c0,0.552-0.447,1-1,1l-0.919,0.008
			C105.711,34.957,54.296,86.714,54.296,150C54.296,150.553,53.849,151,53.296,151z"/>
	</g>
	<g>
		<g>
			<path fill="#FFFFFF" d="M45.797,20.188c-0.384,0-0.768-0.146-1.061-0.439c-0.586-0.586-0.586-1.536,0-2.121l5.793-5.792
				c0.586-0.586,1.535-0.586,2.121,0s0.586,1.536,0,2.121l-5.793,5.792C46.564,20.041,46.181,20.188,45.797,20.188z"/>
			<path fill="#FFFFFF" d="M31.5,14.5c-0.828,0-1.5-0.671-1.5-1.5V5c0-0.829,0.672-1.5,1.5-1.5S33,4.171,33,5v8
				C33,13.829,32.328,14.5,31.5,14.5z"/>
			<path fill="#FFFFFF" d="M19.58,19.884c-0.384,0-0.768-0.146-1.061-0.439l-5.793-5.793c-0.586-0.585-0.586-1.536,0-2.121
				c0.586-0.586,1.535-0.586,2.121,0l5.793,5.793c0.586,0.585,0.586,1.536,0,2.121C20.348,19.737,19.964,19.884,19.58,19.884z"/>
			<path fill="#FFFFFF" d="M14,35H6c-0.828,0-1.5-0.671-1.5-1.5S5.172,32,6,32h8c0.828,0,1.5,0.671,1.5,1.5S14.828,35,14,35z"/>
			<path fill="#FFFFFF" d="M13.482,51.893c-0.384,0-0.768-0.146-1.061-0.439c-0.586-0.585-0.586-1.536,0-2.121l5.792-5.792
				c0.586-0.586,1.535-0.586,2.121,0c0.586,0.585,0.586,1.536,0,2.121l-5.792,5.792C14.25,51.746,13.866,51.893,13.482,51.893z"/>
			<path fill="#FFFFFF" d="M29.422,47.383l-1.46-0.392c-6.843-1.838-11.44-8.006-11.44-15.346c0-8.831,7.185-16.015,16.016-16.015
				c7.828,0,14.799,6.324,15.87,14.396l0.125,0.946l-0.804,0.515c-2.57,1.646-4.033,3.922-4.349,6.768l-0.212,1.909l-1.802-0.668
				c-0.894-0.332-1.821-0.5-2.759-0.5c-4.056,0-7.759,2.913-8.805,6.925L29.422,47.383z M32.537,18.63
				c-7.177,0-13.016,5.838-13.016,13.015c0,5.469,3.114,10.129,7.882,12.008c1.847-4.517,6.332-7.657,11.204-7.657
				c0.707,0,1.41,0.069,2.104,0.206c0.682-2.666,2.237-4.938,4.573-6.671C44.041,23.35,38.604,18.63,32.537,18.63z"/>
		</g>
		<g>
			<path fill="#FFFFFF" d="M79.667,50.145l0.162-3.108c0.013-0.237,0.019-0.475,0.019-0.714c0-7.438-6.051-13.488-13.487-13.488
				c-1.975,0-3.882,0.42-5.67,1.25l-1.062,0.492l-0.735-0.91c-1.689-2.089-4.195-3.287-6.875-3.287c-0.358,0-0.74,0.029-1.201,0.092
				l-0.694-2.903c1.406-0.488,2.91-0.618,4.358-0.383c1.18-4.36,4.896-7.473,9.212-7.473c2.545,0,4.939,1.073,6.727,2.98
				c1.445-0.573,2.96-0.862,4.518-0.862c7.306,0,13.25,6.475,13.25,14.433c0,4.879-2.238,9.392-5.988,12.072L79.667,50.145z
				 M66.36,29.834c8.229,0,15.07,6.061,16.293,13.954c1.618-2.056,2.534-4.71,2.534-7.525c0-6.304-4.598-11.433-10.25-11.433
				c-1.48,0-2.913,0.348-4.258,1.034l-1.136,0.58l-0.755-1.027c-1.263-1.719-3.12-2.705-5.096-2.705
				c-3.136,0-5.819,2.485-6.458,5.875c1.189,0.584,2.281,1.371,3.229,2.337C62.345,30.2,64.323,29.834,66.36,29.834z"/>
			<path fill="#FFFFFF" d="M50.08,66.557c-4.721,0-8.92-2.769-10.807-7.007c-6.904,0.491-12.658-5.009-12.658-11.808
				c0-6.526,5.31-11.836,11.837-11.836c0.723,0,1.44,0.066,2.146,0.196c1.378-5.075,6.021-8.724,11.42-8.724
				c3.206,0,6.225,1.279,8.445,3.544c1.881-0.723,3.86-1.089,5.896-1.089c9.091,0,16.487,7.396,16.487,16.488
				c0,9.091-7.396,16.487-16.487,16.487c-2.255,0-4.491-0.465-6.548-1.354C57.616,64.634,54.005,66.557,50.08,66.557z
				 M41.275,56.218l0.403,1.238c1.188,3.649,4.563,6.101,8.401,6.101c3.296,0,6.296-1.817,7.83-4.741l0.705-1.346l1.337,0.723
				c1.954,1.058,4.171,1.617,6.408,1.617c7.437,0,13.487-6.05,13.487-13.487s-6.051-13.488-13.487-13.488
				c-1.975,0-3.882,0.42-5.67,1.25l-1.062,0.492l-0.735-0.91c-1.689-2.089-4.195-3.287-6.875-3.287
				c-4.459,0-8.229,3.333-8.768,7.754l-0.224,1.83l-1.746-0.591c-0.914-0.309-1.865-0.466-2.829-0.466
				c-4.873,0-8.837,3.964-8.837,8.836c0,5.377,4.864,9.664,10.378,8.7L41.275,56.218z"/>
		</g>
	</g>
	<g>
		<path fill="#FFFFFF" d="M142.113,127.586c-2.879,0-5.221-2.342-5.221-5.221s2.342-5.221,5.221-5.221s5.221,2.342,5.221,5.221
			S144.992,127.586,142.113,127.586z M142.113,120.146c-1.225,0-2.221,0.996-2.221,2.22c0,1.225,0.996,2.221,2.221,2.221
			s2.221-0.996,2.221-2.221C144.334,121.143,143.338,120.146,142.113,120.146z"/>
		<g>
			<path fill="#FFFFFF" d="M141.5,120.5c-0.828,0-1.5-0.672-1.5-1.5v-7.71l-3.014-3.493c-0.541-0.627-0.473-1.574,0.156-2.115
				c0.627-0.541,1.573-0.472,2.114,0.156l3.378,3.915c0.235,0.272,0.364,0.62,0.364,0.979V119
				C143,119.828,142.328,120.5,141.5,120.5z"/>
			<path fill="#FFFFFF" d="M142.363,112.232c-0.313,0-0.625-0.098-0.895-0.297c-0.664-0.494-0.804-1.435-0.31-2.099l3.084-4.147
				c0.496-0.666,1.437-0.801,2.099-0.311c0.665,0.494,0.805,1.436,0.311,2.1l-3.084,4.147
				C143.273,112.023,142.82,112.232,142.363,112.232z"/>
		</g>
		<g>
			<path fill="#FFFFFF" d="M144.879,139.771c-0.416,0-0.829-0.172-1.126-0.508l-3.378-3.828c-0.241-0.273-0.375-0.627-0.375-0.992
				V126c0-0.828,0.672-1.5,1.5-1.5s1.5,0.672,1.5,1.5v7.876l3.003,3.403c0.548,0.621,0.488,1.568-0.133,2.117
				C145.585,139.646,145.23,139.771,144.879,139.771z"/>
			<path fill="#FFFFFF" d="M139.225,140.092c-0.313,0-0.625-0.097-0.896-0.297c-0.664-0.494-0.804-1.434-0.308-2.1l3.086-4.147
				c0.494-0.664,1.434-0.802,2.099-0.308c0.664,0.494,0.803,1.434,0.308,2.099l-3.086,4.147
				C140.134,139.883,139.682,140.092,139.225,140.092z"/>
		</g>
		<g>
			<path fill="#FFFFFF" d="M154.32,125H146c-0.828,0-1.5-0.672-1.5-1.5s0.672-1.5,1.5-1.5h7.76l3.467-3.012
				c0.623-0.545,1.572-0.477,2.114,0.148c0.544,0.625,0.478,1.572-0.147,2.115l-3.889,3.379C155.031,124.869,154.682,125,154.32,125
				z"/>
			<path fill="#FFFFFF" d="M158.469,126.893c-0.312,0-0.625-0.098-0.894-0.297l-4.149-3.084c-0.664-0.494-0.804-1.436-0.31-2.1
				c0.495-0.665,1.437-0.803,2.099-0.311l4.148,3.086c0.666,0.494,0.805,1.435,0.311,2.099
				C159.379,126.684,158.927,126.893,158.469,126.893z"/>
		</g>
		<g>
			<path fill="#FFFFFF" d="M138,125h-8.253c-0.358,0-0.706-0.129-0.979-0.363l-3.925-3.379c-0.628-0.54-0.698-1.486-0.157-2.115
				c0.541-0.627,1.487-0.697,2.114-0.158l3.503,3.017H138c0.828,0,1.5,0.672,1.5,1.5S138.828,125,138,125z"/>
			<path fill="#FFFFFF" d="M125.6,126.893c-0.459,0-0.91-0.209-1.205-0.605c-0.494-0.664-0.355-1.604,0.31-2.1l4.149-3.084
				c0.662-0.492,1.603-0.356,2.099,0.31c0.493,0.664,0.354,1.604-0.31,2.099l-4.149,3.086
				C126.225,126.795,125.91,126.893,125.6,126.893z"/>
		</g>
		<g>
			<path fill="#FFFFFF" d="M145.006,121.077c-0.384,0-0.768-0.146-1.061-0.438c-0.586-0.586-0.586-1.535,0-2.121l5.4-5.4
				l0.364-4.633c0.063-0.826,0.794-1.441,1.613-1.377c0.825,0.063,1.442,0.787,1.377,1.613l-0.408,5.184
				c-0.026,0.355-0.183,0.691-0.435,0.943l-5.793,5.791C145.773,120.932,145.391,121.077,145.006,121.077z"/>
			<path fill="#FFFFFF" d="M150.702,115.191c-0.731,0-1.372-0.537-1.481-1.282c-0.121-0.819,0.445-1.581,1.266-1.702l5.115-0.752
				c0.813-0.121,1.58,0.447,1.701,1.268c0.12,0.818-0.445,1.58-1.267,1.701l-5.114,0.752
				C150.85,115.188,150.773,115.191,150.702,115.191z"/>
		</g>
		<g>
			<path fill="#FFFFFF" d="M128.16,132.699c-0.781,0-1.439-0.605-1.494-1.396c-0.059-0.826,0.566-1.543,1.395-1.6l4.567-0.314
				l5.507-5.506c0.586-0.586,1.535-0.586,2.121,0s0.586,1.535,0,2.121l-5.904,5.903c-0.256,0.256-0.597,0.411-0.957,0.437
				l-5.129,0.352C128.23,132.697,128.195,132.699,128.16,132.699z"/>
			<path fill="#FFFFFF" d="M132.445,137.367c-0.071,0-0.146-0.006-0.219-0.016c-0.82-0.121-1.388-0.884-1.268-1.703l0.752-5.114
				c0.121-0.819,0.885-1.388,1.702-1.267c0.819,0.121,1.387,0.883,1.267,1.701l-0.752,5.115
				C133.818,136.831,133.178,137.367,132.445,137.367z"/>
		</g>
		<g>
			<path fill="#FFFFFF" d="M139.325,120.762c-0.384,0-0.769-0.146-1.062-0.439l-5.3-5.299l-4.694-0.414
				c-0.824-0.071-1.435-0.801-1.361-1.625c0.072-0.825,0.799-1.432,1.626-1.362l5.237,0.461c0.351,0.03,0.68,0.185,0.929,0.435
				l5.687,5.686c0.586,0.586,0.586,1.535,0,2.121C140.093,120.615,139.709,120.762,139.325,120.762z"/>
			<path fill="#FFFFFF" d="M133.438,115.273c-0.73,0-1.371-0.535-1.481-1.281l-0.752-5.114c-0.12-0.819,0.446-1.581,1.267-1.702
				c0.811-0.121,1.581,0.447,1.702,1.268l0.752,5.113c0.12,0.819-0.446,1.582-1.267,1.702
				C133.585,115.27,133.512,115.273,133.438,115.273z"/>
		</g>
		<g>
			<path fill="#FFFFFF" d="M151.443,137.212c-0.789,0-1.448-0.614-1.495-1.412l-0.265-4.506l-5.606-5.606
				c-0.586-0.586-0.586-1.535,0-2.121s1.534-0.586,2.121,0l6.01,6.011c0.26,0.26,0.415,0.604,0.437,0.973l0.299,5.075
				c0.049,0.827-0.582,1.537-1.409,1.585C151.503,137.211,151.475,137.212,151.443,137.212z"/>
			<path fill="#FFFFFF" d="M156.064,133.088c-0.071,0-0.146-0.005-0.219-0.016l-5.115-0.752c-0.82-0.121-1.388-0.883-1.268-1.702
				c0.121-0.82,0.885-1.39,1.702-1.267l5.114,0.752c0.82,0.121,1.388,0.883,1.268,1.701
				C157.438,132.553,156.797,133.088,156.064,133.088z"/>
		</g>
	</g>
	<g>
		<g>
			<path fill="#FFFFFF" d="M91.391,121.723c-0.127,0-0.258-0.017-0.388-0.051c-0.8-0.213-1.276-1.035-1.063-1.836l1.104-4.139
				c0.213-0.801,1.033-1.275,1.836-1.063c0.8,0.214,1.276,1.035,1.063,1.837l-1.104,4.139
				C92.66,121.279,92.055,121.723,91.391,121.723z"/>
			<path fill="#FFFFFF" d="M104.602,121.723c-0.129,0-0.259-0.016-0.388-0.051c-0.801-0.213-1.276-1.033-1.063-1.835l1.103-4.14
				c0.213-0.801,1.036-1.281,1.835-1.063c0.801,0.213,1.277,1.034,1.063,1.836l-1.102,4.139
				C105.87,121.279,105.264,121.723,104.602,121.723z"/>
			<path fill="#FFFFFF" d="M117.809,121.723c-0.127,0-0.258-0.017-0.388-0.051c-0.8-0.213-1.276-1.035-1.063-1.836l1.104-4.139
				c0.213-0.801,1.032-1.275,1.836-1.063c0.8,0.214,1.276,1.035,1.063,1.837l-1.104,4.139
				C119.078,121.279,118.473,121.723,117.809,121.723z"/>
			<path fill="#FFFFFF" d="M96.35,127.904c-0.129,0-0.259-0.016-0.388-0.051c-0.801-0.213-1.276-1.035-1.063-1.836l2.75-10.32
				c0.213-0.801,1.037-1.281,1.836-1.063c0.801,0.213,1.276,1.035,1.063,1.836l-2.75,10.319
				C97.618,127.462,97.012,127.904,96.35,127.904z"/>
			<path fill="#FFFFFF" d="M109.559,127.904c-0.129,0-0.259-0.016-0.388-0.051c-0.801-0.213-1.276-1.035-1.063-1.836l2.75-10.32
				c0.215-0.801,1.037-1.281,1.836-1.063c0.801,0.213,1.277,1.035,1.063,1.836l-2.75,10.319
				C110.827,127.462,110.221,127.904,109.559,127.904z"/>
		</g>
		<g>
			<path fill="#FFFFFF" d="M124.832,101.102l0.166-3.113c0.01-0.174,0.016-0.352,0.016-0.53c0-5.558-4.521-10.079-10.08-10.079
				c-1.478,0-2.902,0.313-4.238,0.934l-1.062,0.492l-0.735-0.91c-1.239-1.533-3.078-2.412-5.045-2.412
				c-0.263,0-0.543,0.021-0.883,0.067l-0.695-2.903c1.045-0.361,2.154-0.48,3.234-0.353c1.034-3.362,3.971-5.735,7.363-5.735
				c1.986,0,3.857,0.805,5.285,2.244c1.091-0.404,2.23-0.607,3.4-0.607c5.832,0,10.578,5.154,10.578,11.492
				c0,3.879-1.783,7.469-4.77,9.604L124.832,101.102z M114.934,84.378c6.248,0,11.486,4.403,12.775,10.271
				c0.917-1.422,1.428-3.146,1.428-4.963c0-4.683-3.398-8.492-7.578-8.492c-1.09,0-2.144,0.258-3.133,0.764l-1.136,0.581
				l-0.756-1.029c-0.911-1.239-2.245-1.95-3.661-1.95c-2.182,0-4.061,1.682-4.604,4.012c0.797,0.421,1.535,0.955,2.191,1.596
				C111.893,84.643,113.393,84.378,114.934,84.378z"/>
			<path fill="#FFFFFF" d="M102.354,113.432c-3.703,0-7.006-2.125-8.563-5.4c-5.46,0.271-9.907-4.105-9.907-9.477
				c0-5.229,4.257-9.486,9.486-9.486c0.476,0,0.946,0.037,1.415,0.106c1.201-3.911,4.847-6.694,9.066-6.694
				c2.494,0,4.847,0.967,6.608,2.685c1.431-0.522,2.931-0.786,4.472-0.786c7.211,0,13.08,5.867,13.08,13.079
				s-5.869,13.08-13.08,13.08c-1.695,0-3.379-0.332-4.939-0.968C108.223,111.98,105.407,113.432,102.354,113.432z M95.785,104.719
				l0.402,1.235c0.871,2.678,3.35,4.478,6.166,4.478c2.422,0,4.623-1.332,5.746-3.479l0.707-1.348l1.336,0.724
				c1.461,0.791,3.117,1.209,4.789,1.209c5.56,0,10.08-4.521,10.08-10.08c0-5.558-4.521-10.079-10.08-10.079
				c-1.477,0-2.902,0.313-4.236,0.934l-1.063,0.492l-0.734-0.91c-1.24-1.533-3.08-2.412-5.047-2.412
				c-3.271,0-6.039,2.447-6.436,5.69l-0.225,1.83l-1.746-0.591c-0.672-0.229-1.37-0.344-2.075-0.344
				c-3.576,0-6.486,2.91-6.486,6.486s2.91,6.486,6.486,6.486c0.364,0,0.746-0.034,1.134-0.102L95.785,104.719z"/>
		</g>
	</g>
</g>
</svg>
