<?xml version="1.0" encoding="utf-8"?>
<!-- Generator: Adobe Illustrator 16.0.0, SVG Export Plug-In . SVG Version: 6.00 Build 0)  -->
<!DOCTYPE svg PUBLIC "-//W3C//DTD SVG 1.1//EN" "http://www.w3.org/Graphics/SVG/1.1/DTD/svg11.dtd">
<svg version="1.1" id="Layer_1" xmlns="http://www.w3.org/2000/svg" xmlns:xlink="http://www.w3.org/1999/xlink" x="0px" y="0px"
	 width="170px" height="150px" viewBox="0 0 170 150" enable-background="new 0 0 170 150" xml:space="preserve">
<g>
	<g>
		<path fill="#FFFFFF" stroke="#000000" stroke-width="2" stroke-linecap="round" stroke-miterlimit="10" d="M170,155"/>
		<path fill="#FFFFFF" stroke="#000000" stroke-width="2" stroke-linecap="round" stroke-miterlimit="10" d="M54.856,155"/>
		<path fill="#FFFFFF" stroke="#000000" stroke-width="2" stroke-linecap="round" stroke-miterlimit="10" d="M170,155"/>
		<path fill="#FFFFFF" d="M53.296,151c-0.553,0-1-0.447-1-1c0-31.254,12.109-60.656,34.099-82.792
			c21.989-22.137,51.291-34.418,82.504-34.582l0.93-0.008c0.553,0,1,0.448,1,1c0,0.552-0.447,1-1,1l-0.919,0.008
			C105.711,34.957,54.296,86.714,54.296,150C54.296,150.553,53.849,151,53.296,151z"/>
	</g>
	<g>
		<path fill="#FFFFFF" d="M140.113,127.586c-2.879,0-5.221-2.342-5.221-5.221s2.342-5.221,5.221-5.221s5.221,2.342,5.221,5.221
			S142.992,127.586,140.113,127.586z M140.113,120.146c-1.225,0-2.221,0.996-2.221,2.22c0,1.225,0.996,2.221,2.221,2.221
			s2.221-0.996,2.221-2.221C142.334,121.143,141.338,120.146,140.113,120.146z"/>
		<g>
			<path fill="#FFFFFF" d="M139.5,120.5c-0.828,0-1.5-0.672-1.5-1.5v-7.71l-3.014-3.493c-0.541-0.627-0.473-1.574,0.156-2.115
				c0.627-0.541,1.573-0.472,2.114,0.156l3.378,3.915c0.235,0.272,0.364,0.62,0.364,0.979V119
				C141,119.828,140.328,120.5,139.5,120.5z"/>
			<path fill="#FFFFFF" d="M140.363,112.232c-0.313,0-0.625-0.098-0.895-0.297c-0.664-0.494-0.804-1.435-0.31-2.099l3.084-4.147
				c0.496-0.666,1.437-0.801,2.099-0.311c0.665,0.494,0.805,1.436,0.311,2.1l-3.084,4.147
				C141.273,112.023,140.82,112.232,140.363,112.232z"/>
		</g>
		<g>
			<path fill="#FFFFFF" d="M142.879,139.771c-0.416,0-0.829-0.172-1.126-0.508l-3.378-3.828c-0.241-0.273-0.375-0.627-0.375-0.992
				V126c0-0.828,0.672-1.5,1.5-1.5s1.5,0.672,1.5,1.5v7.876l3.003,3.403c0.548,0.621,0.488,1.568-0.133,2.117
				C143.585,139.646,143.23,139.771,142.879,139.771z"/>
			<path fill="#FFFFFF" d="M137.225,140.092c-0.313,0-0.625-0.097-0.896-0.297c-0.664-0.494-0.804-1.434-0.308-2.1l3.086-4.147
				c0.494-0.664,1.434-0.802,2.099-0.308c0.664,0.494,0.803,1.434,0.308,2.099l-3.086,4.147
				C138.134,139.883,137.682,140.092,137.225,140.092z"/>
		</g>
		<g>
			<path fill="#FFFFFF" d="M152.32,125H144c-0.828,0-1.5-0.672-1.5-1.5s0.672-1.5,1.5-1.5h7.76l3.467-3.012
				c0.623-0.545,1.572-0.477,2.114,0.148c0.544,0.625,0.478,1.572-0.147,2.115l-3.889,3.379C153.031,124.869,152.682,125,152.32,125
				z"/>
			<path fill="#FFFFFF" d="M156.469,126.893c-0.312,0-0.625-0.098-0.894-0.297l-4.149-3.084c-0.664-0.494-0.804-1.436-0.31-2.1
				c0.495-0.665,1.436-0.803,2.099-0.311l4.148,3.086c0.666,0.494,0.805,1.435,0.311,2.099
				C157.379,126.684,156.927,126.893,156.469,126.893z"/>
		</g>
		<g>
			<path fill="#FFFFFF" d="M136,125h-8.253c-0.358,0-0.706-0.129-0.979-0.363l-3.925-3.379c-0.628-0.54-0.698-1.486-0.157-2.115
				c0.541-0.627,1.487-0.697,2.114-0.158l3.503,3.017H136c0.828,0,1.5,0.672,1.5,1.5S136.828,125,136,125z"/>
			<path fill="#FFFFFF" d="M123.6,126.893c-0.459,0-0.91-0.209-1.205-0.605c-0.494-0.664-0.355-1.604,0.31-2.1l4.149-3.084
				c0.662-0.492,1.604-0.356,2.099,0.31c0.493,0.664,0.354,1.604-0.31,2.099l-4.149,3.086
				C124.225,126.795,123.91,126.893,123.6,126.893z"/>
		</g>
		<g>
			<path fill="#FFFFFF" d="M143.006,121.077c-0.384,0-0.768-0.146-1.061-0.438c-0.586-0.586-0.586-1.535,0-2.121l5.4-5.4
				l0.364-4.633c0.063-0.826,0.786-1.441,1.613-1.377c0.825,0.063,1.442,0.787,1.377,1.613l-0.408,5.184
				c-0.026,0.355-0.183,0.691-0.435,0.943l-5.793,5.791C143.773,120.932,143.391,121.077,143.006,121.077z"/>
			<path fill="#FFFFFF" d="M148.702,115.191c-0.731,0-1.372-0.537-1.481-1.282c-0.121-0.819,0.445-1.581,1.266-1.702l5.115-0.752
				c0.813-0.121,1.58,0.447,1.701,1.268c0.12,0.818-0.445,1.58-1.267,1.701l-5.114,0.752
				C148.85,115.188,148.773,115.191,148.702,115.191z"/>
		</g>
		<g>
			<path fill="#FFFFFF" d="M126.16,132.699c-0.781,0-1.439-0.605-1.494-1.396c-0.059-0.826,0.566-1.543,1.395-1.6l4.567-0.314
				l5.507-5.506c0.586-0.586,1.535-0.586,2.121,0s0.586,1.535,0,2.121l-5.904,5.903c-0.256,0.256-0.597,0.411-0.957,0.437
				l-5.129,0.352C126.23,132.697,126.195,132.699,126.16,132.699z"/>
			<path fill="#FFFFFF" d="M130.445,137.367c-0.071,0-0.146-0.006-0.219-0.016c-0.82-0.121-1.388-0.884-1.268-1.703l0.752-5.114
				c0.121-0.819,0.885-1.388,1.702-1.267c0.819,0.121,1.387,0.883,1.267,1.701l-0.752,5.115
				C131.818,136.831,131.178,137.367,130.445,137.367z"/>
		</g>
		<g>
			<path fill="#FFFFFF" d="M137.325,120.762c-0.384,0-0.769-0.146-1.062-0.439l-5.3-5.299l-4.694-0.414
				c-0.824-0.071-1.435-0.801-1.361-1.625c0.072-0.825,0.802-1.432,1.626-1.362l5.237,0.461c0.351,0.03,0.68,0.185,0.929,0.435
				l5.687,5.686c0.586,0.586,0.586,1.535,0,2.121C138.093,120.615,137.709,120.762,137.325,120.762z"/>
			<path fill="#FFFFFF" d="M131.438,115.273c-0.73,0-1.371-0.535-1.481-1.281l-0.752-5.114c-0.12-0.819,0.446-1.581,1.267-1.702
				c0.811-0.121,1.581,0.447,1.702,1.268l0.752,5.113c0.12,0.819-0.446,1.582-1.267,1.702
				C131.585,115.27,131.512,115.273,131.438,115.273z"/>
		</g>
		<g>
			<path fill="#FFFFFF" d="M149.443,137.212c-0.789,0-1.448-0.614-1.495-1.412l-0.265-4.506l-5.606-5.606
				c-0.586-0.586-0.586-1.535,0-2.121s1.534-0.586,2.121,0l6.01,6.011c0.26,0.26,0.415,0.604,0.437,0.973l0.299,5.075
				c0.049,0.827-0.582,1.537-1.409,1.585C149.503,137.211,149.475,137.212,149.443,137.212z"/>
			<path fill="#FFFFFF" d="M154.064,133.088c-0.071,0-0.146-0.005-0.219-0.016l-5.115-0.752c-0.82-0.121-1.388-0.883-1.268-1.702
				c0.121-0.82,0.891-1.39,1.702-1.267l5.114,0.752c0.82,0.121,1.388,0.883,1.268,1.701
				C155.438,132.553,154.797,133.088,154.064,133.088z"/>
		</g>
	</g>
	<g>
		<g>
			<path fill="#FFFFFF" d="M89.391,121.723c-0.127,0-0.258-0.017-0.388-0.051c-0.8-0.213-1.276-1.035-1.063-1.836l1.104-4.139
				c0.213-0.801,1.032-1.275,1.836-1.063c0.8,0.214,1.276,1.035,1.063,1.837l-1.104,4.139
				C90.66,121.279,90.055,121.723,89.391,121.723z"/>
			<path fill="#FFFFFF" d="M102.602,121.723c-0.129,0-0.259-0.016-0.388-0.051c-0.801-0.213-1.276-1.033-1.063-1.835l1.103-4.14
				c0.213-0.801,1.039-1.281,1.835-1.063c0.801,0.213,1.277,1.034,1.063,1.836l-1.102,4.139
				C103.87,121.279,103.264,121.723,102.602,121.723z"/>
			<path fill="#FFFFFF" d="M115.809,121.723c-0.127,0-0.258-0.017-0.388-0.051c-0.8-0.213-1.276-1.035-1.063-1.836l1.104-4.139
				c0.213-0.801,1.032-1.275,1.836-1.063c0.8,0.214,1.276,1.035,1.063,1.837l-1.104,4.139
				C117.078,121.279,116.473,121.723,115.809,121.723z"/>
			<path fill="#FFFFFF" d="M94.35,127.904c-0.129,0-0.259-0.016-0.388-0.051c-0.801-0.213-1.276-1.035-1.063-1.836l2.75-10.32
				c0.213-0.801,1.037-1.281,1.836-1.063c0.801,0.213,1.276,1.035,1.063,1.836l-2.75,10.319
				C95.618,127.462,95.012,127.904,94.35,127.904z"/>
			<path fill="#FFFFFF" d="M107.559,127.904c-0.129,0-0.259-0.016-0.388-0.051c-0.801-0.213-1.276-1.035-1.063-1.836l2.75-10.32
				c0.213-0.801,1.037-1.281,1.836-1.063c0.801,0.213,1.277,1.035,1.063,1.836l-2.75,10.319
				C108.827,127.462,108.221,127.904,107.559,127.904z"/>
		</g>
		<g>
			<path fill="#FFFFFF" d="M122.832,101.102l0.166-3.113c0.01-0.174,0.016-0.352,0.016-0.53c0-5.558-4.521-10.079-10.08-10.079
				c-1.478,0-2.902,0.313-4.238,0.934l-1.062,0.492l-0.735-0.91c-1.239-1.533-3.078-2.412-5.045-2.412
				c-0.263,0-0.543,0.021-0.883,0.067l-0.695-2.903c1.045-0.361,2.154-0.48,3.234-0.353c1.034-3.362,3.971-5.735,7.363-5.735
				c1.986,0,3.857,0.805,5.285,2.244c1.091-0.404,2.23-0.607,3.4-0.607c5.832,0,10.578,5.154,10.578,11.492
				c0,3.879-1.783,7.469-4.77,9.604L122.832,101.102z M112.934,84.378c6.248,0,11.486,4.403,12.775,10.271
				c0.917-1.422,1.428-3.146,1.428-4.963c0-4.683-3.398-8.492-7.578-8.492c-1.09,0-2.144,0.258-3.133,0.764l-1.136,0.581
				l-0.756-1.029c-0.911-1.239-2.245-1.95-3.661-1.95c-2.182,0-4.061,1.682-4.604,4.012c0.797,0.421,1.535,0.955,2.191,1.596
				C109.893,84.643,111.393,84.378,112.934,84.378z"/>
			<path fill="#FFFFFF" d="M100.354,113.432c-3.703,0-7.006-2.125-8.563-5.4c-5.45,0.271-9.907-4.105-9.907-9.477
				c0-5.229,4.257-9.486,9.486-9.486c0.476,0,0.946,0.037,1.415,0.106c1.201-3.911,4.847-6.694,9.066-6.694
				c2.494,0,4.847,0.967,6.608,2.685c1.431-0.522,2.931-0.786,4.472-0.786c7.211,0,13.08,5.867,13.08,13.079
				s-5.869,13.08-13.08,13.08c-1.695,0-3.379-0.332-4.939-0.968C106.223,111.98,103.407,113.432,100.354,113.432z M93.785,104.719
				l0.402,1.235c0.871,2.678,3.35,4.478,6.166,4.478c2.422,0,4.623-1.332,5.746-3.479l0.707-1.348l1.336,0.724
				c1.461,0.791,3.117,1.209,4.789,1.209c5.56,0,10.08-4.521,10.08-10.08c0-5.558-4.521-10.079-10.08-10.079
				c-1.477,0-2.902,0.313-4.236,0.934l-1.063,0.492l-0.734-0.91c-1.24-1.533-3.08-2.412-5.047-2.412
				c-3.271,0-6.039,2.447-6.436,5.69l-0.225,1.83l-1.746-0.591c-0.672-0.229-1.37-0.344-2.075-0.344
				c-3.576,0-6.486,2.91-6.486,6.486s2.91,6.486,6.486,6.486c0.364,0,0.746-0.034,1.134-0.102L93.785,104.719z"/>
		</g>
	</g>
	<g>
		<path fill="#FFFFFF" d="M26.472,74.886c-5.302,0-10-3.428-12.041-8.656C6.767,66.883,0.338,60.237,0.338,52.014
			c0-7.862,5.873-14.259,13.092-14.259c0.848,0,1.689,0.089,2.517,0.265c1.432-6.262,6.632-10.792,12.698-10.792
			c3.603,0,6.985,1.585,9.449,4.389c2.113-0.901,4.34-1.357,6.635-1.357c3.474,0,6.856,1.071,9.784,3.096l0.812,0.562l-0.194,0.968
			c-0.19,0.945-0.287,1.91-0.287,2.868c0,5.205,2.827,10.025,7.378,12.582l0.826,0.463l-0.063,0.945
			c-0.7,10.383-8.718,18.516-18.256,18.516c-2.545,0-5.068-0.582-7.381-1.694C34.932,72.5,30.885,74.886,26.472,74.886z
			 M16.502,62.848l0.386,1.304c1.367,4.626,5.219,7.734,9.584,7.734c3.74,0,7.156-2.295,8.916-5.99l0.708-1.486l1.414,0.843
			c2.205,1.313,4.701,2.008,7.219,2.008c7.691,0,14.206-6.437,15.179-14.815c-4.998-3.19-8.064-8.732-8.064-14.691
			c0-0.814,0.058-1.632,0.172-2.442c-4.174-2.516-9.344-2.712-13.669-0.501l-1.136,0.58l-0.756-1.028
			c-1.93-2.627-4.776-4.134-7.81-4.134c-5.084,0-9.388,4.241-10.011,9.864l-0.212,1.911l-1.802-0.67
			c-1.031-0.383-2.104-0.578-3.19-0.578c-5.564,0-10.092,5.051-10.092,11.259c0,6.842,5.509,12.307,11.828,11.09L16.502,62.848z"/>
		<g>
			<path fill="#FFFFFF" d="M69.271,55.183c-9.61,0-17.429-7.818-17.429-17.429c0-9.61,7.818-17.428,17.429-17.428
				c9.609,0,17.428,7.818,17.428,17.428S78.881,55.183,69.271,55.183z M69.271,23.326c-7.956,0-14.429,6.473-14.429,14.428
				c0,7.956,6.473,14.429,14.429,14.429c7.955,0,14.428-6.473,14.428-14.429S77.227,23.326,69.271,23.326z"/>
			<path fill="#FFFFFF" d="M67.5,68.5c-0.828,0-1.5-0.671-1.5-1.5v-9c0-0.829,0.672-1.5,1.5-1.5S69,57.171,69,58v9
				C69,67.829,68.328,68.5,67.5,68.5z"/>
			<path fill="#FFFFFF" d="M89.846,60.163c-0.384,0-0.768-0.146-1.061-0.439l-6.357-6.356c-0.586-0.585-0.586-1.535,0-2.121
				c0.586-0.586,1.535-0.586,2.121,0l6.357,6.356c0.586,0.585,0.586,1.535,0,2.121C90.613,60.017,90.229,60.163,89.846,60.163z"/>
			<path fill="#FFFFFF" d="M99,41H89c-0.828,0-1.5-0.671-1.5-1.5S88.172,38,89,38h10c0.828,0,1.5,0.671,1.5,1.5S99.828,41,99,41z"/>
			<path fill="#FFFFFF" d="M83.824,25.036c-0.384,0-0.768-0.146-1.061-0.439c-0.586-0.585-0.586-1.536,0-2.121l6.356-6.356
				c0.586-0.586,1.535-0.586,2.121,0c0.586,0.585,0.586,1.536,0,2.121l-6.356,6.356C84.592,24.889,84.208,25.036,83.824,25.036z"/>
			<path fill="#FFFFFF" d="M67.5,19.5c-0.828,0-1.5-0.671-1.5-1.5V8c0-0.829,0.672-1.5,1.5-1.5S69,7.171,69,8v10
				C69,18.829,68.328,19.5,67.5,19.5z"/>
			<path fill="#FFFFFF" d="M55.053,24.701c-0.384,0-0.768-0.146-1.061-0.439l-6.357-6.356c-0.586-0.585-0.586-1.535,0-2.121
				c0.586-0.586,1.535-0.586,2.121,0l6.357,6.356c0.586,0.585,0.586,1.535,0,2.121C55.82,24.555,55.437,24.701,55.053,24.701z"/>
			<path fill="#FFFFFF" d="M49,41h-9c-0.828,0-1.5-0.671-1.5-1.5S39.172,38,40,38h9c0.828,0,1.5,0.671,1.5,1.5S49.828,41,49,41z"/>
			<path fill="#FFFFFF" d="M48.361,59.828c-0.384,0-0.768-0.146-1.061-0.439c-0.586-0.586-0.586-1.536,0-2.121l6.356-6.356
				c0.586-0.586,1.535-0.586,2.121,0s0.586,1.536,0,2.121l-6.356,6.356C49.129,59.682,48.745,59.828,48.361,59.828z"/>
		</g>
	</g>
</g>
</svg>
