<?xml version="1.0" encoding="utf-8"?>
<!-- Generator: Adobe Illustrator 16.0.0, SVG Export Plug-In . SVG Version: 6.00 Build 0)  -->
<!DOCTYPE svg PUBLIC "-//W3C//DTD SVG 1.1//EN" "http://www.w3.org/Graphics/SVG/1.1/DTD/svg11.dtd">
<svg version="1.1" id="Layer_1" xmlns="http://www.w3.org/2000/svg" xmlns:xlink="http://www.w3.org/1999/xlink" x="0px" y="0px"
	 width="170px" height="150px" viewBox="0 0 170 150" enable-background="new 0 0 170 150" xml:space="preserve">
<g>
	<g>
		<path fill="#FFFFFF" d="M80.121,22.159c-0.384,0-0.768-0.146-1.061-0.439c-0.586-0.585-0.586-1.536,0-2.121l7.358-7.358
			c0.586-0.586,1.535-0.586,2.121,0c0.586,0.585,0.586,1.536,0,2.121l-7.358,7.358C80.889,22.013,80.505,22.159,80.121,22.159z"/>
		<path fill="#FFFFFF" d="M61.5,15.5c-0.828,0-1.5-0.671-1.5-1.5V4c0-0.829,0.672-1.5,1.5-1.5S63,3.171,63,4v10
			C63,14.829,62.328,15.5,61.5,15.5z"/>
		<path fill="#FFFFFF" d="M46.815,21.771c-0.384,0-0.768-0.146-1.061-0.439l-7.357-7.357c-0.586-0.585-0.586-1.536,0-2.121
			c0.586-0.586,1.535-0.586,2.121,0l7.357,7.357c0.586,0.585,0.586,1.536,0,2.121C47.583,21.625,47.199,21.771,46.815,21.771z"/>
		<path fill="#FFFFFF" d="M40,40H29c-0.828,0-1.5-0.671-1.5-1.5S28.172,37,29,37h11c0.828,0,1.5,0.671,1.5,1.5S40.828,40,40,40z"/>
		<path fill="#FFFFFF" d="M39.071,62.435c-0.384,0-0.768-0.146-1.061-0.439c-0.586-0.585-0.586-1.535,0-2.121l7.356-7.357
			c0.586-0.586,1.535-0.586,2.121,0c0.586,0.585,0.586,1.535,0,2.121l-7.356,7.357C39.839,62.288,39.455,62.435,39.071,62.435z"/>
		<path fill="#FFFFFF" d="M59.553,56.764l-1.459-0.392c-8.688-2.333-14.757-10.25-14.757-19.254
			c0-10.994,8.944-19.938,19.938-19.938c9.956,0,18.45,7.435,19.759,17.294l0.125,0.946l-0.803,0.515
			c-3.136,2.009-5.271,5.574-5.709,9.536l-0.212,1.91l-1.802-0.669c-1.18-0.438-2.406-0.661-3.646-0.661
			c-5.088,0-9.634,3.804-11.054,9.251L59.553,56.764z M63.275,20.18c-9.34,0-16.938,7.599-16.938,16.938
			c0,7.166,4.523,13.521,11.162,15.925c2.17-5.956,7.523-9.993,13.488-9.993c1,0,1.993,0.112,2.968,0.334
			c0.838-3.802,2.976-7.188,5.962-9.41C78.43,26.05,71.43,20.18,63.275,20.18z"/>
		<path fill="#FFFFFF" d="M85.633,84.381c-5.92,0-11.163-3.859-13.4-9.733c-8.552,0.825-15.764-6.592-15.764-15.769
			c0-8.728,6.513-15.829,14.519-15.829c0.999,0,1.991,0.112,2.965,0.333c1.531-7.042,7.339-12.155,14.122-12.155
			c4.034,0,7.821,1.795,10.56,4.967c2.389-1.038,4.906-1.563,7.504-1.563c11.235,0,20.377,9.993,20.377,22.277
			c0,12.283-9.142,22.276-20.377,22.276c-2.887,0-5.746-0.674-8.361-1.957C95.107,81.678,90.577,84.381,85.633,84.381z
			 M74.307,71.258l0.386,1.304c1.56,5.275,5.956,8.819,10.94,8.819c4.271,0,8.174-2.617,10.18-6.832l0.709-1.486l1.414,0.842
			c2.504,1.492,5.342,2.281,8.201,2.281c9.582,0,17.379-8.647,17.379-19.276c0-10.629-7.797-19.277-17.379-19.277
			c-2.525,0-4.966,0.593-7.253,1.762l-1.137,0.581l-0.755-1.029c-2.201-2.998-5.451-4.717-8.918-4.717
			c-5.805,0-10.717,4.833-11.427,11.242l-0.212,1.91l-1.802-0.669c-1.18-0.438-2.406-0.661-3.646-0.661
			c-6.352,0-11.519,5.755-11.519,12.829c-0.001,7.793,6.263,14.021,13.502,12.635L74.307,71.258z"/>
	</g>
	<g>
		<path fill="#FFFFFF" d="M91.975,110.954c-6.336,0-11.493-5.155-11.493-11.491s5.157-11.49,11.493-11.49
			c6.338,0,11.492,5.154,11.492,11.49S98.313,110.954,91.975,110.954z M91.975,90.973c-4.684,0-8.493,3.809-8.493,8.49
			s3.81,8.491,8.493,8.491c4.684,0,8.492-3.81,8.492-8.491S96.657,90.973,91.975,90.973z"/>
		<path fill="#FFFFFF" d="M91.975,148.932L71.806,114h40.336L91.975,148.932z M77.003,117l14.972,25.932L106.945,117H77.003z"/>
	</g>
</g>
</svg>
