<?xml version="1.0" encoding="utf-8"?>
<!-- Generator: Adobe Illustrator 16.0.0, SVG Export Plug-In . SVG Version: 6.00 Build 0)  -->
<!DOCTYPE svg PUBLIC "-//W3C//DTD SVG 1.1//EN" "http://www.w3.org/Graphics/SVG/1.1/DTD/svg11.dtd">
<svg version="1.1" id="Layer_1" xmlns="http://www.w3.org/2000/svg" xmlns:xlink="http://www.w3.org/1999/xlink" x="0px" y="0px"
	 width="170px" height="150px" viewBox="0 0 170 150" enable-background="new 0 0 170 150" xml:space="preserve">
<g>
	<path fill="#FFFFFF" d="M80.532,145.432c-0.196,0-0.396-0.037-0.586-0.119c-0.679-0.289-1.047-1.026-0.869-1.742l7.843-31.551
		l-12.248-0.267c-0.501-0.011-0.963-0.271-1.232-0.692c-0.27-0.424-0.311-0.951-0.108-1.41l14.57-33.182
		c0.162-0.371,0.468-0.66,0.846-0.802c0.378-0.144,0.799-0.126,1.163,0.045l11.228,5.247c0.721,0.337,1.053,1.18,0.758,1.917
		l-6.33,15.813l12.408,0.018c0.545,0.001,1.047,0.298,1.312,0.775c0.264,0.477,0.247,1.06-0.043,1.521L81.805,144.73
		C81.522,145.178,81.036,145.432,80.532,145.432z M76.979,108.803l11.88,0.258c0.457,0.01,0.884,0.227,1.16,0.588
		c0.276,0.363,0.373,0.832,0.265,1.273l-6.03,24.258l21.007-33.479l-11.913-0.018c-0.498,0-0.962-0.248-1.24-0.66
		s-0.334-0.936-0.149-1.396l6.626-16.551l-8.552-3.997L76.979,108.803z"/>
	<g>
		<path fill="#FFFFFF" d="M127.445,56.109l0.156-3.102c0.023-0.458,0.037-0.919,0.037-1.384c0-14.406-11.721-26.127-26.127-26.127
			c-3.826,0-7.521,0.814-10.98,2.42l-1.063,0.493l-0.735-0.911c-3.354-4.149-8.332-6.528-13.654-6.528
			c-0.72,0-1.477,0.058-2.384,0.182l-0.696-2.903c2.763-0.961,5.747-1.104,8.567-0.418C82.225,9.74,88.85,3.839,96.598,3.839
			c4.617,0,8.947,2.079,12.055,5.746c2.758-1.223,5.668-1.841,8.67-1.841c12.77,0,23.158,11.367,23.158,25.339
			c0,8.585-3.929,16.518-10.508,21.221L127.445,56.109z M101.514,22.496c15.479,0,28.178,12.14,29.075,27.399
			c4.36-4.214,6.894-10.295,6.894-16.813c0-12.318-9.043-22.339-20.159-22.339c-2.933,0-5.767,0.688-8.423,2.046l-1.137,0.581
			l-0.756-1.029c-2.566-3.497-6.359-5.502-10.408-5.502c-6.695,0-12.374,5.502-13.301,12.84c2.641,1.153,5.034,2.864,7.016,5.056
			C93.868,23.249,97.63,22.496,101.514,22.496z"/>
		<path fill="#FFFFFF" d="M71.504,87.656c-8.5,0-16.027-5.172-19.113-12.995c-0.778,0.089-1.554,0.134-2.318,0.134
			c-11.334,0-20.555-9.22-20.555-20.553s9.221-20.553,20.555-20.553c1.655,0,3.296,0.199,4.896,0.592
			c1.972-9.413,10.327-16.311,20.109-16.311c5.848,0,11.337,2.451,15.236,6.764c3.554-1.486,7.314-2.238,11.197-2.238
			c16.062,0,29.127,13.066,29.127,29.127c0,16.06-13.065,29.126-29.127,29.126c-4.336,0-8.638-0.976-12.531-2.83
			C85.244,83.961,78.676,87.656,71.504,87.656z M54.411,71.3l0.403,1.237c2.359,7.249,9.067,12.119,16.689,12.119
			c6.549,0,12.509-3.608,15.556-9.417l0.705-1.346l1.336,0.723c3.791,2.049,8.082,3.133,12.412,3.133
			c14.406,0,26.127-11.72,26.127-26.126c0-14.406-11.721-26.127-26.127-26.127c-3.826,0-7.521,0.814-10.98,2.42l-1.063,0.493
			l-0.735-0.911c-3.354-4.149-8.332-6.528-13.654-6.528c-8.858,0-16.346,6.622-17.417,15.404l-0.224,1.83l-1.746-0.59
			c-1.815-0.613-3.706-0.924-5.619-0.924c-9.68,0-17.555,7.874-17.555,17.553c0,9.679,7.875,17.553,17.555,17.553
			c1.003,0,2.031-0.091,3.057-0.271L54.411,71.3z"/>
	</g>
</g>
</svg>
