<?xml version="1.0" encoding="utf-8"?>
<!-- Generator: Adobe Illustrator 16.0.0, SVG Export Plug-In . SVG Version: 6.00 Build 0)  -->
<!DOCTYPE svg PUBLIC "-//W3C//DTD SVG 1.1//EN" "http://www.w3.org/Graphics/SVG/1.1/DTD/svg11.dtd">
<svg version="1.1" id="Layer_1" xmlns="http://www.w3.org/2000/svg" xmlns:xlink="http://www.w3.org/1999/xlink" x="0px" y="0px"
	 width="170px" height="150px" viewBox="0 0 170 150" enable-background="new 0 0 170 150" xml:space="preserve">
<g>
	<g>
		<path fill="#FFFFFF" d="M144,111H27c-0.829,0-1.5-0.672-1.5-1.5s0.671-1.5,1.5-1.5h117c0.829,0,1.5,0.672,1.5,1.5
			S144.829,111,144,111z"/>
		<path fill="#FFFFFF" d="M144,126h-23c-0.829,0-1.5-0.672-1.5-1.5s0.671-1.5,1.5-1.5h23c0.829,0,1.5,0.672,1.5,1.5
			S144.829,126,144,126z"/>
		<path fill="#FFFFFF" d="M144,141h-25c-0.829,0-1.5-0.672-1.5-1.5s0.671-1.5,1.5-1.5h25c0.829,0,1.5,0.672,1.5,1.5
			S144.829,141,144,141z"/>
		<path fill="#FFFFFF" d="M86,126H27c-0.829,0-1.5-0.672-1.5-1.5s0.671-1.5,1.5-1.5h59c0.829,0,1.5,0.672,1.5,1.5S86.829,126,86,126
			z"/>
		<path fill="#FFFFFF" d="M100,141H27c-0.829,0-1.5-0.672-1.5-1.5s0.671-1.5,1.5-1.5h73c0.829,0,1.5,0.672,1.5,1.5
			S100.829,141,100,141z"/>
	</g>
	<path fill="#FFFFFF" d="M74.297,95.652c-10.636,0-20.042-6.53-23.794-16.381c-1.065,0.135-2.127,0.201-3.171,0.201
		c-14.044,0-25.47-11.425-25.47-25.469s11.426-25.47,25.47-25.47c2.186,0,4.352,0.279,6.46,0.833
		c2.291-11.864,12.742-20.607,25-20.607c7.337,0,14.222,3.115,19.063,8.587c4.5-1.921,9.271-2.894,14.193-2.894
		c19.991,0,36.256,16.265,36.256,36.256s-16.265,36.256-36.256,36.256c-5.515,0-10.986-1.268-15.915-3.674
		C91.536,90.953,83.3,95.652,74.297,95.652z M52.529,75.902l0.402,1.238c3.019,9.277,11.605,15.512,21.366,15.512
		c8.382,0,16.01-4.618,19.908-12.053l0.706-1.347l1.337,0.724c4.824,2.608,10.288,3.987,15.801,3.987
		c18.338,0,33.256-14.919,33.256-33.256s-14.918-33.256-33.256-33.256c-4.867,0-9.572,1.037-13.979,3.082l-1.063,0.493l-0.736-0.91
		c-4.293-5.312-10.666-8.358-17.479-8.358c-11.338,0-20.923,8.478-22.296,19.719l-0.223,1.829l-1.745-0.59
		c-2.326-0.784-4.747-1.183-7.195-1.183c-12.39,0-22.47,10.08-22.47,22.47s10.08,22.469,22.47,22.469
		c1.282,0,2.599-0.115,3.915-0.347L52.529,75.902z"/>
</g>
</svg>
