<?xml version="1.0" encoding="utf-8"?>
<!-- Generator: Adobe Illustrator 16.0.0, SVG Export Plug-In . SVG Version: 6.00 Build 0)  -->
<!DOCTYPE svg PUBLIC "-//W3C//DTD SVG 1.1//EN" "http://www.w3.org/Graphics/SVG/1.1/DTD/svg11.dtd">
<svg version="1.1" id="Layer_1" xmlns="http://www.w3.org/2000/svg" xmlns:xlink="http://www.w3.org/1999/xlink" x="0px" y="0px"
	 width="170px" height="150px" viewBox="0 0 170 150" enable-background="new 0 0 170 150" xml:space="preserve">
<g>
	<path fill="#FFFFFF" d="M86.896,110H17c-0.829,0-1.5-0.672-1.5-1.5s0.671-1.5,1.5-1.5h69.896c6.41,0,12.033-6.164,12.033-13.189
		c0-6.904-5.818-13.191-12.209-13.191c-6.56,0-12.534,6.117-12.534,12.835c0,0.827-0.671,1.5-1.5,1.5s-1.5-0.673-1.5-1.5
		c0-8.437,7.259-15.835,15.534-15.835c8.103,0,15.209,7.566,15.209,16.191S94.904,110,86.896,110z"/>
	<path fill="#FFFFFF" d="M136.939,133H41c-0.829,0-1.5-0.672-1.5-1.5s0.671-1.5,1.5-1.5h95.939c8.447,0,15.857-8.081,15.857-17.293
		s-7.553-17.293-16.164-17.293c-8.855,0-16.624,7.882-16.624,16.867c0,0.828-0.671,1.5-1.5,1.5s-1.5-0.672-1.5-1.5
		c0-10.584,9.171-19.867,19.624-19.867c10.208,0,19.164,9.482,19.164,20.293C155.798,123.707,147.162,133,136.939,133z"/>
	<path fill="#FFFFFF" stroke="#000000" stroke-width="3" stroke-linecap="round" stroke-miterlimit="10" d="M95.598,82.757"/>
	<g>
		<path fill="#FFFFFF" d="M19.417,63.002c3.857,2.851,8.091,4.275,12.702,4.275c6.26,0,9.39-2.109,9.39-6.33
			c0-1.816-0.685-3.318-2.054-4.506c-1.37-1.188-4.066-2.536-8.091-4.046c-4.639-1.844-7.776-3.716-9.411-5.617
			c-1.635-1.9-2.453-4.303-2.453-7.21c0-3.745,1.621-6.791,4.863-9.139c3.242-2.348,7.196-3.521,11.863-3.521
			c3.745,0,7.126,0.657,10.145,1.971v6.916c-3.27-2.123-7.001-3.186-11.193-3.186c-2.739,0-4.891,0.607-6.456,1.823
			c-1.565,1.216-2.348,2.732-2.348,4.549c0,1.956,0.58,3.452,1.74,4.485c1.159,1.034,3.682,2.32,7.566,3.856
			c5.254,2.041,8.678,4.039,10.271,5.995c1.593,1.956,2.39,4.29,2.39,7c0,3.913-1.614,7.009-4.842,9.286s-7.357,3.416-12.388,3.416
			c-4.555,0-8.454-0.895-11.696-2.683v-7.334H19.417z"/>
	</g>
	<path fill="#FFFFFF" d="M30,133H17c-0.829,0-1.5-0.672-1.5-1.5s0.671-1.5,1.5-1.5h13c0.829,0,1.5,0.672,1.5,1.5S30.829,133,30,133z
		"/>
</g>
</svg>
