<?xml version="1.0" encoding="utf-8"?>
<!-- Generator: Adobe Illustrator 16.0.0, SVG Export Plug-In . SVG Version: 6.00 Build 0)  -->
<!DOCTYPE svg PUBLIC "-//W3C//DTD SVG 1.1//EN" "http://www.w3.org/Graphics/SVG/1.1/DTD/svg11.dtd">
<svg version="1.1" id="Layer_1" xmlns="http://www.w3.org/2000/svg" xmlns:xlink="http://www.w3.org/1999/xlink" x="0px" y="0px"
	 width="170px" height="150px" viewBox="0 0 170 150" enable-background="new 0 0 170 150" xml:space="preserve">
<g>
	<path fill="#FFFFFF" d="M85,95.627c-11.558,0-20.961-9.402-20.961-20.96c0-11.558,9.403-20.96,20.961-20.96
		c11.559,0,20.961,9.402,20.961,20.96C105.961,86.225,96.559,95.627,85,95.627z M85,56.707c-9.904,0-17.961,8.057-17.961,17.96
		c0,9.903,8.057,17.96,17.961,17.96c9.904,0,17.961-8.057,17.961-17.96C102.961,64.764,94.904,56.707,85,56.707z"/>
	<path fill="#FFFFFF" d="M48.623,141c-0.137,0-0.273,0-0.411,0c-0.829,0-1.497-0.781-1.493-1.609c0.004-0.826,0.675-1.543,1.5-1.543
		c0.126,0.021,0.269-0.025,0.403-0.025c14.953,0,26.297-4.188,33.722-12.424c11.52-12.779,9.668-31.164,9.647-31.35
		c-0.091-0.822,0.505-1.566,1.329-1.656c0.824-0.092,1.563,0.504,1.654,1.328c0.088,0.807,2.008,20.01-10.401,33.775
		C76.555,136.391,64.46,141,48.623,141z"/>
	<path fill="#FFFFFF" d="M46.888,101.469c-2.508,0-5.107-0.242-7.764-0.809C27.311,98.143,17.289,89.803,9.337,75.87
		c-0.411-0.719-0.16-1.635,0.559-2.046c0.721-0.41,1.636-0.16,2.046,0.56c7.51,13.156,16.866,21.011,27.807,23.343
		c16.825,3.586,31.816-7.207,31.966-7.315c0.668-0.49,1.607-0.345,2.096,0.323c0.49,0.668,0.345,1.606-0.324,2.097
		C72.929,93.238,61.495,101.469,46.888,101.469z"/>
	<path fill="#FFFFFF" d="M64.119,73.906c-0.202,0-0.407-0.041-0.604-0.127c-0.742-0.327-18.247-8.216-23.964-25.847
		c-3.726-11.489-1.514-24.338,6.575-38.189c0.418-0.716,1.336-0.959,2.052-0.538c0.715,0.417,0.957,1.336,0.539,2.052
		c-7.639,13.081-9.763,25.109-6.312,35.751c5.307,16.366,22.151,23.951,22.32,24.025c0.758,0.335,1.102,1.22,0.768,1.978
		C65.246,73.572,64.696,73.906,64.119,73.906z"/>
	<path fill="#FFFFFF" d="M76.515,56.955c-0.756,0-1.406-0.569-1.489-1.338c-0.088-0.807-2.008-19.679,10.403-33.445
		C93.445,13.277,105.541,9,121.377,9c0.137,0,0.273,0,0.411,0c0.829,0,1.497,0.679,1.493,1.508c-0.004,0.825-0.676,1.492-1.5,1.492
		c-0.148,0-0.27,0-0.403,0c-14.94,0-26.278,3.937-33.704,12.16c-11.513,12.751-9.686,31.064-9.667,31.25
		c0.088,0.822-0.507,1.504-1.33,1.593C76.623,57.01,76.568,56.955,76.515,56.955z"/>
	<path fill="#FFFFFF" d="M159.361,75.707c-0.521,0-1.026-0.271-1.303-0.757c-7.511-13.156-16.865-21.009-27.807-23.342
		c-16.825-3.587-31.818,7.206-31.967,7.315c-0.668,0.49-1.605,0.345-2.098-0.324c-0.488-0.668-0.344-1.606,0.324-2.096
		c0.654-0.479,16.232-11.694,34.365-7.829c11.813,2.518,21.834,10.858,29.786,24.789c0.411,0.719,0.16,1.635-0.56,2.046
		C159.869,75.645,159.613,75.707,159.361,75.707z"/>
	<path fill="#FFFFFF" d="M122.577,140.334c-0.257,0-0.517-0.064-0.755-0.205c-0.715-0.417-0.957-1.336-0.539-2.052
		c7.633-13.07,9.759-25.091,6.32-35.726c-5.287-16.347-22.16-23.978-22.33-24.053c-0.756-0.335-1.1-1.221-0.766-1.979
		c0.335-0.758,1.221-1.097,1.977-0.768c0.742,0.327,18.246,8.217,23.964,25.846c3.726,11.49,1.514,24.34-6.575,38.19
		C123.596,140.068,123.092,140.334,122.577,140.334z"/>
</g>
</svg>
