<?xml version="1.0" encoding="utf-8"?>
<!-- Generator: Adobe Illustrator 16.0.0, SVG Export Plug-In . SVG Version: 6.00 Build 0)  -->
<!DOCTYPE svg PUBLIC "-//W3C//DTD SVG 1.1//EN" "http://www.w3.org/Graphics/SVG/1.1/DTD/svg11.dtd">
<svg version="1.1" id="Layer_1" xmlns="http://www.w3.org/2000/svg" xmlns:xlink="http://www.w3.org/1999/xlink" x="0px" y="0px"
	 width="2160px" height="1150px" viewBox="0 0 2160 1150" enable-background="new 0 0 2160 1150" xml:space="preserve">
<polygon fill="none" stroke="#EE1D3A" stroke-miterlimit="10" points="1442.5,101 1271.5,98.5 1246,98.5 1001.5,107 452,110 
	331.5,90.5 62.5,0 27,25 25.5,371 23,764 23,1095.5 23,1136.5 297,1136.5 816.667,1134.334 1000.667,1134.334 1076,1136.5 
	1258,1139.666 1459.334,1142.334 1813,1143.666 1813,872 2027,874 2036.334,593.666 1815,402.667 1719.666,319.667 1617,236 "/>
<path fill="#959B91" stroke="#000000" stroke-miterlimit="10" d="M1813,1108.5c0,0-31.25-13.5-36.75-22.5l6.75-232.75
	c0,0,0-12,7.75-14.5S1816,825.5,1816,825.5l1.25-30c0,0-12.5,13.5-31.5,13.5L1579,811c0,0-18.828-0.723-24.895-14.768L1554,770
	l2.667-494.667l-30.333-2l-2.5,824.667c0-9.353,0-19.81,0-24.166c0,13.333-9.167,17.332-9.167,17.332l-199.001-0.666H1289
	c-0.898-0.163-2.26-1.02-3.8-2.217L1285,1082l4-814.333h-31.666c0,0-9.334,20.667-24,20.667c-14.668,0-165.667,0-165.667,0
	S1050,287,1029.667,308l-15.333,17.333c0,0-6.667,1.917-18,1.917H776.75c0,0-244.5,0-247.75,0s-28.25-1.5-36-14.5s-34.5-25-34.5-25
	h-9c0,0-44.25,0-55.5,0s-24.187-28.652-24.187-28.652c-0.25-0.2-0.482-0.483-0.706-0.804l0.559-82.627h-38.333v107
	c0,0-23.667,44-24.667,58l-2.333,286L270,734.666V756H87v46.334L261,801l5.667,8L266,1026.667c0,0-2.667,53.333-35,53
	s-130.333,0.001-130.333,0.001s-45.667-0.335-54,34.332v18l66,1.667c0,0-2.333-23.334,15-23.667s20.333-1.334,20.333-1.334
	l115.667-2l401-0.666l539.333,1v-0.263c1.646,0.354,3.102,0.597,4,0.597c3.334,0,18.667-1,27.334,0c8.666,1,39.666,5,44,6
	c0.811,0.187,1.527,0.287,2.195,0.354c2.303,1.114,3.805,1.813,3.805,1.813h238.5h44.5l164.416-1.5c0,0,63,3.75,84.5,18.75v4.25
	h27.5v-4.75H1890v-23.75H1813z M1200.334,1082.334H613L368.333,1082c0,0-71.334,0-64.667-42.666l1-304.334l35.667-105.666
	L341.667,342c0,0,3.417-14.661,19.983-17.99c14.748,0.046,76.879,0.24,88.1,0.24c12.75,0,19,21.5,19,21.5l-2.5,279.75l44,18.75
	c0,0,0.75-261.75,0.75-268.25s15-12.25,15-12.25s449,1,458.75,1s17.5,1.5,17.5,1.5v-0.035c1.843,0.933,4.091,1.994,6.75,3.119
	c0,0,14,9,14.333,12.667s0,238.334,0,238.334h37v-284c0,0,4.667-11.667,11.667-11.667s175.667,2,175.667,2S1258,329.333,1258,337
	s-3.334,706.666-3.334,706.666S1255,1080,1200.334,1082.334z M1746,1079.5c0,0-4.25,12.25-9,12.25c-4.125,0-134.004,0-168.11,0
	c-4.211-0.967-16.224-5.579-16.224-26.75l1.656-210.955c2.371-6.155,7.428-13.155,18.178-13.295l175-2l6.5,7.75L1746,1079.5z"/>
<rect x="86.5" y="167" fill="#5585C5" stroke="#000000" stroke-miterlimit="10" width="75.833" height="118.5"/>
<polygon fill="#1CB686" stroke="#020202" stroke-miterlimit="10" points="101.25,38.62 77.25,38.62 52.667,38.62 36.917,38.62 
	36.917,147 77.25,147 77.25,77.25 101.25,77.25 "/>
<rect x="29.167" y="171.667" fill="#5585C5" stroke="#000000" stroke-miterlimit="10" width="15.5" height="32.833"/>
<rect x="169.167" y="324.667" fill="#FFFFFF" stroke="#000000" stroke-miterlimit="10" width="47.167" height="48.333"/>
<rect x="36.5" y="433.993" fill="#304969" stroke="#000000" stroke-miterlimit="10" width="37.833" height="47.007"/>
<rect x="347.272" y="707.996" fill="#304969" stroke="#000000" stroke-miterlimit="10" width="432.863" height="84.004"/>
<rect x="780.135" y="707.996" fill="#304969" stroke="#000000" stroke-miterlimit="10" width="432.863" height="84.004"/>
<rect x="532.33" y="979.332" fill="#304969" stroke="#000000" stroke-miterlimit="10" width="247.805" height="72.002"/>
<rect x="735.5" y="1054.291" fill="#1CB686" stroke="#020202" stroke-miterlimit="10" width="14.385" height="7.334"/>
<rect x="39.474" y="1016.416" fill="#1CB686" stroke="#020202" stroke-miterlimit="10" width="18.859" height="8.918"/>
<rect x="25.132" y="1018.328" fill="#1CB686" stroke="#020202" stroke-miterlimit="10" width="9.43" height="14.95"/>
<rect x="25.132" y="1034.992" fill="#1CB686" stroke="#020202" stroke-miterlimit="10" width="9.43" height="23.624"/>
<rect x="25.132" y="1060.125" fill="#1CB686" stroke="#020202" stroke-miterlimit="10" width="9.43" height="19.73"/>
<rect x="26.5" y="1090.75" fill="#304969" stroke="#000000" stroke-miterlimit="10" width="8.062" height="30.865"/>
<rect x="24.5" y="1121.568" fill="#304969" stroke="#000000" stroke-miterlimit="10" width="13.417" height="11.516"/>
<rect x="122.833" y="1119.9" fill="#304969" stroke="#000000" stroke-miterlimit="10" width="9.833" height="11.516"/>
<rect x="33.167" y="999.567" fill="#304969" stroke="#000000" stroke-miterlimit="10" width="23.333" height="11.516"/>
<rect x="25.132" y="982.4" fill="#304969" stroke="#000000" stroke-miterlimit="10" width="29.535" height="11.516"/>
<rect x="31.333" y="965.234" fill="#304969" stroke="#000000" stroke-miterlimit="10" width="23.333" height="11.516"/>
<rect x="31.333" y="949.166" fill="#304969" stroke="#000000" stroke-miterlimit="10" width="23.333" height="10.417"/>
<rect x="31.333" y="932.166" fill="#304969" stroke="#000000" stroke-miterlimit="10" width="23.333" height="10.417"/>
<rect x="31.333" y="915.333" fill="#304969" stroke="#000000" stroke-miterlimit="10" width="23.333" height="10.417"/>
<rect x="39.5" y="889.166" fill="#304969" stroke="#000000" stroke-miterlimit="10" width="32.833" height="17.417"/>
<rect x="41.5" y="861.334" fill="#304969" stroke="#000000" stroke-miterlimit="10" width="30.833" height="14.666"/>
<rect x="780.135" y="979.332" fill="#304969" stroke="#000000" stroke-miterlimit="10" width="432.863" height="72.002"/>
<rect x="347.272" y="792" fill="#5585C5" stroke="#000000" stroke-miterlimit="10" width="432.863" height="99.999"/>
<rect x="780.135" y="792" fill="#5585C5" stroke="#000000" stroke-miterlimit="10" width="432.863" height="99.999"/>
<rect x="347.272" y="891.999" fill="#5585C5" stroke="#000000" stroke-miterlimit="10" width="432.863" height="87.333"/>
<polygon fill="#1CB686" stroke="#020202" stroke-miterlimit="10" points="465.333,1026.875 456,1026.875 456,1001.084 
	337.938,1001.084 337.938,1009.506 331.646,1009.506 331.646,1015.333 337.938,1015.333 337.938,1052.667 456,1052.667 
	456,1046.549 465.333,1046.549 "/>
<rect x="780.135" y="891.999" fill="#5585C5" stroke="#000000" stroke-miterlimit="10" width="432.863" height="87.333"/>
<rect x="47.667" y="413.082" fill="#5585C5" stroke="#000000" stroke-miterlimit="10" width="36.833" height="7.165"/>
<rect x="47.667" y="285.5" fill="#5585C5" stroke="#000000" stroke-miterlimit="10" width="36.833" height="6.5"/>
<rect x="84.5" y="413.082" fill="#304969" stroke="#000000" stroke-miterlimit="10" width="81.5" height="7.165"/>
<rect x="84.5" y="285.167" fill="#304969" stroke="#000000" stroke-miterlimit="10" width="81.5" height="7.165"/>
<rect x="28.333" y="208.667" fill="#304969" stroke="#000000" stroke-miterlimit="10" width="6.898" height="29.333"/>
<rect x="28.333" y="238" fill="#304969" stroke="#000000" stroke-miterlimit="10" width="6.898" height="29.333"/>
<rect x="54.313" y="273.767" fill="#304969" stroke="#000000" stroke-miterlimit="10" width="14.883" height="6.999"/>
<rect x="47.667" y="381.934" fill="#304969" stroke="#000000" stroke-miterlimit="10" width="9.833" height="10.566"/>
<rect x="54.313" y="322.5" fill="#304969" stroke="#000000" stroke-miterlimit="10" width="11.77" height="4.599"/>
<rect x="59.647" y="216.335" fill="#304969" stroke="#000000" stroke-miterlimit="10" width="6.436" height="14.165"/>
<rect x="419.392" y="123" fill="#304969" stroke="#000000" stroke-miterlimit="10" width="21.108" height="24.75"/>
<rect x="272.893" y="79.625" fill="#304969" stroke="#000000" stroke-miterlimit="10" width="7.532" height="8.831"/>
<rect x="734.889" y="122.987" transform="matrix(1 0.0098 -0.0098 1 1.2885 -7.263)" fill="#304969" stroke="#000000" stroke-miterlimit="10" width="17.483" height="10.385"/>
<rect x="692.492" y="126.487" transform="matrix(1 0.0098 -0.0098 1 1.3488 -6.8483)" fill="none" stroke="#FBCBCC" stroke-miterlimit="10" width="17.483" height="16.134"/>
<rect x="767.402" y="117.556" transform="matrix(1 0.0098 -0.0098 1 1.22 -7.6375)" fill="#304969" stroke="#000000" stroke-miterlimit="10" width="29.022" height="6.87"/>
<rect x="607.892" y="119.333" fill="#1CB686" stroke="#020202" stroke-miterlimit="10" width="27.608" height="28.417"/>
<rect x="1034.758" y="114.43" fill="#1CB686" stroke="#020202" stroke-miterlimit="10" width="19.85" height="10.478"/>
<rect x="1165.757" y="112.2" fill="#304969" stroke="#000000" stroke-miterlimit="10" width="14.673" height="8.628"/>
<polygon fill="#304969" stroke="#000000" stroke-miterlimit="10" points="1158.5,116.514 1158.5,117.25 1150.125,117.25 
	1150.125,120.828 1158.5,120.828 1165.055,120.828 1165.055,116.514 "/>
<rect x="1184.757" y="112.2" fill="#304969" stroke="#000000" stroke-miterlimit="10" width="29.577" height="8.628"/>
<rect x="1228.924" y="101.866" fill="#304969" stroke="#000000" stroke-miterlimit="10" width="8.91" height="8.628"/>
<rect x="1361.591" y="106.181" fill="#304969" stroke="#000000" stroke-miterlimit="10" width="5.576" height="8.628"/>
<rect x="1398.375" y="154.681" fill="#304969" stroke="#000000" stroke-miterlimit="10" width="4.625" height="20.986"/>
<rect x="1415.375" y="187.25" fill="#304969" stroke="#000000" stroke-miterlimit="10" width="21.125" height="6.75"/>
<rect x="1476.125" y="191.25" fill="#304969" stroke="#000000" stroke-miterlimit="10" width="15" height="7.375"/>
<rect x="441.726" y="117.333" fill="#304969" stroke="#000000" stroke-miterlimit="10" width="13.441" height="9.833"/>
<rect x="427.059" y="118.084" fill="#304969" stroke="#000000" stroke-miterlimit="10" width="13.441" height="4.917"/>
<rect x="455.167" y="117.333" fill="#304969" stroke="#000000" stroke-miterlimit="10" width="48.667" height="9.833"/>
<rect x="47.667" y="498.332" fill="#5585C5" stroke="#000000" stroke-miterlimit="10" width="36.833" height="7.165"/>
<rect x="47.667" y="623.5" fill="#5585C5" stroke="#000000" stroke-miterlimit="10" width="36.833" height="7.165"/>
<rect x="84.5" y="498.332" fill="#304969" stroke="#000000" stroke-miterlimit="10" width="155.417" height="7.165"/>
<rect x="84.083" y="743.5" fill="#304969" stroke="#000000" stroke-miterlimit="10" width="155.417" height="7.164"/>
<rect x="159.5" y="505.497" fill="#5585C5" stroke="#000000" stroke-miterlimit="10" width="80" height="238.003"/>
<rect x="84.083" y="634.5" fill="#5585C5" stroke="#000000" stroke-miterlimit="10" width="75.417" height="109"/>
<rect x="83.75" y="623.5" fill="#304969" stroke="#000000" stroke-miterlimit="10" width="75.75" height="11"/>
<rect x="216.333" y="324.667" fill="#FFFFFF" stroke="#000000" stroke-miterlimit="10" width="47.167" height="48.333"/>
<rect x="401.5" y="183.5" fill="#FFFFFF" stroke="#000000" stroke-miterlimit="10" width="47" height="40.5"/>
<rect x="401.5" y="224" fill="#FFFFFF" stroke="#000000" stroke-miterlimit="10" width="47" height="40.5"/>
<rect x="420.5" y="341.333" fill="#FFFFFF" stroke="#000000" stroke-miterlimit="10" width="47" height="47.333"/>
<rect x="359.167" y="341.333" fill="#FFFFFF" stroke="#000000" stroke-miterlimit="10" width="47" height="19"/>
<rect x="356.5" y="473.833" fill="#FFFFFF" stroke="#000000" stroke-miterlimit="10" width="48" height="9.5"/>
<rect x="356.5" y="483.333" fill="#FFFFFF" stroke="#000000" stroke-miterlimit="10" width="48" height="47.333"/>
<rect x="356.5" y="530.667" fill="#FFFFFF" stroke="#000000" stroke-miterlimit="10" width="48" height="47.333"/>
<rect x="356.5" y="578" fill="#FFFFFF" stroke="#000000" stroke-miterlimit="10" width="48" height="47.334"/>
<rect x="353.333" y="655.667" fill="#FFFFFF" stroke="#000000" stroke-miterlimit="10" width="35.667" height="37"/>
<rect x="389" y="655.667" fill="#FFFFFF" stroke="#000000" stroke-miterlimit="10" width="35.667" height="37"/>
<rect x="424.667" y="655.667" fill="#FFFFFF" stroke="#000000" stroke-miterlimit="10" width="35.667" height="37"/>
<rect x="460.334" y="655.667" fill="#FFFFFF" stroke="#000000" stroke-miterlimit="10" width="35.667" height="37"/>
<rect x="350.5" y="360.333" fill="#304969" stroke="#000000" stroke-miterlimit="10" width="67.166" height="104.333"/>
<rect x="350.5" y="464.667" fill="#304969" stroke="#000000" stroke-miterlimit="10" width="67.166" height="8.333"/>
<rect x="420.5" y="388.667" fill="#FFFFFF" stroke="#000000" stroke-miterlimit="10" width="47" height="47.333"/>
<rect x="420.5" y="436" fill="#FFFFFF" stroke="#000000" stroke-miterlimit="10" width="47" height="47.333"/>
<rect x="420.5" y="483.333" fill="#FFFFFF" stroke="#000000" stroke-miterlimit="10" width="47" height="47.333"/>
<rect x="420.5" y="530.667" fill="#FFFFFF" stroke="#000000" stroke-miterlimit="10" width="47" height="47.333"/>
<rect x="420.5" y="578" fill="#FFFFFF" stroke="#000000" stroke-miterlimit="10" width="47" height="47.334"/>
<rect x="448.5" y="183.5" fill="#FFFFFF" stroke="#000000" stroke-miterlimit="10" width="47" height="40.5"/>
<rect x="448.5" y="224" fill="#FFFFFF" stroke="#000000" stroke-miterlimit="10" width="47" height="40.5"/>
<rect x="495.5" y="183.5" fill="#FFFFFF" stroke="#000000" stroke-miterlimit="10" width="47" height="40.5"/>
<rect x="495.5" y="224" fill="#FFFFFF" stroke="#000000" stroke-miterlimit="10" width="47" height="40.5"/>
<rect x="542.5" y="183.5" fill="#FFFFFF" stroke="#000000" stroke-miterlimit="10" width="47" height="40.5"/>
<rect x="542.5" y="224" fill="#FFFFFF" stroke="#000000" stroke-miterlimit="10" width="47" height="40.5"/>
<rect x="700.5" y="274.261" fill="#FFFFFF" stroke="#000000" stroke-miterlimit="10" width="47" height="42.239"/>
<rect x="519" y="395.761" fill="#FFFFFF" stroke="#000000" stroke-miterlimit="10" width="35.5" height="40.239"/>
<rect x="519" y="473" fill="#FFFFFF" stroke="#000000" stroke-miterlimit="10" width="47" height="45"/>
<rect x="566" y="473" fill="#FFFFFF" stroke="#000000" stroke-miterlimit="10" width="47" height="45"/>
<rect x="613" y="473" fill="#FFFFFF" stroke="#000000" stroke-miterlimit="10" width="47" height="45"/>
<rect x="660" y="473" fill="#FFFFFF" stroke="#000000" stroke-miterlimit="10" width="21.333" height="45"/>
<rect x="634.958" y="582.169" fill="#FFFFFF" stroke="#000000" stroke-miterlimit="10" width="25.042" height="44.105"/>
<rect x="510.708" y="579.614" fill="#FFFFFF" stroke="#000000" stroke-miterlimit="10" width="11.417" height="44.105"/>
<rect x="660" y="582.169" fill="#FFFFFF" stroke="#000000" stroke-miterlimit="10" width="46.617" height="44.105"/>
<rect x="706.617" y="582.169" fill="#FFFFFF" stroke="#000000" stroke-miterlimit="10" width="46.617" height="44.105"/>
<rect x="753.233" y="582.169" fill="#FFFFFF" stroke="#000000" stroke-miterlimit="10" width="28.955" height="44.105"/>
<rect x="895.667" y="584.169" fill="#FFFFFF" stroke="#000000" stroke-miterlimit="10" width="46.667" height="44.105"/>
<rect x="942.333" y="584.169" fill="#FFFFFF" stroke="#000000" stroke-miterlimit="10" width="46.667" height="44.105"/>
<rect x="999.167" y="667.167" fill="#FFFFFF" stroke="#000000" stroke-miterlimit="10" width="35.667" height="36.274"/>
<rect x="1034.833" y="667.167" fill="#FFFFFF" stroke="#000000" stroke-miterlimit="10" width="35.667" height="36.274"/>
<rect x="1070.5" y="667.167" fill="#FFFFFF" stroke="#000000" stroke-miterlimit="10" width="35.667" height="36.274"/>
<rect x="1106.166" y="667.167" fill="#FFFFFF" stroke="#000000" stroke-miterlimit="10" width="35.666" height="36.274"/>
<rect x="1141.832" y="667.167" fill="#FFFFFF" stroke="#000000" stroke-miterlimit="10" width="35.667" height="36.274"/>
<rect x="1177.499" y="667.167" fill="#FFFFFF" stroke="#000000" stroke-miterlimit="10" width="35.667" height="36.274"/>
<rect x="794.5" y="473" fill="#FFFFFF" stroke="#000000" stroke-miterlimit="10" width="7.5" height="45"/>
<rect x="802" y="473" fill="#FFFFFF" stroke="#000000" stroke-miterlimit="10" width="13.333" height="45"/>
<rect x="929" y="473" fill="#FFFFFF" stroke="#000000" stroke-miterlimit="10" width="13.333" height="45"/>
<rect x="942.333" y="473" fill="#FFFFFF" stroke="#000000" stroke-miterlimit="10" width="48.333" height="45"/>
<rect x="1061.833" y="343.5" fill="#FFFFFF" stroke="#000000" stroke-miterlimit="10" width="46.833" height="46.833"/>
<rect x="1108.667" y="343.5" fill="#FFFFFF" stroke="#000000" stroke-miterlimit="10" width="46.833" height="46.833"/>
<rect x="1173.667" y="341.5" fill="#FFFFFF" stroke="#000000" stroke-miterlimit="10" width="51.583" height="12.583"/>
<rect x="1173.667" y="467.546" fill="#FFFFFF" stroke="#000000" stroke-miterlimit="10" width="51.583" height="16.454"/>
<rect x="1173.667" y="484" fill="#FFFFFF" stroke="#000000" stroke-miterlimit="10" width="51.583" height="46.833"/>
<rect x="1566.887" y="306.764" fill="#FFFFFF" stroke="#000000" stroke-miterlimit="10" width="47.385" height="47.377"/>
<rect x="1582.637" y="254.198" transform="matrix(0.7671 0.6416 -0.6416 0.7671 539.3696 -959.6112)" fill="#304969" stroke="#000000" stroke-miterlimit="10" width="17.206" height="17.609"/>
<rect x="1514.703" y="200.152" transform="matrix(0.7814 0.624 -0.624 0.7814 462.7379 -914.1421)" fill="#1CB686" stroke="#020202" stroke-miterlimit="10" width="42.996" height="6.562"/>
<rect x="1548.468" y="226.731" transform="matrix(0.7814 0.624 -0.624 0.7814 486.7145 -929.4117)" fill="#1CB686" stroke="#020202" stroke-miterlimit="10" width="42.996" height="6.562"/>
<rect x="1584.831" y="244.611" transform="matrix(0.7814 0.624 -0.624 0.7814 503.2043 -939.2134)" fill="#1CB686" stroke="#020202" stroke-miterlimit="10" width="14.688" height="8.048"/>
<rect x="1506.28" y="178.467" transform="matrix(0.7671 0.6416 -0.6416 0.7671 468.8014 -926.6848)" fill="#304969" stroke="#000000" stroke-miterlimit="10" width="8.602" height="7.598"/>
<rect x="1595.261" y="267.862" transform="matrix(0.7671 0.6416 -0.6416 0.7671 551.9739 -966.9591)" fill="#304969" stroke="#000000" stroke-miterlimit="10" width="24.73" height="17.609"/>
<rect x="1628.009" y="286.614" transform="matrix(0.7671 0.6416 -0.6416 0.7671 572.0886 -984.2327)" fill="#304969" stroke="#000000" stroke-miterlimit="10" width="26.888" height="18.211"/>
<rect x="1731.199" y="374.278" transform="matrix(0.7671 0.6416 -0.6416 0.7671 650.9274 -1034.1791)" fill="#304969" stroke="#000000" stroke-miterlimit="10" width="36.919" height="10.082"/>
<rect x="1644.844" y="308.288" transform="matrix(0.7671 0.6416 -0.6416 0.7671 596.718 -992.717)" fill="#304969" stroke="#000000" stroke-miterlimit="10" width="41.23" height="34.222"/>
<rect x="1684.736" y="341.774" transform="matrix(0.7671 0.6416 -0.6416 0.7671 627.8385 -1011.4858)" fill="#304969" stroke="#000000" stroke-miterlimit="10" width="44.303" height="34.222"/>
<rect x="1566.887" y="354.141" fill="#FFFFFF" stroke="#000000" stroke-miterlimit="10" width="47.385" height="47.377"/>
<rect x="1614.271" y="354.141" fill="#FFFFFF" stroke="#000000" stroke-miterlimit="10" width="47.385" height="47.377"/>
<rect x="1566.887" y="401.519" fill="#FFFFFF" stroke="#000000" stroke-miterlimit="10" width="47.385" height="47.377"/>
<rect x="1566.887" y="448.896" fill="#FFFFFF" stroke="#000000" stroke-miterlimit="10" width="47.385" height="47.377"/>
<rect x="1566.887" y="496.273" fill="#FFFFFF" stroke="#000000" stroke-miterlimit="10" width="47.385" height="47.377"/>
<rect x="1566.887" y="543.651" fill="#FFFFFF" stroke="#000000" stroke-miterlimit="10" width="47.385" height="47.377"/>
<rect x="1566.887" y="591.028" fill="#FFFFFF" stroke="#000000" stroke-miterlimit="10" width="47.385" height="47.378"/>
<rect x="1566.887" y="689.65" fill="#FFFFFF" stroke="#000000" stroke-miterlimit="10" width="47.385" height="47.378"/>
<rect x="1566.887" y="737.028" fill="#FFFFFF" stroke="#000000" stroke-miterlimit="10" width="47.385" height="47.378"/>
<rect x="1564.387" y="849.5" fill="#FFFFFF" stroke="#000000" stroke-miterlimit="10" width="45.215" height="39.906"/>
<rect x="1609.602" y="849.5" fill="#FFFFFF" stroke="#000000" stroke-miterlimit="10" width="45.217" height="39.906"/>
<rect x="1654.818" y="849.5" fill="#FFFFFF" stroke="#000000" stroke-miterlimit="10" width="45.216" height="39.906"/>
<rect x="1700.034" y="849.5" fill="#FFFFFF" stroke="#000000" stroke-miterlimit="10" width="45.216" height="39.906"/>
<rect x="1814.034" y="878.213" fill="#FFFFFF" stroke="#000000" stroke-miterlimit="10" width="30.472" height="51.099"/>
<rect x="1844.506" y="878.213" fill="#FFFFFF" stroke="#000000" stroke-miterlimit="10" width="30.472" height="51.099"/>
<rect x="1874.978" y="878.213" fill="#FFFFFF" stroke="#000000" stroke-miterlimit="10" width="35.678" height="51.099"/>
<rect x="1910.655" y="878.213" fill="#FFFFFF" stroke="#000000" stroke-miterlimit="10" width="35.679" height="51.099"/>
<rect x="1564.387" y="889.406" fill="#FFFFFF" stroke="#000000" stroke-miterlimit="10" width="45.215" height="39.905"/>
<rect x="1609.602" y="889.406" fill="#FFFFFF" stroke="#000000" stroke-miterlimit="10" width="45.217" height="39.905"/>
<rect x="1654.818" y="889.406" fill="#FFFFFF" stroke="#000000" stroke-miterlimit="10" width="45.216" height="39.905"/>
<rect x="1700.034" y="889.406" fill="#FFFFFF" stroke="#000000" stroke-miterlimit="10" width="45.216" height="39.905"/>
<rect x="1564.387" y="929.312" fill="#FFFFFF" stroke="#000000" stroke-miterlimit="10" width="45.215" height="39.905"/>
<rect x="1609.602" y="929.312" fill="#FFFFFF" stroke="#000000" stroke-miterlimit="10" width="45.217" height="39.905"/>
<rect x="1654.818" y="929.312" fill="#FFFFFF" stroke="#000000" stroke-miterlimit="10" width="45.216" height="39.905"/>
<rect x="1700.034" y="929.312" fill="#FFFFFF" stroke="#000000" stroke-miterlimit="10" width="45.216" height="39.905"/>
<rect x="1564.387" y="969.217" fill="#FFFFFF" stroke="#000000" stroke-miterlimit="10" width="45.215" height="39.906"/>
<rect x="1609.602" y="969.217" fill="#FFFFFF" stroke="#000000" stroke-miterlimit="10" width="45.217" height="39.906"/>
<rect x="1654.818" y="969.217" fill="#FFFFFF" stroke="#000000" stroke-miterlimit="10" width="45.216" height="39.906"/>
<rect x="1700.034" y="969.217" fill="#FFFFFF" stroke="#000000" stroke-miterlimit="10" width="45.216" height="39.906"/>
<rect x="1564.387" y="1009.123" fill="#FFFFFF" stroke="#000000" stroke-miterlimit="10" width="45.215" height="39.906"/>
<rect x="1609.602" y="1009.123" fill="#FFFFFF" stroke="#000000" stroke-miterlimit="10" width="45.217" height="39.906"/>
<rect x="1654.818" y="1009.123" fill="#FFFFFF" stroke="#000000" stroke-miterlimit="10" width="45.216" height="39.906"/>
<rect x="1700.034" y="1009.123" fill="#FFFFFF" stroke="#000000" stroke-miterlimit="10" width="45.216" height="39.906"/>
<rect x="1564.387" y="1049.029" fill="#FFFFFF" stroke="#000000" stroke-miterlimit="10" width="45.215" height="39.905"/>
<rect x="1609.602" y="1049.029" fill="#FFFFFF" stroke="#000000" stroke-miterlimit="10" width="45.217" height="39.905"/>
<rect x="1654.818" y="1049.029" fill="#FFFFFF" stroke="#000000" stroke-miterlimit="10" width="45.216" height="39.905"/>
<rect x="1700.034" y="1049.029" fill="#FFFFFF" stroke="#000000" stroke-miterlimit="10" width="45.216" height="39.905"/>
<rect x="1614.271" y="737.028" fill="#FFFFFF" stroke="#000000" stroke-miterlimit="10" width="47.385" height="47.378"/>
<rect x="1661.656" y="737.028" fill="#FFFFFF" stroke="#000000" stroke-miterlimit="10" width="47.386" height="47.378"/>
<rect x="1709.042" y="737.028" fill="#FFFFFF" stroke="#000000" stroke-miterlimit="10" width="47.386" height="47.378"/>
<rect x="1756.428" y="737.028" fill="#FFFFFF" stroke="#000000" stroke-miterlimit="10" width="47.385" height="47.378"/>
<rect x="1614.271" y="401.519" fill="#FFFFFF" stroke="#000000" stroke-miterlimit="10" width="47.385" height="47.377"/>
<rect x="1661.656" y="401.519" fill="#FFFFFF" stroke="#000000" stroke-miterlimit="10" width="47.386" height="47.377"/>
<polygon fill="#5585C5" stroke="#000000" stroke-miterlimit="10" points="1785.5,470.519 1785.5,435.427 1736.773,435.427 
	1736.773,470.519 1702.273,470.519 1702.273,548.012 1820,548.012 1820,470.519 "/>
<rect x="1702.273" y="548.012" fill="#5585C5" stroke="#000000" stroke-miterlimit="10" width="117.727" height="77.494"/>
<rect x="1820" y="487.012" fill="#304969" stroke="#000000" stroke-miterlimit="10" width="17.334" height="35.655"/>
<rect x="1820" y="568.932" fill="#304969" stroke="#000000" stroke-miterlimit="10" width="17.334" height="43.402"/>
<rect x="1700.375" y="722.5" fill="#304969" stroke="#000000" stroke-miterlimit="10" width="43.459" height="14.528"/>
<rect x="1698.5" y="784.406" fill="#304969" stroke="#000000" stroke-miterlimit="10" width="44.167" height="2.928"/>
<rect x="1820" y="651.598" fill="#1CB686" stroke="#020202" stroke-miterlimit="10" width="4.53" height="30.459"/>
<rect x="1961.333" y="596.334" fill="#304969" stroke="#000000" stroke-miterlimit="10" width="59.667" height="37.7"/>
<rect x="1943.181" y="711.75" fill="#304969" stroke="#000000" stroke-miterlimit="10" width="29.374" height="32.313"/>
<rect x="1949.387" y="744.063" fill="#304969" stroke="#000000" stroke-miterlimit="10" width="19.321" height="120.438"/>
<polygon fill="#1CB686" stroke="#020202" stroke-miterlimit="10" points="2020.998,864.5 1968.708,864.5 1973.553,635.824 
	2028,635.893 "/>
<rect x="1943.75" y="639.034" fill="#304969" stroke="#000000" stroke-miterlimit="10" width="15.75" height="72.716"/>
<rect x="1959.5" y="634.863" fill="#304969" stroke="#000000" stroke-miterlimit="10" width="13.055" height="76.887"/>
<rect x="1949.25" y="632.75" fill="#304969" stroke="#000000" stroke-miterlimit="10" width="10.25" height="6.284"/>
<rect x="2108.219" y="821.775" fill="#304969" stroke="#000000" stroke-miterlimit="10" width="6.781" height="7.009"/>
<rect x="2114.67" y="889.162" fill="#304969" stroke="#000000" stroke-miterlimit="10" width="17.997" height="11.172"/>
<rect x="2051.234" y="1139.154" fill="#304969" stroke="#000000" stroke-miterlimit="10" width="6.505" height="11.172"/>
<rect x="2004.462" y="1131.236" fill="#304969" stroke="#000000" stroke-miterlimit="10" width="9.446" height="6.506"/>
<rect x="1998.834" y="1132.498" fill="#304969" stroke="#000000" stroke-miterlimit="10" width="4.724" height="3.982"/>
<rect x="1893.171" y="1131.928" fill="#304969" stroke="#000000" stroke-miterlimit="10" width="14.263" height="6.977"/>
<rect x="2142.004" y="889.162" fill="#304969" stroke="#000000" stroke-miterlimit="10" width="17.996" height="11.172"/>
<rect x="2118.062" y="821.775" fill="#304969" stroke="#000000" stroke-miterlimit="10" width="6.781" height="7.009"/>
<rect x="2127.904" y="821.775" fill="#304969" stroke="#000000" stroke-miterlimit="10" width="6.781" height="7.009"/>
<rect x="1702.273" y="625.506" fill="#5585C5" stroke="#000000" stroke-miterlimit="10" width="117.727" height="77.494"/>
<rect x="1173.667" y="530.833" fill="#FFFFFF" stroke="#000000" stroke-miterlimit="10" width="51.583" height="46.833"/>
<rect x="1173.667" y="577.666" fill="#FFFFFF" stroke="#000000" stroke-miterlimit="10" width="51.583" height="46.834"/>
<rect x="1302.667" y="960" fill="#5585C5" stroke="#000000" stroke-miterlimit="10" width="83.333" height="124"/>
<rect x="1425.084" y="960" fill="#5585C5" stroke="#000000" stroke-miterlimit="10" width="83.332" height="124"/>
<rect x="1870.084" y="940.598" fill="#304969" stroke="#000000" stroke-miterlimit="10" width="23.846" height="49.297"/>
<rect x="2147.047" y="1111.133" transform="matrix(0.7945 0.6072 -0.6072 0.7945 1122.3718 -1075.2891)" fill="#304969" stroke="#000000" stroke-miterlimit="10" width="6.053" height="19.362"/>
<polygon fill="#304969" stroke="#000000" stroke-miterlimit="10" points="2018.58,1072.832 2018.58,1083.221 2014.269,1083.221 
	2014.269,1097.389 2014.269,1117.118 2014.269,1131.285 2017.111,1131.285 2017.111,1134.49 2025.047,1134.49 2025.047,1117.118 
	2027.203,1117.118 2027.203,1088.404 2027.203,1083.221 2027.203,1072.832 "/>
<rect x="1874.978" y="992.717" fill="#304969" stroke="#000000" stroke-miterlimit="10" width="4.45" height="44.83"/>
<rect x="2069.346" y="1051.078" fill="#304969" stroke="#000000" stroke-miterlimit="10" width="33.87" height="2.23"/>
<rect x="1815.396" y="1088.973" fill="#304969" stroke="#000000" stroke-miterlimit="10" width="16.936" height="3.084"/>
<rect x="1890" y="1023.178" fill="#304969" stroke="#000000" stroke-miterlimit="10" width="2.877" height="13.709"/>
<rect x="1165.167" y="354.083" fill="#304969" stroke="#000000" stroke-miterlimit="10" width="67.583" height="7.917"/>
<rect x="1165.167" y="362" fill="#304969" stroke="#000000" stroke-miterlimit="10" width="67.583" height="97.093"/>
<rect x="1170.231" y="459.093" fill="#304969" stroke="#000000" stroke-miterlimit="10" width="62.519" height="8.453"/>
<rect x="1061.833" y="390.333" fill="#FFFFFF" stroke="#000000" stroke-miterlimit="10" width="46.833" height="46.833"/>
<rect x="1108.667" y="390.333" fill="#FFFFFF" stroke="#000000" stroke-miterlimit="10" width="46.833" height="46.833"/>
<rect x="1061.833" y="437.167" fill="#FFFFFF" stroke="#000000" stroke-miterlimit="10" width="46.833" height="46.833"/>
<rect x="1108.667" y="437.167" fill="#FFFFFF" stroke="#000000" stroke-miterlimit="10" width="46.833" height="46.833"/>
<rect x="1061.833" y="484" fill="#FFFFFF" stroke="#000000" stroke-miterlimit="10" width="46.833" height="46.833"/>
<rect x="1108.667" y="484" fill="#FFFFFF" stroke="#000000" stroke-miterlimit="10" width="46.833" height="46.833"/>
<rect x="1061.833" y="530.833" fill="#FFFFFF" stroke="#000000" stroke-miterlimit="10" width="46.833" height="46.833"/>
<rect x="1108.667" y="530.833" fill="#FFFFFF" stroke="#000000" stroke-miterlimit="10" width="46.833" height="46.833"/>
<rect x="1061.833" y="577.666" fill="#FFFFFF" stroke="#000000" stroke-miterlimit="10" width="46.833" height="46.834"/>
<rect x="1108.667" y="577.666" fill="#FFFFFF" stroke="#000000" stroke-miterlimit="10" width="46.833" height="46.834"/>
<rect x="554.5" y="380.761" fill="#304969" stroke="#000000" stroke-miterlimit="10" width="8.833" height="70.239"/>
<rect x="563.333" y="380.761" fill="#5585C5" stroke="#000000" stroke-miterlimit="10" width="104" height="70.239"/>
<rect x="681.333" y="459.667" fill="#304969" stroke="#000000" stroke-miterlimit="10" width="8.833" height="67.667"/>
<rect x="690.167" y="459.667" fill="#5585C5" stroke="#000000" stroke-miterlimit="10" width="104" height="67.667"/>
<rect x="522.125" y="571.833" fill="#304969" stroke="#000000" stroke-miterlimit="10" width="8.833" height="69.825"/>
<rect x="530.958" y="571.833" fill="#5585C5" stroke="#000000" stroke-miterlimit="10" width="104" height="69.825"/>
<rect x="782.188" y="571.833" fill="#304969" stroke="#000000" stroke-miterlimit="10" width="8.833" height="69.825"/>
<rect x="886.833" y="571.833" fill="#304969" stroke="#000000" stroke-miterlimit="10" width="8.833" height="69.825"/>
<rect x="791.021" y="571.833" fill="#5585C5" stroke="#000000" stroke-miterlimit="10" width="95.812" height="69.825"/>
<rect x="815.583" y="459.667" fill="#304969" stroke="#000000" stroke-miterlimit="10" width="8.833" height="67.667"/>
<rect x="920.167" y="459.667" fill="#304969" stroke="#000000" stroke-miterlimit="10" width="8.833" height="67.667"/>
<rect x="824.417" y="459.667" fill="#5585C5" stroke="#000000" stroke-miterlimit="10" width="95.75" height="67.667"/>
<rect x="766.667" y="380.761" fill="#304969" stroke="#000000" stroke-miterlimit="10" width="8.833" height="70.239"/>
<rect x="871" y="380.761" fill="#304969" stroke="#000000" stroke-miterlimit="10" width="8.833" height="70.239"/>
<rect x="775.5" y="380.761" fill="#5585C5" stroke="#000000" stroke-miterlimit="10" width="95.5" height="70.239"/>
<rect x="667.333" y="395.761" fill="#FFFFFF" stroke="#000000" stroke-miterlimit="10" width="40.667" height="40.239"/>
<rect x="708" y="395.761" fill="#FFFFFF" stroke="#000000" stroke-miterlimit="10" width="46.333" height="40.239"/>
<rect x="754.333" y="395.761" fill="#FFFFFF" stroke="#000000" stroke-miterlimit="10" width="12.333" height="40.239"/>
<rect x="879.333" y="395.761" fill="#FFFFFF" stroke="#000000" stroke-miterlimit="10" width="17.333" height="40.239"/>
<rect x="896.667" y="395.761" fill="#FFFFFF" stroke="#000000" stroke-miterlimit="10" width="47" height="40.239"/>
<rect x="943.667" y="395.761" fill="#FFFFFF" stroke="#000000" stroke-miterlimit="10" width="47" height="40.239"/>
<rect x="747.5" y="274.261" fill="#FFFFFF" stroke="#000000" stroke-miterlimit="10" width="47" height="42.239"/>
<rect x="794.5" y="274.261" fill="#FFFFFF" stroke="#000000" stroke-miterlimit="10" width="47" height="42.239"/>
<rect x="841.5" y="274.261" fill="#FFFFFF" stroke="#000000" stroke-miterlimit="10" width="47" height="42.239"/>
<rect x="1313.5" y="271.261" fill="#FFFFFF" stroke="#000000" stroke-miterlimit="10" width="66.5" height="688.739"/>
<rect x="1433.5" y="271.261" fill="#FFFFFF" stroke="#000000" stroke-miterlimit="10" width="66.5" height="688.739"/>
<rect x="169.167" y="373" fill="#FFFFFF" stroke="#000000" stroke-miterlimit="10" width="47.167" height="48.333"/>
<rect x="73.333" y="813.167" fill="#FFFFFF" stroke="#000000" stroke-miterlimit="10" width="46.708" height="36.083"/>
<rect x="73.333" y="849.25" fill="#FFFFFF" stroke="#000000" stroke-miterlimit="10" width="46.708" height="36.084"/>
<rect x="70.521" y="908.417" fill="#FFFFFF" stroke="#000000" stroke-miterlimit="10" width="38" height="38"/>
<rect x="108.521" y="908.417" fill="#FFFFFF" stroke="#000000" stroke-miterlimit="10" width="38" height="38"/>
<rect x="146.521" y="908.417" fill="#FFFFFF" stroke="#000000" stroke-miterlimit="10" width="38" height="38"/>
<rect x="184.521" y="908.417" fill="#FFFFFF" stroke="#000000" stroke-miterlimit="10" width="38" height="38"/>
<rect x="222.521" y="908.417" fill="#FFFFFF" stroke="#000000" stroke-miterlimit="10" width="38" height="38"/>
<rect x="70.521" y="946.417" fill="#FFFFFF" stroke="#000000" stroke-miterlimit="10" width="38" height="38"/>
<rect x="108.521" y="946.417" fill="#FFFFFF" stroke="#000000" stroke-miterlimit="10" width="38" height="38"/>
<rect x="146.521" y="946.417" fill="#FFFFFF" stroke="#000000" stroke-miterlimit="10" width="38" height="38"/>
<rect x="184.521" y="946.417" fill="#FFFFFF" stroke="#000000" stroke-miterlimit="10" width="38" height="38"/>
<rect x="222.521" y="946.417" fill="#FFFFFF" stroke="#000000" stroke-miterlimit="10" width="38" height="38"/>
<rect x="70.521" y="984.417" fill="#FFFFFF" stroke="#000000" stroke-miterlimit="10" width="38" height="38"/>
<rect x="108.521" y="984.417" fill="#FFFFFF" stroke="#000000" stroke-miterlimit="10" width="38" height="38"/>
<rect x="146.521" y="984.417" fill="#FFFFFF" stroke="#000000" stroke-miterlimit="10" width="38" height="38"/>
<rect x="184.521" y="984.417" fill="#FFFFFF" stroke="#000000" stroke-miterlimit="10" width="38" height="38"/>
<rect x="70.521" y="1022.417" fill="#FFFFFF" stroke="#000000" stroke-miterlimit="10" width="38" height="38"/>
<rect x="108.521" y="1022.417" fill="#FFFFFF" stroke="#000000" stroke-miterlimit="10" width="38" height="38"/>
<rect x="146.521" y="1022.417" fill="#FFFFFF" stroke="#000000" stroke-miterlimit="10" width="38" height="38"/>
<rect x="184.521" y="1022.417" fill="#FFFFFF" stroke="#000000" stroke-miterlimit="10" width="38" height="38"/>
<rect x="222.521" y="984.417" fill="#FFFFFF" stroke="#000000" stroke-miterlimit="10" width="38" height="38"/>
<rect x="120.042" y="813.167" fill="#FFFFFF" stroke="#000000" stroke-miterlimit="10" width="46.708" height="36.083"/>
<rect x="120.042" y="849.25" fill="#FFFFFF" stroke="#000000" stroke-miterlimit="10" width="46.708" height="36.084"/>
<rect x="166.75" y="813.167" fill="#FFFFFF" stroke="#000000" stroke-miterlimit="10" width="46.708" height="36.083"/>
<rect x="166.75" y="849.25" fill="#FFFFFF" stroke="#000000" stroke-miterlimit="10" width="46.708" height="36.084"/>
<rect x="213.458" y="813.167" fill="#FFFFFF" stroke="#000000" stroke-miterlimit="10" width="46.708" height="36.083"/>
<rect x="213.458" y="849.25" fill="#FFFFFF" stroke="#000000" stroke-miterlimit="10" width="46.708" height="36.084"/>
<rect x="216.333" y="373" fill="#FFFFFF" stroke="#000000" stroke-miterlimit="10" width="47.167" height="48.333"/>
<rect x="162.333" y="167" fill="#5585C5" stroke="#000000" stroke-miterlimit="10" width="75.833" height="118.5"/>
<rect x="238.167" y="167" fill="#5585C5" stroke="#000000" stroke-miterlimit="10" width="75.833" height="118.5"/>
<polygon fill="#5585C5" stroke="#000000" stroke-miterlimit="10" points="84.333,292 84.333,329 47.667,329 47.667,378 84.333,378 
	84.333,412.667 166,412.667 166,292 "/>
<polygon fill="#5585C5" stroke="#000000" stroke-miterlimit="10" points="83.5,505.497 83.5,539.997 47.667,539.997 47.667,589.5 
	83.5,589.5 83.5,623.5 159.5,623.5 159.5,505.497 "/>
<rect x="641.5" y="183.5" fill="#304969" stroke="#000000" stroke-miterlimit="10" width="555.5" height="84"/>
<rect x="648.528" y="269.465" fill="#304969" stroke="#000000" stroke-miterlimit="10" width="48.622" height="7.192"/>
<polygon fill="#304969" stroke="#000000" stroke-miterlimit="10" points="796.457,125.434 764.614,125.434 764.614,130.577 
	783.854,130.895 783.986,128.194 796.457,128.736 "/>
<circle fill="#304969" stroke="#000000" stroke-miterlimit="10" cx="1260.673" cy="111.674" r="3.507"/>
<polygon fill="#304969" stroke="#000000" stroke-miterlimit="10" points="1450.75,138.125 1403,138.125 1403,187.25 1484.25,187.25 
	1484.25,182.375 1491.125,182.375 1491.125,174.5 1484.25,174.5 1484.25,169.375 1466.5,169.375 1466.5,162.688 1461.125,162.688 
	1461.125,153.25 1450.625,153.25 "/>
<polygon fill="#1CB686" stroke="#020202" stroke-miterlimit="10" points="1521.689,186.566 1516.318,182.112 1508.777,191.25 
	1582.298,249.501 1583.925,245.992 1516.746,192.771 "/>
<polygon fill="#1CB686" stroke="#020202" stroke-miterlimit="10" points="1601.5,250.167 1610.334,258 1613.084,258.417 
	1629.5,270.417 1622.76,277.667 1596.324,255.777 "/>
<polygon fill="#304969" stroke="#000000" stroke-miterlimit="10" points="1629.77,270.801 1623.475,277.933 1626.77,280.688 
	1619.667,288.5 1625.167,294.167 1638.667,277.667 "/>
<text transform="matrix(1 -2.500000e-004 2.500000e-004 1 26.7573 92.8174)" fill="#FFFFFF" font-family="'NanumSquareB'" font-size="15">부속복지동</text>
<text transform="matrix(1 -2.500000e-004 2.500000e-004 1 248.7832 85.3164)" fill="#FFFFFF" font-family="'NanumSquareB'" font-size="15">쓰레기장</text>
<text transform="matrix(1 -2.500000e-004 2.500000e-004 1 834.6152 233.1885)" fill="#FFFFFF" font-family="'NanumSquareB'" font-size="15">선각9BAY판넬장업장(가공)</text>
<text transform="matrix(1 -2.500000e-004 2.500000e-004 1 599.1084 138.1719)" fill="#FFFFFF" font-family="'NanumSquareB'" font-size="15">휴게실</text>
<text transform="matrix(1 -2.500000e-004 2.500000e-004 1 461.4009 125.8232)" fill="#FFFFFF" font-family="'NanumSquareB'" font-size="15">트랜스포터운영팀</text>
<text transform="matrix(1 -2.500000e-004 2.500000e-004 1 582.1162 417.6729)" fill="#FFFFFF" font-family="'NanumSquareB'" font-size="15">선각7BAY</text>
<text transform="matrix(1 -2.500000e-004 2.500000e-004 1 790.5278 417.6729)" fill="#FFFFFF" font-family="'NanumSquareB'" font-size="15">선각7BAY</text>
<text transform="matrix(1 -2.500000e-004 2.500000e-004 1 710.4448 498.5078)" fill="#FFFFFF" font-family="'NanumSquareB'" font-size="15">선각6BAY</text>
<text transform="matrix(1 -2.500000e-004 2.500000e-004 1 839.2778 498.5078)" fill="#FFFFFF" font-family="'NanumSquareB'" font-size="15">선각6BAY</text>
<text transform="matrix(1 -2.500000e-004 2.500000e-004 1 549.2778 609.7539)" fill="#FFFFFF" font-family="'NanumSquareB'" font-size="15">선각5BAY</text>
<text transform="matrix(1 -2.500000e-004 2.500000e-004 1 805.2056 609.7539)" fill="#FFFFFF" font-family="'NanumSquareB'" font-size="15">선각5BAY</text>
<text transform="matrix(1 -2.500000e-004 2.500000e-004 1 48.667 362.001)" fill="#FFFFFF" font-family="'NanumSquareB'" font-size="15" letter-spacing="-1">도장2공장(2B/SHOP)</text>
<text transform="matrix(1 -2.500000e-004 2.500000e-004 1 48.667 571.833)" fill="#FFFFFF" font-family="'NanumSquareB'" font-size="15" letter-spacing="-1">도장1공장(1B/SHOP)</text>
<text transform="matrix(1 -2.500000e-004 2.500000e-004 1 500.667 756.833)" fill="#FFFFFF" font-family="'NanumSquareB'" font-size="15" letter-spacing="-1">선각1공장(4BAY) 남</text>
<text transform="matrix(1 -2.500000e-004 2.500000e-004 1 500.667 849.25)" fill="#FFFFFF" font-family="'NanumSquareB'" font-size="15" letter-spacing="-1">선각1공장(3BAY) 남</text>
<text transform="matrix(1 -2.500000e-004 2.500000e-004 1 942.3335 849.25)" fill="#FFFFFF" font-family="'NanumSquareB'" font-size="15" letter-spacing="-1">선각1공장(3BAY) 북</text>
<text transform="matrix(1 -2.500000e-004 2.500000e-004 1 500.667 935.666)" fill="#FFFFFF" font-family="'NanumSquareB'" font-size="15" letter-spacing="-1">선각1공장(2BAY) 남</text>
<text transform="matrix(1 -2.500000e-004 2.500000e-004 1 942.3335 935.666)" fill="#FFFFFF" font-family="'NanumSquareB'" font-size="15" letter-spacing="-1">선각1공장(2BAY) 북</text>
<text transform="matrix(1 -2.500000e-004 2.500000e-004 1 603.583 1018.333)" fill="#FFFFFF" font-family="'NanumSquareB'" font-size="15" letter-spacing="-1">선각1공장(1BAY) 남</text>
<text transform="matrix(1 -2.500000e-004 2.500000e-004 1 943.6665 1018.333)" fill="#FFFFFF" font-family="'NanumSquareB'" font-size="15" letter-spacing="-1">선각1공장(1BAY) 북</text>
<text transform="matrix(1 -2.500000e-004 2.500000e-004 1 367.272 1032.2783)" fill="#FFFFFF" font-family="'NanumSquareB'" font-size="15" letter-spacing="-1">사무복지동</text>
<text transform="matrix(1 -2.500000e-004 2.500000e-004 1 943.6665 756.833)" fill="#FFFFFF" font-family="'NanumSquareB'" font-size="15" letter-spacing="-1">선각1공장(4BAY) 북</text>
<text transform="matrix(1 -2.500000e-004 2.500000e-004 1 1700.042 518.9619)" fill="#FFFFFF" font-family="'NanumSquareB'" font-size="15" letter-spacing="-1">도장1공장(3B/SHOP)</text>
<text transform="matrix(1 -2.500000e-004 2.500000e-004 1 1940.3535 734.0283)" fill="#FFFFFF" font-family="'NanumSquareB'" font-size="15" letter-spacing="-1">엔진 A/S용연물류센터</text>
<text transform="matrix(1 -2.500000e-004 2.500000e-004 1 1312.667 1031.5459)" fill="#FFFFFF" font-family="'NanumSquareB'" font-size="15" letter-spacing="-1">이동식 쉘터</text>
<text transform="matrix(1 -2.500000e-004 2.500000e-004 1 1433.5 1031.5459)" fill="#FFFFFF" font-family="'NanumSquareB'" font-size="15" letter-spacing="-1">이동식 쉘터</text>
<text transform="matrix(1 -2.500000e-004 2.500000e-004 1 1565.4531 276.3994)" fill="#FFFFFF" font-family="'NanumSquareB'" font-size="15" letter-spacing="-1">용접기수리장</text>
<text transform="matrix(1 -2.500000e-004 2.500000e-004 1 1611.21 302.3994)" fill="#FFFFFF" font-family="'NanumSquareB'" font-size="15" letter-spacing="-1">기계정비장</text>
<text transform="matrix(1 -2.500000e-004 2.500000e-004 1 53.667 693.3037)" fill="#FFFFFF" font-family="'NanumSquareB'" font-size="15" letter-spacing="-1">도장1공장(1P/SHOP)</text>
<text transform="matrix(1 -2.500000e-004 2.500000e-004 1 19 867.3037)" fill="#FFFFFF" font-family="'NanumSquareB'" font-size="15" letter-spacing="-1">물탱크실</text>
<text transform="matrix(1 -2.500000e-004 2.500000e-004 1 1 901.874)" fill="#FFFFFF" font-family="'NanumSquareB'" font-size="15" letter-spacing="-1">구급차량보관소</text>
<text transform="matrix(1 -2.500000e-004 2.500000e-004 1 19 946.374)" fill="#FFFFFF" font-family="'NanumSquareB'" font-size="15" letter-spacing="-1">실습동</text>
<text transform="matrix(1 -2.500000e-004 2.500000e-004 1 10 985.1592)" fill="#FFFFFF" font-family="'NanumSquareB'" font-size="15" letter-spacing="-1">안전교육</text>
<text transform="matrix(1 -2.500000e-004 2.500000e-004 1 6 1107.1826)" fill="#FFFFFF" font-family="'NanumSquareB'" font-size="15" letter-spacing="-1">면회실</text>
<text transform="matrix(1 -2.500000e-004 2.500000e-004 1 127.167 629.5)" fill="#FFFFFF" font-family="'NanumSquareB'" font-size="15" letter-spacing="-1">도장1공장(2P, 3P/SHOP)</text>
</svg>
