<?xml version="1.0" encoding="utf-8"?>
<!-- Generator: Adobe Illustrator 16.0.0, SVG Export Plug-In . SVG Version: 6.00 Build 0)  -->
<!DOCTYPE svg PUBLIC "-//W3C//DTD SVG 1.1//EN" "http://www.w3.org/Graphics/SVG/1.1/DTD/svg11.dtd">
<svg version="1.1" id="Layer_1" xmlns="http://www.w3.org/2000/svg" xmlns:xlink="http://www.w3.org/1999/xlink" x="0px" y="0px"
	 width="2038px" height="1383.133px" viewBox="0 0 2038 1383.133" enable-background="new 0 0 2038 1383.133" xml:space="preserve">
<path fill="#949991" stroke="#020202" stroke-miterlimit="10" d="M2013.999,715.088h-4.804c0,0-25.066-133.446-26.26-139.805
	s4.397-9.617,4.397-9.617h8.333l-2-7c0,0,0,0-5.666-0.333s-9.334-21-11.667-28.667S1954,494.333,1954,494.333l-5.334,3
	C1960.665,504.333,1977,568,1977,568l24.333,150.667c0,0-353,83.667-367.666,87S1613,809,1613,809
	c-17.333,1.333-67-33.333-67-33.333l2-2.667l-6-6.333l-6.334-30l-98,20L1332.333,760c-67.333,6.667-102-12.667-116.667-17.333
	s-67.333-36.333-67.333-36.333l-0.464,0.849c-5.766-7.659-14.959-19.861-19.869-26.318c-7.5-9.864-27.5-36.364-37.5-50.864
	s-44.5-75.5-45-80l10-38l32.5-123.5l-8.5-30.5l-12.5-49.5c0,0-9-24.5-46.5-35s-79.5-22-91-23.5s-37.5-3-44.5,0l-18,20.5v6l-92.5,122
	l3,1.5l-13,17.643l-1,1.357l5.5,1l105-139c0,0,14-24,47.5-19s57,13.5,68,16.5S1046,297,1051,307s25,68,23.5,77.5S1070,407,1070,407
	s-2,6.5-12,4.5s-34.5-9-34.5-9l-5,20l33,8.5c0,0,14.5,1.5,10,16.5s-31,110-31,110l-178.5-45l-13-12l-9,4.5l-5.5,9.5l1.5,19l24.5,6
	l3-1.5l45,13l3-11l81.5,20.5v5.5l48.5,13.709c0,0,12,5.291,18,13.291s57.5,79.5,57.5,79.5s-0.008,17.346-8.106,23.425L1095,695
	c0,0-432-109-457.334-114.333s-41,13.333-41,13.333l-43.333,40.667l2.333,5.333l-19.333,15.667h-4L528,661h-2l-4.667,4.667
	L518,662.333l-34,36.333c0,0-38,36.333-44.334,43.667s-33,38.667-33,38.667c14.333,5,33.001-9.667,39.334-16.667
	s53.667-58.667,66.667-71.667S544,680.354,544,680.354l4.742-7.354L561,661.333l2-4c0,0,54.333-51.667,63-57.667
	S643.667,596,643.667,596l208.999,53.667c0,0,230,56,239.667,58.667c7.85,2.166,34.816,14.439,44.681,18.979L1237,773.667
	c0,0,30.666,11.333,53.333,15s98.333-2.333,151.667-7s73.666,6.667,73.666,6.667s55.667,30.333,70.334,38.333s44,2.667,44,2.667
	L2018.666,736L2013.999,715.088z"/>
<polygon fill="#949991" stroke="#020202" stroke-miterlimit="10" points="1938.5,485 1941.25,491.5 1878.75,503 1871.5,520.75 
	1864.75,517.75 1869,500.75 1875,492 1882.5,494.75 1886,492.75 1903,490.75 1910,492.5 "/>
<path fill="#949991" stroke="#020202" stroke-miterlimit="10" d="M1869.5,413.5l-3,6l-47-10.25l-79,15.25l-44.5,34c0,0-4.5,39-4,50
	s6,51,6.75,51s7.75-1.75,7.75-1.75l2.75,7l-17.289,3.75l-4.961-31l2.5-2.5c0,0-2.5-16.75-5.5-23c0,0,1.75-50.25,4-53.5
	s49.75-40,49.75-40l81-15.5L1869.5,413.5z"/>
<rect x="372.449" y="824.232" transform="matrix(0.6697 -0.7426 0.7426 0.6697 -490.5414 562.3219)" fill="#304969" stroke="#020202" stroke-miterlimit="10" width="28.854" height="16.765"/>
<rect x="559.639" y="749.855" transform="matrix(0.5894 0.8078 -0.8078 0.5894 845.1221 -149.8197)" fill="#304969" stroke="#020202" stroke-miterlimit="10" width="20.627" height="13.314"/>
<polygon fill="#243E90" stroke="#020202" stroke-miterlimit="10" points="988.097,535.171 831.999,495.786 888.576,271.329 
	1044.686,310.683 "/>
<polygon fill="#1CB686" stroke="#020202" stroke-miterlimit="10" points="740.167,454.157 731.836,448.376 756,413.5 
	764.334,419.275 "/>
<polygon fill="#1CB686" stroke="#020202" stroke-miterlimit="10" points="729.379,468.297 731.836,464.751 721.558,457.627 
	671.841,529.385 681.406,536.028 678.039,540.887 686.863,547.019 737.502,473.929 "/>
<polygon fill="#5485C4" stroke="#020202" stroke-miterlimit="10" points="1737.923,620.213 1675.301,630.81 1666.486,578.75 
	1729.105,568.147 "/>
<polygon fill="#5485C4" stroke="#020202" stroke-miterlimit="10" points="1795.736,540.643 1780.975,461.537 1732.191,470.638 
	1728.552,451.134 1710.523,454.497 1718.303,496.19 1718.332,496.185 1728.949,553.092 "/>
<polygon fill="#5485C4" stroke="#020202" stroke-miterlimit="10" points="1865.311,494.203 1850.04,497.044 1841.408,450.781 
	1856.678,447.934 "/>
<polygon fill="#5485C4" stroke="#020202" stroke-miterlimit="10" points="1840.404,450.647 1840.404,450.647 1836.905,431.032 
	1818.262,434.663 1821.889,454.102 1781.357,461.663 1796.115,540.758 1855.167,529.752 "/>
<polygon fill="#5485C4" stroke="#020202" stroke-miterlimit="10" points="1956.833,576.154 1885.579,588.211 1875.885,530.949 
	1947.135,518.885 "/>
<polygon fill="#5485C4" stroke="#020202" stroke-miterlimit="10" points="1966.391,633.497 1895.137,645.554 1885.442,588.292 
	1956.692,576.228 "/>
<polygon fill="#5485C4" stroke="#020202" stroke-miterlimit="10" points="1929.322,726.458 1868.928,739.875 1854.081,673.092 
	1914.471,659.667 "/>
<polygon fill="#1CB686" stroke="#020202" stroke-miterlimit="10" points="1812.104,739.305 1789.709,744.272 1774.861,677.49 
	1797.251,672.515 "/>
<polygon fill="#1CB686" stroke="#020202" stroke-miterlimit="10" points="1596.268,915.412 1574.927,920.144 1559.025,848.621 
	1580.361,843.88 "/>
<polygon fill="#1CB686" stroke="#020202" stroke-miterlimit="10" points="1399.016,960.662 1377.674,965.394 1361.773,893.872 
	1383.109,889.13 "/>
<rect x="1443.817" y="935.669" transform="matrix(0.9762 -0.217 0.217 0.9762 -169.5808 339.4825)" fill="#1CB686" stroke="#020202" stroke-miterlimit="10" width="34.742" height="12.662"/>
<polygon fill="#1CB686" stroke="#020202" stroke-miterlimit="10" points="1650.5,695.45 1639.093,622.393 1632.268,623.458 
	1631.355,617.624 1616.688,619.912 1617.6,625.746 1607.738,627.284 1609.152,636.344 1598.234,638.047 1600.572,653.021 
	1611.489,651.318 1614.205,668.713 1539.338,680.398 1540.078,685.143 1534.186,686.063 1536.523,701.036 1542.415,700.116 
	1544.252,711.884 1619.119,700.203 1619.14,700.332 "/>
<polygon fill="#1CB686" stroke="#020202" stroke-miterlimit="10" points="1791.67,669.634 1752.773,678.282 1751.066,670.597 
	1789.957,661.949 "/>
<polygon fill="#5485C4" stroke="#020202" stroke-miterlimit="10" points="1988.364,713.194 1927.97,726.61 1913.123,659.828 
	1973.513,646.403 "/>
<polygon fill="#5485C4" stroke="#020202" stroke-miterlimit="10" points="1746.782,672.36 1684.16,682.956 1675.346,630.896 
	1737.965,620.294 "/>
<rect x="1752.198" y="679.8" transform="matrix(0.986 -0.1667 0.1667 0.986 -89.9368 302.3146)" fill="#304969" stroke="#020202" stroke-miterlimit="10" width="7.205" height="14.149"/>
<polygon fill="#304969" stroke="#020202" stroke-miterlimit="10" points="1978.839,595.029 1963.822,597.565 1956.014,551.475 
	1971.034,548.936 "/>
<polygon fill="#304969" stroke="#020202" stroke-miterlimit="10" points="2003,610.97 1992.009,613.151 1983.834,572.06 
	1994.828,569.876 "/>
<rect x="1988.552" y="522.811" transform="matrix(0.986 -0.1668 0.1668 0.986 -61.3787 340.9889)" fill="#304969" stroke="#020202" stroke-miterlimit="10" width="21.304" height="26.136"/>
<rect x="1975.452" y="512.972" transform="matrix(0.7096 -0.7046 0.7046 0.7096 209.9656 1544.6377)" fill="#304969" stroke="#020202" stroke-miterlimit="10" width="6.774" height="9.26"/>
<polygon fill="#304969" stroke="#020202" stroke-miterlimit="10" points="1936.44,478.329 1913.602,489.294 1899.94,460.86 
	1922.783,449.89 "/>
<polygon fill="#304969" stroke="#020202" stroke-miterlimit="10" points="1919.325,444.785 1897.438,455.296 1889.773,439.349 
	1911.667,428.833 "/>
<rect x="1738.815" y="444.862" transform="matrix(0.9826 -0.1857 0.1857 0.9826 -54.2751 332.2064)" fill="#304969" stroke="#020202" stroke-miterlimit="10" width="14.611" height="21.905"/>
<rect x="1700.374" y="458.126" transform="matrix(0.9826 -0.1857 0.1857 0.9826 -56.8838 324.6334)" fill="#304969" stroke="#020202" stroke-miterlimit="10" width="8.509" height="15.734"/>
<polygon fill="#304969" stroke="#020202" stroke-miterlimit="10" points="1686.347,532.943 1669.347,536.157 1665.07,513.581 
	1682.074,510.366 "/>
<polygon fill="#304969" stroke="#020202" stroke-miterlimit="10" points="1864.75,512.048 1852.762,514.314 1849.57,497.473 
	1861.563,495.206 "/>
<polygon fill="#304969" stroke="#020202" stroke-miterlimit="10" points="1865.76,446.36 1840.506,451.134 1835.771,426.161 
	1861.035,421.384 "/>
<polygon fill="#304969" stroke="#020202" stroke-miterlimit="10" points="1728.553,550.846 1701.35,555.991 1698.558,541.268 
	1725.766,536.121 "/>
<polygon fill="#304969" stroke="#020202" stroke-miterlimit="10" points="1690.83,574.579 1667.371,579.013 1661.098,545.893 
	1684.561,541.457 "/>
<polygon fill="#304969" stroke="#020202" stroke-miterlimit="10" points="1903.834,424.5 1886.104,432.963 1875.001,411.667 
	1898.667,414.667 "/>
<rect x="2002.032" y="562.254" transform="matrix(0.986 -0.1669 0.1669 0.986 -66.4766 343.8678)" fill="#304969" stroke="#020202" stroke-miterlimit="10" width="21.305" height="10.395"/>
<polygon fill="#304969" stroke="#020202" stroke-miterlimit="10" points="932.365,643.94 801.401,610.917 819.364,539.653 
	950.334,572.667 "/>
<rect x="638.708" y="548.265" transform="matrix(0.6718 0.7407 -0.7407 0.6718 621.4838 -291.9107)" fill="#304969" stroke="#020202" stroke-miterlimit="10" width="2.928" height="14.285"/>
<rect x="649.299" y="538.686" transform="matrix(0.6718 0.7407 -0.7407 0.6718 617.864 -302.899)" fill="#304969" stroke="#020202" stroke-miterlimit="10" width="2.928" height="14.285"/>
<rect x="806.251" y="483.588" transform="matrix(0.9696 0.2447 -0.2447 0.9696 144.2493 -183.0814)" fill="#304969" stroke="#020202" stroke-miterlimit="10" width="5.093" height="10.587"/>
<rect x="804.13" y="494.565" transform="matrix(0.9696 0.2445 -0.2445 0.9696 146.2003 -182.856)" fill="#304969" stroke="#020202" stroke-miterlimit="10" width="10.956" height="5.745"/>
<rect x="1412.526" y="743.157" transform="matrix(0.9896 -0.1436 0.1436 0.9896 -92.5548 212.2532)" fill="#304969" stroke="#020202" stroke-miterlimit="10" width="23.711" height="8.527"/>
<rect x="1302.586" y="751.046" transform="matrix(0.9973 -0.0739 0.0739 0.9973 -52.1146 98.6529)" fill="#304969" stroke="#020202" stroke-miterlimit="10" width="9.583" height="5.367"/>
<rect x="1312.254" y="750.511" transform="matrix(0.9973 -0.0739 0.0739 0.9973 -52.0819 99.4352)" fill="#304969" stroke="#020202" stroke-miterlimit="10" width="9.583" height="5.367"/>
<rect x="1321.92" y="749.977" transform="matrix(0.9973 -0.0739 0.0739 0.9973 -52.0061 100.1277)" fill="#304969" stroke="#020202" stroke-miterlimit="10" width="9.585" height="5.367"/>
<rect x="1331.588" y="749.442" transform="matrix(0.9973 -0.0739 0.0739 0.9973 -51.95 100.8618)" fill="#304969" stroke="#020202" stroke-miterlimit="10" width="9.583" height="5.367"/>
<polygon fill="#1CB686" stroke="#020202" stroke-miterlimit="10" points="1063.617,681.44 1025.233,671.759 1034.5,635 
	1072.886,644.676 "/>
<polygon fill="#1CB686" stroke="#020202" stroke-miterlimit="10" points="1110.25,638.25 1039.127,621.115 1050.5,576 
	1103.25,589.75 "/>
<polygon fill="#304969" stroke="#020202" stroke-miterlimit="10" points="957.421,755.542 626.457,672.108 642.032,610.32 
	973.006,693.747 "/>
<rect x="968.88" y="127.549" transform="matrix(0.662 -0.7495 0.7495 0.662 237.2219 802.6781)" fill="#304969" stroke="#020202" stroke-miterlimit="10" width="79.261" height="21.582"/>
<rect x="896.587" y="110.703" transform="matrix(0.662 -0.7495 0.7495 0.662 213.6569 729.4207)" fill="#304969" stroke="#020202" stroke-miterlimit="10" width="38.021" height="34.216"/>
<rect x="935.762" y="145.519" transform="matrix(0.2087 -0.978 0.978 0.2087 591.7413 1045.8984)" fill="#304969" stroke="#020202" stroke-miterlimit="10" width="12.899" height="23.496"/>
<polygon fill="#304969" stroke="#020202" stroke-miterlimit="10" points="979.875,63.876 969.105,54.363 970.75,52.501 
	962.831,45.503 961.186,47.367 961.126,47.315 923.37,90.069 933.933,99.396 931.075,102.632 939.264,110.019 942.119,106.625 
	942.119,106.625 "/>
<polygon fill="#1CB686" stroke="#020202" stroke-miterlimit="10" points="821.826,403.25 834,404.75 833.405,409.969 842.25,411.75 
	824.25,484 801.401,478 "/>
<polygon fill="#1CB686" stroke="#020202" stroke-miterlimit="10" points="1113.7,654.605 1125.25,681.44 1122.25,695 1063.5,681.44 
	1072.645,645.108 "/>
<polygon fill="#304969" stroke="#020202" stroke-miterlimit="10" points="1529.834,714.833 1503.834,719.833 1527.167,702.833 
	1516.834,689.5 1476.334,718.833 1479.667,722.667 1488.667,716.5 1493.167,722.667 1460.834,728.667 1463.501,745 
	1532.834,731.167 "/>
<polygon fill="#304969" stroke="#020202" stroke-miterlimit="10" points="1053.101,144.907 1036.697,131.331 1008.511,164.139 
	1034.435,189.31 1048.293,172.058 1037.829,162.441 "/>
<polygon fill="#304969" stroke="#020202" stroke-miterlimit="10" points="1072,144.333 1057.333,151.833 1079,190.333 
	1085.166,186.167 1086.666,172.833 "/>
<polygon fill="#304969" stroke="#020202" stroke-miterlimit="10" points="1051.666,173.833 1037.166,189.31 1061.833,189.31 
	1064.333,185.333 "/>
<path fill="none" stroke="#FFFFFF" stroke-width="2" stroke-miterlimit="10" d="M903.213,880.978
	c-17.734-4.284-192.338-46.47-192.338-46.47s-43.846-11.036-49.425,9.392l-0.014-0.003l-0.104,0.43l-0.829,3.433l-0.104,0.427
	l0.015,0.005c-4.361,20.722,39.684,30.919,39.684,30.919s174.604,42.187,192.338,46.471c17.736,4.285,30.717-1.475,30.717-1.475
	l3.365-13.923l3.362-13.922C929.88,896.262,920.949,885.264,903.213,880.978z"/>
<path fill="none" stroke="#FFFFFF" stroke-width="2" stroke-miterlimit="10" d="M1011.035,961.579
	c17.734,4.285,192.338,46.47,192.338,46.47s43.84,11.062,49.717-10.6l0.014,0.004l0.111-0.456l0.877-3.639l0.112-0.453l-0.016-0.005
	c4.659-21.954-39.393-32.127-39.393-32.127s-174.604-42.187-192.338-46.471c-17.736-4.285-30.839,1.979-30.839,1.979l-3.566,14.757
	l-3.563,14.757C984.49,945.795,993.299,957.292,1011.035,961.579z"/>
<text transform="matrix(1 -2.500000e-004 2.500000e-004 1 100.4043 1137.9404)" fill="#FFFFFF" font-family="'NanumSquareB'" font-size="15">선각6공장 B동</text>
<text transform="matrix(1 -2.500000e-004 2.500000e-004 1 752.7441 684.0049)" fill="#FFFFFF" font-family="'NanumSquareB'" font-size="15">선행의장 F동</text>
<text transform="matrix(1 -2.500000e-004 2.500000e-004 1 1573.876 694.4502)" fill="#FFFFFF" font-family="'NanumSquareB'" font-size="15">설계관</text>
<text transform="matrix(1 -2.500000e-004 2.500000e-004 1 1696.4365 655.4014)" fill="#FFFFFF" font-family="'NanumSquareB'" font-size="15">16P</text>
<text transform="matrix(1 -2.500000e-004 2.500000e-004 1 1875.9961 707.3965)" fill="#FFFFFF" font-family="'NanumSquareB'" font-size="15">19P</text>
<text transform="matrix(1 -2.500000e-004 2.500000e-004 1 1935.9668 693.5029)" fill="#FFFFFF" font-family="'NanumSquareB'" font-size="15">18P</text>
<text transform="matrix(1 -2.500000e-004 2.500000e-004 1 1912.1387 613.1543)" fill="#FFFFFF" font-family="'NanumSquareB'" font-size="15">15P</text>
<text transform="matrix(1 -2.500000e-004 2.500000e-004 1 1899.3457 560.2383)" fill="#FFFFFF" font-family="'NanumSquareB'" font-size="15">14P</text>
<text transform="matrix(1 -2.500000e-004 2.500000e-004 1 1646.4082 526.2686)" fill="#FFFFFF" font-family="'NanumSquareB'" font-size="15">기타시설</text>
<text transform="matrix(1 -2.500000e-004 2.500000e-004 1 1890.8232 474.5195)" fill="#FFFFFF" font-family="'NanumSquareB'" font-size="15">포장공장</text>
<text transform="matrix(1 -2.500000e-004 2.500000e-004 1 1981.1563 539.4639)" fill="#FFFFFF" font-family="'NanumSquareB'" font-size="15">기타건물</text>
<text transform="matrix(1 -2.500000e-004 2.500000e-004 1 1805.7656 501.5693)" fill="#FFFFFF" font-family="'NanumSquareB'" font-size="15">8B</text>
<text transform="matrix(1 -2.500000e-004 2.500000e-004 1 1744.793 511.9326)" fill="#FFFFFF" font-family="'NanumSquareB'" font-size="15">7B</text>
<text transform="matrix(1 -2.500000e-004 2.500000e-004 1 1688.4365 605.8887)" fill="#FFFFFF" font-family="'NanumSquareB'" font-size="15">17P</text>
<text transform="matrix(1 -2.500000e-004 2.500000e-004 1 812.0137 596.8066)" fill="#FFFFFF" font-family="'NanumSquareB'" font-size="15">선각7공장 B동 셀터</text>
<text transform="matrix(1 -2.500000e-004 2.500000e-004 1 638.8877 508.9453)" fill="#FFFFFF" font-family="'NanumSquareB'" font-size="15">신뢰관(고객지원관)</text>
<text transform="matrix(1 -2.500000e-004 2.500000e-004 1 800.7344 450.6318)" fill="#FFFFFF" font-family="'NanumSquareB'" font-size="15">문현관</text>
<text transform="matrix(1 -2.500000e-004 2.500000e-004 1 704.084 423.8369)"><tspan x="0" y="0" fill="#FFFFFF" font-family="'NanumSquareB'" font-size="15">고객지원관</tspan><tspan x="13.65" y="18" fill="#FFFFFF" font-family="'NanumSquareB'" font-size="15">샤워실</tspan></text>
<text transform="matrix(1 -2.500000e-004 2.500000e-004 1 879.9639 136.3447)" fill="#FFFFFF" font-family="'NanumSquareB'" font-size="15">기타건물</text>
<text transform="matrix(1 -2.500000e-004 2.500000e-004 1 924.3223 81.0117)" fill="#FFFFFF" font-family="'NanumSquareB'" font-size="15">기타건물</text>
<text transform="matrix(1 -2.500000e-004 2.500000e-004 1 991.9893 156.2734)" fill="#FFFFFF" font-family="'NanumSquareB'" font-size="15">기타건물</text>
<text transform="matrix(1 -2.500000e-004 2.500000e-004 1 898.0137 419.7998)" fill="#FFFFFF" font-family="'NanumSquareB'" font-size="15">선각7공장</text>
<text transform="matrix(1 -2.500000e-004 2.500000e-004 1 189.1191 1045.9404)" fill="#FFFFFF" font-family="'NanumSquareB'" font-size="15">선각6공장 A동</text>
<text transform="matrix(0.9712 0.2384 -0.2384 0.9712 719.5889 856.6348)"><tspan x="0" y="0" fill="#FFFFFF" font-family="'MyriadPro-Bold'" font-size="20">2789(50K P/C, #5)</tspan><tspan x="-42.509" y="18" fill="#FFFFFF" font-family="'MyriadPro-Bold'" font-size="20">CENTRAL MARE(183 x 32.2)</tspan></text>
<text transform="matrix(0.9712 0.2384 -0.2384 0.9712 1044.5889 942.6348)"><tspan x="0" y="0" fill="#FFFFFF" font-family="'MyriadPro-Bold'" font-size="20">2778(50K P/C, #5)</tspan><tspan x="2.52" y="18" fill="#FFFFFF" font-family="'MyriadPro-Bold'" font-size="20">YASA(183 x 32.2)</tspan></text>
<g>
	
		<line fill="none" stroke="#ED1F24" stroke-width="2" stroke-miterlimit="10" x1="62.518" y1="1301.975" x2="62.518" y2="1275.583"/>
	<path fill="none" stroke="#ED1F24" stroke-width="2" stroke-miterlimit="10" d="M210.039,1330.702H62.518v-28.727"/>
	<polygon fill="#304969" stroke="#020202" stroke-miterlimit="10" points="-31.781,1198.528 -31.168,1199.081 -31.771,1198.517 	"/>
	<path fill="none" d="M2038-10.002H62.518v1082.793c24.762-25.261,48.961-47.299,65.479-56.124l69.333-58.667
		c0,0,135.333-86.667,141.333-91.334s24.001-19.333,24.001-19.333s16-24.667,32-42s42-66,42-66s43.334-65.334,50.667-76l76-84.667
		c0,0,50-50.667,63.333-74.001c0,0,128.668-208,141.335-226.667s68.667-108.667,68.667-108.667s51.331-63.333,63.998-78
		s85.334-91.333,85.334-91.333l190.665,150.666c0,0,262.666,177.333,274.666,182.667s89.334,46.667,176.001,29.333l200-44.667
		l34.667,1.333c0,0,56,14.667,80,38l72.003,383.333l-410,98.667l-19.334-9.333l-4,6l18.383,81.409L1646.001,906l-46.953,11.406
		l0.284,1.258l-142.667,88.667l-34,131.333l-826-216.667c0,0-329.335,351.333-352.669,374.666
		c-3.596,3.596-15.816,15.848-33.957,34.039H2038V-10.002z"/>
	<path fill="none" stroke="#ED1F24" stroke-width="2" stroke-miterlimit="10" d="M596.665,921.998l826,216.667l34-131.333
		l142.667-88.667l-0.284-1.258l-271.381,65.927l-246.333-62.667l-0.667-3l4.334-0.667l3-7l-171.333-45.667l-5.334,8l5.334,2V877
		L562,785L62.518,1301.975v28.727h147.521c18.141-18.191,30.361-30.443,33.957-34.039
		C267.33,1273.33,596.665,921.998,596.665,921.998z"/>
	<path fill="none" stroke="#ED1F24" stroke-width="2" stroke-miterlimit="10" d="M534.765,755.936
		c-6.053,0.132-16.098-0.269-16.098-0.269S507.666,752,498.333,761S341.667,905,341.667,905s-28.334,25.333-42.334,36.333
		S211,1012,210,1012.667s-118.667,126-118.667,126l-28.815,30.717v100.031L543.75,771.75L534.765,755.936z M137.7,1168.332
		l-25.147-25.126l43.631-43.669l25.149,25.13L137.7,1168.332z M231.367,1072.665l-25.147-25.126l43.631-43.669L275,1029
		L231.367,1072.665z"/>
	<path fill="none" stroke="#ED1F24" stroke-width="2" stroke-miterlimit="10" d="M80.23,1069.783l0.595,0.537l31.183-34.585
		l25.725,23.196l-31.202,34.6l-0.592-0.534l-43.421,48.157v8.145c31.701-33.186,84.148-87.965,84.148-87.965l48.667-51l46.667-39
		L326,902l64.666-56.333l70.667-65.333L497.666,747c0,0,15.334-12.333,19.334-21.333S527.333,696,527.333,696l-4.666-3.667
		l14.666-3.667l3,8.667V718c0,0,3.833,5.342,6.323,10.846L557.25,751.5l4.75,7l-4.5,4l2,12.75l-3.25,3.5L552,774l-3.258,4
		l-3.492-0.75L405.5,921.5L66,1272l-3.482,3.583v26.392L562,785l354.668,92v-2.667l-5.334-2l5.334-8L1088.001,910l-3,7l-4.334,0.667
		l0.667,3l246.333,62.667l271.381-65.927l-18.383-81.409l4-6l19.334,9.333l410-98.667l-72.003-383.333c-24-23.333-80-38-80-38
		l-34.667-1.333l-200,44.667c-86.667,17.333-164.001-24-176.001-29.333s-274.666-182.667-274.666-182.667L985.997-0.002
		c0,0-72.667,76.667-85.334,91.333s-63.998,78-63.998,78s-56,90-68.667,108.667S626.663,504.665,626.663,504.665
		c-13.333,23.333-63.333,74.001-63.333,74.001l-76,84.667c-7.333,10.667-50.667,76-50.667,76s-26,48.667-42,66s-32,42-32,42
		S344.662,862,338.662,866.667s-141.333,91.334-141.333,91.334l-69.333,58.667c-16.518,8.825-40.717,30.863-65.479,56.124v16.638
		L80.23,1069.783z"/>
	<path fill="#949991" stroke="#020202" stroke-miterlimit="10" d="M405.5,921.5l139.75-144.25l3.492,0.75l3.258-4l4.25,4.75
		l3.25-3.5l-2-12.75l4.5-4l-4.75-7l-10.594-22.654c-2.49-5.503-6.323-10.846-6.323-10.846v-20.667l-3-8.667l-14.666,3.667
		l4.666,3.667c0,0-6.333,20.667-10.333,29.667S497.666,747,497.666,747l-36.333,33.333l-70.667,65.333L326,902l-84,69.333
		l-46.667,39l-48.667,51c0,0-52.447,54.779-84.148,87.965v20.086l28.815-30.717c0,0,117.667-125.333,118.667-126
		s75.333-60.333,89.333-71.333S341.667,905,341.667,905S489,770,498.333,761s20.334-5.333,20.334-5.333s10.045,0.401,16.098,0.269
		l8.985,15.814L62.518,1269.415v6.168L66,1272L405.5,921.5z"/>
	<polygon fill="#304969" stroke="#020202" stroke-miterlimit="10" points="80.808,1070.339 80.825,1070.319 80.23,1069.783 
		62.518,1089.429 62.518,1141.154 105.938,1092.997 	"/>
	<polygon fill="#304969" stroke="#020202" stroke-miterlimit="10" points="105.938,1092.997 106.53,1093.53 137.732,1058.93 
		112.008,1035.734 80.825,1070.319 105.949,1092.984 	"/>
	<polygon fill="#304969" stroke="#020202" stroke-miterlimit="10" points="105.938,1092.997 105.949,1092.984 80.825,1070.319 
		80.808,1070.339 	"/>
	
		<rect x="129.169" y="1103.073" transform="matrix(-0.7074 -0.7068 0.7068 -0.7074 -550.5802 2039.9536)" fill="#5485C4" stroke="#020202" stroke-miterlimit="10" width="35.549" height="61.729"/>
	
		<rect x="222.836" y="1007.406" transform="matrix(-0.7074 -0.7068 0.7068 -0.7074 -323.0345 1942.8152)" fill="#5485C4" stroke="#020202" stroke-miterlimit="10" width="35.549" height="61.729"/>
</g>
</svg>
