<?xml version="1.0" encoding="utf-8"?>
<!-- Generator: Adobe Illustrator 16.0.0, SVG Export Plug-In . SVG Version: 6.00 Build 0)  -->
<!DOCTYPE svg PUBLIC "-//W3C//DTD SVG 1.1//EN" "http://www.w3.org/Graphics/SVG/1.1/DTD/svg11.dtd">
<svg version="1.1" id="Layer_1" xmlns="http://www.w3.org/2000/svg" xmlns:xlink="http://www.w3.org/1999/xlink" x="0px" y="0px"
	 width="2098px" height="987px" viewBox="0 0 2098 987" enable-background="new 0 0 2098 987" xml:space="preserve">
<path fill="none" stroke="#ED1F24" stroke-miterlimit="10" d="M1065.666,18.333L457.666,51l-170-16.333L0.999,335.001l4.667,200.667
	l134.667,4l0.667,227.334l578,96.666c0,0,162.667,22.668,203.334,25.334l581.334,58.668l38.666,32c0,0,209.334,8.666,224.667,4.666
	l29.333-17.333l42.666-51.999l27.334-45.334V704.337l-12.668,0.667l-7.333-388.667c0,0-329.999,42-389.999,45.333l-348.667,36.667
	L1065.666,18.333z"/>
<path fill="#959B91" stroke="#000000" stroke-miterlimit="10" d="M2009,219c0,0-154.333,48.333-187.666,52.667
	C1788,276,1683,287.667,1683,287.667l-60.289,6.223l-3.377-25.89l4-5.333l7.666-1.333l-1-8.667l-11,0.667L1613.334,208l3.666-4.667
	l12.666-0.108L1629.334,191l-14,0.242l-3.668-2.575l-5-46.667l7-8L1804,114.667v-13.333l-191.666,21.256l-8.668-7.923v-11
	l-140.793,13.881L1455,111.25v-14.5h-12.5v8l-1.75,3.5h-5l0.5,11.542L1448,119.5l7,8l4.75,36.75L1455,169l-12.75,0.807l1,11.943
	l13.875-2l3.125,3.5l5,35l-3.584,4.5l-14.666,1.5l1,11.298l30.5-2.798l-10-95.25l7.16-8.234L1583,118.333l11.334,9.667
	l12.673,126.493L1602,259.5l-115.25,11.75l-5.25-4L1479,249l-11,1.75l2.25,18l-3.75,5h-16l1.25,12.75h10l2.25,3l0.25,3.5l15.75-1.5
	l-1-4.25l3.5-5.25l121.75-11l4.998,5.859l1.826,18.231l-331.74,34.243l-177.172,19.207l-24.974-225.95L730.5,162.5l-375,39L330,209
	v7.5l-99.5,9.5v8.5l432-45l339-35.5l6,77.5l-643.5,68l6.5,54.5l640.5-67.5l9.928,70.846L978,362l-349,35.667L252.667,437
	l-202,21.333l-38,2.333L17,510l98-8.138l146.333-16.529l374-37.667l327.333-34.333l98.355-9.764l0.728,366.681
	c0,5-10.5,8.25-10.5,8.25l-43.25,0.75L832.75,753L712,734.5l-147.25-23v16l443,67l736.25,4.25v-17l-512.5-2.5h-144.25
	c-6.25-0.5-10.289-7.75-10.289-7.75V620L1077,473.75c-1-11.25,17.5-13.75,17.5-13.75l131.75-12.25l185-19l-2-16.25L1226.5,430
	c0,0-126.25,14-137.5,15s-10.5-14.25-10.5-14.25v-28.916L1328.667,377l346.999-37.333c0,0,126-14,138.334-16.333
	S1887.334,308,1899.334,305s123-39.667,123-39.667L2009,219z"/>
<rect x="166" y="610.334" fill="#5385C2" stroke="#000000" stroke-miterlimit="10" width="24" height="96.332"/>
<rect x="195.287" y="509.779" transform="matrix(0.9957 -0.0927 0.0927 0.9957 -50.0771 23.9986)" fill="#5385C2" stroke="#000000" stroke-miterlimit="10" width="76.169" height="82.87"/>
<rect x="255.369" y="663.421" transform="matrix(0.9942 -0.1077 0.1077 0.9942 -71.5496 33.1654)" fill="#FFFFFF" stroke="#000000" stroke-miterlimit="10" width="31.704" height="30.919"/>
<rect x="258.695" y="694.207" transform="matrix(0.9942 -0.1077 0.1077 0.9942 -74.8671 33.7136)" fill="#FFFFFF" stroke="#000000" stroke-miterlimit="10" width="31.704" height="30.919"/>
<rect x="390.914" y="721.501" transform="matrix(0.9914 0.1306 -0.1306 0.9914 99.6703 -46.7126)" fill="#FFFFFF" stroke="#000000" stroke-miterlimit="10" width="30.119" height="30.063"/>
<rect x="386.972" y="751.349" transform="matrix(0.9914 0.1306 -0.1306 0.9914 103.5052 -45.9313)" fill="#FFFFFF" stroke="#000000" stroke-miterlimit="10" width="30.12" height="30.063"/>
<rect x="420.415" y="725.501" transform="matrix(0.9914 0.1306 -0.1306 0.9914 100.4454 -50.5313)" fill="#FFFFFF" stroke="#000000" stroke-miterlimit="10" width="30.119" height="30.063"/>
<rect x="416.473" y="755.349" transform="matrix(0.9914 0.1306 -0.1306 0.9914 104.28 -49.7489)" fill="#FFFFFF" stroke="#000000" stroke-miterlimit="10" width="30.12" height="30.063"/>
<rect x="450.414" y="729.501" transform="matrix(0.9914 0.1306 -0.1306 0.9914 101.2247 -54.4149)" fill="#FFFFFF" stroke="#000000" stroke-miterlimit="10" width="30.119" height="30.063"/>
<rect x="446.472" y="759.349" transform="matrix(0.9914 0.1306 -0.1306 0.9914 105.0591 -53.6315)" fill="#FFFFFF" stroke="#000000" stroke-miterlimit="10" width="30.12" height="30.063"/>
<rect x="479.915" y="733.501" transform="matrix(0.9914 0.1306 -0.1306 0.9914 101.9998 -58.2336)" fill="#FFFFFF" stroke="#000000" stroke-miterlimit="10" width="30.119" height="30.063"/>
<rect x="475.973" y="763.349" transform="matrix(0.9914 0.1306 -0.1306 0.9914 105.8339 -57.4491)" fill="#FFFFFF" stroke="#000000" stroke-miterlimit="10" width="30.12" height="30.063"/>
<rect x="509.581" y="737.501" transform="matrix(0.9914 0.1306 -0.1306 0.9914 102.7763 -62.0738)" fill="#FFFFFF" stroke="#000000" stroke-miterlimit="10" width="30.119" height="30.063"/>
<rect x="505.639" y="767.349" transform="matrix(0.9914 0.1306 -0.1306 0.9914 106.6101 -61.2883)" fill="#FFFFFF" stroke="#000000" stroke-miterlimit="10" width="30.12" height="30.063"/>
<rect x="539.082" y="741.501" transform="matrix(0.9914 0.1306 -0.1306 0.9914 103.5514 -65.8924)" fill="#FFFFFF" stroke="#000000" stroke-miterlimit="10" width="30.119" height="30.063"/>
<rect x="535.14" y="771.349" transform="matrix(0.9914 0.1306 -0.1306 0.9914 107.3849 -65.1058)" fill="#FFFFFF" stroke="#000000" stroke-miterlimit="10" width="30.12" height="30.063"/>
<rect x="568.409" y="745.674" transform="matrix(0.9914 0.1306 -0.1306 0.9914 104.3621 -69.7736)" fill="#FFFFFF" stroke="#000000" stroke-miterlimit="10" width="31.365" height="30.063"/>
<rect x="564.466" y="775.522" transform="matrix(0.9914 0.1306 -0.1306 0.9914 108.1969 -68.9865)" fill="#FFFFFF" stroke="#000000" stroke-miterlimit="10" width="31.366" height="30.063"/>
<rect x="599.131" y="749.834" transform="matrix(0.9914 0.1306 -0.1306 0.9914 105.1429 -73.7349)" fill="#FFFFFF" stroke="#000000" stroke-miterlimit="10" width="31.365" height="30.063"/>
<rect x="595.188" y="779.683" transform="matrix(0.9914 0.1306 -0.1306 0.9914 109.0033 -72.9624)" fill="#FFFFFF" stroke="#000000" stroke-miterlimit="10" width="31.366" height="30.063"/>
<rect x="629.911" y="754.803" transform="matrix(0.9914 0.1306 -0.1306 0.9914 106.0738 -77.6876)" fill="#FFFFFF" stroke="#000000" stroke-miterlimit="10" width="30.791" height="30.063"/>
<rect x="625.969" y="784.651" transform="matrix(0.9914 0.1306 -0.1306 0.9914 109.9072 -76.8981)" fill="#FFFFFF" stroke="#000000" stroke-miterlimit="10" width="30.791" height="30.063"/>
<rect x="660.07" y="758.89" transform="matrix(0.9914 0.1306 -0.1306 0.9914 106.8658 -81.5916)" fill="#FFFFFF" stroke="#000000" stroke-miterlimit="10" width="30.791" height="30.062"/>
<rect x="656.128" y="788.737" transform="matrix(0.9914 0.1305 -0.1305 0.9914 110.673 -80.7845)" fill="#FFFFFF" stroke="#000000" stroke-miterlimit="10" width="30.791" height="30.063"/>
<rect x="690.081" y="764.257" transform="matrix(0.9914 0.1306 -0.1306 0.9914 107.8006 -85.4056)" fill="#FFFFFF" stroke="#000000" stroke-miterlimit="10" width="30.093" height="30.063"/>
<rect x="686.139" y="794.105" transform="matrix(0.9914 0.1306 -0.1306 0.9914 111.6339 -84.6151)" fill="#FFFFFF" stroke="#000000" stroke-miterlimit="10" width="30.093" height="30.063"/>
<rect x="719.556" y="768.254" transform="matrix(0.9914 0.1306 -0.1306 0.9914 108.5767 -89.2217)" fill="#FFFFFF" stroke="#000000" stroke-miterlimit="10" width="30.093" height="30.062"/>
<rect x="715.613" y="798.102" transform="matrix(0.9914 0.1306 -0.1306 0.9914 112.408 -88.4288)" fill="#FFFFFF" stroke="#000000" stroke-miterlimit="10" width="30.093" height="30.063"/>
<rect x="749.585" y="773.091" transform="matrix(0.9914 0.1306 -0.1306 0.9914 109.4919 -93.1215)" fill="#FFFFFF" stroke="#000000" stroke-miterlimit="10" width="30.093" height="30.062"/>
<rect x="745.643" y="802.937" transform="matrix(0.9914 0.1306 -0.1306 0.9914 113.2963 -92.3078)" fill="#FFFFFF" stroke="#000000" stroke-miterlimit="10" width="30.093" height="30.064"/>
<rect x="779.06" y="777.088" transform="matrix(0.9914 0.1306 -0.1306 0.9914 110.2684 -96.9385)" fill="#FFFFFF" stroke="#000000" stroke-miterlimit="10" width="30.093" height="30.062"/>
<rect x="775.118" y="806.935" transform="matrix(0.9914 0.1306 -0.1306 0.9914 114.0704 -96.1215)" fill="#FFFFFF" stroke="#000000" stroke-miterlimit="10" width="30.093" height="30.063"/>
<rect x="808.585" y="781.18" transform="matrix(0.9914 0.1306 -0.1306 0.9914 111.0541 -100.7585)" fill="#FFFFFF" stroke="#000000" stroke-miterlimit="10" width="30.093" height="30.062"/>
<rect x="804.643" y="811.027" transform="matrix(0.9914 0.1306 -0.1306 0.9914 114.8573 -99.941)" fill="#FFFFFF" stroke="#000000" stroke-miterlimit="10" width="30.093" height="30.064"/>
<rect x="838.06" y="785.177" transform="matrix(0.9914 0.1306 -0.1306 0.9914 111.8306 -104.5757)" fill="#FFFFFF" stroke="#000000" stroke-miterlimit="10" width="30.093" height="30.062"/>
<rect x="834.118" y="815.025" transform="matrix(0.9914 0.1306 -0.1306 0.9914 115.6315 -103.7547)" fill="#FFFFFF" stroke="#000000" stroke-miterlimit="10" width="30.093" height="30.063"/>
<rect x="867.752" y="790.013" transform="matrix(0.9914 0.1306 -0.1306 0.9914 112.6853 -108.3861)" fill="#FFFFFF" stroke="#000000" stroke-miterlimit="10" width="30.093" height="30.063"/>
<rect x="863.81" y="819.861" transform="matrix(0.9914 0.1306 -0.1306 0.9914 116.5169 -107.5896)" fill="#FFFFFF" stroke="#000000" stroke-miterlimit="10" width="30.093" height="30.063"/>
<rect x="897.227" y="794.01" transform="matrix(0.9914 0.1306 -0.1306 0.9914 113.4615 -112.2025)" fill="#FFFFFF" stroke="#000000" stroke-miterlimit="10" width="30.093" height="30.062"/>
<rect x="893.284" y="823.858" transform="matrix(0.9914 0.1306 -0.1306 0.9914 117.291 -111.4034)" fill="#FFFFFF" stroke="#000000" stroke-miterlimit="10" width="30.093" height="30.063"/>
<rect x="927.25" y="798.138" transform="matrix(0.9914 0.1306 -0.1306 0.9914 114.2819 -116.142)" fill="#FFFFFF" stroke="#000000" stroke-miterlimit="10" width="30.626" height="30.063"/>
<rect x="923.307" y="827.986" transform="matrix(0.9914 0.1305 -0.1305 0.9914 118.0839 -115.3178)" fill="#FFFFFF" stroke="#000000" stroke-miterlimit="10" width="30.626" height="30.063"/>
<rect x="957.247" y="802.203" transform="matrix(0.9914 0.1306 -0.1306 0.9914 115.0697 -120.025)" fill="#FFFFFF" stroke="#000000" stroke-miterlimit="10" width="30.626" height="30.062"/>
<polygon fill="#FFFFFF" stroke="#000000" stroke-miterlimit="10" points="1079.334,875.5 981.836,863.984 989.686,805.01 
	1079.334,818.025 "/>
<rect x="953.304" y="832.052" transform="matrix(0.9914 0.1305 -0.1305 0.9914 118.8714 -119.1989)" fill="#FFFFFF" stroke="#000000" stroke-miterlimit="10" width="30.626" height="30.062"/>
<rect x="161.224" y="252.497" transform="matrix(0.9948 -0.1015 0.1015 0.9948 -26.3211 19.8131)" fill="#FFFFFF" stroke="#000000" stroke-miterlimit="10" width="40.819" height="32.375"/>
<rect x="164.501" y="284.753" transform="matrix(0.9948 -0.1014 0.1014 0.9948 -29.5736 20.3097)" fill="#FFFFFF" stroke="#000000" stroke-miterlimit="10" width="40.818" height="32.375"/>
<rect x="173.094" y="371.608" transform="matrix(0.996 -0.0892 0.0892 0.996 -33.8162 18.804)" fill="#FFFFFF" stroke="#000000" stroke-miterlimit="10" width="40.819" height="32.375"/>
<rect x="175.973" y="403.903" transform="matrix(0.996 -0.0892 0.0892 0.996 -36.676 19.1841)" fill="#FFFFFF" stroke="#000000" stroke-miterlimit="10" width="40.818" height="32.375"/>
<rect x="213.779" y="367.847" transform="matrix(0.996 -0.0892 0.0892 0.996 -33.3143 22.4145)" fill="#FFFFFF" stroke="#000000" stroke-miterlimit="10" width="40.819" height="32.375"/>
<rect x="216.658" y="400.142" transform="matrix(0.996 -0.0892 0.0892 0.996 -36.1832 22.8002)" fill="#FFFFFF" stroke="#000000" stroke-miterlimit="10" width="40.818" height="32.375"/>
<rect x="254.095" y="363.832" transform="matrix(0.996 -0.0892 0.0892 0.996 -32.8014 25.946)" fill="#FFFFFF" stroke="#000000" stroke-miterlimit="10" width="39.681" height="32.375"/>
<rect x="256.974" y="396.127" transform="matrix(0.996 -0.0892 0.0892 0.996 -35.6612 26.3242)" fill="#FFFFFF" stroke="#000000" stroke-miterlimit="10" width="39.681" height="32.375"/>
<rect x="293.645" y="360.173" transform="matrix(0.996 -0.0892 0.0892 0.996 -32.3131 29.4547)" fill="#FFFFFF" stroke="#000000" stroke-miterlimit="10" width="39.681" height="32.375"/>
<rect x="296.525" y="392.467" transform="matrix(0.996 -0.0892 0.0892 0.996 -35.182 29.8405)" fill="#FFFFFF" stroke="#000000" stroke-miterlimit="10" width="39.681" height="32.375"/>
<rect x="333.425" y="355.797" transform="matrix(0.996 -0.0892 0.0892 0.996 -31.7685 33.0219)" fill="#FFFFFF" stroke="#000000" stroke-miterlimit="10" width="40.38" height="32.375"/>
<rect x="336.304" y="388.092" transform="matrix(0.996 -0.0892 0.0892 0.996 -34.6289 33.3984)" fill="#FFFFFF" stroke="#000000" stroke-miterlimit="10" width="40.38" height="32.375"/>
<rect x="373.672" y="352.075" transform="matrix(0.996 -0.0892 0.0892 0.996 -31.2681 36.5866)" fill="#FFFFFF" stroke="#000000" stroke-miterlimit="10" width="40.38" height="32.375"/>
<rect x="376.552" y="384.37" transform="matrix(0.996 -0.0892 0.0892 0.996 -34.1367 36.9724)" fill="#FFFFFF" stroke="#000000" stroke-miterlimit="10" width="40.38" height="32.375"/>
<rect x="413.468" y="347.504" transform="matrix(0.996 -0.0892 0.0892 0.996 -30.7098 40.128)" fill="#FFFFFF" stroke="#000000" stroke-miterlimit="10" width="40.38" height="32.375"/>
<rect x="416.347" y="379.799" transform="matrix(0.996 -0.0892 0.0892 0.996 -33.5706 40.5027)" fill="#FFFFFF" stroke="#000000" stroke-miterlimit="10" width="40.38" height="32.375"/>
<rect x="453.715" y="342.782" transform="matrix(0.996 -0.0892 0.0892 0.996 -30.1206 43.6868)" fill="#FFFFFF" stroke="#000000" stroke-miterlimit="10" width="40.38" height="32.375"/>
<rect x="456.595" y="375.077" transform="matrix(0.996 -0.0892 0.0892 0.996 -32.9892 44.0727)" fill="#FFFFFF" stroke="#000000" stroke-miterlimit="10" width="40.38" height="32.375"/>
<rect x="494.044" y="338.499" transform="matrix(0.996 -0.0892 0.0892 0.996 -29.5856 47.2788)" fill="#FFFFFF" stroke="#000000" stroke-miterlimit="10" width="40.38" height="32.375"/>
<rect x="496.923" y="370.794" transform="matrix(0.996 -0.0892 0.0892 0.996 -32.4467 47.6516)" fill="#FFFFFF" stroke="#000000" stroke-miterlimit="10" width="40.38" height="32.375"/>
<rect x="534.291" y="334.777" transform="matrix(0.996 -0.0892 0.0892 0.996 -29.0859 50.8397)" fill="#FFFFFF" stroke="#000000" stroke-miterlimit="10" width="40.38" height="32.375"/>
<rect x="537.171" y="367.072" transform="matrix(0.996 -0.0892 0.0892 0.996 -31.9545 51.2257)" fill="#FFFFFF" stroke="#000000" stroke-miterlimit="10" width="40.38" height="32.375"/>
<rect x="574.442" y="330.495" transform="matrix(0.996 -0.0892 0.0892 0.996 -28.5512 54.4178)" fill="#FFFFFF" stroke="#000000" stroke-miterlimit="10" width="40.38" height="32.375"/>
<rect x="577.321" y="362.79" transform="matrix(0.996 -0.0892 0.0892 0.996 -31.4127 54.7888)" fill="#FFFFFF" stroke="#000000" stroke-miterlimit="10" width="40.38" height="32.375"/>
<rect x="614.69" y="326.773" transform="matrix(0.996 -0.0892 0.0892 0.996 -28.0519 57.9767)" fill="#FFFFFF" stroke="#000000" stroke-miterlimit="10" width="40.38" height="32.375"/>
<rect x="617.569" y="359.068" transform="matrix(0.996 -0.0892 0.0892 0.996 -30.9205 58.3628)" fill="#FFFFFF" stroke="#000000" stroke-miterlimit="10" width="40.38" height="32.375"/>
<rect x="654.663" y="323.219" transform="matrix(0.996 -0.0892 0.0892 0.996 -27.581 61.5217)" fill="#FFFFFF" stroke="#000000" stroke-miterlimit="10" width="40.011" height="32.375"/>
<rect x="657.543" y="355.514" transform="matrix(0.996 -0.0892 0.0892 0.996 -30.4428 61.8915)" fill="#FFFFFF" stroke="#000000" stroke-miterlimit="10" width="40.01" height="32.375"/>
<rect x="694.544" y="318.529" transform="matrix(0.996 -0.0892 0.0892 0.996 -26.9976 65.0425)" fill="#FFFFFF" stroke="#000000" stroke-miterlimit="10" width="40.011" height="32.375"/>
<rect x="697.423" y="350.825" transform="matrix(0.996 -0.0892 0.0892 0.996 -29.8656 65.4278)" fill="#FFFFFF" stroke="#000000" stroke-miterlimit="10" width="40.011" height="32.375"/>
<rect x="734.172" y="313.748" transform="matrix(0.996 -0.0892 0.0892 0.996 -26.4196 68.5748)" fill="#FFFFFF" stroke="#000000" stroke-miterlimit="10" width="40.011" height="32.375"/>
<rect x="737.051" y="346.043" transform="matrix(0.996 -0.0892 0.0892 0.996 -29.2817 68.9429)" fill="#FFFFFF" stroke="#000000" stroke-miterlimit="10" width="40.01" height="32.375"/>
<rect x="774.052" y="310.059" transform="matrix(0.996 -0.0892 0.0892 0.996 -25.9257 72.0977)" fill="#FFFFFF" stroke="#000000" stroke-miterlimit="10" width="40.011" height="32.375"/>
<rect x="776.931" y="342.354" transform="matrix(0.996 -0.0892 0.0892 0.996 -28.7937 72.4831)" fill="#FFFFFF" stroke="#000000" stroke-miterlimit="10" width="40.011" height="32.375"/>
<rect x="813.682" y="305.21" transform="matrix(0.996 -0.0892 0.0892 0.996 -25.3413 75.6317)" fill="#FFFFFF" stroke="#000000" stroke-miterlimit="10" width="40.011" height="32.375"/>
<rect x="816.561" y="337.505" transform="matrix(0.996 -0.0892 0.0892 0.996 -28.2039 75.998)" fill="#FFFFFF" stroke="#000000" stroke-miterlimit="10" width="40.01" height="32.375"/>
<rect x="853.562" y="301.52" transform="matrix(0.996 -0.0892 0.0892 0.996 -24.8477 79.1528)" fill="#FFFFFF" stroke="#000000" stroke-miterlimit="10" width="40.011" height="32.375"/>
<rect x="856.441" y="333.816" transform="matrix(0.996 -0.0892 0.0892 0.996 -27.7157 79.5381)" fill="#FFFFFF" stroke="#000000" stroke-miterlimit="10" width="40.011" height="32.375"/>
<rect x="893.547" y="297.756" transform="matrix(0.996 -0.0892 0.0892 0.996 -24.3583 82.7247)" fill="#FFFFFF" stroke="#000000" stroke-miterlimit="10" width="40.011" height="32.375"/>
<rect x="896.426" y="330.051" transform="matrix(0.996 -0.0892 0.0892 0.996 -27.2211 83.0892)" fill="#FFFFFF" stroke="#000000" stroke-miterlimit="10" width="40.01" height="32.375"/>
<rect x="933.427" y="294.066" transform="matrix(0.996 -0.0892 0.0892 0.996 -23.8651 86.2439)" fill="#FFFFFF" stroke="#000000" stroke-miterlimit="10" width="40.011" height="32.375"/>
<rect x="936.306" y="326.362" transform="matrix(0.996 -0.0892 0.0892 0.996 -26.733 86.6292)" fill="#FFFFFF" stroke="#000000" stroke-miterlimit="10" width="40.011" height="32.375"/>
<rect x="973.246" y="290.153" transform="matrix(0.996 -0.0892 0.0892 0.996 -23.3575 89.7786)" fill="#FFFFFF" stroke="#000000" stroke-miterlimit="10" width="40.011" height="32.375"/>
<rect x="976.125" y="322.449" transform="matrix(0.996 -0.0892 0.0892 0.996 -26.2256 90.1639)" fill="#FFFFFF" stroke="#000000" stroke-miterlimit="10" width="40.011" height="32.375"/>
<rect x="201.721" y="248.363" transform="matrix(0.9948 -0.1014 0.1014 0.9948 -25.6924 23.8999)" fill="#FFFFFF" stroke="#000000" stroke-miterlimit="10" width="40.819" height="32.375"/>
<rect x="204.997" y="280.618" transform="matrix(0.9948 -0.1015 0.1015 0.9948 -28.9485 24.3993)" fill="#FFFFFF" stroke="#000000" stroke-miterlimit="10" width="40.819" height="32.375"/>
<rect x="242.129" y="244.029" transform="matrix(0.9948 -0.1014 0.1014 0.9948 -25.0443 27.9769)" fill="#FFFFFF" stroke="#000000" stroke-miterlimit="10" width="40.819" height="32.375"/>
<rect x="245.405" y="276.285" transform="matrix(0.9948 -0.1015 0.1015 0.9948 -28.3033 28.4796)" fill="#FFFFFF" stroke="#000000" stroke-miterlimit="10" width="40.819" height="32.376"/>
<rect x="282.626" y="239.895" transform="matrix(0.9948 -0.1014 0.1014 0.9948 -24.4135 32.0605)" fill="#FFFFFF" stroke="#000000" stroke-miterlimit="10" width="40.819" height="32.375"/>
<rect x="285.902" y="272.15" transform="matrix(0.9948 -0.1015 0.1015 0.9948 -27.6723 32.5639)" fill="#FFFFFF" stroke="#000000" stroke-miterlimit="10" width="40.818" height="32.376"/>
<rect x="323.176" y="235.527" transform="matrix(0.9948 -0.1014 0.1014 0.9948 -23.7613 36.1513)" fill="#FFFFFF" stroke="#000000" stroke-miterlimit="10" width="40.819" height="32.375"/>
<rect x="326.453" y="267.783" transform="matrix(0.9948 -0.1015 0.1015 0.9948 -27.0194 36.6545)" fill="#FFFFFF" stroke="#000000" stroke-miterlimit="10" width="40.819" height="32.376"/>
<rect x="363.672" y="231.392" transform="matrix(0.9948 -0.1014 0.1014 0.9948 -23.1349 40.2417)" fill="#FFFFFF" stroke="#000000" stroke-miterlimit="10" width="40.82" height="32.375"/>
<rect x="366.949" y="263.648" transform="matrix(0.9948 -0.1014 0.1014 0.9948 -26.3884 40.7371)" fill="#FFFFFF" stroke="#000000" stroke-miterlimit="10" width="40.818" height="32.375"/>
<rect x="404.08" y="227.059" transform="matrix(0.9948 -0.1014 0.1014 0.9948 -22.4848 44.3139)" fill="#FFFFFF" stroke="#000000" stroke-miterlimit="10" width="40.819" height="32.375"/>
<rect x="407.357" y="259.315" transform="matrix(0.9948 -0.1015 0.1015 0.9948 -25.746 44.8245)" fill="#FFFFFF" stroke="#000000" stroke-miterlimit="10" width="40.819" height="32.376"/>
<rect x="444.577" y="222.924" transform="matrix(0.9948 -0.1014 0.1014 0.9948 -21.8569 48.4016)" fill="#FFFFFF" stroke="#000000" stroke-miterlimit="10" width="40.818" height="32.375"/>
<rect x="447.854" y="255.18" transform="matrix(0.9948 -0.1014 0.1014 0.9948 -25.1124 48.901)" fill="#FFFFFF" stroke="#000000" stroke-miterlimit="10" width="40.818" height="32.376"/>
<rect x="485.126" y="218.307" transform="matrix(0.9948 -0.1014 0.1014 0.9948 -21.1791 52.4905)" fill="#FFFFFF" stroke="#000000" stroke-miterlimit="10" width="40.819" height="32.375"/>
<rect x="488.403" y="250.563" transform="matrix(0.9948 -0.1014 0.1014 0.9948 -24.4343 52.9893)" fill="#FFFFFF" stroke="#000000" stroke-miterlimit="10" width="40.819" height="32.376"/>
<rect x="525.623" y="214.173" transform="matrix(0.9948 -0.1014 0.1014 0.9948 -20.5525 56.5825)" fill="#FFFFFF" stroke="#000000" stroke-miterlimit="10" width="40.82" height="32.374"/>
<rect x="528.9" y="246.428" transform="matrix(0.9948 -0.1014 0.1014 0.9948 -23.8062 57.0766)" fill="#FFFFFF" stroke="#000000" stroke-miterlimit="10" width="40.818" height="32.375"/>
<rect x="566.031" y="209.839" transform="matrix(0.9948 -0.1014 0.1014 0.9948 -19.9026 60.653)" fill="#FFFFFF" stroke="#000000" stroke-miterlimit="10" width="40.819" height="32.375"/>
<rect x="569.308" y="242.095" transform="matrix(0.9948 -0.1015 0.1015 0.9948 -23.1606 61.1605)" fill="#FFFFFF" stroke="#000000" stroke-miterlimit="10" width="40.819" height="32.376"/>
<rect x="606.528" y="205.705" transform="matrix(0.9948 -0.1014 0.1014 0.9948 -19.2747 64.7411)" fill="#FFFFFF" stroke="#000000" stroke-miterlimit="10" width="40.818" height="32.374"/>
<rect x="609.804" y="237.96" transform="matrix(0.9948 -0.1014 0.1014 0.9948 -22.5302 65.2406)" fill="#FFFFFF" stroke="#000000" stroke-miterlimit="10" width="40.818" height="32.376"/>
<rect x="647.082" y="201.667" transform="matrix(0.9948 -0.1014 0.1014 0.9948 -18.6588 68.7474)" fill="#FFFFFF" stroke="#000000" stroke-miterlimit="10" width="39.234" height="32.375"/>
<rect x="650.359" y="233.923" transform="matrix(0.9948 -0.1014 0.1014 0.9948 -21.9156 69.2538)" fill="#FFFFFF" stroke="#000000" stroke-miterlimit="10" width="39.234" height="32.376"/>
<rect x="686.006" y="197.693" transform="matrix(0.9948 -0.1015 0.1015 0.9948 -18.0578 72.6902)" fill="#FFFFFF" stroke="#000000" stroke-miterlimit="10" width="39.235" height="32.375"/>
<rect x="689.284" y="229.949" transform="matrix(0.9948 -0.1015 0.1015 0.9948 -21.314 73.1918)" fill="#FFFFFF" stroke="#000000" stroke-miterlimit="10" width="39.234" height="32.375"/>
<rect x="724.845" y="193.519" transform="matrix(0.9948 -0.1014 0.1014 0.9948 -17.4309 76.5909)" fill="#FFFFFF" stroke="#000000" stroke-miterlimit="10" width="39.235" height="32.375"/>
<rect x="728.122" y="225.776" transform="matrix(0.9948 -0.1014 0.1014 0.9948 -20.6882 77.1011)" fill="#FFFFFF" stroke="#000000" stroke-miterlimit="10" width="39.234" height="32.376"/>
<rect x="763.77" y="189.546" transform="matrix(0.9948 -0.1014 0.1014 0.9948 -16.8286 80.5285)" fill="#FFFFFF" stroke="#000000" stroke-miterlimit="10" width="39.235" height="32.374"/>
<rect x="767.047" y="221.801" transform="matrix(0.9948 -0.1014 0.1014 0.9948 -20.0842 81.0293)" fill="#FFFFFF" stroke="#000000" stroke-miterlimit="10" width="39.234" height="32.375"/>
<rect x="802.533" y="185.174" transform="matrix(0.9948 -0.1014 0.1014 0.9948 -16.1819 84.4718)" fill="#FFFFFF" stroke="#000000" stroke-miterlimit="10" width="40.062" height="32.375"/>
<rect x="805.81" y="217.43" transform="matrix(0.9948 -0.1014 0.1014 0.9948 -19.4387 84.9808)" fill="#FFFFFF" stroke="#000000" stroke-miterlimit="10" width="40.062" height="32.376"/>
<rect x="842.279" y="181.116" transform="matrix(0.9948 -0.1015 0.1015 0.9948 -15.5675 88.5004)" fill="#FFFFFF" stroke="#000000" stroke-miterlimit="10" width="40.063" height="32.375"/>
<rect x="845.556" y="213.372" transform="matrix(0.9948 -0.1015 0.1015 0.9948 -18.8237 89.0035)" fill="#FFFFFF" stroke="#000000" stroke-miterlimit="10" width="40.061" height="32.375"/>
<rect x="881.936" y="176.859" transform="matrix(0.9948 -0.1014 0.1014 0.9948 -14.9287 92.4806)" fill="#FFFFFF" stroke="#000000" stroke-miterlimit="10" width="40.063" height="32.375"/>
<rect x="885.214" y="209.115" transform="matrix(0.9948 -0.1014 0.1014 0.9948 -18.1855 92.9928)" fill="#FFFFFF" stroke="#000000" stroke-miterlimit="10" width="40.062" height="32.376"/>
<rect x="921.683" y="172.801" transform="matrix(0.9948 -0.1014 0.1014 0.9948 -14.3133 96.5026)" fill="#FFFFFF" stroke="#000000" stroke-miterlimit="10" width="40.063" height="32.374"/>
<rect x="924.96" y="205.057" transform="matrix(0.9948 -0.1014 0.1014 0.9948 -17.5688 97.0038)" fill="#FFFFFF" stroke="#000000" stroke-miterlimit="10" width="40.062" height="32.376"/>
<rect x="961.671" y="168.579" transform="matrix(0.9948 -0.1014 0.1014 0.9948 -13.679 100.5385)" fill="#FFFFFF" stroke="#000000" stroke-miterlimit="10" width="40.062" height="32.375"/>
<rect x="964.947" y="200.835" transform="matrix(0.9948 -0.1014 0.1014 0.9948 -16.9343 101.0385)" fill="#FFFFFF" stroke="#000000" stroke-miterlimit="10" width="40.062" height="32.376"/>
<rect x="286.974" y="660.277" transform="matrix(0.9942 -0.1077 0.1077 0.9942 -71.0259 36.5509)" fill="#FFFFFF" stroke="#000000" stroke-miterlimit="10" width="31.704" height="30.918"/>
<rect x="290.3" y="691.061" transform="matrix(0.9942 -0.1077 0.1077 0.9942 -74.3442 37.1006)" fill="#FFFFFF" stroke="#000000" stroke-miterlimit="10" width="31.704" height="30.919"/>
<rect x="318.08" y="656.755" transform="matrix(0.9942 -0.1077 0.1077 0.9942 -70.4667 39.8817)" fill="#FFFFFF" stroke="#000000" stroke-miterlimit="10" width="31.704" height="30.919"/>
<rect x="321.406" y="687.541" transform="matrix(0.9942 -0.1077 0.1077 0.9942 -73.7838 40.4318)" fill="#FFFFFF" stroke="#000000" stroke-miterlimit="10" width="31.704" height="30.919"/>
<rect x="349.685" y="653.611" transform="matrix(0.9942 -0.1077 0.1077 0.9942 -69.943 43.2672)" fill="#FFFFFF" stroke="#000000" stroke-miterlimit="10" width="31.704" height="30.918"/>
<rect x="353.011" y="684.395" transform="matrix(0.9942 -0.1077 0.1077 0.9942 -73.2608 43.8188)" fill="#FFFFFF" stroke="#000000" stroke-miterlimit="10" width="31.704" height="30.919"/>
<rect x="381.362" y="650.38" transform="matrix(0.9942 -0.1077 0.1077 0.9942 -69.4117 46.6613)" fill="#FFFFFF" stroke="#000000" stroke-miterlimit="10" width="31.704" height="30.919"/>
<rect x="384.688" y="681.166" transform="matrix(0.9942 -0.1077 0.1077 0.9942 -72.7285 47.2131)" fill="#FFFFFF" stroke="#000000" stroke-miterlimit="10" width="31.704" height="30.919"/>
<rect x="412.966" y="647.236" transform="matrix(0.9942 -0.1077 0.1077 0.9942 -68.8881 50.0465)" fill="#FFFFFF" stroke="#000000" stroke-miterlimit="10" width="31.704" height="30.918"/>
<polygon fill="#FFFFFF" stroke="#000000" stroke-miterlimit="10" points="565.444,671.568 536.011,673.846 536.242,642.816 
	565.675,640.537 "/>
<polygon fill="#FFFFFF" stroke="#000000" stroke-miterlimit="10" points="594.912,669.063 565.479,671.34 565.71,640.311 
	595.143,638.031 "/>
<polygon fill="#FFFFFF" stroke="#000000" stroke-miterlimit="10" points="565.444,701.777 536.011,704.055 536.242,673.025 
	565.675,670.746 "/>
<polygon fill="#FFFFFF" stroke="#000000" stroke-miterlimit="10" points="535.78,674.318 506.347,676.596 506.578,645.566 
	536.011,643.287 "/>
<polygon fill="#FFFFFF" stroke="#000000" stroke-miterlimit="10" points="535.78,704.527 506.347,706.805 506.578,675.775 
	536.011,673.496 "/>
<polygon fill="#FFFFFF" stroke="#000000" stroke-miterlimit="10" points="506.116,676.648 476.683,678.926 476.914,647.896 
	506.347,645.617 "/>
<polygon fill="#FFFFFF" stroke="#000000" stroke-miterlimit="10" points="506.116,706.857 476.683,709.135 476.914,678.105 
	506.347,675.826 "/>
<polygon fill="#FFFFFF" stroke="#000000" stroke-miterlimit="10" points="476.452,678.793 447.019,681.07 447.25,650.041 
	476.683,647.762 "/>
<polygon fill="#FFFFFF" stroke="#000000" stroke-miterlimit="10" points="476.452,709.002 447.019,711.279 447.25,680.25 
	476.683,677.971 "/>
<polygon fill="#FFFFFF" stroke="#000000" stroke-miterlimit="10" points="594.912,699.271 565.479,701.549 565.71,670.52 
	595.143,668.24 "/>
<polygon fill="#FFFFFF" stroke="#000000" stroke-miterlimit="10" points="626.505,665.824 595.143,668.088 595.374,637.059 
	626.735,634.793 "/>
<polygon fill="#FFFFFF" stroke="#000000" stroke-miterlimit="10" points="626.52,696.033 595.157,698.297 595.389,667.268 
	626.75,665.002 "/>
<polygon fill="#FFFFFF" stroke="#000000" stroke-miterlimit="10" points="655.784,661.682 626.75,663.963 626.981,632.933 
	656.015,630.65 "/>
<polygon fill="#FFFFFF" stroke="#000000" stroke-miterlimit="10" points="655.781,691.891 626.747,694.172 626.979,663.142 
	656.012,660.859 "/>
<rect x="416.293" y="678.02" transform="matrix(0.9942 -0.1077 0.1077 0.9942 -72.2055 50.6002)" fill="#FFFFFF" stroke="#000000" stroke-miterlimit="10" width="31.704" height="30.919"/>
<rect x="271.286" y="502.923" transform="matrix(0.9957 -0.0927 0.0927 0.9957 -49.1213 31.0166)" fill="#5385C2" stroke="#000000" stroke-miterlimit="10" width="76.169" height="82.871"/>
<rect x="351.724" y="493.084" transform="matrix(0.9957 -0.0927 0.0927 0.9957 -47.7976 39.7652)" fill="#5385C2" stroke="#000000" stroke-miterlimit="10" width="105.057" height="82.871"/>
<rect x="456.034" y="484.364" transform="matrix(0.9957 -0.0927 0.0927 0.9957 -46.5999 48.1153)" fill="#5385C2" stroke="#000000" stroke-miterlimit="10" width="77.45" height="82.871"/>
<rect x="533.053" y="477.78" transform="matrix(0.9957 -0.0927 0.0927 0.9957 -45.6775 54.8093)" fill="#5385C2" stroke="#000000" stroke-miterlimit="10" width="68.482" height="82.871"/>
<rect x="607.199" y="468.167" transform="matrix(0.9957 -0.0927 0.0927 0.9957 -44.4475 62.0859)" fill="#5385C2" stroke="#000000" stroke-miterlimit="10" width="78.091" height="82.871"/>
<rect x="684.705" y="460.551" transform="matrix(0.9957 -0.0927 0.0927 0.9957 -43.4188 69.1198)" fill="#5385C2" stroke="#000000" stroke-miterlimit="10" width="75.395" height="82.871"/>
<rect x="759.566" y="453.805" transform="matrix(0.9957 -0.0927 0.0927 0.9957 -42.5023 75.4498)" fill="#5385C2" stroke="#000000" stroke-miterlimit="10" width="62.725" height="82.871"/>
<rect x="822.133" y="448.922" transform="matrix(0.9957 -0.0927 0.0927 0.9957 -41.8352 79.7513)" fill="#5385C2" stroke="#000000" stroke-miterlimit="10" width="31.425" height="82.87"/>
<rect x="853.426" y="445.052" transform="matrix(0.9957 -0.0927 0.0927 0.9957 -41.3071 83.5171)" fill="#5385C2" stroke="#000000" stroke-miterlimit="10" width="50.197" height="82.87"/>
<rect x="836.306" y="528.606" transform="matrix(0.9957 -0.0927 0.0927 0.9957 -48.7582 83.4089)" fill="#304A6A" stroke="#000000" stroke-miterlimit="10" width="74.51" height="76.011"/>
<rect x="1103.69" y="63.052" transform="matrix(0.9957 -0.0927 0.0927 0.9957 -2.3258 105.3035)" fill="#304A6A" stroke="#000000" stroke-miterlimit="10" width="57.373" height="29.272"/>
<rect x="614.596" y="123.44" transform="matrix(0.9997 0.0226 -0.0226 0.9997 2.9822 -13.9254)" fill="#304A6A" stroke="#000000" stroke-miterlimit="10" width="6.05" height="3.087"/>
<rect x="608.477" y="123.44" transform="matrix(0.9997 0.0226 -0.0226 0.9997 2.9803 -13.7861)" fill="#304A6A" stroke="#000000" stroke-miterlimit="10" width="6.05" height="3.087"/>
<rect x="602.359" y="123.44" transform="matrix(0.9997 0.0226 -0.0226 0.9997 2.9791 -13.6489)" fill="#304A6A" stroke="#000000" stroke-miterlimit="10" width="6.05" height="3.087"/>
<rect x="1626.485" y="142.388" transform="matrix(0.9957 -0.0927 0.0927 0.9957 -6.5483 157.7378)" fill="#304A6A" stroke="#000000" stroke-miterlimit="10" width="136.916" height="13.961"/>
<rect x="1776.959" y="132.715" transform="matrix(0.9957 -0.0927 0.0927 0.9957 -5.2319 166.7415)" fill="#304A6A" stroke="#000000" stroke-miterlimit="10" width="30.97" height="13.961"/>
<rect x="1663.678" y="7.42" transform="matrix(0.8315 -0.5555 0.5555 0.8315 273.6655 930.2478)" fill="#304A6A" stroke="#000000" stroke-miterlimit="10" width="13.308" height="13.142"/>
<rect x="1667.798" y="31.186" transform="matrix(0.9965 -0.0837 0.0837 0.9965 3.0327 140.3344)" fill="#304A6A" stroke="#000000" stroke-miterlimit="10" width="13.307" height="5.657"/>
<rect x="1631.416" y="33.155" transform="matrix(0.9965 -0.0837 0.0837 0.9965 2.7377 137.2465)" fill="#304A6A" stroke="#000000" stroke-miterlimit="10" width="12.562" height="5.657"/>
<rect x="2069.295" y="247.289" transform="matrix(0.9965 -0.0837 0.0837 0.9965 -13.7249 175.306)" fill="#304A6A" stroke="#000000" stroke-miterlimit="10" width="28.434" height="8.046"/>
<rect x="1645.479" y="32.262" transform="matrix(0.0821 0.9966 -0.9966 0.0821 1552.2612 -1615.2388)" fill="#304A6A" stroke="#000000" stroke-miterlimit="10" width="15.103" height="5.657"/>
<rect x="1606.792" y="36.137" transform="matrix(0.0821 0.9966 -0.9966 0.0821 1520.6125 -1573.125)" fill="#304A6A" stroke="#000000" stroke-miterlimit="10" width="15.103" height="5.657"/>
<rect x="1619.068" y="87.089" transform="matrix(0.0822 0.9966 -0.9966 0.0822 1576.8795 -1535.1874)" fill="#304A6A" stroke="#000000" stroke-miterlimit="10" width="5.728" height="2.891"/>
<rect x="1688.915" y="-1.096" transform="matrix(0.5508 -0.8346 0.8346 0.5508 755.4501 1414.6489)" fill="#304A6A" stroke="#000000" stroke-miterlimit="10" width="6.15" height="13.155"/>
<rect x="1806.777" y="48.199" transform="matrix(0.2131 -0.977 0.977 0.2131 1365.2101 1816.2343)" fill="#304A6A" stroke="#000000" stroke-miterlimit="10" width="6.822" height="24.695"/>
<polygon fill="#304A6A" stroke="#000000" stroke-miterlimit="10" points="1824.216,266.667 1637.402,284.058 1626.133,163.02 
	1812.952,145.63 "/>
<rect x="1827.781" y="249.384" transform="matrix(0.9752 -0.2213 0.2213 0.9752 -11.1097 413.3052)" fill="#304A6A" stroke="#000000" stroke-miterlimit="10" width="21.701" height="13.681"/>
<rect x="1888.927" y="189.63" transform="matrix(0.7665 -0.6422 0.6422 0.7665 316.1278 1262.543)" fill="#304A6A" stroke="#000000" stroke-miterlimit="10" width="11.273" height="13.68"/>
<rect x="1895.389" y="131.113" transform="matrix(0.7665 -0.6423 0.6423 0.7665 356.8528 1250.5603)" fill="#304A6A" stroke="#000000" stroke-miterlimit="10" width="5.637" height="6.841"/>
<rect x="1886.214" y="121.231" transform="matrix(0.7466 -0.6653 0.6653 0.7466 395.8108 1288.3823)" fill="#304A6A" stroke="#000000" stroke-miterlimit="10" width="5.636" height="6.841"/>
<polygon fill="#304A6A" stroke="#000000" stroke-miterlimit="10" points="1451.431,306.688 1129.858,343.402 1104.271,119.29 
	1425.852,82.583 "/>
<rect x="1076.359" y="74.321" transform="matrix(0.9957 -0.0927 0.0927 0.9957 -2.8369 100.7031)" fill="#304A6A" stroke="#000000" stroke-miterlimit="10" width="12.399" height="13.137"/>
<rect x="1082.995" y="130.235" transform="matrix(0.9957 -0.0927 0.0927 0.9957 -7.8447 101.2222)" fill="#304A6A" stroke="#000000" stroke-miterlimit="10" width="5.811" height="9.674"/>
<rect x="1087.268" y="174.51" transform="matrix(0.9957 -0.0927 0.0927 0.9957 -12.0353 101.8136)" fill="#304A6A" stroke="#000000" stroke-miterlimit="10" width="5.811" height="11.955"/>
<rect x="1088.862" y="186.937" transform="matrix(0.9957 -0.0927 0.0927 0.9957 -13.4849 102.0289)" fill="#304A6A" stroke="#000000" stroke-miterlimit="10" width="5.811" height="18.528"/>
<rect x="1096.724" y="268.157" transform="matrix(0.9957 -0.0927 0.0927 0.9957 -20.6227 103.1079)" fill="#304A6A" stroke="#000000" stroke-miterlimit="10" width="5.81" height="10.793"/>
<rect x="1098.26" y="285.977" transform="matrix(0.9957 -0.0927 0.0927 0.9957 -22.5522 103.3229)" fill="#304A6A" stroke="#000000" stroke-miterlimit="10" width="5.811" height="16.993"/>
<rect x="1099.859" y="302.322" transform="matrix(0.9957 -0.0927 0.0927 0.9957 -23.8025 103.5295)" fill="#304A6A" stroke="#000000" stroke-miterlimit="10" width="5.811" height="11.431"/>
<rect x="1100.479" y="316.473" transform="matrix(0.9957 -0.0927 0.0927 0.9957 -25.4735 103.6647)" fill="#304A6A" stroke="#000000" stroke-miterlimit="10" width="5.811" height="19.247"/>
<rect x="1085.11" y="140.354" transform="matrix(0.9957 -0.0927 0.0927 0.9957 -9.8875 101.5134)" fill="#304A6A" stroke="#000000" stroke-miterlimit="10" width="5.811" height="33.715"/>
<rect x="1067.117" y="90.181" transform="matrix(0.9957 -0.0927 0.0927 0.9957 -4.3542 99.7568)" fill="#1CB686" stroke="#020202" stroke-miterlimit="10" width="9.081" height="13.137"/>
<rect x="642.789" y="126.61" transform="matrix(0.9957 -0.0927 0.0927 0.9957 -10.1112 60.5298)" fill="#1CB686" stroke="#020202" stroke-miterlimit="10" width="6.744" height="24.875"/>
<rect x="661.396" y="137.58" transform="matrix(0.9957 -0.0927 0.0927 0.9957 -10.5067 62.2778)" fill="#1CB686" stroke="#020202" stroke-miterlimit="10" width="6.744" height="13.192"/>
<rect x="952.539" y="101.566" transform="matrix(0.9833 -0.182 0.182 0.9833 -4.3045 181.6831)" fill="#304A6A" stroke="#000000" stroke-miterlimit="10" width="70.593" height="25.461"/>
<rect x="1025.462" y="82.296" transform="matrix(0.9833 -0.182 0.182 0.9833 1.5433 191.5183)" fill="#304A6A" stroke="#000000" stroke-miterlimit="10" width="37.725" height="10.108"/>
<rect x="986.879" y="463.252" transform="matrix(0.9957 -0.0927 0.0927 0.9957 -40.5746 95.036)" fill="#FFFFFF" stroke="#000000" stroke-miterlimit="10" width="31.582" height="42.011"/>
<rect x="926.546" y="469.351" transform="matrix(0.9957 -0.0927 0.0927 0.9957 -41.3998 89.4692)" fill="#FFFFFF" stroke="#000000" stroke-miterlimit="10" width="31.582" height="42.011"/>
<rect x="958.982" y="456.988" transform="matrix(0.9957 -0.0927 0.0927 0.9957 -40.8999 92.27)" fill="#F1ED75" stroke="#000000" stroke-miterlimit="10" width="27.847" height="58.929"/>
<rect x="417.975" y="632.394" transform="matrix(0.9939 -0.1104 0.1104 0.9939 -67.9286 51.23)" fill="#F1ED75" stroke="#000000" stroke-miterlimit="10" width="21.743" height="13.775"/>
<rect x="213.767" y="313.098" transform="matrix(0.9939 -0.1104 0.1104 0.9939 -33.9446 27.2702)" fill="#F1ED75" stroke="#000000" stroke-miterlimit="10" width="31.195" height="14.333"/>
<rect x="821.883" y="557.837" transform="matrix(0.9957 -0.0927 0.0927 0.9957 -49.5638 79.3115)" fill="#FFFFFF" stroke="#000000" stroke-miterlimit="10" width="13.83" height="30.487"/>
<rect x="792.24" y="559.656" transform="matrix(0.9957 -0.0927 0.0927 0.9957 -49.8141 77.2919)" fill="#FFFFFF" stroke="#000000" stroke-miterlimit="10" width="29.815" height="30.487"/>
<rect x="762.49" y="562.443" transform="matrix(0.9957 -0.0927 0.0927 0.9957 -50.2006 74.5463)" fill="#FFFFFF" stroke="#000000" stroke-miterlimit="10" width="29.815" height="30.487"/>
<rect x="732.614" y="565.385" transform="matrix(0.9957 -0.0927 0.0927 0.9957 -50.6018 71.7896)" fill="#FFFFFF" stroke="#000000" stroke-miterlimit="10" width="29.815" height="30.487"/>
<rect x="908.297" y="439.466" transform="matrix(0.9957 -0.0927 0.0927 0.9957 -37.7571 86.6485)" fill="#5385C2" stroke="#000000" stroke-miterlimit="10" width="11.761" height="20.874"/>
<rect x="191.793" y="500.722" transform="matrix(0.9976 -0.0694 0.0694 0.9976 -34.4831 15.0374)" fill="#5385C2" stroke="#000000" stroke-miterlimit="10" width="14.994" height="6.674"/>
<rect x="158.333" y="545.334" fill="#1CB686" stroke="#020202" stroke-miterlimit="10" width="13" height="50.666"/>
<rect x="158.333" y="525.354" fill="#1CB686" stroke="#020202" stroke-miterlimit="10" width="13" height="16.784"/>
<rect x="174.97" y="499.004" transform="matrix(0.9929 -0.1187 0.1187 0.9929 -58.7206 24.7901)" fill="#1CB686" stroke="#020202" stroke-miterlimit="10" width="7.544" height="12.649"/>
<rect x="164.824" y="500.103" transform="matrix(0.9929 -0.1187 0.1187 0.9929 -58.9163 23.7216)" fill="#1CB686" stroke="#020202" stroke-miterlimit="10" width="9.691" height="12.648"/>
<rect x="157.311" y="504.467" transform="matrix(0.9929 -0.1186 0.1186 0.9929 -59.115 22.6729)" fill="#1CB686" stroke="#020202" stroke-miterlimit="10" width="7.288" height="7.182"/>
<rect x="347.038" y="750.732" transform="matrix(0.9907 0.1361 -0.1361 0.9907 107.3983 -40.9949)" fill="#5385C2" stroke="#000000" stroke-miterlimit="10" width="12.783" height="28.007"/>
<rect x="202.519" y="724.853" transform="matrix(0.9907 0.1361 -0.1361 0.9907 101.6781 -21.6199)" fill="#5385C2" stroke="#000000" stroke-miterlimit="10" width="12.783" height="15.496"/>
<rect x="199.012" y="715.439" transform="matrix(0.9988 0.0492 -0.0492 0.9988 35.6427 -9.0446)" fill="#5385C2" stroke="#000000" stroke-miterlimit="10" width="5.021" height="7.937"/>
<rect x="198.415" y="740.225" transform="matrix(0.9988 0.0492 -0.0492 0.9988 36.8305 -8.986)" fill="#5385C2" stroke="#000000" stroke-miterlimit="10" width="5.021" height="6.671"/>
<rect x="205.286" y="717.293" transform="matrix(0.9988 0.0494 -0.0494 0.9988 35.8352 -9.5256)" fill="#1CB686" stroke="#020202" stroke-miterlimit="10" width="10.858" height="6.497"/>
<rect x="655.793" y="630.5" fill="#FFFFFF" stroke="#000000" stroke-miterlimit="10" width="51.457" height="60.75"/>
<rect x="707.25" y="630.5" fill="#FFFFFF" stroke="#000000" stroke-miterlimit="10" width="40.271" height="30.375"/>
<rect x="707.25" y="660.859" fill="#FFFFFF" stroke="#000000" stroke-miterlimit="10" width="40.271" height="30.375"/>
<rect x="747.521" y="630.5" fill="#FFFFFF" stroke="#000000" stroke-miterlimit="10" width="29.876" height="30.375"/>
<rect x="747.521" y="660.859" fill="#FFFFFF" stroke="#000000" stroke-miterlimit="10" width="29.876" height="30.375"/>
<rect x="777.398" y="629.25" fill="#FFFFFF" stroke="#000000" stroke-miterlimit="10" width="29.876" height="30.375"/>
<rect x="777.398" y="659.609" fill="#FFFFFF" stroke="#000000" stroke-miterlimit="10" width="29.876" height="30.375"/>
<rect x="807.274" y="629.242" fill="#FFFFFF" stroke="#000000" stroke-miterlimit="10" width="29.876" height="30.375"/>
<rect x="807.274" y="659.602" fill="#FFFFFF" stroke="#000000" stroke-miterlimit="10" width="29.876" height="30.375"/>
<rect x="807.274" y="689.977" fill="#FFFFFF" stroke="#000000" stroke-miterlimit="10" width="29.876" height="30.375"/>
<rect x="837.151" y="629.242" fill="#FFFFFF" stroke="#000000" stroke-miterlimit="10" width="29.876" height="30.375"/>
<rect x="837.151" y="659.602" fill="#FFFFFF" stroke="#000000" stroke-miterlimit="10" width="29.876" height="30.375"/>
<rect x="837.151" y="689.977" fill="#FFFFFF" stroke="#000000" stroke-miterlimit="10" width="29.876" height="30.375"/>
<rect x="867.027" y="605.906" fill="#FFFFFF" stroke="#000000" stroke-miterlimit="10" width="29.876" height="30.375"/>
<rect x="867.027" y="636.266" fill="#FFFFFF" stroke="#000000" stroke-miterlimit="10" width="29.876" height="30.375"/>
<rect x="867.027" y="666.641" fill="#FFFFFF" stroke="#000000" stroke-miterlimit="10" width="29.876" height="30.375"/>
<rect x="867.027" y="697.016" fill="#FFFFFF" stroke="#000000" stroke-miterlimit="10" width="29.876" height="30.375"/>
<rect x="896.904" y="605.906" fill="#FFFFFF" stroke="#000000" stroke-miterlimit="10" width="29.876" height="30.375"/>
<rect x="896.904" y="636.266" fill="#FFFFFF" stroke="#000000" stroke-miterlimit="10" width="29.876" height="30.375"/>
<rect x="896.904" y="666.641" fill="#FFFFFF" stroke="#000000" stroke-miterlimit="10" width="29.876" height="30.375"/>
<rect x="896.904" y="697.016" fill="#FFFFFF" stroke="#000000" stroke-miterlimit="10" width="29.876" height="30.375"/>
<rect x="926.78" y="575.523" fill="#FFFFFF" stroke="#000000" stroke-miterlimit="10" width="29.876" height="30.375"/>
<rect x="926.78" y="605.883" fill="#FFFFFF" stroke="#000000" stroke-miterlimit="10" width="29.876" height="30.375"/>
<rect x="926.78" y="636.258" fill="#FFFFFF" stroke="#000000" stroke-miterlimit="10" width="29.876" height="30.375"/>
<rect x="926.78" y="666.633" fill="#FFFFFF" stroke="#000000" stroke-miterlimit="10" width="29.876" height="30.375"/>
<rect x="926.78" y="697.016" fill="#FFFFFF" stroke="#000000" stroke-miterlimit="10" width="29.876" height="30.375"/>
<rect x="956.657" y="575.523" fill="#FFFFFF" stroke="#000000" stroke-miterlimit="10" width="29.876" height="30.375"/>
<rect x="956.657" y="605.883" fill="#FFFFFF" stroke="#000000" stroke-miterlimit="10" width="29.876" height="30.375"/>
<rect x="956.657" y="636.258" fill="#FFFFFF" stroke="#000000" stroke-miterlimit="10" width="29.876" height="30.375"/>
<rect x="956.657" y="666.633" fill="#FFFFFF" stroke="#000000" stroke-miterlimit="10" width="29.876" height="30.375"/>
<rect x="956.657" y="697.016" fill="#FFFFFF" stroke="#000000" stroke-miterlimit="10" width="29.876" height="30.375"/>
<rect x="986.533" y="575.523" fill="#FFFFFF" stroke="#000000" stroke-miterlimit="10" width="29.876" height="30.375"/>
<rect x="986.533" y="605.883" fill="#FFFFFF" stroke="#000000" stroke-miterlimit="10" width="29.876" height="30.375"/>
<rect x="986.533" y="636.258" fill="#FFFFFF" stroke="#000000" stroke-miterlimit="10" width="29.876" height="30.375"/>
<rect x="986.533" y="666.633" fill="#FFFFFF" stroke="#000000" stroke-miterlimit="10" width="29.876" height="30.375"/>
<rect x="986.533" y="697.016" fill="#FFFFFF" stroke="#000000" stroke-miterlimit="10" width="29.876" height="30.375"/>
<rect x="1079.334" y="818.025" fill="#FFFFFF" stroke="#000000" stroke-miterlimit="10" width="60.333" height="60.975"/>
<rect x="1139.667" y="819.525" fill="#FFFFFF" stroke="#000000" stroke-miterlimit="10" width="29.667" height="29.981"/>
<rect x="1139.667" y="849.507" fill="#FFFFFF" stroke="#000000" stroke-miterlimit="10" width="29.667" height="29.981"/>
<rect x="1169.334" y="819.525" fill="#FFFFFF" stroke="#000000" stroke-miterlimit="10" width="29.666" height="29.981"/>
<rect x="1169.334" y="849.507" fill="#FFFFFF" stroke="#000000" stroke-miterlimit="10" width="29.666" height="29.981"/>
<rect x="1199" y="819.525" fill="#FFFFFF" stroke="#000000" stroke-miterlimit="10" width="29.666" height="29.981"/>
<rect x="1199" y="849.507" fill="#FFFFFF" stroke="#000000" stroke-miterlimit="10" width="29.666" height="29.981"/>
<rect x="1228.666" y="819.525" fill="#FFFFFF" stroke="#000000" stroke-miterlimit="10" width="29.667" height="29.981"/>
<rect x="1228.666" y="849.507" fill="#FFFFFF" stroke="#000000" stroke-miterlimit="10" width="29.667" height="29.981"/>
<rect x="1258.333" y="819.525" fill="#FFFFFF" stroke="#000000" stroke-miterlimit="10" width="30.583" height="29.981"/>
<rect x="1258.333" y="849.507" fill="#FFFFFF" stroke="#000000" stroke-miterlimit="10" width="30.583" height="29.981"/>
<rect x="1288.916" y="819.525" fill="#FFFFFF" stroke="#000000" stroke-miterlimit="10" width="30.584" height="29.981"/>
<rect x="1288.916" y="849.507" fill="#FFFFFF" stroke="#000000" stroke-miterlimit="10" width="30.584" height="29.981"/>
<rect x="1319.5" y="819.525" fill="#FFFFFF" stroke="#000000" stroke-miterlimit="10" width="30.583" height="29.981"/>
<rect x="1319.5" y="849.507" fill="#FFFFFF" stroke="#000000" stroke-miterlimit="10" width="30.583" height="29.981"/>
<rect x="1350.083" y="819.525" fill="#FFFFFF" stroke="#000000" stroke-miterlimit="10" width="30.583" height="29.981"/>
<rect x="1350.083" y="849.507" fill="#FFFFFF" stroke="#000000" stroke-miterlimit="10" width="30.583" height="29.981"/>
<rect x="1380.666" y="819.525" fill="#FFFFFF" stroke="#000000" stroke-miterlimit="10" width="30.584" height="29.981"/>
<rect x="1380.666" y="849.507" fill="#FFFFFF" stroke="#000000" stroke-miterlimit="10" width="30.584" height="29.981"/>
<rect x="1411.25" y="819.525" fill="#FFFFFF" stroke="#000000" stroke-miterlimit="10" width="30.583" height="29.981"/>
<rect x="1441.833" y="825.191" fill="#FFFFFF" stroke="#000000" stroke-miterlimit="10" width="118.667" height="60.143"/>
<rect x="1088.964" y="475.029" fill="#FFFFFF" stroke="#000000" stroke-miterlimit="10" width="63.101" height="41.412"/>
<rect x="1088.964" y="516.441" fill="#FFFFFF" stroke="#000000" stroke-miterlimit="10" width="63.101" height="41.411"/>
<rect x="1088.964" y="557.853" fill="#FFFFFF" stroke="#000000" stroke-miterlimit="10" width="63.101" height="38.482"/>
<rect x="1088.964" y="596.335" fill="#FFFFFF" stroke="#000000" stroke-miterlimit="10" width="63.101" height="41.188"/>
<rect x="1088.964" y="637.523" fill="#FFFFFF" stroke="#000000" stroke-miterlimit="10" width="63.101" height="41.188"/>
<rect x="1088.964" y="678.711" fill="#FFFFFF" stroke="#000000" stroke-miterlimit="10" width="63.101" height="40.195"/>
<rect x="1088.964" y="718.906" fill="#FFFFFF" stroke="#000000" stroke-miterlimit="10" width="63.101" height="40.194"/>
<rect x="1156.631" y="475.029" fill="#FFFFFF" stroke="#000000" stroke-miterlimit="10" width="61.703" height="41.412"/>
<polygon fill="#FFFFFF" stroke="#000000" stroke-miterlimit="10" points="1218.334,475.029 1156.631,475.029 1156.631,454.223 
	1218.334,448.486 "/>
<rect x="1156.631" y="516.441" fill="#FFFFFF" stroke="#000000" stroke-miterlimit="10" width="61.703" height="41.411"/>
<rect x="1156.631" y="557.853" fill="#FFFFFF" stroke="#000000" stroke-miterlimit="10" width="61.703" height="38.482"/>
<rect x="1156.631" y="596.335" fill="#FFFFFF" stroke="#000000" stroke-miterlimit="10" width="61.703" height="41.188"/>
<rect x="1156.631" y="637.523" fill="#FFFFFF" stroke="#000000" stroke-miterlimit="10" width="61.703" height="41.188"/>
<rect x="1156.631" y="678.711" fill="#FFFFFF" stroke="#000000" stroke-miterlimit="10" width="61.703" height="40.195"/>
<rect x="1156.631" y="718.906" fill="#FFFFFF" stroke="#000000" stroke-miterlimit="10" width="61.703" height="40.194"/>
<rect x="1218.334" y="475.029" fill="#FFFFFF" stroke="#000000" stroke-miterlimit="10" width="32.666" height="41.412"/>
<rect x="1218.334" y="516.441" fill="#FFFFFF" stroke="#000000" stroke-miterlimit="10" width="32.666" height="41.411"/>
<rect x="1218.334" y="557.853" fill="#FFFFFF" stroke="#000000" stroke-miterlimit="10" width="32.666" height="38.482"/>
<rect x="1218.334" y="596.335" fill="#FFFFFF" stroke="#000000" stroke-miterlimit="10" width="32.666" height="41.188"/>
<rect x="1218.334" y="637.523" fill="#FFFFFF" stroke="#000000" stroke-miterlimit="10" width="32.666" height="41.188"/>
<rect x="1218.334" y="678.711" fill="#FFFFFF" stroke="#000000" stroke-miterlimit="10" width="32.666" height="40.195"/>
<rect x="1218.334" y="718.906" fill="#FFFFFF" stroke="#000000" stroke-miterlimit="10" width="32.666" height="40.194"/>
<rect x="1251" y="475.029" fill="#FFFFFF" stroke="#000000" stroke-miterlimit="10" width="29.334" height="41.412"/>
<rect x="1251" y="516.441" fill="#FFFFFF" stroke="#000000" stroke-miterlimit="10" width="29.334" height="41.411"/>
<rect x="1251" y="557.853" fill="#FFFFFF" stroke="#000000" stroke-miterlimit="10" width="29.334" height="38.482"/>
<rect x="1251" y="596.335" fill="#FFFFFF" stroke="#000000" stroke-miterlimit="10" width="29.334" height="41.188"/>
<rect x="1251" y="637.523" fill="#FFFFFF" stroke="#000000" stroke-miterlimit="10" width="29.334" height="41.188"/>
<rect x="1251" y="678.711" fill="#FFFFFF" stroke="#000000" stroke-miterlimit="10" width="29.334" height="40.195"/>
<rect x="1251" y="718.906" fill="#FFFFFF" stroke="#000000" stroke-miterlimit="10" width="29.334" height="40.194"/>
<rect x="1280.334" y="475.029" fill="#FFFFFF" stroke="#000000" stroke-miterlimit="10" width="61.166" height="41.412"/>
<polygon fill="#FFFFFF" stroke="#000000" stroke-miterlimit="10" points="1341.5,475.029 1280.334,475.029 1279.427,442.289 
	1341.5,437.25 "/>
<rect x="1280.334" y="516.441" fill="#FFFFFF" stroke="#000000" stroke-miterlimit="10" width="61.166" height="41.411"/>
<rect x="1280.334" y="557.853" fill="#FFFFFF" stroke="#000000" stroke-miterlimit="10" width="61.166" height="38.482"/>
<rect x="1280.334" y="596.335" fill="#FFFFFF" stroke="#000000" stroke-miterlimit="10" width="61.166" height="41.188"/>
<rect x="1280.334" y="637.523" fill="#FFFFFF" stroke="#000000" stroke-miterlimit="10" width="61.166" height="41.188"/>
<rect x="1280.334" y="678.711" fill="#FFFFFF" stroke="#000000" stroke-miterlimit="10" width="61.166" height="40.195"/>
<rect x="1280.334" y="718.906" fill="#FFFFFF" stroke="#000000" stroke-miterlimit="10" width="61.166" height="40.194"/>
<rect x="1348.834" y="475.029" fill="#FFFFFF" stroke="#000000" stroke-miterlimit="10" width="61.166" height="41.412"/>
<rect x="1348.834" y="437.25" fill="#FFFFFF" stroke="#000000" stroke-miterlimit="10" width="61.166" height="37.779"/>
<rect x="1348.834" y="516.441" fill="#FFFFFF" stroke="#000000" stroke-miterlimit="10" width="61.166" height="41.411"/>
<rect x="1348.834" y="557.853" fill="#FFFFFF" stroke="#000000" stroke-miterlimit="10" width="61.166" height="38.482"/>
<rect x="1348.834" y="596.335" fill="#FFFFFF" stroke="#000000" stroke-miterlimit="10" width="61.166" height="41.188"/>
<rect x="1348.834" y="637.523" fill="#FFFFFF" stroke="#000000" stroke-miterlimit="10" width="61.166" height="41.188"/>
<rect x="1348.834" y="678.711" fill="#FFFFFF" stroke="#000000" stroke-miterlimit="10" width="61.166" height="40.195"/>
<rect x="1348.834" y="718.906" fill="#FFFFFF" stroke="#000000" stroke-miterlimit="10" width="61.166" height="40.194"/>
<rect x="1422.334" y="481.029" fill="#FFFFFF" stroke="#000000" stroke-miterlimit="10" width="43.166" height="41.412"/>
<rect x="1422.334" y="443.25" fill="#FFFFFF" stroke="#000000" stroke-miterlimit="10" width="43.166" height="37.779"/>
<rect x="1422.334" y="522.441" fill="#FFFFFF" stroke="#000000" stroke-miterlimit="10" width="43.166" height="41.411"/>
<rect x="1422.334" y="563.853" fill="#FFFFFF" stroke="#000000" stroke-miterlimit="10" width="43.166" height="38.482"/>
<rect x="1422.334" y="602.335" fill="#FFFFFF" stroke="#000000" stroke-miterlimit="10" width="43.166" height="41.188"/>
<rect x="1422.334" y="643.523" fill="#FFFFFF" stroke="#000000" stroke-miterlimit="10" width="43.166" height="41.188"/>
<rect x="1422.334" y="684.711" fill="#FFFFFF" stroke="#000000" stroke-miterlimit="10" width="43.166" height="40.195"/>
<rect x="1422.334" y="724.906" fill="#FFFFFF" stroke="#000000" stroke-miterlimit="10" width="43.166" height="40.194"/>
<rect x="1465.5" y="481.029" fill="#FFFFFF" stroke="#000000" stroke-miterlimit="10" width="60" height="41.412"/>
<rect x="1465.5" y="443.25" fill="#FFFFFF" stroke="#000000" stroke-miterlimit="10" width="60" height="37.779"/>
<rect x="1465.5" y="400" fill="#FFFFFF" stroke="#000000" stroke-miterlimit="10" width="60" height="43.25"/>
<rect x="1465.5" y="522.441" fill="#FFFFFF" stroke="#000000" stroke-miterlimit="10" width="60" height="41.411"/>
<rect x="1465.5" y="563.853" fill="#FFFFFF" stroke="#000000" stroke-miterlimit="10" width="60" height="38.482"/>
<rect x="1465.5" y="602.335" fill="#FFFFFF" stroke="#000000" stroke-miterlimit="10" width="60" height="41.188"/>
<rect x="1465.5" y="643.523" fill="#FFFFFF" stroke="#000000" stroke-miterlimit="10" width="60" height="41.188"/>
<rect x="1465.5" y="684.711" fill="#FFFFFF" stroke="#000000" stroke-miterlimit="10" width="60" height="40.195"/>
<rect x="1465.5" y="724.906" fill="#FFFFFF" stroke="#000000" stroke-miterlimit="10" width="60" height="40.194"/>
<rect x="1532" y="724.906" fill="#FFFFFF" stroke="#000000" stroke-miterlimit="10" width="41.5" height="40.194"/>
<rect x="1615" y="724.906" fill="#FFFFFF" stroke="#000000" stroke-miterlimit="10" width="60.5" height="40.194"/>
<rect x="1615" y="684.711" fill="#FFFFFF" stroke="#000000" stroke-miterlimit="10" width="60.5" height="40.195"/>
<rect x="1615" y="644.02" fill="#FFFFFF" stroke="#000000" stroke-miterlimit="10" width="60.5" height="40.195"/>
<rect x="1615" y="604.167" fill="#FFFFFF" stroke="#000000" stroke-miterlimit="10" width="60.5" height="40.194"/>
<rect x="1615" y="563.853" fill="#FFFFFF" stroke="#000000" stroke-miterlimit="10" width="60.5" height="40.194"/>
<rect x="1615" y="523.049" fill="#FFFFFF" stroke="#000000" stroke-miterlimit="10" width="60.5" height="40.195"/>
<rect x="1615" y="483.666" fill="#FFFFFF" stroke="#000000" stroke-miterlimit="10" width="60.5" height="40.195"/>
<rect x="1615" y="442.863" fill="#FFFFFF" stroke="#000000" stroke-miterlimit="10" width="60.5" height="40.195"/>
<rect x="1615" y="402.528" fill="#FFFFFF" stroke="#000000" stroke-miterlimit="10" width="60.5" height="40.195"/>
<rect x="1681.334" y="724.906" fill="#FFFFFF" stroke="#000000" stroke-miterlimit="10" width="60.5" height="40.194"/>
<rect x="1681.334" y="684.711" fill="#FFFFFF" stroke="#000000" stroke-miterlimit="10" width="60.5" height="40.195"/>
<rect x="1681.334" y="644.02" fill="#FFFFFF" stroke="#000000" stroke-miterlimit="10" width="60.5" height="40.195"/>
<rect x="1681.334" y="604.167" fill="#FFFFFF" stroke="#000000" stroke-miterlimit="10" width="60.5" height="40.194"/>
<rect x="1681.334" y="563.853" fill="#FFFFFF" stroke="#000000" stroke-miterlimit="10" width="60.5" height="40.194"/>
<rect x="1681.334" y="523.049" fill="#FFFFFF" stroke="#000000" stroke-miterlimit="10" width="60.5" height="40.195"/>
<rect x="1681.334" y="483.666" fill="#FFFFFF" stroke="#000000" stroke-miterlimit="10" width="60.5" height="40.195"/>
<rect x="1681.334" y="442.863" fill="#FFFFFF" stroke="#000000" stroke-miterlimit="10" width="60.5" height="40.195"/>
<rect x="1681.334" y="402.528" fill="#FFFFFF" stroke="#000000" stroke-miterlimit="10" width="60.5" height="40.195"/>
<rect x="1741.834" y="724.906" fill="#FFFFFF" stroke="#000000" stroke-miterlimit="10" width="58.5" height="40.194"/>
<rect x="1804.834" y="707.906" fill="#1CB686" stroke="#020202" stroke-miterlimit="10" width="56.166" height="155.428"/>
<rect x="1214.964" y="382.921" transform="matrix(0.9945 -0.1047 0.1047 0.9945 -34.4443 139.4294)" fill="#1CB686" stroke="#020202" stroke-miterlimit="10" width="191.631" height="29.721"/>
<rect x="1419.012" y="365.146" transform="matrix(0.9945 -0.1047 0.1047 0.9945 -30.587 153.6723)" fill="#1CB686" stroke="#020202" stroke-miterlimit="10" width="58.866" height="6.069"/>
<rect x="1414.854" y="374.168" transform="matrix(0.9999 -0.0142 0.0142 0.9999 -5.2365 20.1016)" fill="#1CB686" stroke="#020202" stroke-miterlimit="10" width="4.898" height="11.534"/>
<rect x="1414.853" y="385.717" transform="matrix(0.9999 -0.0142 0.0142 0.9999 -5.4299 20.2744)" fill="#1CB686" stroke="#020202" stroke-miterlimit="10" width="12.655" height="11.534"/>
<rect x="1484.027" y="355.152" transform="matrix(0.9945 -0.1047 0.1047 0.9945 -29.0321 163.323)" fill="#1CB686" stroke="#020202" stroke-miterlimit="10" width="114.151" height="6.069"/>
<rect x="1599.307" y="348.852" transform="matrix(0.9945 -0.1047 0.1047 0.9945 -28.0177 169.9659)" fill="#5385C2" stroke="#000000" stroke-miterlimit="10" width="11.642" height="6.068"/>
<rect x="1611.52" y="348.019" transform="matrix(0.9945 -0.1047 0.1047 0.9945 -27.865 171.2542)" fill="#1CB686" stroke="#020202" stroke-miterlimit="10" width="11.641" height="6.068"/>
<rect x="1623.732" y="347.019" transform="matrix(0.9945 -0.1047 0.1047 0.9945 -27.6947 172.5418)" fill="#5385C2" stroke="#000000" stroke-miterlimit="10" width="11.64" height="6.069"/>
<rect x="1741.834" y="684.711" fill="#FFFFFF" stroke="#000000" stroke-miterlimit="10" width="58.5" height="40.195"/>
<rect x="1741.834" y="644.02" fill="#FFFFFF" stroke="#000000" stroke-miterlimit="10" width="58.5" height="40.195"/>
<rect x="1741.834" y="604.167" fill="#FFFFFF" stroke="#000000" stroke-miterlimit="10" width="58.5" height="40.194"/>
<rect x="1741.834" y="563.853" fill="#FFFFFF" stroke="#000000" stroke-miterlimit="10" width="58.5" height="40.194"/>
<rect x="1741.834" y="523.049" fill="#FFFFFF" stroke="#000000" stroke-miterlimit="10" width="58.5" height="40.195"/>
<rect x="1741.834" y="483.666" fill="#FFFFFF" stroke="#000000" stroke-miterlimit="10" width="58.5" height="40.195"/>
<rect x="1741.834" y="442.863" fill="#FFFFFF" stroke="#000000" stroke-miterlimit="10" width="58.5" height="40.195"/>
<rect x="1532" y="700.666" fill="#FFFFFF" stroke="#000000" stroke-miterlimit="10" width="41.5" height="24.24"/>
<rect x="1532" y="636.334" fill="#FFFFFF" stroke="#000000" stroke-miterlimit="10" width="41.5" height="64.332"/>
<rect x="1532" y="572" fill="#FFFFFF" stroke="#000000" stroke-miterlimit="10" width="41.5" height="64.334"/>
<rect x="1532" y="507.668" fill="#FFFFFF" stroke="#000000" stroke-miterlimit="10" width="41.5" height="64.332"/>
<rect x="1532" y="442.863" fill="#FFFFFF" stroke="#000000" stroke-miterlimit="10" width="41.5" height="64.333"/>
<rect x="1532" y="378.53" fill="#FFFFFF" stroke="#000000" stroke-miterlimit="10" width="41.5" height="64.333"/>
<rect x="1411.25" y="849.507" fill="#FFFFFF" stroke="#000000" stroke-miterlimit="10" width="30.583" height="29.981"/>
<rect x="1560.5" y="825.28" fill="#FFFFFF" stroke="#000000" stroke-miterlimit="10" width="30.584" height="29.981"/>
<rect x="1560.5" y="855.262" fill="#FFFFFF" stroke="#000000" stroke-miterlimit="10" width="30.584" height="29.982"/>
<rect x="1591.084" y="825.28" fill="#FFFFFF" stroke="#000000" stroke-miterlimit="10" width="30.583" height="29.981"/>
<rect x="1591.084" y="855.262" fill="#FFFFFF" stroke="#000000" stroke-miterlimit="10" width="30.583" height="29.982"/>
<rect x="1621.667" y="825.28" fill="#FFFFFF" stroke="#000000" stroke-miterlimit="10" width="30.583" height="29.981"/>
<rect x="1621.667" y="855.262" fill="#FFFFFF" stroke="#000000" stroke-miterlimit="10" width="30.583" height="29.982"/>
<rect x="1652.25" y="825.28" fill="#FFFFFF" stroke="#000000" stroke-miterlimit="10" width="30.584" height="29.981"/>
<rect x="1652.25" y="855.262" fill="#FFFFFF" stroke="#000000" stroke-miterlimit="10" width="30.584" height="29.982"/>
<path fill="#304A6A" stroke="#000000" stroke-miterlimit="10" d="M1478.834,59c0,0-8.834-1.667-13-1.167
	c-4.167,0.5-11,1.167-11,1.167l6.666,31l15-1.667L1478.834,59z"/>
<path fill="#304A6A" stroke="#000000" stroke-miterlimit="10" d="M1549.667,152.667l-29.333,2.667l3,37.167l23.166-2
	c0,0,12.666,0.333,13-3.667s-3-19.167-3-19.167L1549.667,152.667z"/>
<polygon fill="#304A6A" stroke="#000000" stroke-miterlimit="10" points="1716.5,20.5 1684.807,23.151 1685.354,39.667 
	1612.334,46.833 1616.167,85.333 1722.834,75 "/>
<polygon fill="#304A6A" stroke="#000000" stroke-miterlimit="10" points="1896.439,139.696 1836.803,70.535 1833.982,73.528 
	1829.324,68.219 1821.871,75.314 1819.07,72.475 1798.369,89.843 1866.332,167.914 "/>
<polygon fill="#304A6A" stroke="#000000" stroke-miterlimit="10" points="1945.328,195.077 1903.705,147.696 1898.543,152.791 
	1894.573,148.556 1884.846,156.827 1888.551,161.393 1878.956,169.731 1920.447,217.112 "/>
<polygon fill="#304A6A" stroke="#000000" stroke-miterlimit="10" points="1969.834,207.333 1974.166,202.667 1855,68.219 
	1860.834,48.667 1855,47 1850.5,63.333 1848.834,62.833 1845.334,68.219 1849.834,74.333 1892.167,120.222 1929.834,163.5 
	1931.834,167.914 1935.667,173 1938,174 "/>
<polygon fill="#304A6A" stroke="#000000" stroke-miterlimit="10" points="1113.048,420.377 1107.636,414.05 1110.41,406.199 
	1118.596,404.676 1124.008,411.004 1121.233,418.855 "/>
<text transform="matrix(1 -2.500000e-004 2.500000e-004 1 1281.7402 402.4805)" fill="#FFFFFF" font-family="'NanumSquareB'" font-size="15"></text>
<text transform="matrix(1 -2.500000e-004 2.500000e-004 1 1411.8984 397.4785)" fill="#FFFFFF" font-family="'NanumSquareB'" font-size="15"></text>
<text transform="matrix(1 -2.500000e-004 2.500000e-004 1 1096.2969 418.5352)" fill="#FFFFFF" font-family="'NanumSquareB'" font-size="15"></text>
<text transform="matrix(1 -2.500000e-004 2.500000e-004 1 838.9761 573.5322)" fill="#FFFFFF" font-family="'NanumSquareB'" font-size="15"> </text>
<text transform="matrix(1 -2.500000e-004 2.500000e-004 1 124.1431 661.8174)" fill="#FFFFFF" font-family="'NanumSquareB'" font-size="15"></text>
<text transform="matrix(1 -2.500000e-004 2.500000e-004 1 379.6353 487.9883)" fill="#FFFFFF" font-family="'NanumSquareB'" font-size="15">V/C</text>
<text transform="matrix(1 -2.500000e-004 2.500000e-004 1 663.9688 459.6553)" fill="#FFFFFF" font-family="'NanumSquareB'" font-size="15">V/C</text>
<text transform="matrix(1 -2.500000e-004 2.500000e-004 1 895.5034 453.4912)" fill="#FFFFFF" font-family="'NanumSquareB'" font-size="15"></text>
<text transform="matrix(1 -2.500000e-004 2.500000e-004 1 953.688 117.6963)" fill="#FFFFFF" font-family="'NanumSquareB'" font-size="15"></text>
<text transform="matrix(1 -2.500000e-004 2.500000e-004 1 484.2686 471.9902)" fill="#FFFFFF" font-family="'NanumSquareB'" font-size="15">VOCS</text>
<text transform="matrix(1 -2.500000e-004 2.500000e-004 1 155.4287 723.5059)" fill="#FFFFFF" font-family="'NanumSquareB'" font-size="15"> </text>
</svg>
