<?xml version="1.0" encoding="utf-8"?>
<!-- Generator: Adobe Illustrator 16.0.0, SVG Export Plug-In . SVG Version: 6.00 Build 0)  -->
<!DOCTYPE svg PUBLIC "-//W3C//DTD SVG 1.1//EN" "http://www.w3.org/Graphics/SVG/1.1/DTD/svg11.dtd">
<svg version="1.1" id="Layer_2" xmlns="http://www.w3.org/2000/svg" xmlns:xlink="http://www.w3.org/1999/xlink" x="0px" y="0px"
	 width="595.28px" height="841.89px" viewBox="0 0 595.28 841.89" enable-background="new 0 0 595.28 841.89" xml:space="preserve">
<path fill="#414252" d="M315,13.667v6.667l-4,5.333l-2.333,2.667l-5.334,4h-4.666L295.641,29l-4.307,1H287l-6-2.667L278.666,23
	l-6.332-7l-8.668-2.333h-6.332L253.666,19v4L251,24.667l-3,2V30v2.333l1.334,5H244L236.334,34l-1.668-4.333v4.667v3l-4.666,5
	L225.666,46H221l-3.666-2.667l3-5.333l-7,4l-5.668,4l-4-1.667l-5.666,3l-9.666,4l-4.668,2.333L177,59l-3.334,3.667l-5,3.333
	L162,70.667v3l-5,10.667L153.334,88v4.667l2,1.667l-2,6.333l-3.667,4V110l1.667,2l-1.667,5.333v4l-1.333,7.333H150l2.334,1.333
	l2.332,7l3.668,4.667l3,1.667l8.332,5.333l2,7.667L167.334,162l-7.668,3.333l-7-4.667l-4.332-4.333L143.666,157l-6.332-1.667l-3-2
	L129,151.667l-4-0.333L119.666,147l-4.332,6v2.667L112.666,164l-5,7l-2,5.333l-4,4h-5.332L91,173l-7,1l-4.666,0.333L77.666,179
	v4.333h-2V186l-6.332,3l-4.668,3v1.667l-5,2.667v2.333l-2,3.667l2.334,5h9.334L73,206l5,1.333L82,213l0.666,5.667l-0.332,6.667
	l1,4.667l1.332,4.667L85,238.333L84,241l-2.666,3.667L82,248l-0.666,4.667l-3,4.667l-2,1.333L76,263l1.334,1.667l0.333,3.667
	L74,269.667h-5.333l-8.333,8l-6.667,6.667l-2,5l-4.333,5l-4.667,4h-4.333l-6,3.667l-6.667,1.333l-7,1.333l-7,3.333v4l-1.333,4.667
	l3,4.333L16,324l2.667,4L19,331.667L23.667,334L29,326.667l2.667-2L35.334,327l6,7l3,3.333L46.667,341l0.667,5.333l-4,5.667
	L43,356.333l-2.333,6.333v3.667L56,361.667l8.334,3l-1,5.667L63,372.8h5.667l8.667-1.467l8.333-2L90,367h3.334l3.333,2.333l11-2.667
	l9-3.333l8-3.667c0,0,3.667-1.667,5.667,0s1.333,8.667,1.333,8.667L127.334,375l-3,10.333l5.666,7L142.667,400l20,9.667H171
	l7.667,4.333l7.667,5L197,420.333l6.667,1.333l1.333,6.667L204.667,434l3.333,3.334l2.334,6L210,448.667l-1,4l3.667,3.333l5,3.334
	l3.333,3l3.334,4L225,470l0.667,6.334l2.333,4l4,3.333l6.334,3.333l6,8.334l2.332,4l9,7.333l1,5.333l7.668,4.667
	c0,0,4.332,2.667,4.666,3.667s8.334,7.332,8.334,8.666s8,9.334,8,9.334l3.332-2.667l2.334,2.667l8.333,1.666H301l3-3.333h6.667
	L315,535l2.667-0.666l4.333-2l8.667-0.667l5.666-2l4.334,2.667l3,4c0,0-1,9,0,10.333s-1,3.667,0,6S350,560.666,354,562
	s8.666-0.333,10.333,6.667s11.334,8.667,8.667,12S367.667,590,367.667,590s-4.334,6-7.667,8s-5.001,12.001-7.667,12.334
	s-9.666,2.333-6.333,6.333s7.333,4.999,11.333,9.333s9.334,7.333,13.334,8.333s5.334,0,8.667,0s10.333-2,10.333-2l5-4.667l4-3
	l4.333-0.333l4.667,2l8.333,2.333v-9l6.334,3l5.333,3.334l4.333-3l3.667-1.667l3.333,2.333l4,8l4,5.334l4,6.333l4.334,5l2.666,6
	l2.667,4.333l4.667,2v6.667l-4,5l1.333,8.333l2.667,5l1.666,6l-2,5l-2.666,5l1,3.334h5.333h8l3.333,4.666l5.667,1.667h6.667
	l2.666,4.333v3.667l3.667,1.667l5.667,3l2.333-6.334l4-3.333V709l3.667-2l4.333-0.334v-8l3-6.333l3.667-0.333l5.333-0.667l4-2.333
	l2.333-6.334l1.667-5.666l4.333-2c0,0,2.668-1.333,5.334,0s7.333,9,7.333,9l3.333-3.667l2.667-3.667l9,0.667l3.667-3l2.666-4v-4.667
	L574.334,661L572,660l-4.333-1l-1-6L564,647.666L560.667,646l-5.333-0.667L554.667,639l-2.333-4.667v-6.667l3.666-5.333l0.334-6
	l2.666-6l5.334-1.667l3.666-5l-2-8l1.334-4.666H571l3-4.334l5.667-3.666v-4.667l-7.333,0.333l-0.667-6l5.667-5.333l2.333-4v-6.999
	v-9l5-7l5-0.334l3.613-4.666l-3.613-1.667l-4.667-3l1.334-3l1.333-4L580,525.334l-3.666,1L573,528.667L568.667,529v-5.333
	l3.667-4.667l2-5l-4-3.666l-8,5.666l-3-5.333l-1-17.333l-2-9.334L551,475.334l-8.666-9l-1.334-5l4-8.334l-6-5l-4.666-4.666l-5.334-5
	L524.667,440L519,440.667l-4.333-6.334l-1-4.667l-2.334,2.279L508,434h-2l-4.333-6.666L499.333,423l-1.666,1.666l-4,3.668L489,426
	l-5.333-8l-4.334-6L476,409.333l-3.333-7.667l-3-7.333l-2-3.333l-5.334-3.667L458,386.667l-1.667-8l-5-1.667l-2.666-6.667l-1-6.333
	l-9.334-2l-6.666,3.333l-7-3L424,357.667L414.333,360l-5.666-2l-3-2.667l-9-3l1.333-5l4.333-4.333l7-6l5.667-4.667l1.333-3.667
	l4.334-3l3-7l6,2l4.666-6.333v-4.667l-3.666-2l-5-3l-2-9.667l-0.334-6.667l2.667-2.667l1-8l-7.333-5.333L419,266.667l0.667-6.667
	l-1-8l9.666,4.667l5.334,3.667h3l8.666-2.667l6.334,2.333l6.333,2.333l4,5.667l4.333,3.667l6,3.333l2.667-4.667l1.333-4.667L480,262
	l-3.333-4.333l-5-7L471.333,241l4-6.667l4.334-7.667l3-5.667l1.666-4l1.667-3l-0.667-6L480,204.667l-3.333-5L476,188l5.667-4.333
	l0.666-5.333l-1-2.333l-1.666-10l3.333-6.333l-6.333-6L470.334,148l-8.667-3.333L457,149.333l-7-7.667L444.334,146l-4-2.333L434,142
	l-4.666-2L424,133l-2.666-4.667L421,120l1.334-5l2-6l4.666-5.667l0.334-6.667l-4-5.333l-0.667-4l3-4.667L431,77l-2-8.667L428.334,63
	l-4.667-7.333l-17-1l-4.667-3h-7.333L390,47l-2-5.667L379,41l-3-4l-3.333-2.667L367.334,33l-4.667-4l-5-5l-2-4l-9.333,1.333
	l-0.667,4.333l-3.667,5l-6.333-2.333L329.334,23L323,22l-4-4.333L315,13.667z"/>
<path fill="#5B5C71" d="M317,2.667v6.667l-4,5.333l-2.333,2.667l-5.334,4h-4.666L297.64,18l-4.307,1H289l-6-2.667L280.667,12
	l-6.333-7l-8.667-2.333h-6.333L255.667,8v4L253,13.667l-3,2V19v2.333l1.333,5H246L238.333,23l-1.667-4.333v4.667v3l-4.667,5
	L227.667,35H223l-3.667-2.667l3-5.333l-7,4l-5.667,4l-4-1.667l-5.667,3l-9.667,4l-4.667,2.333L179,48l-3.333,3.667l-5,3.333
	L164,59.667v3l-5,10.667L155.333,77v4.667l2,1.667l-2,6.333l-3.667,4V99l1.667,2l-1.667,5.333v4l-1.333,7.333H152l2.333,1.333
	l2.333,7l3.667,4.667l3,1.667l8.333,5.333l2,7.667L169.333,151l-7.667,3.333l-7-4.667l-4.333-4.333L145.667,146l-6.333-1.667l-3-2
	L131,140.667l-4-0.333L121.667,136l-4.333,6v2.667L114.667,153l-5,7l-2,5.333l-4,4h-5.333L93,162l-7,1l-4.667,0.333L79.667,168
	v4.333h-2V175l-6.333,3l-4.667,3v1.667l-5,2.667v2.333l-2,3.667l2.333,5h9.333L75,195l5,1.333L84,202l0.667,5.667l-0.333,6.667
	l1,4.667l1.333,4.667L87,227.333L86,230l-2.667,3.667L84,237l-0.667,4.667l-3,4.667l-2,1.333L78,252l1.333,1.667l0.333,3.667
	L76,258.667h-5.333l-8.333,8l-6.667,6.667l-2,5l-4.333,5l-4.667,4h-4.333l-6,3.667l-6.667,1.333l-7,1.333l-7,3.333v4l-1.333,4.667
	l3,4.333L18,313l2.667,4L21,320.667L25.667,323L31,315.667l2.667-2L37.333,316l6,7l3,3.333L48.667,330l0.667,5.333l-4,5.667
	L45,345.333l-2.333,6.333v3.667L58,350.667l8.333,3l-1,5.667L65,361.8h5.667l8.667-1.467l8.333-2L92,356h3.333l3.333,2.333l11-2.667
	l9-3.333l8-3.667c0,0,3.667-1.667,5.667,0s1.333,8.667,1.333,8.667L129.333,364l-3,10.333l5.667,7L144.667,389l20,9.667H173
	l7.667,4.333l7.667,5L199,409.333l6.667,1.333l1.333,6.667L206.667,423l3.333,3.334l2.333,6L212,437.667l-1,4l3.667,3.333l5,3.334
	l3.333,3l3.333,4L227,459l0.667,6.334l2.333,4l4,3.333l6.333,3.333l6,8.334l2.333,4l9,7.333l1,5.333l7.667,4.667
	c0,0,4.333,2.667,4.667,3.667s8.333,7.332,8.333,8.666s8,9.334,8,9.334l3.333-2.667l2.333,2.667l8.333,1.666H303l3-3.333h6.667
	L317,524l2.667-0.666l4.333-2l8.667-0.667l5.666-2l4.334,2.667l3,4c0,0-1,9,0,10.333s-1,3.667,0,6S352,549.666,356,551
	s8.666-0.333,10.333,6.667s11.334,8.667,8.667,12S369.667,579,369.667,579s-4.334,6-7.667,8s-5.001,12.001-7.667,12.334
	s-9.666,2.333-6.333,6.333s7.333,4.999,11.333,9.333s9.334,7.333,13.334,8.333s5.334,0,8.667,0s10.333-2,10.333-2l5-4.667l4-3
	l4.333-0.333l4.667,2l8.333,2.333v-9l6.334,3l5.333,3.334l4.333-3l3.667-1.667l3.333,2.333l4,8l4,5.334l4,6.333l4.334,5l2.666,6
	l2.667,4.333l4.667,2v6.667l-4,5l1.333,8.333l2.667,5l1.666,6l-2,5l-2.666,5l1,3.334h5.333h8l3.333,4.666l5.667,1.667h6.667
	l2.666,4.333v3.667l3.667,1.667l5.667,3l2.333-6.334l4-3.333V698l3.667-2l4.333-0.334v-8l3-6.333l3.667-0.333l5.333-0.667l4-2.333
	l2.333-6.334l1.667-5.666l4.333-2c0,0,2.668-1.333,5.334,0s7.333,9,7.333,9l3.333-3.667l2.667-3.667l9,0.667l3.667-3l2.666-4v-4.667
	L576.334,650L574,649l-4.333-1l-1-6L566,636.666L562.667,635l-5.333-0.667L556.667,628l-2.333-4.667v-6.667l3.666-5.333l0.334-6
	l2.666-6l5.334-1.667l3.666-5l-2-8l1.334-4.666H573l3-4.334l5.667-3.666v-4.667l-7.333,0.333l-0.667-6l5.667-5.333l2.333-4v-6.999
	v-9l5-7l5-0.334l3.613-4.666l-3.613-1.667l-4.667-3l1.334-3l1.333-4L582,514.334l-3.666,1L575,517.667L570.667,518v-5.333
	l3.667-4.667l2-5l-4-3.666l-8,5.666l-3-5.333l-1-17.333l-2-9.334L553,464.334l-8.666-9l-1.334-5l4-8.334l-6-5l-4.666-4.666l-5.334-5
	L526.667,429L521,429.667l-4.333-6.334l-1-4.667l-2.334,2.278L510,423h-2l-4.333-6.667L501.333,412l-1.666,1.667l-4,3.667L491,415
	l-5.333-8l-4.334-6L478,398.333l-3.333-7.667l-3-7.333l-2-3.333l-5.334-3.667L460,375.667l-1.667-8l-5-1.667l-2.666-6.667l-1-6.333
	l-9.334-2l-6.666,3.333l-7-3L426,346.667L416.333,349l-5.666-2l-3-2.667l-9-3l1.333-5l4.333-4.333l7-6l5.667-4.667l1.333-3.667
	l4.334-3l3-7l6,2l4.666-6.333v-4.667l-3.666-2l-5-3l-2-9.667l-0.334-6.667l2.667-2.667l1-8l-7.333-5.333L421,255.667l0.667-6.667
	l-1-8l9.666,4.667l5.334,3.667h3l8.666-2.667l6.334,2.333l6.333,2.333l4,5.667l4.333,3.667l6,3.333l2.667-4.667l1.333-4.667L482,251
	l-3.333-4.333l-5-7L473.333,230l4-6.667l4.334-7.667l3-5.667l1.666-4l1.667-3l-0.667-6L482,193.667l-3.333-5L478,177l5.667-4.333
	l0.666-5.333l-1-2.333l-1.666-10l3.333-6.333l-6.333-6L472.334,137l-8.667-3.333L459,138.333l-7-7.667L446.334,135l-4-2.333L436,131
	l-4.666-2L426,122l-2.666-4.667L423,109l1.334-5l2-6L431,92.333l0.334-6.667l-4-5.333l-0.667-4l3-4.667L433,66l-2-8.667L430.334,52
	l-4.667-7.333l-17-1l-4.667-3h-7.333L392,36l-2-5.667L381,30l-3-4l-3.333-2.667L369.334,22l-4.667-4l-5-5l-2-4l-9.333,1.333
	l-0.667,4.333l-3.667,5l-6.333-2.333L331.334,12L325,11l-4-4.333L317,2.667z"/>
<g>
	<path fill="none" stroke="#363849" stroke-width="1.5" stroke-miterlimit="10" d="M124.679,349.578l-6.012,2.755l-9,3.333
		l-11,2.667L95.333,356H92l-4.333,2.333l-8.333,2l-8.667,1.467H65l0.333-2.467l1-5.667l-8.333-3l-15.333,4.667v-3.667L45,345.333
		L45.333,341l4-5.667L48.667,330l-2.333-3.667l-3-3.333l-6-7l-3.667-2.333l-2.667,2L25.667,323L21,320.667L20.667,317L18,313
		l-2.667-3l-3-4.333L13.667,301v-4l7-3.333l7-1.333L34.333,291l6-3.667h4.333l4.667-4l4.333-5l2-5l6.667-6.667l8.333-8H76
		l3.667-1.333l-0.333-3.667L78,252l0.333-4.333l2-1.333l3-4.667L84,237l-0.667-3.333L86,230l1-2.667l-0.333-3.667L85.333,219
		l-1-4.667l0.333-6.667L84,202l-4-5.667L75,195l-3.667,1.333H62l-2.333-5l2-3.667v-2.333l5-2.667V181l4.667-3l6.333-3v-2.667h2V168
		l1.667-4.667L86,163l7-1l5.333,7.333h5.333l4-4l2-5.333l5-7l2.667-8.333V142l4.333-6l5.333,4.333l4,0.333l5.333,1.667l3,2
		l6.333,1.667l4.667-0.667l4.333,4.333l7,4.667l7.667-3.333l4.333-5.667l-2-7.667l-8.333-5.333l-3-1.667L156.667,126l-2.333-7
		L152,117.667h-1.667l1.333-7.333v-4l1.667-5.333l-1.667-2v-5.333l3.667-4l2-6.333l-2-1.667V77L159,73.333l5-10.667v-3L170.667,55
		l5-3.333L179,48"/>
	<path fill="none" stroke="#363849" stroke-width="1.5" stroke-miterlimit="10" d="M184.333,63.333l3.333,10v12L193,88v11.333
		l6.667,8l2.667,4l4.667,6v3.333l-4,6l-5.333,6.667L193,136.667L189,144l-5.667,4L179,153.333h-4.667l9,8.667v3.333L182.906,167
		h2.844l4.5-2.25h7l9.25,2.25l5.75,2.25l3,4.25l2.25,5.75h4.25l7.25,2.5l5.75,4.25l5.5,5.5l2.75,5.25l3.25,5V206h4.25h3.5l3.5-3
		c0,0,1.052,1.94,2.234,3.798l2.016-3.298c0,0,1.917-4.167,1.917-7.167s2.667-6.667,2.667-6.667l6-5l5-5.667v-7.333l6.333,6.333
		l2.667,1.667L293,182l-2.333-5.667l-2-4l-2.333-9l3.667-6l2-2.667L291.667,152H290v-3v-3l4-2.333V138c0,0,0.333-6,2-7
		s4.667-2,5-3.222s3.334-4.111,5-4.111s2.334,3,6,4s2-5,3.667-7s1-5.333,1.667-8s0.333-14.333,0-17.333s-5.334-2-5.334-2l2.334-2
		H318c0,0,5.667-2,9.334-4S328,85,329,81.667s-0.333-5.333,0-6.333s5-8,6.334-11.333s-1.334-4.333-1-8.667s3-6.333,3.646-9.667
		s0.688-5.667,0-8s-4.313-6.333-6.313-8s0.667-7,2.667-9c0.849-0.849,1.697-2.3,2.52-4.018L331.334,12L325,11l-4-4.333l-4-4v6.667
		l-4,5.333l-2.333,2.667l-5.334,4h-4.666L297.64,18l-4.307,1H289l-6-2.667L280.667,12l-6.333-7l-8.667-2.333h-6.333L255.667,8v4
		L253,13.667l-3,2V19v2.333l1.333,5H246L238.333,23l-1.667-4.333v4.667v3l-4.667,5L227.667,35H223l-3.667-2.667l3-5.333l-7,4
		l-5.667,4l-4-1.667l-5.667,3l-9.667,4l-4.667,2.333L179,48l5.333,7.333V63.333z"/>
	<path fill="none" stroke="#363849" stroke-width="1.5" stroke-miterlimit="10" d="M364.187,182.355L369,178l4.75-3l3.5-5.75
		l2.5-3.25l2-0.25l7.75,1l5.25,2l7.75,1l1.25-5v-6.25l3.25-4.75l-1.75-3.5l1.75-10.5l6.25-8.75l7-13.75l2.923-3.931L423,109l1.334-5
		l2-6L431,92.333l0.334-6.667l-4-5.333l-0.667-4l3-4.667L433,66l-2-8.667L430.334,52l-4.667-7.333l-17-1l-4.667-3h-7.333L392,36
		l-2-5.667L381,30l-3-4l-3.333-2.667L369.334,22l-4.667-4l-5-5l-2-4l-9.333,1.333l-0.667,4.333l-3.667,5l-6.333-2.333l-0.813-0.685
		c-0.822,1.717-1.671,3.169-2.52,4.018c-2,2-4.667,7.333-2.667,9s5.625,5.667,6.313,8s0.646,4.667,0,8s-3.312,5.334-3.646,9.667
		s2.334,5.333,1,8.667S329.333,74.333,329,75.333s1,3,0,6.333s2.001,3.667-1.666,5.667s-9.334,4-9.334,4h-3.666l-2.334,2
		c0,0,5.001-1,5.334,2s0.667,14.666,0,17.333s0,6-1.667,8s-0.001,8-3.667,7s-4.334-4-6-4s-4.667,2.889-5,4.111S297.667,130,296,131
		s-2,7-2,7v5.667L290,146v3v3h1.667l0.333,2.667l-2,2.667l-3.667,6l2.333,9l2,4L293,182l-6.667-2.333L283.667,178l-6.333-6.333V179
		l-5,5.667l-6,5c0,0-2.667,3.667-2.667,6.667s-1.917,7.167-1.917,7.167l-2.016,3.298c0.896,1.409,1.869,2.771,2.516,3.202
		c1.5,1,4.5,3.75,5.25,3.5s1.75-5.5,1.75-5.5l3.5,6.75H276l1.5-3.25l6,3.25l6.5,1.5l10.25,1.75c0,0,1.25-3,1.75-4.5
		s-4.36-5.5-4.36-5.5s-2.109-1.75,1.5-3s9.359-4.75,9.359-4.75l4.5-2l8.5-1.75l4.75-6.75v-6.25l1.5-5v-4L333,171l2.75-0.5
		c0,0,1.75-4.75,3-5.75s2-3.75,6.25-1.5s12,10,12,10l4.75,5.5l2,4L364.187,182.355"/>
	<path fill="none" stroke="#363849" stroke-width="1.5" stroke-miterlimit="10" d="M352.32,328.38l3.93,2.62H361h2.75l1.5,3
		l-1.5,6.25l-1.25,2.5h4.5l4-3l6-1.5l5-2h2.75h5.75l9.054,1.757l0.446-1.673l4.333-4.333l7-6l5.667-4.667l1.333-3.667l4.334-3l3-7
		l6,2l4.666-6.333v-4.667l-3.666-2l-5-3l-2-9.667l-0.334-6.667l2.667-2.667l1-8l-7.333-5.333L421,255.667l0.667-6.667l-1-8
		l9.666,4.667l5.334,3.667h3l8.666-2.667l6.334,2.333l6.333,2.333l4,5.667l4.333,3.667l6,3.333l2.667-4.667l1.333-4.667L482,251
		l-3.333-4.333l-5-7L473.333,230l4-6.667l4.334-7.667l3-5.667l1.666-4l1.667-3l-0.667-6L482,193.667l-3.333-5L478,177l5.667-4.333
		l0.666-5.333l-1-2.333l-1.666-10l3.333-6.333l-6.333-6L472.334,137l-8.667-3.333L459,138.333l-7-7.667L446.334,135l-4-2.333
		L436,131l-4.666-2L426,122l-2.666-4.667l-0.161-4.015l-2.923,3.931l-7,13.75l-6.25,8.75l-1.75,10.5l1.75,3.5l-3.25,4.75v6.25
		l-1.25,5l-7.75-1l-5.25-2l-7.75-1l-2,0.25l-2.5,3.25l-3.5,5.75l-4.75,3l-4.813,4.355c-0.15,2.922,0.024,6.15,1.063,8.645
		l-3.25,7.25v7v7.5l-4,3.75l-6.5,4.25l-3.25,2.5L347,227v3.25l-5.75,1.25l2.25,4.25l-0.25,6l0.5,3l-0.5,6.5l-4.25,3l-4,6l-4.75,4.5
		h-2.75l-1.25,4.25l2.75,2l3.75-2.5v2.5l-0.25,5.5l3.25,5l0.75,1.5h6.75H345h5.75l0.75,2.75l1.25,4h4l-0.25,4.5l-6.75,7.75l-4,5.5
		l-0.75,5.25l0.75,10.25l4.5,4L352.32,328.38"/>
	<path fill="none" stroke="#363849" stroke-width="1.5" stroke-miterlimit="10" d="M259.734,206.798
		C258.552,204.94,257.5,203,257.5,203l-3.5,3h-3.5h-4.25v-4.25l-3.25-5l-2.75-5.25l-5.5-5.5l-5.75-4.25l-7.25-2.5h-4.25l-2.25-5.75
		l-3-4.25L206.5,167l-9.25-2.25h-7l-4.5,2.25h-2.844L180,178.333c0,0-3.333,2.333,0.667,7S186,193,190.333,198.667s3,7,6.667,9.667
		s7.334,7.667,11.667,7s12.333,1.333,14.333,3s2.667,3,2.667,5.333s0,19.667,0,19.667s-1,3.333-4,9.333s-8.333,18-9.333,19.667
		s-4.333,5-6.333,5.333S202.667,277,204,282s3.667,5.667,4.333,7.667c0.161,0.483,0.164,1.104,0.042,1.784l3.292,0.549l6.333-1.667
		h3.75l8.917,1.667l3,4.667l5,4h5.667l5.333,5.667L254,309l5,3.333l2.667,3.333V319H259l-3.667,2.667l-0.667,3.667l0.475,5.047
		l3.858,1.286h3.667L266,339.5h7h3.667l5.333,3.25l11.5-1.75l4.14,3.333l6.167-1.583l4.527-3.25h4.333v-5.167l2.333-3l2.334-3
		l2.666-3h6l5.334-0.333v6.333v4.917l4,1.417h4L341,336.25h4l3.334-1.917L350,332l2.32-3.62l-2.07-1.38l-4.5-4L345,312.75l0.75-5.25
		l4-5.5l6.75-7.75l0.25-4.5h-4l-1.25-4l-0.75-2.75H345h-1.75h-6.75l-0.75-1.5l-3.25-5l0.25-5.5v-2.5L329,271l-2.75-2l1.25-4.25h2.75
		l4.75-4.5l4-6l4.25-3l0.5-6.5l-0.5-3l0.25-6l-2.25-4.25l5.75-1.25V227l1.25-3.75l3.25-2.5l6.5-4.25l4-3.75v-7.5v-7l3.25-7.25
		c-1.039-2.495-1.214-5.723-1.063-8.645l-0.437,0.395l-2-4l-4.75-5.5c0,0-7.75-7.75-12-10s-5,0.5-6.25,1.5s-3,5.75-3,5.75L333,171
		l-5.25,3.5v4l-1.5,5v6.25l-4.75,6.75l-8.5,1.75l-4.5,2c0,0-5.75,3.5-9.359,4.75s-1.5,3-1.5,3s4.86,4,4.36,5.5s-1.75,4.5-1.75,4.5
		L290,216.25l-6.5-1.5l-6-3.25l-1.5,3.25h-3.25l-3.5-6.75c0,0-1,5.25-1.75,5.5s-3.75-2.5-5.25-3.5
		C261.603,209.569,260.631,208.207,259.734,206.798"/>
	<polygon fill="none" stroke="#363849" stroke-width="1.5" stroke-miterlimit="10" points="384.75,336.25 382,336.25 377,338.25 
		371,339.75 367,342.75 362.5,342.75 361.25,345.25 358.25,350.25 355.75,353.25 352,354.75 349.5,356.5 348.75,359.75 349.75,366 
		351.5,370 355,372.5 358,372.5 357.8,377.101 360.667,377.833 363.667,383 369,383 371,385 374.667,387.333 377.667,389.667 
		380,396.333 380,404.667 378.334,409.333 381.667,415.333 385.334,420.945 388.125,420.945 390.667,427.334 392.334,427.334 
		397.667,427.334 400.334,425.334 400.334,420.945 402.667,418.333 407.667,417 412,424 418.334,427.334 422.25,434.334 
		427.334,440.334 425.667,447.334 422.25,452.667 419,457.667 417.667,462.667 409,465 400.667,465 398.667,469.667 
		397.334,475.667 399.667,478 404,482 403.667,487 398,489.334 395.962,488.442 400.334,495 408.667,495 412,495 414.334,489.333 
		414.334,487.5 419,487.5 423,490.667 427.334,491.333 432,491.333 437,491.667 443,489 448.667,489.333 452.667,489.333 
		457.334,485.667 459,480 459,474.333 462.667,474.333 469,474.333 472.667,472.333 474.667,470 484,474.333 488.334,479.333 
		488.334,482.162 492,481 497.334,479 500,477 502.667,477 506,481.166 510.667,481.166 514.667,477 516.667,474 521,477.333 
		523.334,479.666 525.667,472.333 528.667,470 534,470 537.667,465.333 537.667,460.167 537.667,453 545.614,444.888 547,442 
		541,437 536.334,432.334 531,427.334 526.667,429 521,429.667 516.667,423.333 515.667,418.667 513.333,420.945 510,423 508,423 
		503.667,416.333 501.333,412 499.667,413.667 495.667,417.333 491,415 485.667,407 481.333,401 478,398.333 474.667,390.667 
		471.667,383.333 469.667,380 464.333,376.333 460,375.667 458.333,367.667 453.333,366 450.667,359.333 449.667,353 440.333,351 
		433.667,354.333 426.667,351.333 426,346.667 416.333,349 410.667,347 407.667,344.333 398.667,341.333 399.554,338.007 
		390.5,336.25 	"/>
	<path fill="none" stroke="#363849" stroke-width="1.5" stroke-miterlimit="10" d="M548.666,595.666l-8.333-3l-6.667-5l-12-3.666
		l-4-5l-6.999-5l-5.711-2.607l-0.622,3.94l-2,6l-3,3.667L495,591l1,11.667L492.334,611l-4,6l-5,6.333L478,627.667l1-11l-8.333,2
		l-7-2.667L460,612.333L458,606l2-5l1-6l-0.333-4h-5L449,594.667L445.667,590l-4.333,7.333L439,607.667l-0.289,3.396l2.289,1.603
		l4,8l4,5.334l4,6.333l4.334,5l2.666,6l2.667,4.333l4.667,2v6.667l-4,5l1.333,8.333l2.667,5l1.666,6l-2,5l-2.666,5l1,3.334h5.333h8
		l3.333,4.666l5.667,1.667h6.667l2.666,4.333v3.667l3.667,1.667l5.667,3l2.333-6.334l4-3.333V698l3.667-2l4.333-0.334v-8l3-6.333
		l3.667-0.333l5.333-0.667l4-2.333l2.333-6.334l1.667-5.666l4.333-2c0,0,2.668-1.333,5.334,0s7.333,9,7.333,9l3.333-3.667
		l2.667-3.667l9,0.667l3.667-3l2.666-4v-4.667L576.334,650L574,649l-4.333-1l-1-6L566,636.666L562.667,635l-5.333-0.667L556.667,628
		l-2.333-4.667v-6.667l3.666-5.333l0.334-6l2.232-5.025l-6.899-4.642H548.666z"/>
	<polygon fill="none" stroke="#363849" stroke-width="1.5" stroke-miterlimit="10" points="591.667,522.667 587,519.667 
		588.334,516.667 589.667,512.667 582,514.334 578.334,515.334 575,517.667 570.667,518 570.667,512.667 574.334,508 576.334,503 
		572.334,499.334 564.334,505 561.334,499.667 560.334,482.334 558.334,473 553,464.334 544.334,455.334 543,450.334 
		545.614,444.888 537.667,453 537.667,460.167 537.667,465.333 534,470 528.667,470 525.667,472.333 523.334,479.666 521,477.333 
		516.667,474 514.667,477 510.667,481.166 506,481.166 502.667,477 500,477 497.334,479 492,481 488.334,482.162 488.334,485.667 
		490.667,489.333 488.667,495 488.667,499.667 490.667,504.333 488.334,507 483.667,510.75 474.334,510.75 466.667,516 467.334,521 
		470.334,524.333 470,531.667 471.667,534.333 474,536.667 478.334,538.333 486,540 490.667,542 493.667,546.334 496,543.667 
		499,534.667 501.667,534.667 507.334,536.667 510.667,541.667 507,546.334 506,550 507.667,551.667 510.667,557 507.667,562.667 
		505.334,569 504.956,571.393 510.667,574 517.666,579 521.666,584 533.666,587.666 540.333,592.666 548.666,595.666 
		553.667,595.666 560.566,600.308 561,599.333 566.334,597.666 570,592.666 568,584.666 569.334,580 573,580 576,575.666 
		581.667,572 581.667,567.333 574.334,567.666 573.667,561.666 579.334,556.333 581.667,552.333 581.667,545.334 581.667,536.334 
		586.667,529.334 591.667,529 595.28,524.334 	"/>
	<polyline fill="none" stroke="#363849" stroke-width="1.5" stroke-miterlimit="10" points="504.956,571.393 505.334,569 
		507.667,562.667 510.667,557 507.667,551.667 506,550 507,546.334 510.667,541.667 507.334,536.667 501.667,534.667 499,534.667 
		496,543.667 493.667,546.334 490.667,542 486,540 478.334,538.333 474,536.667 471.667,534.333 470,531.667 470.334,524.333 
		467.334,521 466.667,516 474.334,510.75 483.667,510.75 488.334,507 490.667,504.333 488.667,499.667 488.667,495 490.667,489.333 
		488.334,485.667 488.334,482.162 	"/>
	<path fill="none" stroke="#363849" stroke-width="1.5" stroke-miterlimit="10" d="M488.334,482.162v-2.829l-4.334-5L474.667,470
		l-2,2.333l-3.667,2h-6.333H459V480l-1.666,5.667l-4.667,3.666h-4L443,489l-6,2.667l-5-0.334h-4.666L423,490.667l-4-3.167h-4.666
		v1.833L412,495h-3.333h-8.333l-4.372-6.558L392.667,487H385l-5.666,6.667l-10.334,6L365.25,502l-1.583,5l-2,3.75l-3.333,3.584
		l-4.334,6V527l-8.773,4.94c-0.022,1.724,0.074,3.239,0.44,3.727c1,1.333-1,3.667,0,6S352,549.666,356,551s8.666-0.333,10.333,6.667
		s11.334,8.667,8.667,12S369.667,579,369.667,579s-4.334,6-7.667,8s-5.001,12.001-7.667,12.334s-9.666,2.333-6.333,6.333
		s7.333,4.999,11.333,9.333s9.334,7.333,13.334,8.333s5.334,0,8.667,0s10.333-2,10.333-2l5-4.667l4-3l4.333-0.333l4.667,2
		l8.333,2.333v-9l6.334,3l5.333,3.334l4.333-3l3.667-1.667l1.044,0.73l0.289-3.396l2.334-10.334l4.333-7.333l3.333,4.667
		l6.667-3.667h5l0.333,4l-1,6l-2,5l2,6.333l3.667,3.667l7,2.667l8.333-2l-1,11l5.334-4.334l5-6.333l4-6l3.666-8.333L495,591l4.334-6
		l3-3.667l2-6l0.622-3.94"/>
	<polyline fill="none" stroke="#363849" stroke-width="1.5" stroke-miterlimit="10" points="362.5,342.75 363.75,340.25 365.25,334 
		363.75,331 361,331 356.25,331 352.32,328.38 350,332 348.334,334.333 345,336.25 341,336.25 339.334,337.667 335.334,337.667 
		331.334,336.25 331.334,331.333 331.334,325 326,325.333 320,325.333 317.334,328.333 315,331.333 312.667,334.333 312.667,339.5 
		308.334,339.5 303.807,342.75 297.64,344.333 293.5,341 282,342.75 276.667,339.5 273,339.5 266,339.5 262.667,331.667 
		259,331.667 255.142,330.381 	"/>
	<polyline fill="none" stroke="#363849" stroke-width="1.5" stroke-miterlimit="10" points="357.8,377.101 358,372.5 355,372.5 
		351.5,370 349.75,366 348.75,359.75 349.5,356.5 352,354.75 355.75,353.25 358.25,350.25 361.25,345.25 362.5,342.75 	"/>
	<polyline fill="none" stroke="#363849" stroke-width="1.5" stroke-miterlimit="10" points="255.142,330.381 254,330 252,331.667 
		249.333,336.25 246,339.5 239.333,339.5 232.333,344.333 229.333,350 221.75,356.333 215.667,361.8 214.333,368 214.333,373.667 
		208.667,378 202,383.667 202,386.667 195,388.333 190.667,390.667 188,397 188,407.782 188.333,408 199,409.333 205.667,410.667 
		207,417.333 206.667,423 210,426.334 212.333,432.334 212,437.667 211,441.667 214.667,445 219.667,448.334 223,451.334 
		226.333,455.334 227,459 227.667,465.334 230,469.334 234,472.667 240.333,476 246.333,484.334 247.15,485.734 254.75,478.25 
		260.25,478.25 260.25,476.5 260.25,475.25 262.5,469.25 265.75,464 272,461.25 272,459 275.25,455.25 278.25,450 285,447.5 
		289,445 293.25,443.75 299.141,444 306.75,444.5 312.75,442.25 320.5,450 321.75,443.5 323.25,441.25 324.75,435.75 321.75,433 
		324.25,430.25 326.25,426.25 329.25,426.5 336.5,428.75 343,430.25 344.25,423 342.5,417 340,408.25 334.25,403.75 332.75,399.25 
		335,396 338.75,396 340.25,392.5 341.25,389.5 343.25,385.75 347.25,379.75 350,379.75 353.75,379.75 357.75,378.25 357.8,377.101 
			"/>
	<path fill="none" stroke="#363849" stroke-width="1.5" stroke-miterlimit="10" d="M395.962,488.442l2.038,0.892l5.667-2.334
		l0.333-5l-4.333-4l-2.333-2.333l1.333-6l2-4.667H409l8.667-2.333l1.333-5l3.25-5l3.417-5.333l1.667-7l-5.084-6l-3.916-7L412,424
		l-4.333-7l-5,1.333l-2.333,2.611v4.389l-2.667,2h-5.333h-1.667l-2.542-6.389h-2.791l-3.667-5.611l-3.333-6l1.666-4.667v-8.333
		l-2.333-6.667l-3-2.333L371,385l-2-2h-5.333l-3-5.167l-2.867-0.733l-0.05,1.149l-4,1.5H350h-2.75l-4,6l-2,3.75l-1,3l-1.5,3.5H335
		l-2.25,3.25l1.5,4.5l5.75,4.5l2.5,8.75l1.75,6l-1.25,7.25l-6.5-1.5l-7.25-2.25l-3-0.25l-2,4l-2.5,2.75l3,2.75l-1.5,5.5l-1.5,2.25
		l-1.25,6.5l-7.75-7.75l-6,2.25l-7.609-0.5l-5.891-0.25L289,445l-4,2.5l-6.75,2.5l-3,5.25L272,459v2.25l-6.25,2.75l-3.25,5.25
		l-2.25,6v1.25v1.75h-5.5l-7.6,7.484l1.516,2.6l9,7.333l1,5.333l7.667,4.667c0,0,4.333,2.667,4.667,3.667s8.333,7.332,8.333,8.666
		s8,9.334,8,9.334l3.333-2.667l2.333,2.667l8.333,1.666H303l3-3.333h6.667L317,524l2.667-0.666l4.333-2l8.667-0.667l5.666-2
		l4.334,2.667l3,4c0,0-0.401,3.618-0.44,6.606L354,527v-6.666l4.334-6l3.333-3.584l2-3.75l1.583-5l3.75-2.333l10.334-6L385,487
		h7.667L395.962,488.442"/>
	<path fill="none" stroke="#363849" stroke-width="1.5" stroke-miterlimit="10" d="M190.667,390.667l4.333-2.333l7-1.667v-3
		l6.667-5.667l5.667-4.333V368l1.333-6.2l6.083-5.467l7.583-6.333l3-5.667l7-4.833H246l3.333-3.25l2.667-4.583l2-1.667l1.142,0.381
		l-0.475-5.047l0.667-3.667L259,319h2.667v-3.333L259,312.333L254,309l-4.333-2.667l-5.333-5.667h-5.667l-5-4l-3-4.667l-8.917-1.667
		H218L211.667,292l-3.292-0.549c-0.383,2.136-2.019,4.871-4.042,5.882c-2.667,1.333-7,0.667-8.333,3.333s-5.666,4-6.333,6.333
		s4,4.667,3,6.667s0,7-3,10.667s-8.333,8-12,7s-6-2-7.333-2s-3.667-1.667-7,0.667s-7.333,0.625-11.667,1.479
		S140,334.333,135,336.333s-8.333,4.667-8.333,6c0,0.294-0.777,3.081-1.988,7.245l1.988-0.911c0,0,3.667-1.667,5.667,0
		s1.333,8.667,1.333,8.667L129.333,364l-3,10.333l5.667,7L144.667,389l20,9.667H173l7.667,4.333l7.333,4.782V397L190.667,390.667z"
		/>
	<path fill="none" stroke="#363849" stroke-width="1.5" stroke-miterlimit="10" d="M182.906,167l0.427-1.667V162l-9-8.667H179
		l4.333-5.333l5.667-4l4-7.333l4.667-3.333l5.333-6.667l4-6v-3.333l-4.667-6l-2.667-4l-6.667-8V88l-5.333-2.667v-12l-3.333-10v-8
		L179,48l-3.333,3.667l-5,3.333L164,59.667v3l-5,10.667L155.333,77v4.667l2,1.667l-2,6.333l-3.667,4V99l1.667,2l-1.667,5.333v4
		l-1.333,7.333H152l2.333,1.333l2.333,7l3.667,4.667l3,1.667l8.333,5.333l2,7.667L169.333,151l-7.667,3.333l-7-4.667l-4.333-4.333
		L145.667,146l-6.333-1.667l-3-2L131,140.667l-4-0.333L121.667,136l-4.333,6v2.667L114.667,153l-5,7l-2,5.333l-4,4h-5.333L93,162
		l-7,1l-4.667,0.333L79.667,168v4.333h-2V175l-6.333,3l-4.667,3v1.667l-5,2.667v2.333l-2,3.667l2.333,5h9.333L75,195l5,1.333L84,202
		l0.667,5.667l-0.333,6.667l1,4.667l1.333,4.667L87,227.333L86,230l-2.667,3.667L84,237l-0.667,4.667l-3,4.667l-2,1.333L78,252
		l1.333,1.667l0.333,3.667L76,258.667h-5.333l-8.333,8l-6.667,6.667l-2,5l-4.333,5l-4.667,4h-4.333l-6,3.667l-6.667,1.333l-7,1.333
		l-7,3.333v4l-1.333,4.667l3,4.333L18,313l2.667,4L21,320.667L25.667,323L31,315.667l2.667-2L37.333,316l6,7l3,3.333L48.667,330
		l0.667,5.333l-4,5.667L45,345.333l-2.333,6.333v3.667L58,350.667l8.333,3l-1,5.667L65,361.8h5.667l8.667-1.467l8.333-2L92,356
		h3.333l3.333,2.333l11-2.667l9-3.333l6.012-2.755c1.211-4.164,1.988-6.951,1.988-7.245c0-1.333,3.333-4,8.333-6
		s12.333-4,16.667-4.854S160,332.333,163.333,330s5.667-0.667,7-0.667s3.667,1,7.333,2s9-3.333,12-7s2-8.667,3-10.667
		s-3.667-4.333-3-6.667s5-3.667,6.333-6.333s5.667-2,8.333-3.333c2.022-1.011,3.658-3.747,4.042-5.882"/>
	<path fill="none" stroke="#363849" stroke-width="1.5" stroke-miterlimit="10" d="M208.375,291.451
		c0.122-0.68,0.12-1.301-0.042-1.784c-0.667-2-3-2.667-4.333-7.667s0-4,2-4.333s5.333-3.667,6.333-5.333s6.333-13.667,9.333-19.667
		s4-9.333,4-9.333s0-17.333,0-19.667S225,220,223,218.333s-10-3.667-14.333-3s-8-4.333-11.667-7s-2.333-4-6.667-9.667
		s-5.667-8.667-9.667-13.333s-0.667-7-0.667-7L182.906,167"/>
</g>
<g>
	<path fill="#85879E" d="M217.553,116.418v-1.633h18.304v1.633h-8.255v5.749h-1.863v-5.749H217.553z M234.73,103.104h-14.234v6.484
		h14.487v1.633h-16.327v-9.75h16.074V103.104z"/>
	<path fill="#85879E" d="M243.633,114.464c-0.759,2.713-3.173,4.921-5.956,5.933v-1.702c2.598-1.173,5.036-3.495,5.036-9.175v-8.048
		h1.84v8.048c0,5.68,2.46,7.933,5.013,9.175v1.702C246.83,119.339,244.438,117.154,243.633,114.464z M254.993,101.242v20.581h-1.862
		v-11.336h-5.105v-1.633h5.105v-7.611H254.993z"/>
	<path fill="#85879E" d="M258.837,112.395v-10.923h9.773v2.23h4.967v-2.46h1.84v14.326h-1.84v-5.289h-4.967v2.116H258.837z
		 M275.807,121.914h-15.683v-6.737h1.863v5.151h13.82V121.914z M266.793,103.082h-6.14v7.749h6.14V103.082z M268.61,105.289v3.403
		h4.967v-3.403H268.61z"/>
</g>
<g>
	<path fill="#85879E" d="M339.128,109.134v-1.633h18.304v1.633h-8.255v5.749h-1.862v-5.749H339.128z M356.305,95.82h-14.233v6.484
		h14.487v1.633h-16.327v-9.75h16.073V95.82z"/>
	<path fill="#85879E" d="M376.499,95.773h-13.89v3.703h14.027v1.563h-7.105v2.782h8.371v1.587h-18.535v-1.587h8.302v-2.782h-6.898
		v-6.853h15.729V95.773z M360.356,111.41c0-1.126,0.528-1.955,1.541-2.552c1.402-0.828,3.702-1.219,6.761-1.219
		s5.334,0.391,6.737,1.219c1.012,0.598,1.563,1.426,1.563,2.552c0,1.104-0.552,1.955-1.563,2.576
		c-1.403,0.828-3.679,1.173-6.737,1.173s-5.358-0.345-6.761-1.173C360.885,113.365,360.356,112.514,360.356,111.41z M362.219,111.41
		c0,0.529,0.276,0.966,0.805,1.288c1.012,0.621,2.898,0.92,5.635,0.92s4.621-0.299,5.633-0.92c0.553-0.322,0.805-0.759,0.805-1.288
		c0-0.506-0.252-0.943-0.805-1.288c-1.012-0.621-2.896-0.92-5.633-0.92s-4.623,0.299-5.635,0.92
		C362.495,110.467,362.219,110.904,362.219,111.41z"/>
	<path fill="#85879E" d="M380.412,105.11V94.187h9.773v2.23h4.967v-2.46h1.84v14.326h-1.84v-5.289h-4.967v2.116H380.412z
		 M397.383,114.629h-15.684v-6.737h1.863v5.151h13.82V114.629z M388.368,95.797h-6.14v7.749h6.14V95.797z M390.186,98.004v3.403
		h4.967v-3.403H390.186z"/>
</g>
<g>
	<path fill="#85879E" d="M384.52,212.42h6.209v-3.518h1.816v4.484h4.897v-4.714h1.84V220.4h-1.84v-5.404h-4.897v4.369h-9.842
		v-10.463h1.816V212.42z M383.99,229.483v-7.45h15.292v7.45H383.99z M390.729,217.778v-3.771h-6.209v3.771H390.729z
		 M397.442,223.619h-11.589v4.277h11.589V223.619z"/>
	<path fill="#85879E" d="M408.209,221.895c-0.76,2.713-3.174,4.921-5.956,5.933v-1.702c2.599-1.173,5.036-3.495,5.036-9.175v-8.048
		h1.84v8.048c0,5.68,2.46,7.933,5.012,9.175v1.702C411.404,226.77,409.014,224.585,408.209,221.895z M419.568,208.672v20.581h-1.863
		v-11.336h-5.104v-1.633h5.104v-7.611H419.568z"/>
	<path fill="#85879E" d="M422.723,219.549v-1.586h18.533v1.586H422.723z M423.711,212.306c0-1.058,0.482-1.84,1.357-2.415
		c1.402-0.874,3.816-1.219,6.943-1.219c3.105,0,5.543,0.345,6.922,1.219c0.896,0.575,1.38,1.357,1.38,2.415
		c0,1.035-0.483,1.816-1.38,2.392c-1.379,0.874-3.816,1.242-6.922,1.242c-3.127,0-5.541-0.368-6.943-1.242
		C424.193,214.122,423.711,213.34,423.711,212.306z M424.125,221.503h1.84v2.277h12.049v-2.277h1.84v7.979h-15.729V221.503z
		 M425.574,212.306c0,0.483,0.275,0.92,0.805,1.219c1.034,0.575,2.988,0.851,5.633,0.851c2.668,0,4.6-0.276,5.611-0.851
		c0.552-0.299,0.828-0.736,0.828-1.219c0-0.506-0.276-0.943-0.828-1.242c-1.012-0.575-2.943-0.851-5.611-0.851
		c-2.645,0-4.599,0.276-5.633,0.851C425.85,211.363,425.574,211.8,425.574,212.306z M438.014,227.919v-2.576h-12.049v2.576H438.014z
		"/>
</g>
<g>
	<path fill="#85879E" d="M249.335,258.421c0-2.023,0.621-3.587,1.702-4.599c0.897-0.828,2.139-1.288,3.633-1.288
		s2.736,0.46,3.61,1.288c0.943,0.851,1.518,2.115,1.679,3.702h4.392v-4.852h1.84v14.326h-1.84v-7.864h-4.369
		c-0.138,1.702-0.736,3.013-1.702,3.909c-0.874,0.851-2.115,1.288-3.61,1.288s-2.736-0.437-3.633-1.288
		C249.956,262.031,249.335,260.468,249.335,258.421z M266.581,273.345h-15.683v-6.737h1.863v5.151h13.82V273.345z M251.128,258.421
		c0,1.472,0.391,2.622,1.127,3.38c0.598,0.598,1.403,0.92,2.415,0.92s1.816-0.322,2.414-0.92c0.713-0.759,1.104-1.909,1.104-3.38
		s-0.391-2.621-1.104-3.38c-0.598-0.575-1.402-0.897-2.414-0.897s-1.817,0.322-2.415,0.897
		C251.52,255.8,251.128,256.949,251.128,258.421z"/>
	<path fill="#85879E" d="M269.437,257.869c0-1.816,0.598-3.219,1.656-4.116c0.896-0.805,2.185-1.219,3.679-1.219
		c1.518,0,2.759,0.414,3.679,1.219c1.081,0.897,1.655,2.3,1.655,4.116c0,1.817-0.575,3.242-1.655,4.139
		c-0.92,0.782-2.162,1.219-3.679,1.219c-1.495,0-2.783-0.437-3.679-1.219C270.035,261.111,269.437,259.686,269.437,257.869z
		 M270.61,269.505c0-1.196,0.575-2.139,1.541-2.806c1.426-1.012,3.702-1.495,6.416-1.495s4.99,0.483,6.393,1.495
		c0.966,0.667,1.541,1.61,1.541,2.806s-0.575,2.138-1.541,2.828c-1.403,0.989-3.679,1.426-6.393,1.426s-4.99-0.437-6.416-1.426
		C271.185,271.643,270.61,270.701,270.61,269.505z M271.23,257.869c0,1.242,0.391,2.23,1.058,2.875
		c0.621,0.552,1.449,0.874,2.484,0.874c1.012,0,1.885-0.322,2.46-0.874c0.689-0.644,1.058-1.633,1.058-2.875
		c0-1.219-0.368-2.208-1.058-2.851c-0.575-0.575-1.449-0.874-2.46-0.874c-1.035,0-1.863,0.299-2.484,0.874
		C271.622,255.662,271.23,256.65,271.23,257.869z M272.472,269.505c0,0.644,0.345,1.219,0.989,1.655
		c0.989,0.69,2.783,1.012,5.105,1.012c2.299,0,4.093-0.322,5.128-1.012c0.621-0.437,0.943-1.012,0.943-1.655
		c0-0.667-0.322-1.242-0.943-1.656c-1.035-0.69-2.829-1.035-5.128-1.035c-2.322,0-4.116,0.345-5.105,1.035
		C272.817,268.263,272.472,268.838,272.472,269.505z M285.97,255.11h3.036v1.61h-3.036v3.173h3.036v1.633h-3.036v2.852h-1.839
		v-11.705h1.839V255.11z"/>
	<path fill="#85879E" d="M289.63,263.549v-1.586h18.534v1.586H289.63z M290.619,256.306c0-1.058,0.483-1.84,1.357-2.415
		c1.403-0.874,3.817-1.219,6.944-1.219c3.105,0,5.542,0.345,6.921,1.219c0.896,0.575,1.38,1.357,1.38,2.415
		c0,1.035-0.483,1.816-1.38,2.392c-1.379,0.874-3.816,1.242-6.921,1.242c-3.127,0-5.542-0.368-6.944-1.242
		C291.102,258.122,290.619,257.34,290.619,256.306z M291.033,265.503h1.839v2.277h12.049v-2.277h1.84v7.979h-15.729V265.503z
		 M292.482,256.306c0,0.483,0.276,0.92,0.805,1.219c1.035,0.575,2.989,0.851,5.634,0.851c2.667,0,4.599-0.276,5.611-0.851
		c0.552-0.299,0.828-0.736,0.828-1.219c0-0.506-0.276-0.943-0.828-1.242c-1.012-0.575-2.943-0.851-5.611-0.851
		c-2.645,0-4.599,0.276-5.634,0.851C292.758,255.363,292.482,255.8,292.482,256.306z M304.922,271.919v-2.576h-12.049v2.576H304.922
		z"/>
</g>
<g>
	<path fill="#85879E" d="M115.518,246.788v2.69c0,3.542,2.253,5.542,4.898,6.37v1.656c-2.69-0.713-4.875-2.368-5.841-4.277
		c-0.805,1.955-2.989,3.771-5.794,4.53v-1.679c2.69-0.851,4.898-3.15,4.898-6.6v-2.69H115.518z M110.459,263.505
		c0-1.196,0.575-2.139,1.541-2.806c1.426-1.012,3.702-1.495,6.416-1.495s4.99,0.483,6.393,1.495c0.966,0.667,1.541,1.61,1.541,2.806
		s-0.575,2.138-1.541,2.828c-1.403,0.989-3.679,1.426-6.393,1.426s-4.99-0.437-6.416-1.426
		C111.034,265.643,110.459,264.701,110.459,263.505z M112.321,263.505c0,0.644,0.345,1.219,0.989,1.655
		c0.989,0.69,2.783,1.012,5.105,1.012c2.299,0,4.093-0.322,5.128-1.012c0.621-0.437,0.943-1.012,0.943-1.655
		c0-0.667-0.322-1.242-0.943-1.656c-1.035-0.69-2.829-1.035-5.128-1.035c-2.322,0-4.116,0.345-5.105,1.035
		C112.667,262.263,112.321,262.838,112.321,263.505z M125.819,246.672v4.783h3.15v1.632h-3.15v5.289h-1.839v-11.705H125.819z"/>
	<path fill="#85879E" d="M129.48,258.883v-1.587h18.534v1.587h-8.347v3.012h6.944v5.703h-1.839v-4.139h-14.05v-1.564h7.083v-3.012
		H129.48z M132.722,249.34h12.05v-2.438h1.839v8.209h-15.729v-8.209h1.839V249.34z M144.772,253.525v-2.599h-12.05v2.599H144.772z"
		/>
	<path fill="#85879E" d="M150.524,257.825v-10.923h9.773v2.23h4.967v-2.46h1.84v14.326h-1.84v-5.289h-4.967v2.116H150.524z
		 M167.495,267.345h-15.683v-6.737h1.863v5.151h13.82V267.345z M158.48,248.512h-6.14v7.749h6.14V248.512z M160.297,250.72v3.403
		h4.967v-3.403H160.297z"/>
</g>
<g>
	<path fill="#85879E" d="M163.518,337.554v2.69c0,3.542,2.253,5.542,4.898,6.37v1.656c-2.69-0.713-4.875-2.368-5.841-4.277
		c-0.805,1.955-2.989,3.771-5.794,4.53v-1.679c2.69-0.851,4.898-3.15,4.898-6.6v-2.69H163.518z M158.459,354.271
		c0-1.196,0.575-2.139,1.541-2.806c1.426-1.012,3.702-1.495,6.416-1.495s4.99,0.483,6.393,1.495c0.966,0.667,1.541,1.61,1.541,2.806
		s-0.575,2.138-1.541,2.828c-1.403,0.989-3.679,1.426-6.393,1.426s-4.99-0.437-6.416-1.426
		C159.034,356.409,158.459,355.467,158.459,354.271z M160.321,354.271c0,0.644,0.345,1.219,0.989,1.655
		c0.989,0.69,2.783,1.012,5.105,1.012c2.299,0,4.093-0.322,5.128-1.012c0.621-0.437,0.943-1.012,0.943-1.655
		c0-0.667-0.322-1.242-0.943-1.656c-1.035-0.69-2.829-1.035-5.128-1.035c-2.322,0-4.116,0.345-5.105,1.035
		C160.667,353.029,160.321,353.604,160.321,354.271z M173.819,337.438v4.783h3.15v1.632h-3.15v5.289h-1.839v-11.705H173.819z"/>
	<path fill="#85879E" d="M187.207,347.166h-9.313v-9.612h1.839v8.025h7.934c2.069,0,3.61-0.322,4.668-1.173v-6.967h1.839v4.783h3.15
		v1.632h-3.15v5.036h-1.839v-2.92C191.323,346.82,189.622,347.166,187.207,347.166z M179.09,358.249v-7.704h15.084v7.704H179.09z
		 M192.335,352.132h-11.406v4.53h11.406V352.132z"/>
	<path fill="#85879E" d="M198.524,348.591v-10.923h9.773v2.23h4.967v-2.46h1.84v14.326h-1.84v-5.289h-4.967v2.116H198.524z
		 M215.495,358.111h-15.683v-6.737h1.863v5.151h13.82V358.111z M206.48,339.278h-6.14v7.749h6.14V339.278z M208.297,341.486v3.403
		h4.967v-3.403H208.297z"/>
</g>
<g>
	<path fill="#85879E" d="M251.518,382.554v2.69c0,3.542,2.253,5.542,4.898,6.37v1.656c-2.69-0.713-4.875-2.368-5.841-4.277
		c-0.805,1.955-2.989,3.771-5.794,4.53v-1.679c2.69-0.851,4.898-3.15,4.898-6.6v-2.69H251.518z M246.735,403.249v-7.704h15.084
		v7.704H246.735z M259.98,397.132h-11.406v4.53h11.406V397.132z M261.819,382.438v4.783h3.15v1.632h-3.15v5.036h-1.839v-11.452
		H261.819z"/>
	<path fill="#85879E" d="M282.611,384.255h-13.889v3.703h14.027v1.563h-7.105v2.782h8.37v1.587H265.48v-1.587h8.301v-2.782h-6.898
		v-6.853h15.729V384.255z M266.469,399.892c0-1.126,0.529-1.955,1.541-2.552c1.402-0.828,3.702-1.219,6.76-1.219
		c3.059,0,5.335,0.391,6.738,1.219c1.012,0.598,1.563,1.426,1.563,2.552c0,1.104-0.552,1.955-1.563,2.576
		c-1.403,0.828-3.679,1.173-6.738,1.173c-3.058,0-5.358-0.345-6.76-1.173C266.998,401.846,266.469,400.996,266.469,399.892z
		 M268.332,399.892c0,0.529,0.276,0.966,0.805,1.288c1.012,0.621,2.897,0.92,5.634,0.92s4.622-0.299,5.634-0.92
		c0.552-0.322,0.805-0.759,0.805-1.288c0-0.506-0.253-0.943-0.805-1.288c-1.012-0.621-2.897-0.92-5.634-0.92
		s-4.622,0.299-5.634,0.92C268.607,398.949,268.332,399.386,268.332,399.892z"/>
	<path fill="#85879E" d="M286.524,393.591v-10.923h9.773v2.23h4.966v-2.46h1.84v14.326h-1.84v-5.289h-4.966v2.116H286.524z
		 M303.494,403.111h-15.682v-6.737h1.863v5.151h13.819V403.111z M294.48,384.278h-6.14v7.749h6.14V384.278z M296.297,386.486v3.403
		h4.966v-3.403H296.297z"/>
</g>
<g>
	<path fill="#85879E" d="M423.795,410.172h4.3v-2.553h1.839v2.553h4.301v1.609h-4.301v0.276c0,3.426,2.186,5.312,4.668,5.863v1.679
		c-2.482-0.552-4.599-2.023-5.541-3.932c-0.943,1.955-3.059,3.702-5.611,4.208v-1.678c2.553-0.575,4.646-2.667,4.646-6.14v-0.276
		h-4.3V410.172z M424.76,425.279c0-1.287,0.668-2.207,1.794-2.852c1.472-0.874,3.702-1.241,6.231-1.241
		c2.553,0,4.783,0.368,6.255,1.241c1.104,0.645,1.794,1.564,1.794,2.852c0,1.288-0.689,2.207-1.794,2.875
		c-1.472,0.851-3.702,1.195-6.255,1.195c-2.529,0-4.76-0.345-6.231-1.195C425.428,427.486,424.76,426.567,424.76,425.279z
		 M426.623,425.279c0,0.645,0.345,1.15,0.966,1.541c1.058,0.644,2.92,0.966,5.196,0.966c2.322,0,4.162-0.322,5.221-0.966
		c0.644-0.391,0.988-0.896,0.988-1.541c0-0.644-0.345-1.127-0.988-1.518c-1.059-0.644-2.898-0.966-5.221-0.966
		c-2.276,0-4.139,0.322-5.196,0.966C426.968,424.152,426.623,424.636,426.623,425.279z M440.374,420.221h-1.84v-4.829h-4.483v-1.609
		h4.483v-5.519h1.84V420.221z"/>
	<path fill="#85879E" d="M453.209,419.554h-9.336v-6.347h7.888v-3.15h-7.888v-1.563h9.75v6.255h-7.91v3.242h7.934
		c2.047,0,3.609-0.322,4.668-1.127v-8.6h1.84v2.805h3.035v1.61h-3.035v3.059h3.035v1.632h-3.035v3.426h-1.84v-2.46
		C457.279,419.209,455.578,419.554,453.209,419.554z M444.793,425.556c0-1.104,0.575-1.954,1.564-2.553
		c1.379-0.874,3.587-1.265,6.393-1.265c2.781,0,5.013,0.391,6.393,1.265c0.988,0.599,1.54,1.448,1.54,2.553
		c0,1.104-0.552,1.954-1.54,2.575c-1.38,0.852-3.611,1.219-6.393,1.219c-2.806,0-5.014-0.367-6.393-1.219
		C445.368,427.51,444.793,426.659,444.793,425.556z M446.656,425.556c0,0.506,0.252,0.989,0.805,1.333
		c0.988,0.598,2.828,0.897,5.289,0.897c2.46,0,4.277-0.3,5.266-0.897c0.552-0.344,0.805-0.827,0.805-1.333
		c0-0.529-0.253-0.966-0.805-1.312c-0.988-0.62-2.806-0.896-5.266-0.896c-2.461,0-4.301,0.276-5.289,0.896
		C446.908,424.59,446.656,425.026,446.656,425.556z"/>
	<path fill="#85879E" d="M464.504,419.416v-10.923h9.773v2.23h4.967v-2.46h1.84v14.326h-1.84V417.3h-4.967v2.116H464.504z
		 M481.475,428.936h-15.684v-6.737h1.863v5.151h13.82V428.936z M472.46,410.103h-6.14v7.749h6.14V410.103z M474.277,412.311v3.403
		h4.967v-3.403H474.277z"/>
</g>
<g>
	<path fill="#85879E" d="M313.967,469.484v-1.609h18.534v1.609h-8.37v2.461c2.621,0.092,4.599,0.482,5.863,1.219
		c1.012,0.598,1.564,1.426,1.564,2.553c0,1.104-0.553,1.954-1.564,2.575c-1.402,0.827-3.679,1.173-6.737,1.173
		c-3.058,0-5.358-0.346-6.761-1.173c-1.012-0.621-1.541-1.472-1.541-2.575c0-1.127,0.529-1.955,1.541-2.553
		c1.242-0.736,3.22-1.127,5.795-1.195v-2.484H313.967z M314.955,461.988c0-1.012,0.461-1.793,1.288-2.392
		c1.403-0.966,3.863-1.333,7.014-1.333c3.128,0,5.61,0.367,7.014,1.333c0.805,0.599,1.288,1.38,1.288,2.392
		c0,1.035-0.483,1.816-1.288,2.392c-1.403,0.989-3.886,1.38-7.014,1.38c-3.15,0-5.61-0.391-7.014-1.38
		C315.416,463.805,314.955,463.023,314.955,461.988z M316.818,461.988c0,0.506,0.23,0.92,0.713,1.242
		c1.012,0.666,2.989,0.942,5.726,0.942s4.737-0.276,5.702-0.942c0.506-0.322,0.736-0.736,0.736-1.242
		c0-0.482-0.23-0.873-0.736-1.195c-0.965-0.689-2.966-0.967-5.702-0.967s-4.714,0.277-5.726,0.967
		C317.049,461.115,316.818,461.506,316.818,461.988z M316.818,475.717c0,0.528,0.275,0.965,0.805,1.287
		c1.012,0.621,2.897,0.92,5.634,0.92s4.622-0.299,5.634-0.92c0.552-0.322,0.805-0.759,0.805-1.287c0-0.506-0.253-0.943-0.805-1.288
		c-1.012-0.621-2.897-0.92-5.634-0.92s-4.622,0.299-5.634,0.92C317.094,474.773,316.818,475.211,316.818,475.717z"/>
	<path fill="#85879E" d="M334.322,471.508v-1.609h8.301v-3.334h1.863v3.334h8.369v1.609H334.322z M335.725,461.299v-1.564h6.898
		v-2.253h1.863v2.253h6.967v1.564h-6.967v0.046c0,2.345,4.023,4.185,7.22,4.415v1.563c-3.288-0.185-6.691-1.771-8.14-3.656
		c-1.473,1.954-4.898,3.495-8.164,3.656v-1.563c3.174-0.184,7.221-2.07,7.221-4.415v-0.046H335.725z M337.564,473.486v3.863h14.303
		v1.586h-16.143v-5.449H337.564z"/>
	<path fill="#85879E" d="M355.366,469.416v-10.923h9.772v2.23h4.967v-2.46h1.84v14.325h-1.84v-5.288h-4.967v2.115H355.366z
		 M372.336,478.936h-15.682v-6.737h1.862v5.151h13.819V478.936z M363.322,460.104h-6.14v7.748h6.14V460.104z M365.139,462.311v3.402
		h4.967v-3.402H365.139z"/>
</g>
<g>
	<path fill="#85879E" d="M507.715,516.695c0-1.196,0.506-2.116,1.449-2.736c1.426-1.012,3.863-1.381,6.853-1.381
		c3.013,0,5.403,0.369,6.853,1.381c0.943,0.62,1.449,1.54,1.449,2.736c0,1.195-0.506,2.092-1.449,2.759
		c-1.311,0.92-3.381,1.311-5.979,1.38v2.852h8.37v1.609h-18.534v-1.609h8.301v-2.875c-2.529-0.068-4.599-0.459-5.863-1.356
		C508.221,518.787,507.715,517.891,507.715,516.695z M509.969,527.434v4.23h14.303v1.587h-16.143v-5.817H509.969z M509.578,516.695
		c0,0.666,0.299,1.219,0.92,1.632c0.988,0.667,2.874,0.942,5.519,0.942s4.507-0.275,5.519-0.942c0.621-0.413,0.92-0.966,0.92-1.632
		c0-0.69-0.299-1.219-0.92-1.61c-1.012-0.667-2.874-0.966-5.519-0.966s-4.53,0.299-5.519,0.966
		C509.877,515.477,509.578,516.005,509.578,516.695z"/>
	<path fill="#85879E" d="M533.475,512.693v3.656c0,3.541,2.253,5.564,4.897,6.393v1.656c-2.69-0.713-4.875-2.369-5.841-4.277
		c-0.805,1.955-2.989,3.771-5.795,4.529v-1.678c2.691-0.852,4.898-3.15,4.898-6.623v-3.656H533.475z M530.531,526.514v5.15h13.636
		v1.587h-15.476v-6.737H530.531z M543.775,512.578v5.818h3.15v1.633h-3.15v6.875h-1.839v-14.326H543.775z"/>
	<path fill="#85879E" d="M547.436,523.455v-1.586h18.535v1.586H547.436z M548.425,516.212c0-1.058,0.483-1.84,1.356-2.415
		c1.403-0.873,3.817-1.219,6.945-1.219c3.104,0,5.541,0.346,6.921,1.219c0.897,0.575,1.38,1.357,1.38,2.415
		c0,1.034-0.482,1.816-1.38,2.392c-1.38,0.873-3.817,1.242-6.921,1.242c-3.128,0-5.542-0.369-6.945-1.242
		C548.908,518.028,548.425,517.246,548.425,516.212z M548.839,525.41h1.839v2.276h12.051v-2.276h1.839v7.979h-15.729V525.41z
		 M550.287,516.212c0,0.483,0.276,0.92,0.805,1.219c1.035,0.575,2.99,0.851,5.635,0.851c2.667,0,4.599-0.275,5.61-0.851
		c0.552-0.299,0.827-0.735,0.827-1.219c0-0.506-0.275-0.942-0.827-1.241c-1.012-0.576-2.943-0.852-5.61-0.852
		c-2.645,0-4.6,0.275-5.635,0.852C550.563,515.27,550.287,515.706,550.287,516.212z M562.729,531.826v-2.576h-12.051v2.576H562.729z
		"/>
</g>
<g>
	<path fill="#85879E" d="M397.715,537.695c0-1.196,0.506-2.116,1.449-2.736c1.426-1.012,3.863-1.381,6.853-1.381
		c3.013,0,5.403,0.369,6.853,1.381c0.943,0.62,1.449,1.54,1.449,2.736c0,1.195-0.506,2.092-1.449,2.759
		c-1.311,0.92-3.381,1.311-5.979,1.38v2.852h8.37v1.609h-18.534v-1.609h8.301v-2.875c-2.529-0.068-4.599-0.459-5.863-1.356
		C398.221,539.787,397.715,538.891,397.715,537.695z M399.969,548.434v4.23h14.303v1.587h-16.143v-5.817H399.969z M399.578,537.695
		c0,0.666,0.299,1.219,0.92,1.632c0.988,0.667,2.874,0.942,5.519,0.942s4.507-0.275,5.519-0.942c0.621-0.413,0.92-0.966,0.92-1.632
		c0-0.69-0.299-1.219-0.92-1.61c-1.012-0.667-2.874-0.966-5.519-0.966s-4.53,0.299-5.519,0.966
		C399.877,536.477,399.578,537.005,399.578,537.695z"/>
	<path fill="#85879E" d="M417.242,538.775c0-1.816,0.598-3.219,1.656-4.116c0.896-0.805,2.185-1.219,3.68-1.219
		c1.518,0,2.759,0.414,3.679,1.219c1.081,0.897,1.655,2.3,1.655,4.116s-0.574,3.242-1.655,4.139
		c-0.92,0.782-2.161,1.219-3.679,1.219c-1.495,0-2.783-0.437-3.68-1.219C417.84,542.018,417.242,540.592,417.242,538.775z
		 M418.416,550.411c0-1.196,0.574-2.139,1.54-2.806c1.426-1.012,3.702-1.494,6.415-1.494c2.714,0,4.99,0.482,6.393,1.494
		c0.967,0.667,1.541,1.609,1.541,2.806s-0.574,2.138-1.541,2.828c-1.402,0.989-3.679,1.426-6.393,1.426
		c-2.713,0-4.989-0.437-6.415-1.426C418.99,552.549,418.416,551.607,418.416,550.411z M419.036,538.775
		c0,1.242,0.392,2.23,1.058,2.875c0.621,0.551,1.449,0.873,2.484,0.873c1.012,0,1.885-0.322,2.46-0.873
		c0.689-0.645,1.058-1.633,1.058-2.875c0-1.219-0.368-2.207-1.058-2.852c-0.575-0.574-1.448-0.873-2.46-0.873
		c-1.035,0-1.863,0.299-2.484,0.873C419.428,536.568,419.036,537.557,419.036,538.775z M420.277,550.411
		c0,0.644,0.346,1.219,0.989,1.655c0.989,0.689,2.782,1.012,5.104,1.012c2.3,0,4.094-0.322,5.129-1.012
		c0.621-0.437,0.942-1.012,0.942-1.655c0-0.667-0.321-1.241-0.942-1.655c-1.035-0.69-2.829-1.035-5.129-1.035
		c-2.322,0-4.115,0.345-5.104,1.035C420.623,549.17,420.277,549.744,420.277,550.411z M433.775,536.016h3.036v1.61h-3.036v3.173
		h3.036v1.633h-3.036v2.852h-1.839v-11.705h1.839V536.016z"/>
	<path fill="#85879E" d="M437.436,544.455v-1.586h18.535v1.586H437.436z M438.425,537.212c0-1.058,0.483-1.84,1.356-2.415
		c1.403-0.873,3.817-1.219,6.945-1.219c3.104,0,5.541,0.346,6.921,1.219c0.897,0.575,1.38,1.357,1.38,2.415
		c0,1.034-0.482,1.816-1.38,2.392c-1.38,0.873-3.817,1.242-6.921,1.242c-3.128,0-5.542-0.369-6.945-1.242
		C438.908,539.028,438.425,538.246,438.425,537.212z M438.839,546.41h1.839v2.276h12.051v-2.276h1.839v7.979h-15.729V546.41z
		 M440.287,537.212c0,0.483,0.276,0.92,0.805,1.219c1.035,0.575,2.99,0.851,5.635,0.851c2.667,0,4.599-0.275,5.61-0.851
		c0.552-0.299,0.827-0.735,0.827-1.219c0-0.506-0.275-0.942-0.827-1.241c-1.012-0.576-2.943-0.852-5.61-0.852
		c-2.645,0-4.6,0.275-5.635,0.852C440.563,536.27,440.287,536.706,440.287,537.212z M452.729,552.826v-2.576h-12.051v2.576H452.729z
		"/>
</g>
<g>
	<path fill="#85879E" d="M488.567,646.801c-0.759,2.713-3.173,4.921-5.956,5.933v-1.702c2.599-1.172,5.036-3.494,5.036-9.174v-8.049
		h1.84v8.049c0,5.68,2.46,7.933,5.013,9.174v1.702C491.764,651.676,489.372,649.491,488.567,646.801z M499.927,633.578v20.581
		h-1.862v-11.337h-5.105v-1.633h5.105v-7.611H499.927z"/>
	<path fill="#85879E" d="M507.496,640.5c-0.689,1.771-2.621,3.519-4.713,4.369v-1.725c1.932-0.966,3.793-2.967,3.793-6.277v-3.174
		h1.817v3.127c0,3.313,1.816,4.99,3.794,5.864v1.702C510.118,643.696,508.256,642.201,507.496,640.5z M504.691,650.525
		c0-1.219,0.598-2.115,1.541-2.759c1.494-1.012,3.908-1.426,6.622-1.426c2.736,0,5.151,0.414,6.622,1.426
		c0.967,0.644,1.541,1.54,1.541,2.759c0,1.196-0.574,2.094-1.541,2.76c-1.471,1.012-3.886,1.38-6.622,1.38
		c-2.714,0-5.128-0.368-6.622-1.38C505.289,652.619,504.691,651.722,504.691,650.525z M506.531,650.525
		c0,0.645,0.345,1.127,0.92,1.518c1.08,0.736,3.058,1.059,5.403,1.059c2.368,0,4.323-0.322,5.403-1.059
		c0.575-0.391,0.897-0.873,0.897-1.518c0-0.643-0.322-1.149-0.897-1.563c-1.08-0.713-3.035-1.012-5.403-1.012
		c-2.346,0-4.323,0.299-5.403,1.012C506.876,649.376,506.531,649.883,506.531,650.525z M513.844,644.869v-11.176h1.747v4.416h3.288
		v-4.531h1.794v11.659h-1.794v-5.519h-3.288v5.15H513.844z"/>
	<path fill="#85879E" d="M524.126,644.731v-10.923h9.772v2.23h4.967v-2.461h1.84v14.326h-1.84v-5.289h-4.967v2.116H524.126z
		 M541.096,654.251h-15.682v-6.737h1.862v5.15h13.819V654.251z M532.082,635.418h-6.14v7.75h6.14V635.418z M533.898,637.626v3.403
		h4.967v-3.403H533.898z"/>
</g>
</svg>
